%TF.GenerationSoftware,KiCad,Pcbnew,7.0.6*%
%TF.CreationDate,2024-05-15T12:06:43-04:00*%
%TF.ProjectId,remote_omnidirection_droid_v0.1,72656d6f-7465-45f6-9f6d-6e6964697265,rev?*%
%TF.SameCoordinates,Original*%
%TF.FileFunction,Legend,Bot*%
%TF.FilePolarity,Positive*%
%FSLAX46Y46*%
G04 Gerber Fmt 4.6, Leading zero omitted, Abs format (unit mm)*
G04 Created by KiCad (PCBNEW 7.0.6) date 2024-05-15 12:06:43*
%MOMM*%
%LPD*%
G01*
G04 APERTURE LIST*
%ADD10C,0.150000*%
%ADD11C,0.600000*%
%ADD12C,0.120000*%
%ADD13C,1.000000*%
%ADD14C,0.200000*%
%ADD15C,0.050000*%
%ADD16C,0.300000*%
%ADD17C,0.127000*%
G04 APERTURE END LIST*
D10*
X68699815Y-64538528D02*
X68454089Y-64011757D01*
X68985530Y-64043656D02*
X68119504Y-63543656D01*
X68119504Y-63543656D02*
X67929028Y-63873571D01*
X67929028Y-63873571D02*
X67922648Y-63979859D01*
X67922648Y-63979859D02*
X67940078Y-64044908D01*
X67940078Y-64044908D02*
X67998747Y-64133766D01*
X67998747Y-64133766D02*
X68122465Y-64205195D01*
X68122465Y-64205195D02*
X68228753Y-64211574D01*
X68228753Y-64211574D02*
X68293802Y-64194144D01*
X68293802Y-64194144D02*
X68382660Y-64135475D01*
X68382660Y-64135475D02*
X68573137Y-63805561D01*
X68223625Y-65363314D02*
X68509339Y-64868442D01*
X68366482Y-65115878D02*
X67500457Y-64615878D01*
X67500457Y-64615878D02*
X67671794Y-64604828D01*
X67671794Y-64604828D02*
X67801891Y-64569969D01*
X67801891Y-64569969D02*
X67890750Y-64511299D01*
X108453406Y-145462743D02*
X109453406Y-145462743D01*
X109453406Y-145462743D02*
X108739121Y-145129410D01*
X108739121Y-145129410D02*
X109453406Y-144796077D01*
X109453406Y-144796077D02*
X108453406Y-144796077D01*
X109453406Y-144415124D02*
X109453406Y-143796077D01*
X109453406Y-143796077D02*
X109072454Y-144129410D01*
X109072454Y-144129410D02*
X109072454Y-143986553D01*
X109072454Y-143986553D02*
X109024835Y-143891315D01*
X109024835Y-143891315D02*
X108977216Y-143843696D01*
X108977216Y-143843696D02*
X108881978Y-143796077D01*
X108881978Y-143796077D02*
X108643883Y-143796077D01*
X108643883Y-143796077D02*
X108548645Y-143843696D01*
X108548645Y-143843696D02*
X108501026Y-143891315D01*
X108501026Y-143891315D02*
X108453406Y-143986553D01*
X108453406Y-143986553D02*
X108453406Y-144272267D01*
X108453406Y-144272267D02*
X108501026Y-144367505D01*
X108501026Y-144367505D02*
X108548645Y-144415124D01*
D11*
X99931568Y-145653219D02*
X102931568Y-145653219D01*
X102931568Y-145653219D02*
X100788711Y-144653219D01*
X100788711Y-144653219D02*
X102931568Y-143653219D01*
X102931568Y-143653219D02*
X99931568Y-143653219D01*
D10*
G36*
X101312720Y-156968099D02*
G01*
X101343127Y-156998506D01*
X101377385Y-157067021D01*
X101377385Y-157174468D01*
X101343127Y-157242984D01*
X101312720Y-157273391D01*
X101244204Y-157307650D01*
X100955957Y-157307650D01*
X100955957Y-156933841D01*
X101244204Y-156933841D01*
X101312720Y-156968099D01*
G37*
G36*
X102265101Y-157015718D02*
G01*
X102295508Y-157046125D01*
X102329766Y-157114641D01*
X102329766Y-157174468D01*
X102295508Y-157242984D01*
X102265100Y-157273392D01*
X102196585Y-157307650D01*
X101955957Y-157307650D01*
X101955957Y-156981460D01*
X102196585Y-156981460D01*
X102265101Y-157015718D01*
G37*
G36*
X102312719Y-156491908D02*
G01*
X102343127Y-156522316D01*
X102377385Y-156590832D01*
X102377385Y-156698279D01*
X102343127Y-156766794D01*
X102316633Y-156793288D01*
X102202120Y-156831460D01*
X101955957Y-156831460D01*
X101955957Y-156457650D01*
X102244203Y-156457650D01*
X102312719Y-156491908D01*
G37*
G36*
X103312719Y-156491908D02*
G01*
X103384662Y-156563851D01*
X103425004Y-156725218D01*
X103425004Y-157040083D01*
X103384662Y-157201449D01*
X103312720Y-157273391D01*
X103244204Y-157307650D01*
X103089138Y-157307650D01*
X103020622Y-157273392D01*
X102948679Y-157201449D01*
X102908338Y-157040083D01*
X102908338Y-156725218D01*
X102948679Y-156563851D01*
X103020621Y-156491909D01*
X103089139Y-156457650D01*
X103244203Y-156457650D01*
X103312719Y-156491908D01*
G37*
G36*
X100214290Y-157145479D02*
G01*
X100080252Y-156743365D01*
X100348328Y-156743365D01*
X100214290Y-157145479D01*
G37*
G36*
X104717406Y-157600507D02*
G01*
X97853576Y-157600507D01*
X97853576Y-156954079D01*
X97996433Y-156954079D01*
X97997618Y-156957336D01*
X97998672Y-156972269D01*
X98046291Y-157162745D01*
X98048279Y-157165689D01*
X98051970Y-157178096D01*
X98099589Y-157273334D01*
X98100778Y-157274459D01*
X98113638Y-157292826D01*
X98208876Y-157388064D01*
X98212940Y-157389959D01*
X98215287Y-157393779D01*
X98238192Y-157406182D01*
X98381048Y-157453801D01*
X98382683Y-157453756D01*
X98404766Y-157457650D01*
X98547623Y-157457650D01*
X98551836Y-157456116D01*
X98556197Y-157457158D01*
X98581164Y-157449732D01*
X98676402Y-157402113D01*
X98694830Y-157382650D01*
X99044052Y-157382650D01*
X99050715Y-157400958D01*
X99054100Y-157420150D01*
X99059284Y-157424500D01*
X99061599Y-157430859D01*
X99078472Y-157440601D01*
X99093400Y-157453127D01*
X99103142Y-157454844D01*
X99106028Y-157456511D01*
X99109310Y-157455932D01*
X99119052Y-157457650D01*
X99595242Y-157457650D01*
X99643451Y-157440103D01*
X99669103Y-157395674D01*
X99660194Y-157345150D01*
X99620894Y-157312173D01*
X99595242Y-157307650D01*
X99194052Y-157307650D01*
X99194052Y-156981460D01*
X99452385Y-156981460D01*
X99500594Y-156963913D01*
X99526246Y-156919484D01*
X99517337Y-156868960D01*
X99478037Y-156835983D01*
X99452385Y-156831460D01*
X99194052Y-156831460D01*
X99194052Y-156457650D01*
X99595242Y-156457650D01*
X99643451Y-156440103D01*
X99669103Y-156395674D01*
X99666445Y-156380601D01*
X99805985Y-156380601D01*
X99809806Y-156406367D01*
X100143139Y-157406367D01*
X100144481Y-157408058D01*
X100144540Y-157410217D01*
X100160289Y-157427978D01*
X100175030Y-157446553D01*
X100177143Y-157446985D01*
X100178577Y-157448602D01*
X100202047Y-157452082D01*
X100225291Y-157456839D01*
X100227190Y-157455810D01*
X100229326Y-157456127D01*
X100249539Y-157443708D01*
X100270405Y-157432410D01*
X100271198Y-157430402D01*
X100273038Y-157429272D01*
X100285441Y-157406367D01*
X100293347Y-157382650D01*
X100805957Y-157382650D01*
X100812620Y-157400958D01*
X100816005Y-157420150D01*
X100821189Y-157424500D01*
X100823504Y-157430859D01*
X100840377Y-157440601D01*
X100855305Y-157453127D01*
X100865047Y-157454844D01*
X100867933Y-157456511D01*
X100871215Y-157455932D01*
X100880957Y-157457650D01*
X101261909Y-157457650D01*
X101266122Y-157456116D01*
X101270483Y-157457158D01*
X101295450Y-157449732D01*
X101390688Y-157402113D01*
X101391813Y-157400923D01*
X101410180Y-157388064D01*
X101415594Y-157382650D01*
X101805957Y-157382650D01*
X101812620Y-157400958D01*
X101816005Y-157420150D01*
X101821189Y-157424500D01*
X101823504Y-157430859D01*
X101840377Y-157440601D01*
X101855305Y-157453127D01*
X101865047Y-157454844D01*
X101867933Y-157456511D01*
X101871215Y-157455932D01*
X101880957Y-157457650D01*
X102214290Y-157457650D01*
X102218503Y-157456116D01*
X102222864Y-157457158D01*
X102247831Y-157449732D01*
X102343069Y-157402113D01*
X102344194Y-157400923D01*
X102362561Y-157388064D01*
X102410180Y-157340445D01*
X102410871Y-157338963D01*
X102424229Y-157320953D01*
X102471848Y-157225715D01*
X102472360Y-157221261D01*
X102475243Y-157217826D01*
X102479766Y-157192174D01*
X102479766Y-157096936D01*
X102478232Y-157092722D01*
X102479274Y-157088361D01*
X102471848Y-157063395D01*
X102464809Y-157049317D01*
X102758338Y-157049317D01*
X102759523Y-157052574D01*
X102760577Y-157067507D01*
X102808196Y-157257983D01*
X102812338Y-157264116D01*
X102812984Y-157271489D01*
X102827924Y-157292826D01*
X102923162Y-157388064D01*
X102924643Y-157388754D01*
X102942654Y-157402113D01*
X103037892Y-157449732D01*
X103042345Y-157450244D01*
X103045781Y-157453127D01*
X103071433Y-157457650D01*
X103261909Y-157457650D01*
X103266122Y-157456116D01*
X103270483Y-157457158D01*
X103295450Y-157449732D01*
X103390688Y-157402113D01*
X103391813Y-157400923D01*
X103406139Y-157390893D01*
X103758793Y-157390893D01*
X103781531Y-157436882D01*
X103828511Y-157457495D01*
X103877749Y-157443087D01*
X103895742Y-157424252D01*
X104166671Y-157017858D01*
X104437600Y-157424252D01*
X104478942Y-157454631D01*
X104530138Y-157451330D01*
X104567235Y-157415892D01*
X104572874Y-157364900D01*
X104562408Y-157341047D01*
X104256810Y-156882650D01*
X104562408Y-156424253D01*
X104574549Y-156374407D01*
X104551811Y-156328418D01*
X104504831Y-156307805D01*
X104455593Y-156322213D01*
X104437600Y-156341048D01*
X104166671Y-156747441D01*
X103895742Y-156341048D01*
X103854400Y-156310669D01*
X103803204Y-156313970D01*
X103766107Y-156349408D01*
X103760468Y-156400400D01*
X103770934Y-156424252D01*
X104076532Y-156882650D01*
X103770934Y-157341048D01*
X103758793Y-157390893D01*
X103406139Y-157390893D01*
X103410180Y-157388064D01*
X103505418Y-157292826D01*
X103508545Y-157286118D01*
X103514536Y-157281772D01*
X103525146Y-157257983D01*
X103572765Y-157067507D01*
X103572404Y-157064058D01*
X103575004Y-157049317D01*
X103575004Y-156715984D01*
X103573818Y-156712726D01*
X103572765Y-156697794D01*
X103525146Y-156507318D01*
X103521004Y-156501185D01*
X103520359Y-156493812D01*
X103505418Y-156472475D01*
X103410180Y-156377237D01*
X103408697Y-156376545D01*
X103390689Y-156363188D01*
X103295451Y-156315568D01*
X103290996Y-156315055D01*
X103287561Y-156312173D01*
X103261909Y-156307650D01*
X103071433Y-156307650D01*
X103067219Y-156309183D01*
X103062858Y-156308142D01*
X103037892Y-156315568D01*
X102942653Y-156363188D01*
X102941527Y-156364376D01*
X102923162Y-156377237D01*
X102827924Y-156472475D01*
X102824796Y-156479182D01*
X102818806Y-156483529D01*
X102808196Y-156507318D01*
X102760577Y-156697794D01*
X102760937Y-156701242D01*
X102758338Y-156715984D01*
X102758338Y-157049317D01*
X102464809Y-157049317D01*
X102424229Y-156968157D01*
X102423039Y-156967031D01*
X102410180Y-156948665D01*
X102388370Y-156926855D01*
X102388843Y-156926814D01*
X102410180Y-156911874D01*
X102457799Y-156864255D01*
X102458490Y-156862773D01*
X102471848Y-156844763D01*
X102519467Y-156749525D01*
X102519979Y-156745071D01*
X102522862Y-156741636D01*
X102527385Y-156715984D01*
X102527385Y-156573127D01*
X102525851Y-156568913D01*
X102526893Y-156564552D01*
X102519467Y-156539586D01*
X102471848Y-156444348D01*
X102470658Y-156443222D01*
X102457799Y-156424856D01*
X102410180Y-156377237D01*
X102408697Y-156376545D01*
X102390689Y-156363188D01*
X102295451Y-156315568D01*
X102290996Y-156315055D01*
X102287561Y-156312173D01*
X102261909Y-156307650D01*
X101880957Y-156307650D01*
X101862648Y-156314313D01*
X101843457Y-156317698D01*
X101839106Y-156322882D01*
X101832748Y-156325197D01*
X101823005Y-156342070D01*
X101810480Y-156356998D01*
X101808762Y-156366740D01*
X101807096Y-156369626D01*
X101807674Y-156372908D01*
X101805957Y-156382650D01*
X101805957Y-157382650D01*
X101415594Y-157382650D01*
X101457799Y-157340445D01*
X101458490Y-157338963D01*
X101471848Y-157320953D01*
X101519467Y-157225715D01*
X101519979Y-157221261D01*
X101522862Y-157217826D01*
X101527385Y-157192174D01*
X101527385Y-157049317D01*
X101525851Y-157045103D01*
X101526893Y-157040742D01*
X101519467Y-157015776D01*
X101471848Y-156920538D01*
X101470658Y-156919412D01*
X101457799Y-156901046D01*
X101410180Y-156853427D01*
X101408698Y-156852736D01*
X101390688Y-156839378D01*
X101295450Y-156791759D01*
X101290996Y-156791246D01*
X101287561Y-156788364D01*
X101262969Y-156784028D01*
X101513828Y-156425659D01*
X101527098Y-156376103D01*
X101505411Y-156329609D01*
X101458911Y-156307934D01*
X101409359Y-156321219D01*
X101390943Y-156339640D01*
X101080003Y-156783841D01*
X100955957Y-156783841D01*
X100955957Y-156382650D01*
X100938410Y-156334441D01*
X100893981Y-156308789D01*
X100843457Y-156317698D01*
X100810480Y-156356998D01*
X100805957Y-156382650D01*
X100805957Y-157382650D01*
X100293347Y-157382650D01*
X100618774Y-156406367D01*
X100617373Y-156355084D01*
X100583335Y-156316698D01*
X100532587Y-156309173D01*
X100488874Y-156336028D01*
X100476472Y-156358933D01*
X100398328Y-156593365D01*
X100030252Y-156593365D01*
X99952108Y-156358933D01*
X99920217Y-156318747D01*
X99869956Y-156308461D01*
X99824842Y-156332890D01*
X99805985Y-156380601D01*
X99666445Y-156380601D01*
X99660194Y-156345150D01*
X99620894Y-156312173D01*
X99595242Y-156307650D01*
X99119052Y-156307650D01*
X99100743Y-156314313D01*
X99081552Y-156317698D01*
X99077201Y-156322882D01*
X99070843Y-156325197D01*
X99061100Y-156342070D01*
X99048575Y-156356998D01*
X99046857Y-156366740D01*
X99045191Y-156369626D01*
X99045769Y-156372908D01*
X99044052Y-156382650D01*
X99044052Y-157382650D01*
X98694830Y-157382650D01*
X98711674Y-157364859D01*
X98714749Y-157313649D01*
X98684185Y-157272443D01*
X98634286Y-157260523D01*
X98609320Y-157267949D01*
X98529918Y-157307650D01*
X98416936Y-157307650D01*
X98302423Y-157269479D01*
X98228310Y-157195366D01*
X98189816Y-157118379D01*
X98146433Y-156944844D01*
X98146433Y-156820456D01*
X98189816Y-156646922D01*
X98228310Y-156569935D01*
X98302422Y-156495822D01*
X98416937Y-156457650D01*
X98487833Y-156457650D01*
X98602346Y-156495821D01*
X98615480Y-156508955D01*
X98615480Y-156736222D01*
X98500004Y-156736222D01*
X98451795Y-156753769D01*
X98426143Y-156798198D01*
X98435052Y-156848722D01*
X98474352Y-156881699D01*
X98500004Y-156886222D01*
X98690480Y-156886222D01*
X98708788Y-156879558D01*
X98727980Y-156876174D01*
X98732330Y-156870989D01*
X98738689Y-156868675D01*
X98748431Y-156851801D01*
X98760957Y-156836874D01*
X98762674Y-156827131D01*
X98764341Y-156824246D01*
X98763762Y-156820963D01*
X98765480Y-156811222D01*
X98765480Y-156477889D01*
X98759879Y-156462503D01*
X98758453Y-156446193D01*
X98749061Y-156432780D01*
X98747933Y-156429680D01*
X98746183Y-156428669D01*
X98743513Y-156424856D01*
X98695894Y-156377237D01*
X98691831Y-156375342D01*
X98689484Y-156371522D01*
X98666579Y-156359119D01*
X98523722Y-156311499D01*
X98522086Y-156311543D01*
X98500004Y-156307650D01*
X98404766Y-156307650D01*
X98403227Y-156308210D01*
X98381049Y-156311499D01*
X98238191Y-156359119D01*
X98234680Y-156361905D01*
X98230213Y-156362296D01*
X98208876Y-156377237D01*
X98113638Y-156472475D01*
X98112947Y-156473956D01*
X98099589Y-156491967D01*
X98051970Y-156587205D01*
X98051563Y-156590733D01*
X98046291Y-156602556D01*
X97998672Y-156793032D01*
X97999032Y-156796480D01*
X97996433Y-156811222D01*
X97996433Y-156954079D01*
X97853576Y-156954079D01*
X97853576Y-156164793D01*
X104717406Y-156164793D01*
X104717406Y-157600507D01*
G37*
X128900157Y-85235461D02*
X128400157Y-84369436D01*
X128400157Y-84369436D02*
X128468625Y-85154692D01*
X128468625Y-85154692D02*
X127822807Y-84702769D01*
X127822807Y-84702769D02*
X128322807Y-85568795D01*
X127499272Y-84999534D02*
X127434223Y-84982104D01*
X127434223Y-84982104D02*
X127327935Y-84988484D01*
X127327935Y-84988484D02*
X127121739Y-85107531D01*
X127121739Y-85107531D02*
X127063070Y-85196390D01*
X127063070Y-85196390D02*
X127045640Y-85261438D01*
X127045640Y-85261438D02*
X127052020Y-85367727D01*
X127052020Y-85367727D02*
X127099639Y-85450205D01*
X127099639Y-85450205D02*
X127212307Y-85550114D01*
X127212307Y-85550114D02*
X127992893Y-85759271D01*
X127992893Y-85759271D02*
X127456782Y-86068795D01*
G36*
X142856039Y-86846515D02*
G01*
X142722001Y-86614354D01*
X143137261Y-86529377D01*
X142856039Y-86846515D01*
G37*
G36*
X142698820Y-85514151D02*
G01*
X142762749Y-85556360D01*
X142906873Y-85805990D01*
X142583144Y-85992894D01*
X142439020Y-85743264D01*
X142434431Y-85666801D01*
X142445561Y-85625259D01*
X142487767Y-85561336D01*
X142580820Y-85507612D01*
X142657285Y-85503022D01*
X142698820Y-85514151D01*
G37*
G36*
X141781083Y-84884789D02*
G01*
X141871397Y-84964875D01*
X141994479Y-85178059D01*
X141670750Y-85364964D01*
X141526627Y-85115334D01*
X141522037Y-85038869D01*
X141533166Y-84997332D01*
X141575374Y-84933406D01*
X141668427Y-84879682D01*
X141744892Y-84875092D01*
X141781083Y-84884789D01*
G37*
G36*
X142222632Y-84689365D02*
G01*
X142286557Y-84731573D01*
X142406872Y-84939964D01*
X142124383Y-85103059D01*
X142004069Y-84894668D01*
X141999479Y-84818203D01*
X142010608Y-84776666D01*
X142052816Y-84712740D01*
X142104629Y-84682826D01*
X142181095Y-84678236D01*
X142222632Y-84689365D01*
G37*
G36*
X141698822Y-83782100D02*
G01*
X141762749Y-83824309D01*
X141840282Y-83958601D01*
X141844871Y-84035064D01*
X141818538Y-84133343D01*
X141698963Y-84248961D01*
X141426280Y-84406395D01*
X141266362Y-84452140D01*
X141168089Y-84425809D01*
X141104160Y-84383600D01*
X141026627Y-84249309D01*
X141022037Y-84172843D01*
X141048370Y-84074568D01*
X141167946Y-83958948D01*
X141440629Y-83801515D01*
X141600549Y-83755769D01*
X141698822Y-83782100D01*
G37*
G36*
X144711685Y-88346302D02*
G01*
X143468319Y-89064159D01*
X142990688Y-88236878D01*
X143229397Y-88236878D01*
X143230109Y-88262916D01*
X143260299Y-88410443D01*
X143261154Y-88411835D01*
X143268824Y-88432907D01*
X143316443Y-88515385D01*
X143317694Y-88516435D01*
X143331635Y-88534001D01*
X143444303Y-88633909D01*
X143448471Y-88635556D01*
X143451044Y-88639230D01*
X143474651Y-88650238D01*
X143604748Y-88685098D01*
X143606377Y-88684955D01*
X143628654Y-88687519D01*
X143734942Y-88681139D01*
X143738199Y-88679726D01*
X143751075Y-88678382D01*
X143939843Y-88624383D01*
X143942649Y-88622346D01*
X143956715Y-88617227D01*
X144080433Y-88545799D01*
X144082661Y-88543143D01*
X144095067Y-88534764D01*
X144236215Y-88398286D01*
X144237770Y-88395092D01*
X144246669Y-88385693D01*
X144305338Y-88296835D01*
X144305717Y-88295247D01*
X144315195Y-88274922D01*
X144350053Y-88144824D01*
X144349662Y-88140358D01*
X144351798Y-88136415D01*
X144351086Y-88110377D01*
X144320897Y-87962850D01*
X144320041Y-87961457D01*
X144312372Y-87940386D01*
X144240944Y-87816668D01*
X144237509Y-87813785D01*
X144236231Y-87809488D01*
X144217316Y-87791579D01*
X144128457Y-87732910D01*
X144078558Y-87720991D01*
X144032671Y-87743934D01*
X144012268Y-87791006D01*
X144026894Y-87840179D01*
X144045809Y-87858088D01*
X144119892Y-87907001D01*
X144176383Y-88004846D01*
X144200582Y-88123101D01*
X144173454Y-88224346D01*
X144126030Y-88296172D01*
X143997437Y-88420511D01*
X143889711Y-88482706D01*
X143717733Y-88531902D01*
X143631814Y-88537059D01*
X143530577Y-88509932D01*
X143440262Y-88429846D01*
X143404812Y-88368446D01*
X143380612Y-88250189D01*
X143385419Y-88232250D01*
X143582239Y-88118616D01*
X143639977Y-88218621D01*
X143679278Y-88251598D01*
X143730580Y-88251599D01*
X143769881Y-88218621D01*
X143778790Y-88168098D01*
X143769881Y-88143621D01*
X143674643Y-87978664D01*
X143659716Y-87966138D01*
X143647191Y-87951212D01*
X143640525Y-87950036D01*
X143635342Y-87945687D01*
X143615858Y-87945687D01*
X143596667Y-87942303D01*
X143587370Y-87945687D01*
X143584040Y-87945687D01*
X143581488Y-87947827D01*
X143572191Y-87951212D01*
X143283516Y-88117879D01*
X143272992Y-88130420D01*
X143259580Y-88139812D01*
X143252659Y-88154652D01*
X143250539Y-88157180D01*
X143250539Y-88159200D01*
X143248572Y-88163419D01*
X143231142Y-88228468D01*
X143231532Y-88232933D01*
X143229397Y-88236878D01*
X142990688Y-88236878D01*
X142542114Y-87459926D01*
X142712296Y-87459926D01*
X142721205Y-87484403D01*
X142959300Y-87896796D01*
X142974225Y-87909319D01*
X142986752Y-87924248D01*
X142993418Y-87925423D01*
X142998601Y-87929772D01*
X143018080Y-87929772D01*
X143037275Y-87933157D01*
X143046572Y-87929772D01*
X143049903Y-87929773D01*
X143052454Y-87927632D01*
X143061752Y-87924248D01*
X143927777Y-87424248D01*
X143940302Y-87409321D01*
X143955229Y-87396796D01*
X143956404Y-87390130D01*
X143960754Y-87384947D01*
X143960754Y-87365461D01*
X143964138Y-87346273D01*
X143960754Y-87336978D01*
X143960755Y-87333644D01*
X143958611Y-87331089D01*
X143955229Y-87321796D01*
X143717134Y-86909403D01*
X143677833Y-86876426D01*
X143626531Y-86876425D01*
X143587230Y-86909403D01*
X143578321Y-86959926D01*
X143587230Y-86984403D01*
X143787825Y-87331844D01*
X143505336Y-87494939D01*
X143376170Y-87271216D01*
X143336869Y-87238239D01*
X143285567Y-87238238D01*
X143246266Y-87271216D01*
X143237357Y-87321739D01*
X143246266Y-87346216D01*
X143375432Y-87569939D01*
X143051703Y-87756843D01*
X142851109Y-87409403D01*
X142811808Y-87376426D01*
X142760506Y-87376425D01*
X142721205Y-87409403D01*
X142712296Y-87459926D01*
X142542114Y-87459926D01*
X142059587Y-86624165D01*
X142234993Y-86624165D01*
X142253851Y-86671877D01*
X142298964Y-86696306D01*
X142325002Y-86695594D01*
X142567097Y-86646052D01*
X142751135Y-86964816D01*
X142587184Y-87149707D01*
X142568327Y-87197419D01*
X142584550Y-87246089D01*
X142628263Y-87272944D01*
X142679011Y-87265419D01*
X142699414Y-87249227D01*
X143398773Y-86460552D01*
X143399566Y-86458544D01*
X143401407Y-86457414D01*
X143408915Y-86434889D01*
X143417630Y-86412840D01*
X143416947Y-86410793D01*
X143417631Y-86408744D01*
X143408907Y-86386670D01*
X143401407Y-86364170D01*
X143399567Y-86363039D01*
X143398774Y-86361032D01*
X143377911Y-86349735D01*
X143357694Y-86337314D01*
X143355557Y-86337630D01*
X143353660Y-86336603D01*
X143327622Y-86337315D01*
X142294930Y-86548640D01*
X142251218Y-86575495D01*
X142234993Y-86624165D01*
X142059587Y-86624165D01*
X141594822Y-85819168D01*
X141785137Y-85819168D01*
X141789616Y-85870276D01*
X141825898Y-85906548D01*
X141851059Y-85913286D01*
X142391217Y-85960467D01*
X142453240Y-86067894D01*
X142105799Y-86268490D01*
X142072822Y-86307791D01*
X142072821Y-86359093D01*
X142105799Y-86398394D01*
X142156322Y-86407303D01*
X142180799Y-86398394D01*
X143046825Y-85898394D01*
X143059348Y-85883468D01*
X143074277Y-85870942D01*
X143075452Y-85864276D01*
X143079802Y-85859093D01*
X143079802Y-85839607D01*
X143083186Y-85820419D01*
X143079802Y-85811124D01*
X143079803Y-85807790D01*
X143077659Y-85805235D01*
X143074277Y-85795942D01*
X142883801Y-85466027D01*
X142880366Y-85463145D01*
X142879088Y-85458847D01*
X142860173Y-85440938D01*
X142771314Y-85382269D01*
X142769719Y-85381888D01*
X142749402Y-85372414D01*
X142684353Y-85354984D01*
X142682723Y-85355126D01*
X142660447Y-85352563D01*
X142554159Y-85358943D01*
X142550046Y-85360725D01*
X142545629Y-85359947D01*
X142521152Y-85368856D01*
X142397435Y-85440285D01*
X142394553Y-85443719D01*
X142390255Y-85444998D01*
X142372347Y-85463913D01*
X142313678Y-85552771D01*
X142313298Y-85554359D01*
X142303821Y-85574685D01*
X142286392Y-85639733D01*
X142286534Y-85641366D01*
X142283972Y-85663637D01*
X142290351Y-85769925D01*
X142292133Y-85774038D01*
X142291355Y-85778455D01*
X142299895Y-85801919D01*
X141864111Y-85763854D01*
X141814558Y-85777140D01*
X141785137Y-85819168D01*
X141594822Y-85819168D01*
X141142491Y-85035708D01*
X141371578Y-85035708D01*
X141377958Y-85141996D01*
X141379740Y-85146108D01*
X141378962Y-85150525D01*
X141387871Y-85175002D01*
X141578347Y-85504916D01*
X141593272Y-85517439D01*
X141605799Y-85532368D01*
X141612464Y-85533543D01*
X141617648Y-85537893D01*
X141637133Y-85537893D01*
X141656322Y-85541277D01*
X141665616Y-85537893D01*
X141668950Y-85537894D01*
X141671503Y-85535751D01*
X141680799Y-85532368D01*
X142546825Y-85032368D01*
X142559350Y-85017441D01*
X142574277Y-85004916D01*
X142575452Y-84998250D01*
X142579802Y-84993067D01*
X142579802Y-84973580D01*
X142583186Y-84954392D01*
X142579802Y-84945097D01*
X142579803Y-84941764D01*
X142577659Y-84939210D01*
X142574277Y-84929916D01*
X142407610Y-84641241D01*
X142404175Y-84638359D01*
X142402897Y-84634061D01*
X142383982Y-84616153D01*
X142295124Y-84557484D01*
X142293533Y-84557104D01*
X142273212Y-84547628D01*
X142208163Y-84530198D01*
X142206533Y-84530340D01*
X142184257Y-84527777D01*
X142077969Y-84534157D01*
X142073856Y-84535939D01*
X142069440Y-84535161D01*
X142044963Y-84544070D01*
X141962484Y-84591689D01*
X141959602Y-84595123D01*
X141955304Y-84596402D01*
X141937396Y-84615317D01*
X141878727Y-84704175D01*
X141878347Y-84705765D01*
X141868871Y-84726087D01*
X141860887Y-84755880D01*
X141860616Y-84755492D01*
X141837009Y-84744484D01*
X141771960Y-84727054D01*
X141770330Y-84727196D01*
X141748054Y-84724633D01*
X141641766Y-84731013D01*
X141637653Y-84732795D01*
X141633236Y-84732017D01*
X141608759Y-84740926D01*
X141485042Y-84812355D01*
X141482160Y-84815789D01*
X141477862Y-84817068D01*
X141459954Y-84835983D01*
X141401285Y-84924841D01*
X141400905Y-84926431D01*
X141391429Y-84946753D01*
X141373999Y-85011802D01*
X141374141Y-85013431D01*
X141371578Y-85035708D01*
X141142491Y-85035708D01*
X140642491Y-84169682D01*
X140871578Y-84169682D01*
X140877958Y-84275970D01*
X140879740Y-84280083D01*
X140878962Y-84284500D01*
X140887871Y-84308977D01*
X140983109Y-84473934D01*
X140986543Y-84476815D01*
X140987822Y-84481114D01*
X141006737Y-84499023D01*
X141095596Y-84557692D01*
X141097190Y-84558072D01*
X141117509Y-84567547D01*
X141247606Y-84602406D01*
X141254977Y-84601761D01*
X141261737Y-84604776D01*
X141287644Y-84602070D01*
X141476411Y-84548072D01*
X141479216Y-84546036D01*
X141493284Y-84540916D01*
X141781959Y-84374249D01*
X141784187Y-84371593D01*
X141796592Y-84363215D01*
X141937740Y-84226738D01*
X141940980Y-84220083D01*
X141947044Y-84215838D01*
X141958052Y-84192231D01*
X141992910Y-84062133D01*
X141992767Y-84060504D01*
X141995331Y-84038229D01*
X141988952Y-83931941D01*
X141987169Y-83927827D01*
X141987948Y-83923411D01*
X141979039Y-83898934D01*
X141883801Y-83733977D01*
X141880366Y-83731095D01*
X141879088Y-83726797D01*
X141860173Y-83708889D01*
X141771314Y-83650219D01*
X141769726Y-83649839D01*
X141749401Y-83640362D01*
X141619304Y-83605504D01*
X141611932Y-83606148D01*
X141605173Y-83603134D01*
X141579266Y-83605840D01*
X141390499Y-83659839D01*
X141387693Y-83661874D01*
X141373626Y-83666995D01*
X141084951Y-83833661D01*
X141082722Y-83836316D01*
X141070317Y-83844696D01*
X140929169Y-83981174D01*
X140925929Y-83987827D01*
X140919867Y-83992072D01*
X140908859Y-84015680D01*
X140873999Y-84145776D01*
X140874141Y-84147405D01*
X140871578Y-84169682D01*
X140642491Y-84169682D01*
X140071966Y-83181504D01*
X140260906Y-83181504D01*
X140266545Y-83232497D01*
X140303641Y-83267935D01*
X140328949Y-83274100D01*
X140816360Y-83305534D01*
X140599878Y-83743363D01*
X140594240Y-83794355D01*
X140622697Y-83837042D01*
X140671936Y-83851450D01*
X140718916Y-83830837D01*
X140734340Y-83809847D01*
X140978524Y-83315992D01*
X141528307Y-83351450D01*
X141577546Y-83337042D01*
X141606004Y-83294356D01*
X141600365Y-83243363D01*
X141563269Y-83207925D01*
X141537961Y-83201761D01*
X141050548Y-83170326D01*
X141267032Y-82732497D01*
X141272670Y-82681505D01*
X141244213Y-82638818D01*
X141194974Y-82624411D01*
X141147994Y-82645023D01*
X141132570Y-82666013D01*
X140888385Y-83159867D01*
X140338603Y-83124410D01*
X140289365Y-83138818D01*
X140260906Y-83181504D01*
X140071966Y-83181504D01*
X140036404Y-83119908D01*
X141279770Y-82402051D01*
X144711685Y-88346302D01*
G37*
D11*
X133326033Y-92520352D02*
X131826033Y-89922276D01*
X131826033Y-89922276D02*
X132031436Y-92278045D01*
X132031436Y-92278045D02*
X130093982Y-90922276D01*
X130093982Y-90922276D02*
X131593982Y-93520352D01*
D10*
X65199815Y-70600706D02*
X64954089Y-70073935D01*
X65485530Y-70105834D02*
X64619504Y-69605834D01*
X64619504Y-69605834D02*
X64429028Y-69935749D01*
X64429028Y-69935749D02*
X64422648Y-70042037D01*
X64422648Y-70042037D02*
X64440078Y-70107086D01*
X64440078Y-70107086D02*
X64498747Y-70195944D01*
X64498747Y-70195944D02*
X64622465Y-70267373D01*
X64622465Y-70267373D02*
X64728753Y-70273752D01*
X64728753Y-70273752D02*
X64793802Y-70256322D01*
X64793802Y-70256322D02*
X64882660Y-70197653D01*
X64882660Y-70197653D02*
X65073137Y-69867739D01*
X64225792Y-70478239D02*
X64160744Y-70495669D01*
X64160744Y-70495669D02*
X64071885Y-70554338D01*
X64071885Y-70554338D02*
X63952838Y-70760535D01*
X63952838Y-70760535D02*
X63946458Y-70866823D01*
X63946458Y-70866823D02*
X63963888Y-70931872D01*
X63963888Y-70931872D02*
X64022557Y-71020730D01*
X64022557Y-71020730D02*
X64105035Y-71068349D01*
X64105035Y-71068349D02*
X64252563Y-71098538D01*
X64252563Y-71098538D02*
X65033149Y-70889381D01*
X65033149Y-70889381D02*
X64723625Y-71425492D01*
X44450292Y-101684120D02*
X45068881Y-102041263D01*
X45068881Y-102041263D02*
X45216409Y-102071452D01*
X45216409Y-102071452D02*
X45346506Y-102036592D01*
X45346506Y-102036592D02*
X45459174Y-101936684D01*
X45459174Y-101936684D02*
X45506793Y-101854205D01*
X44259815Y-102014034D02*
X43950292Y-102550145D01*
X43950292Y-102550145D02*
X44446873Y-102451946D01*
X44446873Y-102451946D02*
X44375444Y-102575664D01*
X44375444Y-102575664D02*
X44369064Y-102681952D01*
X44369064Y-102681952D02*
X44386494Y-102747001D01*
X44386494Y-102747001D02*
X44445163Y-102835860D01*
X44445163Y-102835860D02*
X44651360Y-102954907D01*
X44651360Y-102954907D02*
X44757648Y-102961287D01*
X44757648Y-102961287D02*
X44822697Y-102943857D01*
X44822697Y-102943857D02*
X44911555Y-102885188D01*
X44911555Y-102885188D02*
X45054412Y-102637752D01*
X45054412Y-102637752D02*
X45060792Y-102531464D01*
X45060792Y-102531464D02*
X45043362Y-102466415D01*
X95099809Y-49698494D02*
X95099809Y-50508017D01*
X95099809Y-50508017D02*
X95052190Y-50603255D01*
X95052190Y-50603255D02*
X95004571Y-50650875D01*
X95004571Y-50650875D02*
X94909333Y-50698494D01*
X94909333Y-50698494D02*
X94718857Y-50698494D01*
X94718857Y-50698494D02*
X94623619Y-50650875D01*
X94623619Y-50650875D02*
X94576000Y-50603255D01*
X94576000Y-50603255D02*
X94528381Y-50508017D01*
X94528381Y-50508017D02*
X94528381Y-49698494D01*
X93623619Y-50031827D02*
X93623619Y-50698494D01*
X93861714Y-49650875D02*
X94099809Y-50365160D01*
X94099809Y-50365160D02*
X93480762Y-50365160D01*
X66516926Y-97648704D02*
X66016926Y-98514729D01*
X66016926Y-98514729D02*
X66662744Y-98062806D01*
X66662744Y-98062806D02*
X66594276Y-98848063D01*
X66594276Y-98848063D02*
X67094276Y-97982037D01*
X67960301Y-98482037D02*
X67465430Y-98196323D01*
X67712866Y-98339180D02*
X67212866Y-99205205D01*
X67212866Y-99205205D02*
X67201816Y-99033868D01*
X67201816Y-99033868D02*
X67166956Y-98903771D01*
X67166956Y-98903771D02*
X67108287Y-98814912D01*
G36*
X59263189Y-87057862D02*
G01*
X59535872Y-87215296D01*
X59655447Y-87330916D01*
X59681780Y-87429190D01*
X59677190Y-87505656D01*
X59599656Y-87639950D01*
X59535731Y-87682156D01*
X59437456Y-87708488D01*
X59277537Y-87662742D01*
X59004854Y-87505309D01*
X58885279Y-87389689D01*
X58858946Y-87291414D01*
X58863536Y-87214949D01*
X58941070Y-87080655D01*
X59004992Y-87038450D01*
X59103271Y-87012117D01*
X59263189Y-87057862D01*
G37*
G36*
X60243780Y-86524293D02*
G01*
X60099656Y-86773923D01*
X60035731Y-86816131D01*
X59994194Y-86827260D01*
X59917729Y-86822670D01*
X59824677Y-86768947D01*
X59782468Y-86705018D01*
X59772771Y-86668829D01*
X59796970Y-86550572D01*
X59920052Y-86337389D01*
X60243780Y-86524293D01*
G37*
G36*
X59790148Y-86262389D02*
G01*
X59669833Y-86470779D01*
X59605908Y-86512987D01*
X59564371Y-86524116D01*
X59487905Y-86519526D01*
X59436092Y-86489612D01*
X59393886Y-86425689D01*
X59382756Y-86384147D01*
X59387345Y-86307684D01*
X59507659Y-86099293D01*
X59790148Y-86262389D01*
G37*
G36*
X60331388Y-85420172D02*
G01*
X60187263Y-85669803D01*
X60123339Y-85712009D01*
X60081799Y-85723139D01*
X60005336Y-85718550D01*
X59912283Y-85664826D01*
X59870075Y-85600900D01*
X59858946Y-85559363D01*
X59863536Y-85482898D01*
X60007660Y-85233268D01*
X60331388Y-85420172D01*
G37*
G36*
X60934198Y-84757028D02*
G01*
X60800159Y-84989189D01*
X60518936Y-84672050D01*
X60934198Y-84757028D01*
G37*
G36*
X62548595Y-83117955D02*
G01*
X59116679Y-89062208D01*
X57873313Y-88344351D01*
X57923884Y-88256760D01*
X58096138Y-88256760D01*
X58108280Y-88306606D01*
X58149621Y-88336985D01*
X58175511Y-88339848D01*
X58725294Y-88304390D01*
X58969479Y-88798245D01*
X59006576Y-88833683D01*
X59057772Y-88836985D01*
X59099114Y-88806605D01*
X59111256Y-88756760D01*
X59103941Y-88731761D01*
X58887457Y-88293931D01*
X59374870Y-88262497D01*
X59421850Y-88241884D01*
X59444589Y-88195896D01*
X59432447Y-88146050D01*
X59391106Y-88115671D01*
X59365216Y-88112808D01*
X58815433Y-88148265D01*
X58571249Y-87654411D01*
X58534152Y-87618973D01*
X58482956Y-87615671D01*
X58441614Y-87646050D01*
X58429472Y-87695896D01*
X58436787Y-87720895D01*
X58653269Y-88158723D01*
X58165857Y-88190158D01*
X58118877Y-88210772D01*
X58096138Y-88256760D01*
X57923884Y-88256760D01*
X58479401Y-87294576D01*
X58708487Y-87294576D01*
X58708952Y-87296142D01*
X58710908Y-87318482D01*
X58745768Y-87448578D01*
X58750011Y-87454638D01*
X58750781Y-87462002D01*
X58766078Y-87483084D01*
X58907225Y-87619562D01*
X58910389Y-87620973D01*
X58921859Y-87630597D01*
X59210534Y-87797263D01*
X59213947Y-87797864D01*
X59227407Y-87804419D01*
X59416174Y-87858418D01*
X59423556Y-87857896D01*
X59430264Y-87861025D01*
X59456212Y-87858755D01*
X59586310Y-87823896D01*
X59587651Y-87822956D01*
X59608223Y-87814039D01*
X59697081Y-87755370D01*
X59699751Y-87751769D01*
X59703966Y-87750236D01*
X59720709Y-87730282D01*
X59815947Y-87565324D01*
X59816725Y-87560908D01*
X59819808Y-87557653D01*
X59825860Y-87532318D01*
X59832240Y-87426030D01*
X59831774Y-87424464D01*
X59829819Y-87402124D01*
X59794959Y-87272027D01*
X59790714Y-87265965D01*
X59789946Y-87258604D01*
X59774649Y-87237522D01*
X59633502Y-87101044D01*
X59630337Y-87099632D01*
X59618868Y-87090009D01*
X59330193Y-86923342D01*
X59326778Y-86922739D01*
X59313320Y-86916186D01*
X59124553Y-86862188D01*
X59117170Y-86862709D01*
X59110463Y-86859581D01*
X59084515Y-86861852D01*
X58954417Y-86896710D01*
X58953075Y-86897649D01*
X58932504Y-86906567D01*
X58843646Y-86965236D01*
X58840975Y-86968835D01*
X58836761Y-86970370D01*
X58820018Y-86990324D01*
X58724780Y-87155282D01*
X58724001Y-87159698D01*
X58720919Y-87162954D01*
X58714867Y-87188288D01*
X58708487Y-87294576D01*
X58479401Y-87294576D01*
X59003210Y-86387312D01*
X59232297Y-86387312D01*
X59232762Y-86388878D01*
X59234717Y-86411216D01*
X59252146Y-86476264D01*
X59253084Y-86477604D01*
X59262003Y-86498178D01*
X59320672Y-86587036D01*
X59324272Y-86589706D01*
X59325806Y-86593921D01*
X59345760Y-86610664D01*
X59428239Y-86658283D01*
X59432654Y-86659061D01*
X59435910Y-86662144D01*
X59461245Y-86668196D01*
X59567533Y-86674576D01*
X59569099Y-86674110D01*
X59591439Y-86672155D01*
X59621230Y-86664172D01*
X59621030Y-86664603D01*
X59623301Y-86690552D01*
X59640731Y-86755600D01*
X59641668Y-86756939D01*
X59650586Y-86777512D01*
X59709255Y-86866371D01*
X59712856Y-86869042D01*
X59714390Y-86873256D01*
X59734344Y-86889999D01*
X59858062Y-86961427D01*
X59862477Y-86962205D01*
X59865733Y-86965288D01*
X59891068Y-86971340D01*
X59997356Y-86977720D01*
X59998922Y-86977254D01*
X60021262Y-86975299D01*
X60086311Y-86957869D01*
X60087650Y-86956930D01*
X60108223Y-86948013D01*
X60197081Y-86889344D01*
X60199751Y-86885743D01*
X60203966Y-86884210D01*
X60220709Y-86864256D01*
X60411185Y-86534342D01*
X60414567Y-86515155D01*
X60421233Y-86496842D01*
X60418918Y-86490481D01*
X60420093Y-86483818D01*
X60410351Y-86466943D01*
X60403687Y-86448633D01*
X60396109Y-86442275D01*
X60394443Y-86439388D01*
X60391310Y-86438247D01*
X60383733Y-86431890D01*
X59517708Y-85931890D01*
X59498518Y-85928506D01*
X59480208Y-85921842D01*
X59473847Y-85924156D01*
X59467184Y-85922982D01*
X59450310Y-85932723D01*
X59431999Y-85939388D01*
X59425640Y-85946966D01*
X59422755Y-85948632D01*
X59421615Y-85951762D01*
X59415256Y-85959342D01*
X59248589Y-86248017D01*
X59247810Y-86252432D01*
X59244727Y-86255689D01*
X59238676Y-86281024D01*
X59232297Y-86387312D01*
X59003210Y-86387312D01*
X59479401Y-85562525D01*
X59708487Y-85562525D01*
X59708952Y-85564091D01*
X59710908Y-85586431D01*
X59728338Y-85651480D01*
X59729276Y-85652819D01*
X59738194Y-85673392D01*
X59796863Y-85762250D01*
X59800463Y-85764920D01*
X59801997Y-85769135D01*
X59821951Y-85785878D01*
X59945668Y-85857307D01*
X59950084Y-85858085D01*
X59953341Y-85861169D01*
X59978676Y-85867220D01*
X60084964Y-85873599D01*
X60086530Y-85873133D01*
X60108868Y-85871179D01*
X60173916Y-85853750D01*
X60175254Y-85852812D01*
X60195831Y-85843893D01*
X60284689Y-85785223D01*
X60287359Y-85781622D01*
X60291573Y-85780089D01*
X60307623Y-85760960D01*
X60492550Y-86157394D01*
X60528832Y-86193665D01*
X60579940Y-86198130D01*
X60621961Y-86168698D01*
X60635233Y-86119141D01*
X60628488Y-86093982D01*
X60399269Y-85602599D01*
X60461292Y-85495172D01*
X60808733Y-85695768D01*
X60859257Y-85704676D01*
X60903687Y-85679026D01*
X60921233Y-85630816D01*
X60903687Y-85582607D01*
X60883733Y-85565864D01*
X60017708Y-85065864D01*
X59998521Y-85062481D01*
X59980208Y-85055816D01*
X59973847Y-85058130D01*
X59967184Y-85056956D01*
X59950310Y-85066697D01*
X59931999Y-85073362D01*
X59925640Y-85080940D01*
X59922755Y-85082606D01*
X59921615Y-85085736D01*
X59915256Y-85093316D01*
X59724780Y-85423231D01*
X59724001Y-85427647D01*
X59720919Y-85430903D01*
X59714867Y-85456237D01*
X59708487Y-85562525D01*
X59479401Y-85562525D01*
X60048288Y-84577183D01*
X60242390Y-84577183D01*
X60243732Y-84578874D01*
X60243791Y-84581032D01*
X60257426Y-84603226D01*
X60956785Y-85391902D01*
X61001899Y-85416330D01*
X61052160Y-85406045D01*
X61084052Y-85365858D01*
X61082651Y-85314575D01*
X61069015Y-85292381D01*
X60905063Y-85107490D01*
X61089102Y-84788726D01*
X61331197Y-84838268D01*
X61381946Y-84830743D01*
X61415984Y-84792358D01*
X61417385Y-84741074D01*
X61385494Y-84700888D01*
X61361270Y-84691314D01*
X60328577Y-84479989D01*
X60326440Y-84480305D01*
X60324542Y-84479278D01*
X60301298Y-84484033D01*
X60277829Y-84487514D01*
X60276396Y-84489129D01*
X60274281Y-84489562D01*
X60259532Y-84508147D01*
X60243791Y-84525899D01*
X60243732Y-84528057D01*
X60242390Y-84529749D01*
X60243037Y-84553465D01*
X60242390Y-84577183D01*
X60048288Y-84577183D01*
X60363986Y-84030379D01*
X60549205Y-84030379D01*
X60574855Y-84074809D01*
X60623065Y-84092355D01*
X60671274Y-84074809D01*
X60688017Y-84054855D01*
X60888611Y-83707414D01*
X61171101Y-83870509D01*
X61041935Y-84094232D01*
X61033027Y-84144756D01*
X61058677Y-84189185D01*
X61106887Y-84206732D01*
X61155096Y-84189186D01*
X61171839Y-84169232D01*
X61301005Y-83945509D01*
X61624733Y-84132413D01*
X61424139Y-84479855D01*
X61415231Y-84530379D01*
X61440881Y-84574809D01*
X61489091Y-84592355D01*
X61537300Y-84574809D01*
X61554043Y-84554855D01*
X61792138Y-84142462D01*
X61795520Y-84123278D01*
X61802187Y-84104962D01*
X61799871Y-84098600D01*
X61801046Y-84091939D01*
X61791307Y-84075070D01*
X61784640Y-84056753D01*
X61777059Y-84050392D01*
X61775395Y-84047509D01*
X61772265Y-84046370D01*
X61764686Y-84040010D01*
X60898660Y-83540010D01*
X60879470Y-83536626D01*
X60861160Y-83529962D01*
X60854799Y-83532276D01*
X60848136Y-83531102D01*
X60831259Y-83540845D01*
X60812951Y-83547509D01*
X60806594Y-83555084D01*
X60803706Y-83556752D01*
X60802565Y-83559885D01*
X60796208Y-83567462D01*
X60558113Y-83979855D01*
X60549205Y-84030379D01*
X60363986Y-84030379D01*
X60836544Y-83211884D01*
X61065630Y-83211884D01*
X61080257Y-83261058D01*
X61123069Y-83289326D01*
X61174036Y-83283460D01*
X61209308Y-83246207D01*
X61215360Y-83220872D01*
X61220679Y-83132257D01*
X61277170Y-83034411D01*
X61367485Y-82954325D01*
X61468726Y-82927198D01*
X61554642Y-82932355D01*
X61726620Y-82981551D01*
X61834346Y-83043746D01*
X61962938Y-83168084D01*
X62010363Y-83239913D01*
X62037491Y-83341156D01*
X62013291Y-83459412D01*
X61977842Y-83520811D01*
X61887528Y-83600897D01*
X61869589Y-83605704D01*
X61672769Y-83492070D01*
X61730508Y-83392065D01*
X61739416Y-83341541D01*
X61713766Y-83297111D01*
X61665556Y-83279565D01*
X61617347Y-83297111D01*
X61600604Y-83317065D01*
X61505366Y-83482022D01*
X61501982Y-83501210D01*
X61495318Y-83519522D01*
X61497632Y-83525882D01*
X61496458Y-83532546D01*
X61506199Y-83549419D01*
X61512864Y-83567731D01*
X61520442Y-83574089D01*
X61522108Y-83576975D01*
X61525238Y-83578114D01*
X61532818Y-83584474D01*
X61821493Y-83751141D01*
X61837615Y-83753983D01*
X61852456Y-83760904D01*
X61868768Y-83759476D01*
X61872016Y-83760049D01*
X61873765Y-83759039D01*
X61878405Y-83758633D01*
X61943454Y-83741203D01*
X61947126Y-83738631D01*
X61951608Y-83738509D01*
X61973802Y-83724874D01*
X62086470Y-83624967D01*
X62087249Y-83623527D01*
X62101662Y-83606351D01*
X62149281Y-83523872D01*
X62149565Y-83522257D01*
X62157806Y-83501408D01*
X62187995Y-83353881D01*
X62187337Y-83349446D01*
X62189233Y-83345382D01*
X62186962Y-83319433D01*
X62152102Y-83189335D01*
X62151163Y-83187995D01*
X62142246Y-83167423D01*
X62083577Y-83078565D01*
X62080726Y-83076450D01*
X62073123Y-83065972D01*
X61931976Y-82929494D01*
X61928811Y-82928082D01*
X61917342Y-82918459D01*
X61793624Y-82847031D01*
X61790211Y-82846429D01*
X61776752Y-82839875D01*
X61587984Y-82785876D01*
X61584439Y-82786126D01*
X61571851Y-82783119D01*
X61465563Y-82776739D01*
X61463996Y-82777204D01*
X61441657Y-82779160D01*
X61311559Y-82814020D01*
X61307886Y-82816591D01*
X61303404Y-82816714D01*
X61281211Y-82830349D01*
X61168543Y-82930257D01*
X61167765Y-82931693D01*
X61153351Y-82948872D01*
X61081923Y-83072590D01*
X61081144Y-83077006D01*
X61078062Y-83080262D01*
X61072010Y-83105596D01*
X61065630Y-83211884D01*
X60836544Y-83211884D01*
X61305229Y-82400098D01*
X62548595Y-83117955D01*
G37*
D11*
X70612888Y-90173337D02*
X69112888Y-92771414D01*
X69112888Y-92771414D02*
X71050342Y-91415645D01*
X71050342Y-91415645D02*
X70844939Y-93771414D01*
X70844939Y-93771414D02*
X72344939Y-91173337D01*
D12*
%TO.C,R1*%
X68864839Y-68197191D02*
X67605527Y-67470127D01*
X69774839Y-66621025D02*
X68515527Y-65893961D01*
%TO.C,M3*%
X112788226Y-137354220D02*
X109288226Y-137354220D01*
X112788226Y-136554220D02*
X112788226Y-137354220D01*
X111618291Y-136553154D02*
X111618226Y-135054220D01*
X111618226Y-135054220D02*
X111618226Y-133724220D01*
X111618226Y-133724220D02*
X110288226Y-133724220D01*
X109288226Y-136554220D02*
X112788226Y-136554220D01*
X109288226Y-136554220D02*
X95288226Y-136554220D01*
X109018226Y-136384220D02*
X109018226Y-133724220D01*
X109018226Y-136384220D02*
X106418226Y-136384220D01*
X109018226Y-133724220D02*
X106418226Y-133724220D01*
X107288226Y-152354220D02*
X95288226Y-152354220D01*
X107288226Y-152153220D02*
X107288226Y-137354220D01*
X107288226Y-137354220D02*
X109288226Y-137354220D01*
X107288226Y-137354220D02*
X95288226Y-137354220D01*
X106418226Y-136384220D02*
X106418226Y-133724220D01*
X102788226Y-162354220D02*
X102288226Y-162354220D01*
X102788226Y-161854220D02*
X102788226Y-162354220D01*
X102788226Y-161354220D02*
X102788226Y-161854220D01*
X102288226Y-170354220D02*
X102288226Y-162354220D01*
D13*
X101288226Y-136854220D02*
X101288226Y-132854220D01*
D12*
X99788226Y-170354220D02*
X102288226Y-170354220D01*
X99788226Y-169854220D02*
X99788226Y-170354220D01*
X99788226Y-162354220D02*
X99788226Y-169854220D01*
X99788226Y-161854220D02*
X99788226Y-162354220D01*
D14*
X99788226Y-161354220D02*
X107288226Y-161354220D01*
D12*
X99788226Y-161354220D02*
X99788226Y-161854220D01*
X95388226Y-152354220D02*
X95588226Y-152354220D01*
D14*
X95288226Y-161354220D02*
X99788226Y-161354220D01*
D12*
X95288226Y-137354220D02*
X95288226Y-152354220D01*
X95288226Y-136554220D02*
X95288226Y-137354220D01*
X107188226Y-161354220D02*
X106988226Y-161354220D01*
X106988226Y-161354220D02*
X106988226Y-152354220D01*
X106988226Y-152354220D02*
X107188226Y-152354220D01*
X107188226Y-152354220D02*
X107188226Y-161354220D01*
G36*
X107188226Y-161354220D02*
G01*
X106988226Y-161354220D01*
X106988226Y-152354220D01*
X107188226Y-152354220D01*
X107188226Y-161354220D01*
G37*
D15*
X101764226Y-137354220D02*
X100812226Y-137354220D01*
X100812226Y-137354220D02*
X100812226Y-136854220D01*
X100812226Y-136854220D02*
X101764226Y-136854220D01*
X101764226Y-136854220D02*
X101764226Y-137354220D01*
G36*
X101764226Y-137354220D02*
G01*
X100812226Y-137354220D01*
X100812226Y-136854220D01*
X101764226Y-136854220D01*
X101764226Y-137354220D01*
G37*
D12*
X95588226Y-161354220D02*
X95388226Y-161354220D01*
X95388226Y-161354220D02*
X95388226Y-152354220D01*
X95388226Y-152354220D02*
X95588226Y-152354220D01*
X95588226Y-152354220D02*
X95588226Y-161354220D01*
G36*
X95588226Y-161354220D02*
G01*
X95388226Y-161354220D01*
X95388226Y-152354220D01*
X95588226Y-152354220D01*
X95588226Y-161354220D01*
G37*
D16*
X104952334Y-144653220D02*
G75*
G03*
X104952334Y-144653220I-3664108J0D01*
G01*
D12*
%TO.C,M2*%
X119710561Y-85535661D02*
X121460561Y-88566750D01*
X119017740Y-85935661D02*
X119710561Y-85535661D01*
X119601785Y-86949387D02*
X118303702Y-87698911D01*
X118303702Y-87698911D02*
X117151888Y-88363911D01*
X117151888Y-88363911D02*
X117816888Y-89515724D01*
X120767740Y-88966750D02*
X119017740Y-85935661D01*
X120767740Y-88966750D02*
X127767740Y-101091105D01*
X120755516Y-89285577D02*
X118451888Y-90615577D01*
X120755516Y-89285577D02*
X122055516Y-91537243D01*
X118451888Y-90615577D02*
X119751888Y-92867243D01*
X135450942Y-82798801D02*
X141450942Y-93191105D01*
X135276871Y-82899301D02*
X122460561Y-90298801D01*
X122460561Y-90298801D02*
X121460561Y-88566750D01*
X122460561Y-90298801D02*
X128460561Y-100691105D01*
X122055516Y-91537243D02*
X119751888Y-92867243D01*
X146361196Y-81695915D02*
X146611196Y-82128928D01*
X145928183Y-81945915D02*
X146361196Y-81695915D01*
X145495170Y-82195915D02*
X145928183Y-81945915D01*
X153539399Y-78128928D02*
X146611196Y-82128928D01*
D13*
X125027548Y-95744953D02*
X121563446Y-97744953D01*
D12*
X154789399Y-80293991D02*
X153539399Y-78128928D01*
X154356386Y-80543991D02*
X154789399Y-80293991D01*
X147861196Y-84293991D02*
X154356386Y-80543991D01*
X147428183Y-84543991D02*
X147861196Y-84293991D01*
D14*
X146995170Y-84793991D02*
X143245170Y-78298801D01*
D12*
X146995170Y-84793991D02*
X147428183Y-84543991D01*
X141400942Y-93104503D02*
X141300942Y-92931298D01*
D14*
X149245170Y-88691105D02*
X146995170Y-84793991D01*
D12*
X128460561Y-100691105D02*
X141450942Y-93191105D01*
X127767740Y-101091105D02*
X128460561Y-100691105D01*
X143295170Y-78385403D02*
X143395170Y-78558608D01*
X143395170Y-78558608D02*
X135600942Y-83058608D01*
X135600942Y-83058608D02*
X135500942Y-82885403D01*
X135500942Y-82885403D02*
X143295170Y-78385403D01*
G36*
X143295170Y-78385403D02*
G01*
X143395170Y-78558608D01*
X135600942Y-83058608D01*
X135500942Y-82885403D01*
X143295170Y-78385403D01*
G37*
D15*
X125222561Y-95082725D02*
X125698561Y-95907181D01*
X125698561Y-95907181D02*
X125265548Y-96157181D01*
X125265548Y-96157181D02*
X124789548Y-95332725D01*
X124789548Y-95332725D02*
X125222561Y-95082725D01*
G36*
X125222561Y-95082725D02*
G01*
X125698561Y-95907181D01*
X125265548Y-96157181D01*
X124789548Y-95332725D01*
X125222561Y-95082725D01*
G37*
D12*
X149095170Y-88431298D02*
X149195170Y-88604503D01*
X149195170Y-88604503D02*
X141400942Y-93104503D01*
X141400942Y-93104503D02*
X141300942Y-92931298D01*
X141300942Y-92931298D02*
X149095170Y-88431298D01*
G36*
X149095170Y-88431298D02*
G01*
X149195170Y-88604503D01*
X141400942Y-93104503D01*
X141300942Y-92931298D01*
X149095170Y-88431298D01*
G37*
D16*
X135445788Y-91845453D02*
G75*
G03*
X135445788Y-91845453I-3664108J0D01*
G01*
D12*
%TO.C,R2*%
X67364839Y-70795267D02*
X66105527Y-70068203D01*
X68274839Y-69219101D02*
X67015527Y-68492037D01*
%TO.C,J3*%
X47963684Y-100507043D02*
X48149793Y-100570219D01*
X48236022Y-100617406D01*
X53345572Y-103567406D01*
X54598199Y-103597791D01*
X58581916Y-105897791D01*
X58665896Y-105948873D01*
X58813662Y-106078461D01*
X58933308Y-106234386D01*
X59020236Y-106410657D01*
X59071104Y-106600501D01*
X59083959Y-106796620D01*
X59058305Y-106991478D01*
X58995129Y-107177587D01*
X58947942Y-107263816D01*
X56197942Y-112026956D01*
X56146730Y-112110843D01*
X56017163Y-112258586D01*
X55861262Y-112378212D01*
X55685019Y-112465126D01*
X55495206Y-112515986D01*
X55299118Y-112528838D01*
X55104290Y-112503189D01*
X54918210Y-112440024D01*
X54831916Y-112392981D01*
X50848199Y-110092981D01*
X50195572Y-109023366D01*
X45086022Y-106073366D01*
X45002135Y-106022154D01*
X44854392Y-105892587D01*
X44734765Y-105736686D01*
X44647851Y-105560443D01*
X44596991Y-105370630D01*
X44584139Y-105174542D01*
X44609788Y-104979715D01*
X44672954Y-104793635D01*
X44719996Y-104707341D01*
X46869996Y-100983431D01*
X46921079Y-100899452D01*
X47050666Y-100751685D01*
X47206591Y-100632039D01*
X47382863Y-100545112D01*
X47572706Y-100494244D01*
X47768826Y-100481389D01*
X47963684Y-100507043D01*
D17*
%TO.C,U4*%
X96762905Y-77128675D02*
X95517905Y-77128675D01*
X96762905Y-76398675D02*
X96762905Y-77128675D01*
X96762905Y-58348675D02*
X96762905Y-51628675D01*
X96762905Y-51628675D02*
X78762905Y-51628675D01*
X78762905Y-77128675D02*
X80007905Y-77128675D01*
X78762905Y-76398675D02*
X78762905Y-77128675D01*
X78762905Y-51628675D02*
X78762905Y-58348675D01*
D14*
X98062905Y-59118675D02*
G75*
G03*
X98062905Y-59118675I-100000J0D01*
G01*
D12*
%TO.C,M1*%
X71371704Y-105457029D02*
X73121704Y-102425940D01*
X72064525Y-105857029D02*
X71371704Y-105457029D01*
X72650415Y-104844369D02*
X73948563Y-105593779D01*
X73948563Y-105593779D02*
X75100377Y-106258779D01*
X75100377Y-106258779D02*
X75765377Y-105106966D01*
X73814525Y-102825940D02*
X72064525Y-105857029D01*
X73814525Y-102825940D02*
X80814525Y-90701585D01*
X74096749Y-102677113D02*
X76400377Y-104007113D01*
X74096749Y-102677113D02*
X75396749Y-100425447D01*
X76400377Y-104007113D02*
X77700377Y-101755447D01*
X61131323Y-93193889D02*
X67131323Y-82801585D01*
X61305394Y-93294389D02*
X74121704Y-100693889D01*
X74121704Y-100693889D02*
X73121704Y-102425940D01*
X74121704Y-100693889D02*
X80121704Y-90301585D01*
X75396749Y-100425447D02*
X77700377Y-101755447D01*
X54721069Y-84296775D02*
X54971069Y-83863762D01*
X55154082Y-84546775D02*
X54721069Y-84296775D01*
X55587095Y-84796775D02*
X55154082Y-84546775D01*
X48042866Y-79863762D02*
X54971069Y-83863762D01*
D13*
X77554717Y-95747737D02*
X81018819Y-97747737D01*
D12*
X49292866Y-77698699D02*
X48042866Y-79863762D01*
X49725879Y-77948699D02*
X49292866Y-77698699D01*
X56221069Y-81698699D02*
X49725879Y-77948699D01*
X56654082Y-81948699D02*
X56221069Y-81698699D01*
D14*
X57087095Y-82198699D02*
X53337095Y-88693889D01*
D12*
X57087095Y-82198699D02*
X56654082Y-81948699D01*
X67081323Y-82888187D02*
X66981323Y-83061392D01*
D14*
X59337095Y-78301585D02*
X57087095Y-82198699D01*
D12*
X80121704Y-90301585D02*
X67131323Y-82801585D01*
X80814525Y-90701585D02*
X80121704Y-90301585D01*
X53387095Y-88607287D02*
X53487095Y-88434082D01*
X53487095Y-88434082D02*
X61281323Y-92934082D01*
X61281323Y-92934082D02*
X61181323Y-93107287D01*
X61181323Y-93107287D02*
X53387095Y-88607287D01*
G36*
X53387095Y-88607287D02*
G01*
X53487095Y-88434082D01*
X61281323Y-92934082D01*
X61181323Y-93107287D01*
X53387095Y-88607287D01*
G37*
D15*
X76883704Y-95909965D02*
X77359704Y-95085509D01*
X77359704Y-95085509D02*
X77792717Y-95335509D01*
X77792717Y-95335509D02*
X77316717Y-96159965D01*
X77316717Y-96159965D02*
X76883704Y-95909965D01*
G36*
X76883704Y-95909965D02*
G01*
X77359704Y-95085509D01*
X77792717Y-95335509D01*
X77316717Y-96159965D01*
X76883704Y-95909965D01*
G37*
D12*
X59187095Y-78561392D02*
X59287095Y-78388187D01*
X59287095Y-78388187D02*
X67081323Y-82888187D01*
X67081323Y-82888187D02*
X66981323Y-83061392D01*
X66981323Y-83061392D02*
X59187095Y-78561392D01*
G36*
X59187095Y-78561392D02*
G01*
X59287095Y-78388187D01*
X67081323Y-82888187D01*
X66981323Y-83061392D01*
X59187095Y-78561392D01*
G37*
D16*
X74464693Y-91848237D02*
G75*
G03*
X74464693Y-91848237I-3664108J0D01*
G01*
%TD*%
M02*
