%TF.GenerationSoftware,KiCad,Pcbnew,7.0.6*%
%TF.CreationDate,2024-05-15T12:06:43-04:00*%
%TF.ProjectId,remote_omnidirection_droid_v0.1,72656d6f-7465-45f6-9f6d-6e6964697265,rev?*%
%TF.SameCoordinates,Original*%
%TF.FileFunction,Legend,Top*%
%TF.FilePolarity,Positive*%
%FSLAX46Y46*%
G04 Gerber Fmt 4.6, Leading zero omitted, Abs format (unit mm)*
G04 Created by KiCad (PCBNEW 7.0.6) date 2024-05-15 12:06:43*
%MOMM*%
%LPD*%
G01*
G04 APERTURE LIST*
%ADD10C,0.150000*%
%ADD11C,0.120000*%
%ADD12C,0.250000*%
G04 APERTURE END LIST*
D10*
X87382002Y-102707496D02*
X87382002Y-103517019D01*
X87382002Y-103517019D02*
X87429621Y-103612257D01*
X87429621Y-103612257D02*
X87477240Y-103659877D01*
X87477240Y-103659877D02*
X87572478Y-103707496D01*
X87572478Y-103707496D02*
X87762954Y-103707496D01*
X87762954Y-103707496D02*
X87858192Y-103659877D01*
X87858192Y-103659877D02*
X87905811Y-103612257D01*
X87905811Y-103612257D02*
X87953430Y-103517019D01*
X87953430Y-103517019D02*
X87953430Y-102707496D01*
X88905811Y-102707496D02*
X88429621Y-102707496D01*
X88429621Y-102707496D02*
X88382002Y-103183686D01*
X88382002Y-103183686D02*
X88429621Y-103136067D01*
X88429621Y-103136067D02*
X88524859Y-103088448D01*
X88524859Y-103088448D02*
X88762954Y-103088448D01*
X88762954Y-103088448D02*
X88858192Y-103136067D01*
X88858192Y-103136067D02*
X88905811Y-103183686D01*
X88905811Y-103183686D02*
X88953430Y-103278924D01*
X88953430Y-103278924D02*
X88953430Y-103517019D01*
X88953430Y-103517019D02*
X88905811Y-103612257D01*
X88905811Y-103612257D02*
X88858192Y-103659877D01*
X88858192Y-103659877D02*
X88762954Y-103707496D01*
X88762954Y-103707496D02*
X88524859Y-103707496D01*
X88524859Y-103707496D02*
X88429621Y-103659877D01*
X88429621Y-103659877D02*
X88382002Y-103612257D01*
X108233208Y-110083426D02*
X107757017Y-110416759D01*
X108233208Y-110654854D02*
X107233208Y-110654854D01*
X107233208Y-110654854D02*
X107233208Y-110273902D01*
X107233208Y-110273902D02*
X107280827Y-110178664D01*
X107280827Y-110178664D02*
X107328446Y-110131045D01*
X107328446Y-110131045D02*
X107423684Y-110083426D01*
X107423684Y-110083426D02*
X107566541Y-110083426D01*
X107566541Y-110083426D02*
X107661779Y-110131045D01*
X107661779Y-110131045D02*
X107709398Y-110178664D01*
X107709398Y-110178664D02*
X107757017Y-110273902D01*
X107757017Y-110273902D02*
X107757017Y-110654854D01*
X107328446Y-109702473D02*
X107280827Y-109654854D01*
X107280827Y-109654854D02*
X107233208Y-109559616D01*
X107233208Y-109559616D02*
X107233208Y-109321521D01*
X107233208Y-109321521D02*
X107280827Y-109226283D01*
X107280827Y-109226283D02*
X107328446Y-109178664D01*
X107328446Y-109178664D02*
X107423684Y-109131045D01*
X107423684Y-109131045D02*
X107518922Y-109131045D01*
X107518922Y-109131045D02*
X107661779Y-109178664D01*
X107661779Y-109178664D02*
X108233208Y-109750092D01*
X108233208Y-109750092D02*
X108233208Y-109131045D01*
X108233208Y-108178664D02*
X108233208Y-108750092D01*
X108233208Y-108464378D02*
X107233208Y-108464378D01*
X107233208Y-108464378D02*
X107376065Y-108559616D01*
X107376065Y-108559616D02*
X107471303Y-108654854D01*
X107471303Y-108654854D02*
X107518922Y-108750092D01*
X101277015Y-102616759D02*
X101753206Y-102616759D01*
X100753206Y-102950092D02*
X101277015Y-102616759D01*
X101277015Y-102616759D02*
X100753206Y-102283426D01*
X101753206Y-101426283D02*
X101753206Y-101997711D01*
X101753206Y-101711997D02*
X100753206Y-101711997D01*
X100753206Y-101711997D02*
X100896063Y-101807235D01*
X100896063Y-101807235D02*
X100991301Y-101902473D01*
X100991301Y-101902473D02*
X101038920Y-101997711D01*
X93355532Y-130500152D02*
X93307913Y-130547772D01*
X93307913Y-130547772D02*
X93165056Y-130595391D01*
X93165056Y-130595391D02*
X93069818Y-130595391D01*
X93069818Y-130595391D02*
X92926961Y-130547772D01*
X92926961Y-130547772D02*
X92831723Y-130452533D01*
X92831723Y-130452533D02*
X92784104Y-130357295D01*
X92784104Y-130357295D02*
X92736485Y-130166819D01*
X92736485Y-130166819D02*
X92736485Y-130023962D01*
X92736485Y-130023962D02*
X92784104Y-129833486D01*
X92784104Y-129833486D02*
X92831723Y-129738248D01*
X92831723Y-129738248D02*
X92926961Y-129643010D01*
X92926961Y-129643010D02*
X93069818Y-129595391D01*
X93069818Y-129595391D02*
X93165056Y-129595391D01*
X93165056Y-129595391D02*
X93307913Y-129643010D01*
X93307913Y-129643010D02*
X93355532Y-129690629D01*
X94307913Y-130595391D02*
X93736485Y-130595391D01*
X94022199Y-130595391D02*
X94022199Y-129595391D01*
X94022199Y-129595391D02*
X93926961Y-129738248D01*
X93926961Y-129738248D02*
X93831723Y-129833486D01*
X93831723Y-129833486D02*
X93736485Y-129881105D01*
X95260294Y-130595391D02*
X94688866Y-130595391D01*
X94974580Y-130595391D02*
X94974580Y-129595391D01*
X94974580Y-129595391D02*
X94879342Y-129738248D01*
X94879342Y-129738248D02*
X94784104Y-129833486D01*
X94784104Y-129833486D02*
X94688866Y-129881105D01*
X109557969Y-102820929D02*
X109605589Y-102868548D01*
X109605589Y-102868548D02*
X109653208Y-103011405D01*
X109653208Y-103011405D02*
X109653208Y-103106643D01*
X109653208Y-103106643D02*
X109605589Y-103249500D01*
X109605589Y-103249500D02*
X109510350Y-103344738D01*
X109510350Y-103344738D02*
X109415112Y-103392357D01*
X109415112Y-103392357D02*
X109224636Y-103439976D01*
X109224636Y-103439976D02*
X109081779Y-103439976D01*
X109081779Y-103439976D02*
X108891303Y-103392357D01*
X108891303Y-103392357D02*
X108796065Y-103344738D01*
X108796065Y-103344738D02*
X108700827Y-103249500D01*
X108700827Y-103249500D02*
X108653208Y-103106643D01*
X108653208Y-103106643D02*
X108653208Y-103011405D01*
X108653208Y-103011405D02*
X108700827Y-102868548D01*
X108700827Y-102868548D02*
X108748446Y-102820929D01*
X109653208Y-101868548D02*
X109653208Y-102439976D01*
X109653208Y-102154262D02*
X108653208Y-102154262D01*
X108653208Y-102154262D02*
X108796065Y-102249500D01*
X108796065Y-102249500D02*
X108891303Y-102344738D01*
X108891303Y-102344738D02*
X108938922Y-102439976D01*
X108986541Y-101011405D02*
X109653208Y-101011405D01*
X108605589Y-101249500D02*
X109319874Y-101487595D01*
X109319874Y-101487595D02*
X109319874Y-100868548D01*
X60244526Y-111607365D02*
X59665467Y-111657945D01*
X59958812Y-112102237D02*
X59092787Y-111602237D01*
X59092787Y-111602237D02*
X59283263Y-111272322D01*
X59283263Y-111272322D02*
X59372121Y-111213653D01*
X59372121Y-111213653D02*
X59437170Y-111196224D01*
X59437170Y-111196224D02*
X59543458Y-111202603D01*
X59543458Y-111202603D02*
X59667176Y-111274032D01*
X59667176Y-111274032D02*
X59725845Y-111362890D01*
X59725845Y-111362890D02*
X59743275Y-111427939D01*
X59743275Y-111427939D02*
X59736895Y-111534227D01*
X59736895Y-111534227D02*
X59546419Y-111864142D01*
X59545168Y-110818690D02*
X59854691Y-110282579D01*
X59854691Y-110282579D02*
X60017939Y-110761730D01*
X60017939Y-110761730D02*
X60089368Y-110638012D01*
X60089368Y-110638012D02*
X60178226Y-110579343D01*
X60178226Y-110579343D02*
X60243275Y-110561914D01*
X60243275Y-110561914D02*
X60349563Y-110568293D01*
X60349563Y-110568293D02*
X60555760Y-110687341D01*
X60555760Y-110687341D02*
X60614429Y-110776199D01*
X60614429Y-110776199D02*
X60631858Y-110841248D01*
X60631858Y-110841248D02*
X60625479Y-110947536D01*
X60625479Y-110947536D02*
X60482621Y-111194972D01*
X60482621Y-111194972D02*
X60393763Y-111253641D01*
X60393763Y-111253641D02*
X60328714Y-111271071D01*
X107423207Y-61464009D02*
X108137492Y-61464009D01*
X108137492Y-61464009D02*
X108280349Y-61511628D01*
X108280349Y-61511628D02*
X108375588Y-61606866D01*
X108375588Y-61606866D02*
X108423207Y-61749723D01*
X108423207Y-61749723D02*
X108423207Y-61844961D01*
X107756540Y-60559247D02*
X108423207Y-60559247D01*
X107375588Y-60797342D02*
X108089873Y-61035437D01*
X108089873Y-61035437D02*
X108089873Y-60416390D01*
X73356595Y-142425184D02*
X73602321Y-141898413D01*
X73070880Y-141930312D02*
X73936906Y-141430312D01*
X73936906Y-141430312D02*
X74127382Y-141760227D01*
X74127382Y-141760227D02*
X74133762Y-141866515D01*
X74133762Y-141866515D02*
X74116332Y-141931564D01*
X74116332Y-141931564D02*
X74057663Y-142020422D01*
X74057663Y-142020422D02*
X73933945Y-142091851D01*
X73933945Y-142091851D02*
X73827657Y-142098230D01*
X73827657Y-142098230D02*
X73762608Y-142080800D01*
X73762608Y-142080800D02*
X73673750Y-142022131D01*
X73673750Y-142022131D02*
X73483273Y-141692217D01*
X74362516Y-142834158D02*
X73785166Y-143167491D01*
X74573383Y-142437485D02*
X73835746Y-142588432D01*
X73835746Y-142588432D02*
X74145270Y-143124543D01*
X54533975Y-100198335D02*
X53667950Y-99698335D01*
X53667950Y-99698335D02*
X53786997Y-99492138D01*
X53786997Y-99492138D02*
X53899665Y-99392230D01*
X53899665Y-99392230D02*
X54029763Y-99357370D01*
X54029763Y-99357370D02*
X54136051Y-99363750D01*
X54136051Y-99363750D02*
X54324818Y-99417749D01*
X54324818Y-99417749D02*
X54448536Y-99489177D01*
X54448536Y-99489177D02*
X54589683Y-99625655D01*
X54589683Y-99625655D02*
X54648352Y-99714513D01*
X54648352Y-99714513D02*
X54683212Y-99844611D01*
X54683212Y-99844611D02*
X54653023Y-99992138D01*
X54653023Y-99992138D02*
X54533975Y-100198335D01*
X54382235Y-98461156D02*
X54286997Y-98626113D01*
X54286997Y-98626113D02*
X54280617Y-98732401D01*
X54280617Y-98732401D02*
X54298047Y-98797450D01*
X54298047Y-98797450D02*
X54374146Y-98951357D01*
X54374146Y-98951357D02*
X54515294Y-99087834D01*
X54515294Y-99087834D02*
X54845208Y-99278311D01*
X54845208Y-99278311D02*
X54951496Y-99284690D01*
X54951496Y-99284690D02*
X55016545Y-99267261D01*
X55016545Y-99267261D02*
X55105404Y-99208592D01*
X55105404Y-99208592D02*
X55200642Y-99043634D01*
X55200642Y-99043634D02*
X55207021Y-98937346D01*
X55207021Y-98937346D02*
X55189592Y-98872297D01*
X55189592Y-98872297D02*
X55130923Y-98783439D01*
X55130923Y-98783439D02*
X54924726Y-98664391D01*
X54924726Y-98664391D02*
X54818438Y-98658012D01*
X54818438Y-98658012D02*
X54753389Y-98675441D01*
X54753389Y-98675441D02*
X54664531Y-98734110D01*
X54664531Y-98734110D02*
X54569293Y-98899068D01*
X54569293Y-98899068D02*
X54562913Y-99005356D01*
X54562913Y-99005356D02*
X54580343Y-99070405D01*
X54580343Y-99070405D02*
X54639012Y-99159263D01*
X148951975Y-122532159D02*
X148901395Y-121953099D01*
X148457104Y-122246444D02*
X148957104Y-121380419D01*
X148957104Y-121380419D02*
X149287018Y-121570895D01*
X149287018Y-121570895D02*
X149345687Y-121659754D01*
X149345687Y-121659754D02*
X149363117Y-121724802D01*
X149363117Y-121724802D02*
X149356737Y-121831091D01*
X149356737Y-121831091D02*
X149285309Y-121954808D01*
X149285309Y-121954808D02*
X149196450Y-122013478D01*
X149196450Y-122013478D02*
X149131401Y-122030907D01*
X149131401Y-122030907D02*
X149025113Y-122024528D01*
X149025113Y-122024528D02*
X148695199Y-121834051D01*
X149776761Y-123008349D02*
X149281890Y-122722635D01*
X149529326Y-122865492D02*
X150029326Y-121999467D01*
X150029326Y-121999467D02*
X149875418Y-122075566D01*
X149875418Y-122075566D02*
X149745321Y-122110425D01*
X149745321Y-122110425D02*
X149639033Y-122104045D01*
X150559057Y-122415279D02*
X150624106Y-122397849D01*
X150624106Y-122397849D02*
X150730394Y-122404229D01*
X150730394Y-122404229D02*
X150936590Y-122523276D01*
X150936590Y-122523276D02*
X150995259Y-122612135D01*
X150995259Y-122612135D02*
X151012689Y-122677183D01*
X151012689Y-122677183D02*
X151006309Y-122783472D01*
X151006309Y-122783472D02*
X150958690Y-122865950D01*
X150958690Y-122865950D02*
X150846023Y-122965859D01*
X150846023Y-122965859D02*
X150065437Y-123175016D01*
X150065437Y-123175016D02*
X150601548Y-123484540D01*
X63887723Y-105497066D02*
X63829054Y-105408208D01*
X63829054Y-105408208D02*
X63794195Y-105278110D01*
X63794195Y-105278110D02*
X63741905Y-105082963D01*
X63741905Y-105082963D02*
X63683236Y-104994105D01*
X63683236Y-104994105D02*
X63600758Y-104946486D01*
X63522949Y-105176492D02*
X63464280Y-105087634D01*
X63464280Y-105087634D02*
X63429421Y-104957536D01*
X63429421Y-104957536D02*
X63483419Y-104768769D01*
X63483419Y-104768769D02*
X63650086Y-104480094D01*
X63650086Y-104480094D02*
X63786564Y-104338946D01*
X63786564Y-104338946D02*
X63916661Y-104304087D01*
X63916661Y-104304087D02*
X64022949Y-104310467D01*
X64022949Y-104310467D02*
X64187907Y-104405705D01*
X64187907Y-104405705D02*
X64246576Y-104494563D01*
X64246576Y-104494563D02*
X64281435Y-104624661D01*
X64281435Y-104624661D02*
X64227436Y-104813428D01*
X64227436Y-104813428D02*
X64060770Y-105102103D01*
X64060770Y-105102103D02*
X63924292Y-105243250D01*
X63924292Y-105243250D02*
X63794195Y-105278110D01*
X63794195Y-105278110D02*
X63687907Y-105271730D01*
X63687907Y-105271730D02*
X63522949Y-105176492D01*
X64718889Y-105866968D02*
X64224017Y-105581254D01*
X64471453Y-105724111D02*
X64971453Y-104858086D01*
X64971453Y-104858086D02*
X64817546Y-104934185D01*
X64817546Y-104934185D02*
X64687448Y-104969044D01*
X64687448Y-104969044D02*
X64581160Y-104962664D01*
X65894623Y-136129665D02*
X65877193Y-136194714D01*
X65877193Y-136194714D02*
X65777285Y-136307382D01*
X65777285Y-136307382D02*
X65694806Y-136355001D01*
X65694806Y-136355001D02*
X65547279Y-136385190D01*
X65547279Y-136385190D02*
X65417181Y-136350330D01*
X65417181Y-136350330D02*
X65328323Y-136291661D01*
X65328323Y-136291661D02*
X65191845Y-136150514D01*
X65191845Y-136150514D02*
X65120417Y-136026796D01*
X65120417Y-136026796D02*
X65066418Y-135838029D01*
X65066418Y-135838029D02*
X65060038Y-135731741D01*
X65060038Y-135731741D02*
X65094898Y-135601643D01*
X65094898Y-135601643D02*
X65194806Y-135488975D01*
X65194806Y-135488975D02*
X65277285Y-135441356D01*
X65277285Y-135441356D02*
X65424812Y-135411167D01*
X65424812Y-135411167D02*
X65489861Y-135428597D01*
X65819775Y-135238120D02*
X65837205Y-135173072D01*
X65837205Y-135173072D02*
X65895874Y-135084213D01*
X65895874Y-135084213D02*
X66102071Y-134965166D01*
X66102071Y-134965166D02*
X66208359Y-134958786D01*
X66208359Y-134958786D02*
X66273408Y-134976216D01*
X66273408Y-134976216D02*
X66362266Y-135034885D01*
X66362266Y-135034885D02*
X66409885Y-135117363D01*
X66409885Y-135117363D02*
X66440074Y-135264891D01*
X66440074Y-135264891D02*
X66230917Y-136045477D01*
X66230917Y-136045477D02*
X66767028Y-135735953D01*
X72206592Y-140433319D02*
X72452318Y-139906548D01*
X71920877Y-139938447D02*
X72786903Y-139438447D01*
X72786903Y-139438447D02*
X72977379Y-139768362D01*
X72977379Y-139768362D02*
X72983759Y-139874650D01*
X72983759Y-139874650D02*
X72966329Y-139939699D01*
X72966329Y-139939699D02*
X72907660Y-140028557D01*
X72907660Y-140028557D02*
X72783942Y-140099986D01*
X72783942Y-140099986D02*
X72677654Y-140106365D01*
X72677654Y-140106365D02*
X72612605Y-140088935D01*
X72612605Y-140088935D02*
X72523747Y-140030266D01*
X72523747Y-140030266D02*
X72333270Y-139700352D01*
X73524998Y-140716866D02*
X73286903Y-140304473D01*
X73286903Y-140304473D02*
X72850700Y-140501329D01*
X72850700Y-140501329D02*
X72915749Y-140518758D01*
X72915749Y-140518758D02*
X73004607Y-140577427D01*
X73004607Y-140577427D02*
X73123655Y-140783624D01*
X73123655Y-140783624D02*
X73130035Y-140889912D01*
X73130035Y-140889912D02*
X73112605Y-140954961D01*
X73112605Y-140954961D02*
X73053936Y-141043819D01*
X73053936Y-141043819D02*
X72847739Y-141162867D01*
X72847739Y-141162867D02*
X72741451Y-141169247D01*
X72741451Y-141169247D02*
X72676402Y-141151817D01*
X72676402Y-141151817D02*
X72587544Y-141093148D01*
X72587544Y-141093148D02*
X72468496Y-140886951D01*
X72468496Y-140886951D02*
X72462117Y-140780663D01*
X72462117Y-140780663D02*
X72479546Y-140715614D01*
X88007968Y-126483428D02*
X88055588Y-126531047D01*
X88055588Y-126531047D02*
X88103207Y-126673904D01*
X88103207Y-126673904D02*
X88103207Y-126769142D01*
X88103207Y-126769142D02*
X88055588Y-126911999D01*
X88055588Y-126911999D02*
X87960349Y-127007237D01*
X87960349Y-127007237D02*
X87865111Y-127054856D01*
X87865111Y-127054856D02*
X87674635Y-127102475D01*
X87674635Y-127102475D02*
X87531778Y-127102475D01*
X87531778Y-127102475D02*
X87341302Y-127054856D01*
X87341302Y-127054856D02*
X87246064Y-127007237D01*
X87246064Y-127007237D02*
X87150826Y-126911999D01*
X87150826Y-126911999D02*
X87103207Y-126769142D01*
X87103207Y-126769142D02*
X87103207Y-126673904D01*
X87103207Y-126673904D02*
X87150826Y-126531047D01*
X87150826Y-126531047D02*
X87198445Y-126483428D01*
X88103207Y-125531047D02*
X88103207Y-126102475D01*
X88103207Y-125816761D02*
X87103207Y-125816761D01*
X87103207Y-125816761D02*
X87246064Y-125911999D01*
X87246064Y-125911999D02*
X87341302Y-126007237D01*
X87341302Y-126007237D02*
X87388921Y-126102475D01*
X87103207Y-124911999D02*
X87103207Y-124816761D01*
X87103207Y-124816761D02*
X87150826Y-124721523D01*
X87150826Y-124721523D02*
X87198445Y-124673904D01*
X87198445Y-124673904D02*
X87293683Y-124626285D01*
X87293683Y-124626285D02*
X87484159Y-124578666D01*
X87484159Y-124578666D02*
X87722254Y-124578666D01*
X87722254Y-124578666D02*
X87912730Y-124626285D01*
X87912730Y-124626285D02*
X88007968Y-124673904D01*
X88007968Y-124673904D02*
X88055588Y-124721523D01*
X88055588Y-124721523D02*
X88103207Y-124816761D01*
X88103207Y-124816761D02*
X88103207Y-124911999D01*
X88103207Y-124911999D02*
X88055588Y-125007237D01*
X88055588Y-125007237D02*
X88007968Y-125054856D01*
X88007968Y-125054856D02*
X87912730Y-125102475D01*
X87912730Y-125102475D02*
X87722254Y-125150094D01*
X87722254Y-125150094D02*
X87484159Y-125150094D01*
X87484159Y-125150094D02*
X87293683Y-125102475D01*
X87293683Y-125102475D02*
X87198445Y-125054856D01*
X87198445Y-125054856D02*
X87150826Y-125007237D01*
X87150826Y-125007237D02*
X87103207Y-124911999D01*
X147141975Y-125667170D02*
X147091395Y-125088110D01*
X146647104Y-125381455D02*
X147147104Y-124515430D01*
X147147104Y-124515430D02*
X147477018Y-124705906D01*
X147477018Y-124705906D02*
X147535687Y-124794765D01*
X147535687Y-124794765D02*
X147553117Y-124859813D01*
X147553117Y-124859813D02*
X147546737Y-124966102D01*
X147546737Y-124966102D02*
X147475309Y-125089819D01*
X147475309Y-125089819D02*
X147386450Y-125148489D01*
X147386450Y-125148489D02*
X147321401Y-125165918D01*
X147321401Y-125165918D02*
X147215113Y-125159539D01*
X147215113Y-125159539D02*
X146885199Y-124969062D01*
X147966761Y-126143360D02*
X147471890Y-125857646D01*
X147719326Y-126000503D02*
X148219326Y-125134478D01*
X148219326Y-125134478D02*
X148065418Y-125210577D01*
X148065418Y-125210577D02*
X147935321Y-125245436D01*
X147935321Y-125245436D02*
X147829033Y-125239056D01*
X148755437Y-125444002D02*
X149291548Y-125753525D01*
X149291548Y-125753525D02*
X148812396Y-125916773D01*
X148812396Y-125916773D02*
X148936114Y-125988202D01*
X148936114Y-125988202D02*
X148994783Y-126077060D01*
X148994783Y-126077060D02*
X149012213Y-126142109D01*
X149012213Y-126142109D02*
X149005833Y-126248397D01*
X149005833Y-126248397D02*
X148886786Y-126454594D01*
X148886786Y-126454594D02*
X148797927Y-126513263D01*
X148797927Y-126513263D02*
X148732878Y-126530692D01*
X148732878Y-126530692D02*
X148626590Y-126524313D01*
X148626590Y-126524313D02*
X148379155Y-126381455D01*
X148379155Y-126381455D02*
X148320485Y-126292597D01*
X148320485Y-126292597D02*
X148303056Y-126227548D01*
X89355532Y-106300150D02*
X89307913Y-106347770D01*
X89307913Y-106347770D02*
X89165056Y-106395389D01*
X89165056Y-106395389D02*
X89069818Y-106395389D01*
X89069818Y-106395389D02*
X88926961Y-106347770D01*
X88926961Y-106347770D02*
X88831723Y-106252531D01*
X88831723Y-106252531D02*
X88784104Y-106157293D01*
X88784104Y-106157293D02*
X88736485Y-105966817D01*
X88736485Y-105966817D02*
X88736485Y-105823960D01*
X88736485Y-105823960D02*
X88784104Y-105633484D01*
X88784104Y-105633484D02*
X88831723Y-105538246D01*
X88831723Y-105538246D02*
X88926961Y-105443008D01*
X88926961Y-105443008D02*
X89069818Y-105395389D01*
X89069818Y-105395389D02*
X89165056Y-105395389D01*
X89165056Y-105395389D02*
X89307913Y-105443008D01*
X89307913Y-105443008D02*
X89355532Y-105490627D01*
X90307913Y-106395389D02*
X89736485Y-106395389D01*
X90022199Y-106395389D02*
X90022199Y-105395389D01*
X90022199Y-105395389D02*
X89926961Y-105538246D01*
X89926961Y-105538246D02*
X89831723Y-105633484D01*
X89831723Y-105633484D02*
X89736485Y-105681103D01*
X91165056Y-105395389D02*
X90974580Y-105395389D01*
X90974580Y-105395389D02*
X90879342Y-105443008D01*
X90879342Y-105443008D02*
X90831723Y-105490627D01*
X90831723Y-105490627D02*
X90736485Y-105633484D01*
X90736485Y-105633484D02*
X90688866Y-105823960D01*
X90688866Y-105823960D02*
X90688866Y-106204912D01*
X90688866Y-106204912D02*
X90736485Y-106300150D01*
X90736485Y-106300150D02*
X90784104Y-106347770D01*
X90784104Y-106347770D02*
X90879342Y-106395389D01*
X90879342Y-106395389D02*
X91069818Y-106395389D01*
X91069818Y-106395389D02*
X91165056Y-106347770D01*
X91165056Y-106347770D02*
X91212675Y-106300150D01*
X91212675Y-106300150D02*
X91260294Y-106204912D01*
X91260294Y-106204912D02*
X91260294Y-105966817D01*
X91260294Y-105966817D02*
X91212675Y-105871579D01*
X91212675Y-105871579D02*
X91165056Y-105823960D01*
X91165056Y-105823960D02*
X91069818Y-105776341D01*
X91069818Y-105776341D02*
X90879342Y-105776341D01*
X90879342Y-105776341D02*
X90784104Y-105823960D01*
X90784104Y-105823960D02*
X90736485Y-105871579D01*
X90736485Y-105871579D02*
X90688866Y-105966817D01*
X81033207Y-104783428D02*
X80557016Y-105116761D01*
X81033207Y-105354856D02*
X80033207Y-105354856D01*
X80033207Y-105354856D02*
X80033207Y-104973904D01*
X80033207Y-104973904D02*
X80080826Y-104878666D01*
X80080826Y-104878666D02*
X80128445Y-104831047D01*
X80128445Y-104831047D02*
X80223683Y-104783428D01*
X80223683Y-104783428D02*
X80366540Y-104783428D01*
X80366540Y-104783428D02*
X80461778Y-104831047D01*
X80461778Y-104831047D02*
X80509397Y-104878666D01*
X80509397Y-104878666D02*
X80557016Y-104973904D01*
X80557016Y-104973904D02*
X80557016Y-105354856D01*
X81033207Y-103831047D02*
X81033207Y-104402475D01*
X81033207Y-104116761D02*
X80033207Y-104116761D01*
X80033207Y-104116761D02*
X80176064Y-104211999D01*
X80176064Y-104211999D02*
X80271302Y-104307237D01*
X80271302Y-104307237D02*
X80318921Y-104402475D01*
X80033207Y-102973904D02*
X80033207Y-103164380D01*
X80033207Y-103164380D02*
X80080826Y-103259618D01*
X80080826Y-103259618D02*
X80128445Y-103307237D01*
X80128445Y-103307237D02*
X80271302Y-103402475D01*
X80271302Y-103402475D02*
X80461778Y-103450094D01*
X80461778Y-103450094D02*
X80842730Y-103450094D01*
X80842730Y-103450094D02*
X80937968Y-103402475D01*
X80937968Y-103402475D02*
X80985588Y-103354856D01*
X80985588Y-103354856D02*
X81033207Y-103259618D01*
X81033207Y-103259618D02*
X81033207Y-103069142D01*
X81033207Y-103069142D02*
X80985588Y-102973904D01*
X80985588Y-102973904D02*
X80937968Y-102926285D01*
X80937968Y-102926285D02*
X80842730Y-102878666D01*
X80842730Y-102878666D02*
X80604635Y-102878666D01*
X80604635Y-102878666D02*
X80509397Y-102926285D01*
X80509397Y-102926285D02*
X80461778Y-102973904D01*
X80461778Y-102973904D02*
X80414159Y-103069142D01*
X80414159Y-103069142D02*
X80414159Y-103259618D01*
X80414159Y-103259618D02*
X80461778Y-103354856D01*
X80461778Y-103354856D02*
X80509397Y-103402475D01*
X80509397Y-103402475D02*
X80604635Y-103450094D01*
X86555534Y-113750153D02*
X86507915Y-113797773D01*
X86507915Y-113797773D02*
X86365058Y-113845392D01*
X86365058Y-113845392D02*
X86269820Y-113845392D01*
X86269820Y-113845392D02*
X86126963Y-113797773D01*
X86126963Y-113797773D02*
X86031725Y-113702534D01*
X86031725Y-113702534D02*
X85984106Y-113607296D01*
X85984106Y-113607296D02*
X85936487Y-113416820D01*
X85936487Y-113416820D02*
X85936487Y-113273963D01*
X85936487Y-113273963D02*
X85984106Y-113083487D01*
X85984106Y-113083487D02*
X86031725Y-112988249D01*
X86031725Y-112988249D02*
X86126963Y-112893011D01*
X86126963Y-112893011D02*
X86269820Y-112845392D01*
X86269820Y-112845392D02*
X86365058Y-112845392D01*
X86365058Y-112845392D02*
X86507915Y-112893011D01*
X86507915Y-112893011D02*
X86555534Y-112940630D01*
X87507915Y-113845392D02*
X86936487Y-113845392D01*
X87222201Y-113845392D02*
X87222201Y-112845392D01*
X87222201Y-112845392D02*
X87126963Y-112988249D01*
X87126963Y-112988249D02*
X87031725Y-113083487D01*
X87031725Y-113083487D02*
X86936487Y-113131106D01*
X88079344Y-113273963D02*
X87984106Y-113226344D01*
X87984106Y-113226344D02*
X87936487Y-113178725D01*
X87936487Y-113178725D02*
X87888868Y-113083487D01*
X87888868Y-113083487D02*
X87888868Y-113035868D01*
X87888868Y-113035868D02*
X87936487Y-112940630D01*
X87936487Y-112940630D02*
X87984106Y-112893011D01*
X87984106Y-112893011D02*
X88079344Y-112845392D01*
X88079344Y-112845392D02*
X88269820Y-112845392D01*
X88269820Y-112845392D02*
X88365058Y-112893011D01*
X88365058Y-112893011D02*
X88412677Y-112940630D01*
X88412677Y-112940630D02*
X88460296Y-113035868D01*
X88460296Y-113035868D02*
X88460296Y-113083487D01*
X88460296Y-113083487D02*
X88412677Y-113178725D01*
X88412677Y-113178725D02*
X88365058Y-113226344D01*
X88365058Y-113226344D02*
X88269820Y-113273963D01*
X88269820Y-113273963D02*
X88079344Y-113273963D01*
X88079344Y-113273963D02*
X87984106Y-113321582D01*
X87984106Y-113321582D02*
X87936487Y-113369201D01*
X87936487Y-113369201D02*
X87888868Y-113464439D01*
X87888868Y-113464439D02*
X87888868Y-113654915D01*
X87888868Y-113654915D02*
X87936487Y-113750153D01*
X87936487Y-113750153D02*
X87984106Y-113797773D01*
X87984106Y-113797773D02*
X88079344Y-113845392D01*
X88079344Y-113845392D02*
X88269820Y-113845392D01*
X88269820Y-113845392D02*
X88365058Y-113797773D01*
X88365058Y-113797773D02*
X88412677Y-113750153D01*
X88412677Y-113750153D02*
X88460296Y-113654915D01*
X88460296Y-113654915D02*
X88460296Y-113464439D01*
X88460296Y-113464439D02*
X88412677Y-113369201D01*
X88412677Y-113369201D02*
X88365058Y-113321582D01*
X88365058Y-113321582D02*
X88269820Y-113273963D01*
X54287368Y-125632125D02*
X54644511Y-126250714D01*
X54644511Y-126250714D02*
X54674700Y-126398242D01*
X54674700Y-126398242D02*
X54639840Y-126528339D01*
X54639840Y-126528339D02*
X54539932Y-126641007D01*
X54539932Y-126641007D02*
X54457453Y-126688626D01*
X54706141Y-125500317D02*
X54723571Y-125435269D01*
X54723571Y-125435269D02*
X54782240Y-125346410D01*
X54782240Y-125346410D02*
X54988436Y-125227363D01*
X54988436Y-125227363D02*
X55094724Y-125220983D01*
X55094724Y-125220983D02*
X55159773Y-125238413D01*
X55159773Y-125238413D02*
X55248631Y-125297082D01*
X55248631Y-125297082D02*
X55296251Y-125379560D01*
X55296251Y-125379560D02*
X55326440Y-125527088D01*
X55326440Y-125527088D02*
X55117282Y-126307674D01*
X55117282Y-126307674D02*
X55653393Y-125998150D01*
X58760383Y-113987513D02*
X58777812Y-114052562D01*
X58777812Y-114052562D02*
X58747623Y-114200089D01*
X58747623Y-114200089D02*
X58700004Y-114282568D01*
X58700004Y-114282568D02*
X58587336Y-114382476D01*
X58587336Y-114382476D02*
X58457239Y-114417336D01*
X58457239Y-114417336D02*
X58350950Y-114410956D01*
X58350950Y-114410956D02*
X58162184Y-114356957D01*
X58162184Y-114356957D02*
X58038466Y-114285529D01*
X58038466Y-114285529D02*
X57897318Y-114149051D01*
X57897318Y-114149051D02*
X57838649Y-114060193D01*
X57838649Y-114060193D02*
X57803789Y-113930095D01*
X57803789Y-113930095D02*
X57833979Y-113782568D01*
X57833979Y-113782568D02*
X57881598Y-113700089D01*
X57881598Y-113700089D02*
X57994266Y-113600181D01*
X57994266Y-113600181D02*
X58059314Y-113582751D01*
X58429217Y-112751585D02*
X58191122Y-113163978D01*
X58191122Y-113163978D02*
X58579705Y-113443313D01*
X58579705Y-113443313D02*
X58562275Y-113378264D01*
X58562275Y-113378264D02*
X58568655Y-113271976D01*
X58568655Y-113271976D02*
X58687703Y-113065779D01*
X58687703Y-113065779D02*
X58776561Y-113007110D01*
X58776561Y-113007110D02*
X58841610Y-112989681D01*
X58841610Y-112989681D02*
X58947898Y-112996060D01*
X58947898Y-112996060D02*
X59154095Y-113115108D01*
X59154095Y-113115108D02*
X59212764Y-113203966D01*
X59212764Y-113203966D02*
X59230193Y-113269015D01*
X59230193Y-113269015D02*
X59223814Y-113375303D01*
X59223814Y-113375303D02*
X59104766Y-113581500D01*
X59104766Y-113581500D02*
X59015908Y-113640169D01*
X59015908Y-113640169D02*
X58950859Y-113657599D01*
X116238557Y-63861010D02*
X116286176Y-63718153D01*
X116286176Y-63718153D02*
X116286176Y-63480058D01*
X116286176Y-63480058D02*
X116238557Y-63384820D01*
X116238557Y-63384820D02*
X116190937Y-63337201D01*
X116190937Y-63337201D02*
X116095699Y-63289582D01*
X116095699Y-63289582D02*
X116000461Y-63289582D01*
X116000461Y-63289582D02*
X115905223Y-63337201D01*
X115905223Y-63337201D02*
X115857604Y-63384820D01*
X115857604Y-63384820D02*
X115809985Y-63480058D01*
X115809985Y-63480058D02*
X115762366Y-63670534D01*
X115762366Y-63670534D02*
X115714747Y-63765772D01*
X115714747Y-63765772D02*
X115667128Y-63813391D01*
X115667128Y-63813391D02*
X115571890Y-63861010D01*
X115571890Y-63861010D02*
X115476652Y-63861010D01*
X115476652Y-63861010D02*
X115381414Y-63813391D01*
X115381414Y-63813391D02*
X115333795Y-63765772D01*
X115333795Y-63765772D02*
X115286176Y-63670534D01*
X115286176Y-63670534D02*
X115286176Y-63432439D01*
X115286176Y-63432439D02*
X115333795Y-63289582D01*
X115286176Y-62956248D02*
X116286176Y-62718153D01*
X116286176Y-62718153D02*
X115571890Y-62527677D01*
X115571890Y-62527677D02*
X116286176Y-62337201D01*
X116286176Y-62337201D02*
X115286176Y-62099106D01*
X115381414Y-61765772D02*
X115333795Y-61718153D01*
X115333795Y-61718153D02*
X115286176Y-61622915D01*
X115286176Y-61622915D02*
X115286176Y-61384820D01*
X115286176Y-61384820D02*
X115333795Y-61289582D01*
X115333795Y-61289582D02*
X115381414Y-61241963D01*
X115381414Y-61241963D02*
X115476652Y-61194344D01*
X115476652Y-61194344D02*
X115571890Y-61194344D01*
X115571890Y-61194344D02*
X115714747Y-61241963D01*
X115714747Y-61241963D02*
X116286176Y-61813391D01*
X116286176Y-61813391D02*
X116286176Y-61194344D01*
X109472045Y-85521492D02*
X109138712Y-85045301D01*
X108900617Y-85521492D02*
X108900617Y-84521492D01*
X108900617Y-84521492D02*
X109281569Y-84521492D01*
X109281569Y-84521492D02*
X109376807Y-84569111D01*
X109376807Y-84569111D02*
X109424426Y-84616730D01*
X109424426Y-84616730D02*
X109472045Y-84711968D01*
X109472045Y-84711968D02*
X109472045Y-84854825D01*
X109472045Y-84854825D02*
X109424426Y-84950063D01*
X109424426Y-84950063D02*
X109376807Y-84997682D01*
X109376807Y-84997682D02*
X109281569Y-85045301D01*
X109281569Y-85045301D02*
X108900617Y-85045301D01*
X110424426Y-85521492D02*
X109852998Y-85521492D01*
X110138712Y-85521492D02*
X110138712Y-84521492D01*
X110138712Y-84521492D02*
X110043474Y-84664349D01*
X110043474Y-84664349D02*
X109948236Y-84759587D01*
X109948236Y-84759587D02*
X109852998Y-84807206D01*
X110757760Y-84521492D02*
X111424426Y-84521492D01*
X111424426Y-84521492D02*
X110995855Y-85521492D01*
X61402955Y-109675913D02*
X60536930Y-109175913D01*
X60536930Y-109175913D02*
X60655977Y-108969716D01*
X60655977Y-108969716D02*
X60768645Y-108869808D01*
X60768645Y-108869808D02*
X60898743Y-108834948D01*
X60898743Y-108834948D02*
X61005031Y-108841328D01*
X61005031Y-108841328D02*
X61193798Y-108895327D01*
X61193798Y-108895327D02*
X61317516Y-108966755D01*
X61317516Y-108966755D02*
X61458663Y-109103233D01*
X61458663Y-109103233D02*
X61517332Y-109192091D01*
X61517332Y-109192091D02*
X61552192Y-109322189D01*
X61552192Y-109322189D02*
X61522003Y-109469716D01*
X61522003Y-109469716D02*
X61402955Y-109675913D01*
X62164860Y-108356255D02*
X61879145Y-108851127D01*
X62022003Y-108603691D02*
X61155977Y-108103691D01*
X61155977Y-108103691D02*
X61232076Y-108257598D01*
X61232076Y-108257598D02*
X61266936Y-108387696D01*
X61266936Y-108387696D02*
X61260556Y-108493984D01*
X75622279Y-130608464D02*
X75604849Y-130673513D01*
X75604849Y-130673513D02*
X75504941Y-130786181D01*
X75504941Y-130786181D02*
X75422462Y-130833800D01*
X75422462Y-130833800D02*
X75274935Y-130863989D01*
X75274935Y-130863989D02*
X75144837Y-130829129D01*
X75144837Y-130829129D02*
X75055979Y-130770460D01*
X75055979Y-130770460D02*
X74919501Y-130629313D01*
X74919501Y-130629313D02*
X74848073Y-130505595D01*
X74848073Y-130505595D02*
X74794074Y-130316828D01*
X74794074Y-130316828D02*
X74787694Y-130210540D01*
X74787694Y-130210540D02*
X74822554Y-130080442D01*
X74822554Y-130080442D02*
X74922462Y-129967774D01*
X74922462Y-129967774D02*
X75004941Y-129920155D01*
X75004941Y-129920155D02*
X75152468Y-129889966D01*
X75152468Y-129889966D02*
X75217517Y-129907396D01*
X75912205Y-129396346D02*
X75747248Y-129491584D01*
X75747248Y-129491584D02*
X75688579Y-129580442D01*
X75688579Y-129580442D02*
X75671149Y-129645491D01*
X75671149Y-129645491D02*
X75660099Y-129816828D01*
X75660099Y-129816828D02*
X75714098Y-130005595D01*
X75714098Y-130005595D02*
X75904574Y-130335509D01*
X75904574Y-130335509D02*
X75993433Y-130394178D01*
X75993433Y-130394178D02*
X76058481Y-130411608D01*
X76058481Y-130411608D02*
X76164770Y-130405228D01*
X76164770Y-130405228D02*
X76329727Y-130309990D01*
X76329727Y-130309990D02*
X76388396Y-130221132D01*
X76388396Y-130221132D02*
X76405826Y-130156083D01*
X76405826Y-130156083D02*
X76399446Y-130049795D01*
X76399446Y-130049795D02*
X76280398Y-129843598D01*
X76280398Y-129843598D02*
X76191540Y-129784929D01*
X76191540Y-129784929D02*
X76126491Y-129767499D01*
X76126491Y-129767499D02*
X76020203Y-129773879D01*
X76020203Y-129773879D02*
X75855246Y-129869117D01*
X75855246Y-129869117D02*
X75796577Y-129957976D01*
X75796577Y-129957976D02*
X75779147Y-130023024D01*
X75779147Y-130023024D02*
X75785527Y-130129313D01*
X83736486Y-105695388D02*
X83736486Y-106504911D01*
X83736486Y-106504911D02*
X83784105Y-106600149D01*
X83784105Y-106600149D02*
X83831724Y-106647769D01*
X83831724Y-106647769D02*
X83926962Y-106695388D01*
X83926962Y-106695388D02*
X84117438Y-106695388D01*
X84117438Y-106695388D02*
X84212676Y-106647769D01*
X84212676Y-106647769D02*
X84260295Y-106600149D01*
X84260295Y-106600149D02*
X84307914Y-106504911D01*
X84307914Y-106504911D02*
X84307914Y-105695388D01*
X84688867Y-105695388D02*
X85355533Y-105695388D01*
X85355533Y-105695388D02*
X84926962Y-106695388D01*
X98033209Y-126317201D02*
X97033209Y-126317201D01*
X97033209Y-126317201D02*
X97747494Y-125983868D01*
X97747494Y-125983868D02*
X97033209Y-125650535D01*
X97033209Y-125650535D02*
X98033209Y-125650535D01*
X98033209Y-125174344D02*
X97033209Y-125174344D01*
X97033209Y-125174344D02*
X97033209Y-124936249D01*
X97033209Y-124936249D02*
X97080828Y-124793392D01*
X97080828Y-124793392D02*
X97176066Y-124698154D01*
X97176066Y-124698154D02*
X97271304Y-124650535D01*
X97271304Y-124650535D02*
X97461780Y-124602916D01*
X97461780Y-124602916D02*
X97604637Y-124602916D01*
X97604637Y-124602916D02*
X97795113Y-124650535D01*
X97795113Y-124650535D02*
X97890351Y-124698154D01*
X97890351Y-124698154D02*
X97985590Y-124793392D01*
X97985590Y-124793392D02*
X98033209Y-124936249D01*
X98033209Y-124936249D02*
X98033209Y-125174344D01*
X97128447Y-124221963D02*
X97080828Y-124174344D01*
X97080828Y-124174344D02*
X97033209Y-124079106D01*
X97033209Y-124079106D02*
X97033209Y-123841011D01*
X97033209Y-123841011D02*
X97080828Y-123745773D01*
X97080828Y-123745773D02*
X97128447Y-123698154D01*
X97128447Y-123698154D02*
X97223685Y-123650535D01*
X97223685Y-123650535D02*
X97318923Y-123650535D01*
X97318923Y-123650535D02*
X97461780Y-123698154D01*
X97461780Y-123698154D02*
X98033209Y-124269582D01*
X98033209Y-124269582D02*
X98033209Y-123650535D01*
X139901216Y-138827573D02*
X139544073Y-139446163D01*
X139544073Y-139446163D02*
X139431405Y-139546071D01*
X139431405Y-139546071D02*
X139301307Y-139580931D01*
X139301307Y-139580931D02*
X139153780Y-139550741D01*
X139153780Y-139550741D02*
X139071301Y-139503122D01*
X140726002Y-139303764D02*
X140313609Y-139065669D01*
X140313609Y-139065669D02*
X140034274Y-139454252D01*
X140034274Y-139454252D02*
X140099323Y-139436822D01*
X140099323Y-139436822D02*
X140205611Y-139443202D01*
X140205611Y-139443202D02*
X140411808Y-139562250D01*
X140411808Y-139562250D02*
X140470477Y-139651108D01*
X140470477Y-139651108D02*
X140487907Y-139716157D01*
X140487907Y-139716157D02*
X140481527Y-139822445D01*
X140481527Y-139822445D02*
X140362479Y-140028642D01*
X140362479Y-140028642D02*
X140273621Y-140087311D01*
X140273621Y-140087311D02*
X140208572Y-140104740D01*
X140208572Y-140104740D02*
X140102284Y-140098361D01*
X140102284Y-140098361D02*
X139896088Y-139979313D01*
X139896088Y-139979313D02*
X139837418Y-139890455D01*
X139837418Y-139890455D02*
X139819989Y-139825406D01*
X68100849Y-134950966D02*
X68083419Y-135016015D01*
X68083419Y-135016015D02*
X67983511Y-135128683D01*
X67983511Y-135128683D02*
X67901032Y-135176302D01*
X67901032Y-135176302D02*
X67753505Y-135206491D01*
X67753505Y-135206491D02*
X67623407Y-135171631D01*
X67623407Y-135171631D02*
X67534549Y-135112962D01*
X67534549Y-135112962D02*
X67398071Y-134971815D01*
X67398071Y-134971815D02*
X67326643Y-134848097D01*
X67326643Y-134848097D02*
X67272644Y-134659330D01*
X67272644Y-134659330D02*
X67266264Y-134553042D01*
X67266264Y-134553042D02*
X67301124Y-134422944D01*
X67301124Y-134422944D02*
X67401032Y-134310276D01*
X67401032Y-134310276D02*
X67483511Y-134262657D01*
X67483511Y-134262657D02*
X67631038Y-134232468D01*
X67631038Y-134232468D02*
X67696087Y-134249898D01*
X67937143Y-134000752D02*
X68514493Y-133667419D01*
X68514493Y-133667419D02*
X68643340Y-134747730D01*
X53277283Y-102475002D02*
X52411258Y-101975002D01*
X52411258Y-101975002D02*
X52530305Y-101768805D01*
X52530305Y-101768805D02*
X52642973Y-101668897D01*
X52642973Y-101668897D02*
X52773071Y-101634037D01*
X52773071Y-101634037D02*
X52879359Y-101640417D01*
X52879359Y-101640417D02*
X53068126Y-101694416D01*
X53068126Y-101694416D02*
X53191844Y-101765844D01*
X53191844Y-101765844D02*
X53332991Y-101902322D01*
X53332991Y-101902322D02*
X53391660Y-101991180D01*
X53391660Y-101991180D02*
X53426520Y-102121278D01*
X53426520Y-102121278D02*
X53396331Y-102268805D01*
X53396331Y-102268805D02*
X53277283Y-102475002D01*
X53414218Y-100904489D02*
X53991569Y-101237823D01*
X52965256Y-100920210D02*
X53464798Y-101483549D01*
X53464798Y-101483549D02*
X53774322Y-100947438D01*
X63154468Y-106767213D02*
X62575409Y-106817793D01*
X62868754Y-107262085D02*
X62002729Y-106762085D01*
X62002729Y-106762085D02*
X62193205Y-106432170D01*
X62193205Y-106432170D02*
X62282063Y-106373501D01*
X62282063Y-106373501D02*
X62347112Y-106356072D01*
X62347112Y-106356072D02*
X62453400Y-106362451D01*
X62453400Y-106362451D02*
X62577118Y-106433880D01*
X62577118Y-106433880D02*
X62635787Y-106522738D01*
X62635787Y-106522738D02*
X62653217Y-106587787D01*
X62653217Y-106587787D02*
X62646837Y-106694075D01*
X62646837Y-106694075D02*
X62456361Y-107023990D01*
X62717014Y-105524906D02*
X62621776Y-105689863D01*
X62621776Y-105689863D02*
X62615396Y-105796151D01*
X62615396Y-105796151D02*
X62632826Y-105861200D01*
X62632826Y-105861200D02*
X62708925Y-106015107D01*
X62708925Y-106015107D02*
X62850073Y-106151584D01*
X62850073Y-106151584D02*
X63179987Y-106342061D01*
X63179987Y-106342061D02*
X63286275Y-106348440D01*
X63286275Y-106348440D02*
X63351324Y-106331011D01*
X63351324Y-106331011D02*
X63440183Y-106272342D01*
X63440183Y-106272342D02*
X63535421Y-106107384D01*
X63535421Y-106107384D02*
X63541800Y-106001096D01*
X63541800Y-106001096D02*
X63524371Y-105936047D01*
X63524371Y-105936047D02*
X63465702Y-105847189D01*
X63465702Y-105847189D02*
X63259505Y-105728141D01*
X63259505Y-105728141D02*
X63153217Y-105721762D01*
X63153217Y-105721762D02*
X63088168Y-105739191D01*
X63088168Y-105739191D02*
X62999310Y-105797860D01*
X62999310Y-105797860D02*
X62904072Y-105962818D01*
X62904072Y-105962818D02*
X62897692Y-106069106D01*
X62897692Y-106069106D02*
X62915122Y-106134155D01*
X62915122Y-106134155D02*
X62973791Y-106223013D01*
X100363867Y-81751502D02*
X100363867Y-80751502D01*
X100363867Y-80751502D02*
X100697200Y-81465787D01*
X100697200Y-81465787D02*
X101030533Y-80751502D01*
X101030533Y-80751502D02*
X101030533Y-81751502D01*
X101506724Y-81751502D02*
X101506724Y-80751502D01*
X101506724Y-80751502D02*
X101744819Y-80751502D01*
X101744819Y-80751502D02*
X101887676Y-80799121D01*
X101887676Y-80799121D02*
X101982914Y-80894359D01*
X101982914Y-80894359D02*
X102030533Y-80989597D01*
X102030533Y-80989597D02*
X102078152Y-81180073D01*
X102078152Y-81180073D02*
X102078152Y-81322930D01*
X102078152Y-81322930D02*
X102030533Y-81513406D01*
X102030533Y-81513406D02*
X101982914Y-81608644D01*
X101982914Y-81608644D02*
X101887676Y-81703883D01*
X101887676Y-81703883D02*
X101744819Y-81751502D01*
X101744819Y-81751502D02*
X101506724Y-81751502D01*
X103030533Y-81751502D02*
X102459105Y-81751502D01*
X102744819Y-81751502D02*
X102744819Y-80751502D01*
X102744819Y-80751502D02*
X102649581Y-80894359D01*
X102649581Y-80894359D02*
X102554343Y-80989597D01*
X102554343Y-80989597D02*
X102459105Y-81037216D01*
X65386126Y-139419930D02*
X65631852Y-138893159D01*
X65100411Y-138925058D02*
X65966437Y-138425058D01*
X65966437Y-138425058D02*
X66156913Y-138754973D01*
X66156913Y-138754973D02*
X66163293Y-138861261D01*
X66163293Y-138861261D02*
X66145863Y-138926310D01*
X66145863Y-138926310D02*
X66087194Y-139015168D01*
X66087194Y-139015168D02*
X65963476Y-139086597D01*
X65963476Y-139086597D02*
X65857188Y-139092976D01*
X65857188Y-139092976D02*
X65792139Y-139075546D01*
X65792139Y-139075546D02*
X65703281Y-139016877D01*
X65703281Y-139016877D02*
X65512804Y-138686963D01*
X66418818Y-139208605D02*
X66752151Y-139785955D01*
X66752151Y-139785955D02*
X65671840Y-139914802D01*
X67749956Y-104667593D02*
X66883931Y-104167593D01*
X66883931Y-104167593D02*
X67002978Y-103961396D01*
X67002978Y-103961396D02*
X67115646Y-103861488D01*
X67115646Y-103861488D02*
X67245744Y-103826628D01*
X67245744Y-103826628D02*
X67352032Y-103833008D01*
X67352032Y-103833008D02*
X67540799Y-103887007D01*
X67540799Y-103887007D02*
X67664517Y-103958435D01*
X67664517Y-103958435D02*
X67805664Y-104094913D01*
X67805664Y-104094913D02*
X67864333Y-104183771D01*
X67864333Y-104183771D02*
X67899193Y-104313869D01*
X67899193Y-104313869D02*
X67869004Y-104461396D01*
X67869004Y-104461396D02*
X67749956Y-104667593D01*
X67622026Y-102889174D02*
X67383931Y-103301567D01*
X67383931Y-103301567D02*
X67772514Y-103580902D01*
X67772514Y-103580902D02*
X67755084Y-103515853D01*
X67755084Y-103515853D02*
X67761464Y-103409565D01*
X67761464Y-103409565D02*
X67880512Y-103203368D01*
X67880512Y-103203368D02*
X67969370Y-103144699D01*
X67969370Y-103144699D02*
X68034419Y-103127270D01*
X68034419Y-103127270D02*
X68140707Y-103133649D01*
X68140707Y-103133649D02*
X68346904Y-103252697D01*
X68346904Y-103252697D02*
X68405573Y-103341555D01*
X68405573Y-103341555D02*
X68423002Y-103406604D01*
X68423002Y-103406604D02*
X68416623Y-103512892D01*
X68416623Y-103512892D02*
X68297575Y-103719089D01*
X68297575Y-103719089D02*
X68208717Y-103777758D01*
X68208717Y-103777758D02*
X68143668Y-103795188D01*
X85340614Y-72132077D02*
X85292995Y-72179697D01*
X85292995Y-72179697D02*
X85150138Y-72227316D01*
X85150138Y-72227316D02*
X85054900Y-72227316D01*
X85054900Y-72227316D02*
X84912043Y-72179697D01*
X84912043Y-72179697D02*
X84816805Y-72084458D01*
X84816805Y-72084458D02*
X84769186Y-71989220D01*
X84769186Y-71989220D02*
X84721567Y-71798744D01*
X84721567Y-71798744D02*
X84721567Y-71655887D01*
X84721567Y-71655887D02*
X84769186Y-71465411D01*
X84769186Y-71465411D02*
X84816805Y-71370173D01*
X84816805Y-71370173D02*
X84912043Y-71274935D01*
X84912043Y-71274935D02*
X85054900Y-71227316D01*
X85054900Y-71227316D02*
X85150138Y-71227316D01*
X85150138Y-71227316D02*
X85292995Y-71274935D01*
X85292995Y-71274935D02*
X85340614Y-71322554D01*
X85816805Y-72227316D02*
X86007281Y-72227316D01*
X86007281Y-72227316D02*
X86102519Y-72179697D01*
X86102519Y-72179697D02*
X86150138Y-72132077D01*
X86150138Y-72132077D02*
X86245376Y-71989220D01*
X86245376Y-71989220D02*
X86292995Y-71798744D01*
X86292995Y-71798744D02*
X86292995Y-71417792D01*
X86292995Y-71417792D02*
X86245376Y-71322554D01*
X86245376Y-71322554D02*
X86197757Y-71274935D01*
X86197757Y-71274935D02*
X86102519Y-71227316D01*
X86102519Y-71227316D02*
X85912043Y-71227316D01*
X85912043Y-71227316D02*
X85816805Y-71274935D01*
X85816805Y-71274935D02*
X85769186Y-71322554D01*
X85769186Y-71322554D02*
X85721567Y-71417792D01*
X85721567Y-71417792D02*
X85721567Y-71655887D01*
X85721567Y-71655887D02*
X85769186Y-71751125D01*
X85769186Y-71751125D02*
X85816805Y-71798744D01*
X85816805Y-71798744D02*
X85912043Y-71846363D01*
X85912043Y-71846363D02*
X86102519Y-71846363D01*
X86102519Y-71846363D02*
X86197757Y-71798744D01*
X86197757Y-71798744D02*
X86245376Y-71751125D01*
X86245376Y-71751125D02*
X86292995Y-71655887D01*
X85723050Y-61754498D02*
X85389717Y-61278307D01*
X85151622Y-61754498D02*
X85151622Y-60754498D01*
X85151622Y-60754498D02*
X85532574Y-60754498D01*
X85532574Y-60754498D02*
X85627812Y-60802117D01*
X85627812Y-60802117D02*
X85675431Y-60849736D01*
X85675431Y-60849736D02*
X85723050Y-60944974D01*
X85723050Y-60944974D02*
X85723050Y-61087831D01*
X85723050Y-61087831D02*
X85675431Y-61183069D01*
X85675431Y-61183069D02*
X85627812Y-61230688D01*
X85627812Y-61230688D02*
X85532574Y-61278307D01*
X85532574Y-61278307D02*
X85151622Y-61278307D01*
X86675431Y-61754498D02*
X86104003Y-61754498D01*
X86389717Y-61754498D02*
X86389717Y-60754498D01*
X86389717Y-60754498D02*
X86294479Y-60897355D01*
X86294479Y-60897355D02*
X86199241Y-60992593D01*
X86199241Y-60992593D02*
X86104003Y-61040212D01*
X87294479Y-60754498D02*
X87389717Y-60754498D01*
X87389717Y-60754498D02*
X87484955Y-60802117D01*
X87484955Y-60802117D02*
X87532574Y-60849736D01*
X87532574Y-60849736D02*
X87580193Y-60944974D01*
X87580193Y-60944974D02*
X87627812Y-61135450D01*
X87627812Y-61135450D02*
X87627812Y-61373545D01*
X87627812Y-61373545D02*
X87580193Y-61564021D01*
X87580193Y-61564021D02*
X87532574Y-61659259D01*
X87532574Y-61659259D02*
X87484955Y-61706879D01*
X87484955Y-61706879D02*
X87389717Y-61754498D01*
X87389717Y-61754498D02*
X87294479Y-61754498D01*
X87294479Y-61754498D02*
X87199241Y-61706879D01*
X87199241Y-61706879D02*
X87151622Y-61659259D01*
X87151622Y-61659259D02*
X87104003Y-61564021D01*
X87104003Y-61564021D02*
X87056384Y-61373545D01*
X87056384Y-61373545D02*
X87056384Y-61135450D01*
X87056384Y-61135450D02*
X87104003Y-60944974D01*
X87104003Y-60944974D02*
X87151622Y-60849736D01*
X87151622Y-60849736D02*
X87199241Y-60802117D01*
X87199241Y-60802117D02*
X87294479Y-60754498D01*
X111923208Y-110083425D02*
X111447017Y-110416758D01*
X111923208Y-110654853D02*
X110923208Y-110654853D01*
X110923208Y-110654853D02*
X110923208Y-110273901D01*
X110923208Y-110273901D02*
X110970827Y-110178663D01*
X110970827Y-110178663D02*
X111018446Y-110131044D01*
X111018446Y-110131044D02*
X111113684Y-110083425D01*
X111113684Y-110083425D02*
X111256541Y-110083425D01*
X111256541Y-110083425D02*
X111351779Y-110131044D01*
X111351779Y-110131044D02*
X111399398Y-110178663D01*
X111399398Y-110178663D02*
X111447017Y-110273901D01*
X111447017Y-110273901D02*
X111447017Y-110654853D01*
X111018446Y-109702472D02*
X110970827Y-109654853D01*
X110970827Y-109654853D02*
X110923208Y-109559615D01*
X110923208Y-109559615D02*
X110923208Y-109321520D01*
X110923208Y-109321520D02*
X110970827Y-109226282D01*
X110970827Y-109226282D02*
X111018446Y-109178663D01*
X111018446Y-109178663D02*
X111113684Y-109131044D01*
X111113684Y-109131044D02*
X111208922Y-109131044D01*
X111208922Y-109131044D02*
X111351779Y-109178663D01*
X111351779Y-109178663D02*
X111923208Y-109750091D01*
X111923208Y-109750091D02*
X111923208Y-109131044D01*
X111018446Y-108750091D02*
X110970827Y-108702472D01*
X110970827Y-108702472D02*
X110923208Y-108607234D01*
X110923208Y-108607234D02*
X110923208Y-108369139D01*
X110923208Y-108369139D02*
X110970827Y-108273901D01*
X110970827Y-108273901D02*
X111018446Y-108226282D01*
X111018446Y-108226282D02*
X111113684Y-108178663D01*
X111113684Y-108178663D02*
X111208922Y-108178663D01*
X111208922Y-108178663D02*
X111351779Y-108226282D01*
X111351779Y-108226282D02*
X111923208Y-108797710D01*
X111923208Y-108797710D02*
X111923208Y-108178663D01*
X115314048Y-77365257D02*
X115266429Y-77412877D01*
X115266429Y-77412877D02*
X115123572Y-77460496D01*
X115123572Y-77460496D02*
X115028334Y-77460496D01*
X115028334Y-77460496D02*
X114885477Y-77412877D01*
X114885477Y-77412877D02*
X114790239Y-77317638D01*
X114790239Y-77317638D02*
X114742620Y-77222400D01*
X114742620Y-77222400D02*
X114695001Y-77031924D01*
X114695001Y-77031924D02*
X114695001Y-76889067D01*
X114695001Y-76889067D02*
X114742620Y-76698591D01*
X114742620Y-76698591D02*
X114790239Y-76603353D01*
X114790239Y-76603353D02*
X114885477Y-76508115D01*
X114885477Y-76508115D02*
X115028334Y-76460496D01*
X115028334Y-76460496D02*
X115123572Y-76460496D01*
X115123572Y-76460496D02*
X115266429Y-76508115D01*
X115266429Y-76508115D02*
X115314048Y-76555734D01*
X116266429Y-77460496D02*
X115695001Y-77460496D01*
X115980715Y-77460496D02*
X115980715Y-76460496D01*
X115980715Y-76460496D02*
X115885477Y-76603353D01*
X115885477Y-76603353D02*
X115790239Y-76698591D01*
X115790239Y-76698591D02*
X115695001Y-76746210D01*
X116599763Y-76460496D02*
X117218810Y-76460496D01*
X117218810Y-76460496D02*
X116885477Y-76841448D01*
X116885477Y-76841448D02*
X117028334Y-76841448D01*
X117028334Y-76841448D02*
X117123572Y-76889067D01*
X117123572Y-76889067D02*
X117171191Y-76936686D01*
X117171191Y-76936686D02*
X117218810Y-77031924D01*
X117218810Y-77031924D02*
X117218810Y-77270019D01*
X117218810Y-77270019D02*
X117171191Y-77365257D01*
X117171191Y-77365257D02*
X117123572Y-77412877D01*
X117123572Y-77412877D02*
X117028334Y-77460496D01*
X117028334Y-77460496D02*
X116742620Y-77460496D01*
X116742620Y-77460496D02*
X116647382Y-77412877D01*
X116647382Y-77412877D02*
X116599763Y-77365257D01*
X74519272Y-71469477D02*
X73900682Y-71112334D01*
X73900682Y-71112334D02*
X73800774Y-70999666D01*
X73800774Y-70999666D02*
X73765914Y-70869568D01*
X73765914Y-70869568D02*
X73796104Y-70722041D01*
X73796104Y-70722041D02*
X73843723Y-70639562D01*
X73153246Y-71835502D02*
X73438961Y-71340631D01*
X73296103Y-71588066D02*
X74162129Y-72088066D01*
X74162129Y-72088066D02*
X74086030Y-71934159D01*
X74086030Y-71934159D02*
X74051170Y-71804062D01*
X74051170Y-71804062D02*
X74057550Y-71697774D01*
X74423460Y-76454704D02*
X75124528Y-76859466D01*
X75124528Y-76859466D02*
X75230816Y-76865846D01*
X75230816Y-76865846D02*
X75295865Y-76848416D01*
X75295865Y-76848416D02*
X75384723Y-76789747D01*
X75384723Y-76789747D02*
X75479961Y-76624789D01*
X75479961Y-76624789D02*
X75486341Y-76518501D01*
X75486341Y-76518501D02*
X75468911Y-76453453D01*
X75468911Y-76453453D02*
X75410242Y-76364594D01*
X75410242Y-76364594D02*
X74709174Y-75959832D01*
X74899650Y-75629918D02*
X75209174Y-75093807D01*
X75209174Y-75093807D02*
X75372422Y-75572958D01*
X75372422Y-75572958D02*
X75443850Y-75449240D01*
X75443850Y-75449240D02*
X75532709Y-75390571D01*
X75532709Y-75390571D02*
X75597757Y-75373141D01*
X75597757Y-75373141D02*
X75704045Y-75379521D01*
X75704045Y-75379521D02*
X75910242Y-75498569D01*
X75910242Y-75498569D02*
X75968911Y-75587427D01*
X75968911Y-75587427D02*
X75986341Y-75652476D01*
X75986341Y-75652476D02*
X75979961Y-75758764D01*
X75979961Y-75758764D02*
X75837104Y-76006200D01*
X75837104Y-76006200D02*
X75748246Y-76064869D01*
X75748246Y-76064869D02*
X75683197Y-76082299D01*
X109472051Y-81761496D02*
X109138718Y-81285305D01*
X108900623Y-81761496D02*
X108900623Y-80761496D01*
X108900623Y-80761496D02*
X109281575Y-80761496D01*
X109281575Y-80761496D02*
X109376813Y-80809115D01*
X109376813Y-80809115D02*
X109424432Y-80856734D01*
X109424432Y-80856734D02*
X109472051Y-80951972D01*
X109472051Y-80951972D02*
X109472051Y-81094829D01*
X109472051Y-81094829D02*
X109424432Y-81190067D01*
X109424432Y-81190067D02*
X109376813Y-81237686D01*
X109376813Y-81237686D02*
X109281575Y-81285305D01*
X109281575Y-81285305D02*
X108900623Y-81285305D01*
X110424432Y-81761496D02*
X109853004Y-81761496D01*
X110138718Y-81761496D02*
X110138718Y-80761496D01*
X110138718Y-80761496D02*
X110043480Y-80904353D01*
X110043480Y-80904353D02*
X109948242Y-80999591D01*
X109948242Y-80999591D02*
X109853004Y-81047210D01*
X110995861Y-81190067D02*
X110900623Y-81142448D01*
X110900623Y-81142448D02*
X110853004Y-81094829D01*
X110853004Y-81094829D02*
X110805385Y-80999591D01*
X110805385Y-80999591D02*
X110805385Y-80951972D01*
X110805385Y-80951972D02*
X110853004Y-80856734D01*
X110853004Y-80856734D02*
X110900623Y-80809115D01*
X110900623Y-80809115D02*
X110995861Y-80761496D01*
X110995861Y-80761496D02*
X111186337Y-80761496D01*
X111186337Y-80761496D02*
X111281575Y-80809115D01*
X111281575Y-80809115D02*
X111329194Y-80856734D01*
X111329194Y-80856734D02*
X111376813Y-80951972D01*
X111376813Y-80951972D02*
X111376813Y-80999591D01*
X111376813Y-80999591D02*
X111329194Y-81094829D01*
X111329194Y-81094829D02*
X111281575Y-81142448D01*
X111281575Y-81142448D02*
X111186337Y-81190067D01*
X111186337Y-81190067D02*
X110995861Y-81190067D01*
X110995861Y-81190067D02*
X110900623Y-81237686D01*
X110900623Y-81237686D02*
X110853004Y-81285305D01*
X110853004Y-81285305D02*
X110805385Y-81380543D01*
X110805385Y-81380543D02*
X110805385Y-81571019D01*
X110805385Y-81571019D02*
X110853004Y-81666257D01*
X110853004Y-81666257D02*
X110900623Y-81713877D01*
X110900623Y-81713877D02*
X110995861Y-81761496D01*
X110995861Y-81761496D02*
X111186337Y-81761496D01*
X111186337Y-81761496D02*
X111281575Y-81713877D01*
X111281575Y-81713877D02*
X111329194Y-81666257D01*
X111329194Y-81666257D02*
X111376813Y-81571019D01*
X111376813Y-81571019D02*
X111376813Y-81380543D01*
X111376813Y-81380543D02*
X111329194Y-81285305D01*
X111329194Y-81285305D02*
X111281575Y-81237686D01*
X111281575Y-81237686D02*
X111186337Y-81190067D01*
X80575530Y-113875388D02*
X80242197Y-113399197D01*
X80004102Y-113875388D02*
X80004102Y-112875388D01*
X80004102Y-112875388D02*
X80385054Y-112875388D01*
X80385054Y-112875388D02*
X80480292Y-112923007D01*
X80480292Y-112923007D02*
X80527911Y-112970626D01*
X80527911Y-112970626D02*
X80575530Y-113065864D01*
X80575530Y-113065864D02*
X80575530Y-113208721D01*
X80575530Y-113208721D02*
X80527911Y-113303959D01*
X80527911Y-113303959D02*
X80480292Y-113351578D01*
X80480292Y-113351578D02*
X80385054Y-113399197D01*
X80385054Y-113399197D02*
X80004102Y-113399197D01*
X80956483Y-112970626D02*
X81004102Y-112923007D01*
X81004102Y-112923007D02*
X81099340Y-112875388D01*
X81099340Y-112875388D02*
X81337435Y-112875388D01*
X81337435Y-112875388D02*
X81432673Y-112923007D01*
X81432673Y-112923007D02*
X81480292Y-112970626D01*
X81480292Y-112970626D02*
X81527911Y-113065864D01*
X81527911Y-113065864D02*
X81527911Y-113161102D01*
X81527911Y-113161102D02*
X81480292Y-113303959D01*
X81480292Y-113303959D02*
X80908864Y-113875388D01*
X80908864Y-113875388D02*
X81527911Y-113875388D01*
X81861245Y-112875388D02*
X82480292Y-112875388D01*
X82480292Y-112875388D02*
X82146959Y-113256340D01*
X82146959Y-113256340D02*
X82289816Y-113256340D01*
X82289816Y-113256340D02*
X82385054Y-113303959D01*
X82385054Y-113303959D02*
X82432673Y-113351578D01*
X82432673Y-113351578D02*
X82480292Y-113446816D01*
X82480292Y-113446816D02*
X82480292Y-113684911D01*
X82480292Y-113684911D02*
X82432673Y-113780149D01*
X82432673Y-113780149D02*
X82385054Y-113827769D01*
X82385054Y-113827769D02*
X82289816Y-113875388D01*
X82289816Y-113875388D02*
X82004102Y-113875388D01*
X82004102Y-113875388D02*
X81908864Y-113827769D01*
X81908864Y-113827769D02*
X81861245Y-113780149D01*
X69713194Y-156928810D02*
X70208066Y-156643096D01*
X70460630Y-157651979D02*
X69960630Y-156785953D01*
X70996741Y-157342455D02*
X70496741Y-156476429D01*
X70496741Y-156476429D02*
X70826656Y-156285953D01*
X70826656Y-156285953D02*
X70932944Y-156279573D01*
X70932944Y-156279573D02*
X70997993Y-156297003D01*
X70997993Y-156297003D02*
X71086851Y-156355672D01*
X71086851Y-156355672D02*
X71158280Y-156479390D01*
X71158280Y-156479390D02*
X71164659Y-156585678D01*
X71164659Y-156585678D02*
X71147230Y-156650727D01*
X71147230Y-156650727D02*
X71088561Y-156739585D01*
X71088561Y-156739585D02*
X70758646Y-156930062D01*
X72316399Y-156580550D02*
X71821527Y-156866264D01*
X72068963Y-156723407D02*
X71568963Y-155857382D01*
X71568963Y-155857382D02*
X71557913Y-156028719D01*
X71557913Y-156028719D02*
X71523054Y-156158816D01*
X71523054Y-156158816D02*
X71464385Y-156247675D01*
X110522108Y-63883856D02*
X110569727Y-63740999D01*
X110569727Y-63740999D02*
X110569727Y-63502904D01*
X110569727Y-63502904D02*
X110522108Y-63407666D01*
X110522108Y-63407666D02*
X110474488Y-63360047D01*
X110474488Y-63360047D02*
X110379250Y-63312428D01*
X110379250Y-63312428D02*
X110284012Y-63312428D01*
X110284012Y-63312428D02*
X110188774Y-63360047D01*
X110188774Y-63360047D02*
X110141155Y-63407666D01*
X110141155Y-63407666D02*
X110093536Y-63502904D01*
X110093536Y-63502904D02*
X110045917Y-63693380D01*
X110045917Y-63693380D02*
X109998298Y-63788618D01*
X109998298Y-63788618D02*
X109950679Y-63836237D01*
X109950679Y-63836237D02*
X109855441Y-63883856D01*
X109855441Y-63883856D02*
X109760203Y-63883856D01*
X109760203Y-63883856D02*
X109664965Y-63836237D01*
X109664965Y-63836237D02*
X109617346Y-63788618D01*
X109617346Y-63788618D02*
X109569727Y-63693380D01*
X109569727Y-63693380D02*
X109569727Y-63455285D01*
X109569727Y-63455285D02*
X109617346Y-63312428D01*
X109569727Y-62979094D02*
X110569727Y-62740999D01*
X110569727Y-62740999D02*
X109855441Y-62550523D01*
X109855441Y-62550523D02*
X110569727Y-62360047D01*
X110569727Y-62360047D02*
X109569727Y-62121952D01*
X110569727Y-61217190D02*
X110569727Y-61788618D01*
X110569727Y-61502904D02*
X109569727Y-61502904D01*
X109569727Y-61502904D02*
X109712584Y-61598142D01*
X109712584Y-61598142D02*
X109807822Y-61693380D01*
X109807822Y-61693380D02*
X109855441Y-61788618D01*
X64086127Y-137168264D02*
X64331853Y-136641493D01*
X63800412Y-136673392D02*
X64666438Y-136173392D01*
X64666438Y-136173392D02*
X64856914Y-136503307D01*
X64856914Y-136503307D02*
X64863294Y-136609595D01*
X64863294Y-136609595D02*
X64845864Y-136674644D01*
X64845864Y-136674644D02*
X64787195Y-136763502D01*
X64787195Y-136763502D02*
X64663477Y-136834931D01*
X64663477Y-136834931D02*
X64557189Y-136841310D01*
X64557189Y-136841310D02*
X64492140Y-136823880D01*
X64492140Y-136823880D02*
X64403282Y-136765211D01*
X64403282Y-136765211D02*
X64212805Y-136435297D01*
X64866713Y-137377421D02*
X64860333Y-137271133D01*
X64860333Y-137271133D02*
X64877763Y-137206084D01*
X64877763Y-137206084D02*
X64936432Y-137117226D01*
X64936432Y-137117226D02*
X64977671Y-137093416D01*
X64977671Y-137093416D02*
X65083959Y-137087037D01*
X65083959Y-137087037D02*
X65149008Y-137104466D01*
X65149008Y-137104466D02*
X65237866Y-137163136D01*
X65237866Y-137163136D02*
X65333104Y-137328093D01*
X65333104Y-137328093D02*
X65339484Y-137434381D01*
X65339484Y-137434381D02*
X65322054Y-137499430D01*
X65322054Y-137499430D02*
X65263385Y-137588288D01*
X65263385Y-137588288D02*
X65222146Y-137612098D01*
X65222146Y-137612098D02*
X65115858Y-137618477D01*
X65115858Y-137618477D02*
X65050809Y-137601048D01*
X65050809Y-137601048D02*
X64961951Y-137542378D01*
X64961951Y-137542378D02*
X64866713Y-137377421D01*
X64866713Y-137377421D02*
X64777854Y-137318752D01*
X64777854Y-137318752D02*
X64712805Y-137301322D01*
X64712805Y-137301322D02*
X64606517Y-137307702D01*
X64606517Y-137307702D02*
X64441560Y-137402940D01*
X64441560Y-137402940D02*
X64382891Y-137491799D01*
X64382891Y-137491799D02*
X64365461Y-137556847D01*
X64365461Y-137556847D02*
X64371841Y-137663136D01*
X64371841Y-137663136D02*
X64467079Y-137828093D01*
X64467079Y-137828093D02*
X64555937Y-137886762D01*
X64555937Y-137886762D02*
X64620986Y-137904192D01*
X64620986Y-137904192D02*
X64727274Y-137897812D01*
X64727274Y-137897812D02*
X64892231Y-137802574D01*
X64892231Y-137802574D02*
X64950901Y-137713715D01*
X64950901Y-137713715D02*
X64968330Y-137648667D01*
X64968330Y-137648667D02*
X64961951Y-137542378D01*
X122140242Y-60586757D02*
X122092623Y-60634377D01*
X122092623Y-60634377D02*
X121949766Y-60681996D01*
X121949766Y-60681996D02*
X121854528Y-60681996D01*
X121854528Y-60681996D02*
X121711671Y-60634377D01*
X121711671Y-60634377D02*
X121616433Y-60539138D01*
X121616433Y-60539138D02*
X121568814Y-60443900D01*
X121568814Y-60443900D02*
X121521195Y-60253424D01*
X121521195Y-60253424D02*
X121521195Y-60110567D01*
X121521195Y-60110567D02*
X121568814Y-59920091D01*
X121568814Y-59920091D02*
X121616433Y-59824853D01*
X121616433Y-59824853D02*
X121711671Y-59729615D01*
X121711671Y-59729615D02*
X121854528Y-59681996D01*
X121854528Y-59681996D02*
X121949766Y-59681996D01*
X121949766Y-59681996D02*
X122092623Y-59729615D01*
X122092623Y-59729615D02*
X122140242Y-59777234D01*
X122997385Y-60015329D02*
X122997385Y-60681996D01*
X122759290Y-59634377D02*
X122521195Y-60348662D01*
X122521195Y-60348662D02*
X123140242Y-60348662D01*
X91057050Y-61754501D02*
X90723717Y-61278310D01*
X90485622Y-61754501D02*
X90485622Y-60754501D01*
X90485622Y-60754501D02*
X90866574Y-60754501D01*
X90866574Y-60754501D02*
X90961812Y-60802120D01*
X90961812Y-60802120D02*
X91009431Y-60849739D01*
X91009431Y-60849739D02*
X91057050Y-60944977D01*
X91057050Y-60944977D02*
X91057050Y-61087834D01*
X91057050Y-61087834D02*
X91009431Y-61183072D01*
X91009431Y-61183072D02*
X90961812Y-61230691D01*
X90961812Y-61230691D02*
X90866574Y-61278310D01*
X90866574Y-61278310D02*
X90485622Y-61278310D01*
X92009431Y-61754501D02*
X91438003Y-61754501D01*
X91723717Y-61754501D02*
X91723717Y-60754501D01*
X91723717Y-60754501D02*
X91628479Y-60897358D01*
X91628479Y-60897358D02*
X91533241Y-60992596D01*
X91533241Y-60992596D02*
X91438003Y-61040215D01*
X92961812Y-61754501D02*
X92390384Y-61754501D01*
X92676098Y-61754501D02*
X92676098Y-60754501D01*
X92676098Y-60754501D02*
X92580860Y-60897358D01*
X92580860Y-60897358D02*
X92485622Y-60992596D01*
X92485622Y-60992596D02*
X92390384Y-61040215D01*
X57034985Y-102123482D02*
X56984405Y-101544423D01*
X56540113Y-101837768D02*
X57040113Y-100971743D01*
X57040113Y-100971743D02*
X57370028Y-101162219D01*
X57370028Y-101162219D02*
X57428697Y-101251077D01*
X57428697Y-101251077D02*
X57446126Y-101316126D01*
X57446126Y-101316126D02*
X57439747Y-101422414D01*
X57439747Y-101422414D02*
X57368318Y-101546132D01*
X57368318Y-101546132D02*
X57279460Y-101604801D01*
X57279460Y-101604801D02*
X57214411Y-101622231D01*
X57214411Y-101622231D02*
X57108123Y-101615851D01*
X57108123Y-101615851D02*
X56778208Y-101425375D01*
X57447378Y-102361577D02*
X57612335Y-102456816D01*
X57612335Y-102456816D02*
X57718623Y-102463195D01*
X57718623Y-102463195D02*
X57783672Y-102445766D01*
X57783672Y-102445766D02*
X57937579Y-102369667D01*
X57937579Y-102369667D02*
X58074057Y-102228519D01*
X58074057Y-102228519D02*
X58264533Y-101898605D01*
X58264533Y-101898605D02*
X58270913Y-101792316D01*
X58270913Y-101792316D02*
X58253483Y-101727268D01*
X58253483Y-101727268D02*
X58194814Y-101638409D01*
X58194814Y-101638409D02*
X58029856Y-101543171D01*
X58029856Y-101543171D02*
X57923568Y-101536791D01*
X57923568Y-101536791D02*
X57858520Y-101554221D01*
X57858520Y-101554221D02*
X57769661Y-101612890D01*
X57769661Y-101612890D02*
X57650614Y-101819087D01*
X57650614Y-101819087D02*
X57644234Y-101925375D01*
X57644234Y-101925375D02*
X57661664Y-101990424D01*
X57661664Y-101990424D02*
X57720333Y-102079282D01*
X57720333Y-102079282D02*
X57885290Y-102174520D01*
X57885290Y-102174520D02*
X57991578Y-102180900D01*
X57991578Y-102180900D02*
X58056627Y-102163470D01*
X58056627Y-102163470D02*
X58145485Y-102104801D01*
X107033049Y-120944399D02*
X106699716Y-120468208D01*
X106461621Y-120944399D02*
X106461621Y-119944399D01*
X106461621Y-119944399D02*
X106842573Y-119944399D01*
X106842573Y-119944399D02*
X106937811Y-119992018D01*
X106937811Y-119992018D02*
X106985430Y-120039637D01*
X106985430Y-120039637D02*
X107033049Y-120134875D01*
X107033049Y-120134875D02*
X107033049Y-120277732D01*
X107033049Y-120277732D02*
X106985430Y-120372970D01*
X106985430Y-120372970D02*
X106937811Y-120420589D01*
X106937811Y-120420589D02*
X106842573Y-120468208D01*
X106842573Y-120468208D02*
X106461621Y-120468208D01*
X107985430Y-120944399D02*
X107414002Y-120944399D01*
X107699716Y-120944399D02*
X107699716Y-119944399D01*
X107699716Y-119944399D02*
X107604478Y-120087256D01*
X107604478Y-120087256D02*
X107509240Y-120182494D01*
X107509240Y-120182494D02*
X107414002Y-120230113D01*
X108461621Y-120944399D02*
X108652097Y-120944399D01*
X108652097Y-120944399D02*
X108747335Y-120896780D01*
X108747335Y-120896780D02*
X108794954Y-120849160D01*
X108794954Y-120849160D02*
X108890192Y-120706303D01*
X108890192Y-120706303D02*
X108937811Y-120515827D01*
X108937811Y-120515827D02*
X108937811Y-120134875D01*
X108937811Y-120134875D02*
X108890192Y-120039637D01*
X108890192Y-120039637D02*
X108842573Y-119992018D01*
X108842573Y-119992018D02*
X108747335Y-119944399D01*
X108747335Y-119944399D02*
X108556859Y-119944399D01*
X108556859Y-119944399D02*
X108461621Y-119992018D01*
X108461621Y-119992018D02*
X108414002Y-120039637D01*
X108414002Y-120039637D02*
X108366383Y-120134875D01*
X108366383Y-120134875D02*
X108366383Y-120372970D01*
X108366383Y-120372970D02*
X108414002Y-120468208D01*
X108414002Y-120468208D02*
X108461621Y-120515827D01*
X108461621Y-120515827D02*
X108556859Y-120563446D01*
X108556859Y-120563446D02*
X108747335Y-120563446D01*
X108747335Y-120563446D02*
X108842573Y-120515827D01*
X108842573Y-120515827D02*
X108890192Y-120468208D01*
X108890192Y-120468208D02*
X108937811Y-120372970D01*
X77993516Y-107873088D02*
X77660183Y-107396897D01*
X77422088Y-107873088D02*
X77422088Y-106873088D01*
X77422088Y-106873088D02*
X77803040Y-106873088D01*
X77803040Y-106873088D02*
X77898278Y-106920707D01*
X77898278Y-106920707D02*
X77945897Y-106968326D01*
X77945897Y-106968326D02*
X77993516Y-107063564D01*
X77993516Y-107063564D02*
X77993516Y-107206421D01*
X77993516Y-107206421D02*
X77945897Y-107301659D01*
X77945897Y-107301659D02*
X77898278Y-107349278D01*
X77898278Y-107349278D02*
X77803040Y-107396897D01*
X77803040Y-107396897D02*
X77422088Y-107396897D01*
X78945897Y-107873088D02*
X78374469Y-107873088D01*
X78660183Y-107873088D02*
X78660183Y-106873088D01*
X78660183Y-106873088D02*
X78564945Y-107015945D01*
X78564945Y-107015945D02*
X78469707Y-107111183D01*
X78469707Y-107111183D02*
X78374469Y-107158802D01*
X79850659Y-106873088D02*
X79374469Y-106873088D01*
X79374469Y-106873088D02*
X79326850Y-107349278D01*
X79326850Y-107349278D02*
X79374469Y-107301659D01*
X79374469Y-107301659D02*
X79469707Y-107254040D01*
X79469707Y-107254040D02*
X79707802Y-107254040D01*
X79707802Y-107254040D02*
X79803040Y-107301659D01*
X79803040Y-107301659D02*
X79850659Y-107349278D01*
X79850659Y-107349278D02*
X79898278Y-107444516D01*
X79898278Y-107444516D02*
X79898278Y-107682611D01*
X79898278Y-107682611D02*
X79850659Y-107777849D01*
X79850659Y-107777849D02*
X79803040Y-107825469D01*
X79803040Y-107825469D02*
X79707802Y-107873088D01*
X79707802Y-107873088D02*
X79469707Y-107873088D01*
X79469707Y-107873088D02*
X79374469Y-107825469D01*
X79374469Y-107825469D02*
X79326850Y-107777849D01*
X53125625Y-115926193D02*
X53155814Y-116073721D01*
X53155814Y-116073721D02*
X53274861Y-116279917D01*
X53274861Y-116279917D02*
X53363720Y-116338586D01*
X53363720Y-116338586D02*
X53428769Y-116356016D01*
X53428769Y-116356016D02*
X53535057Y-116349637D01*
X53535057Y-116349637D02*
X53617535Y-116302017D01*
X53617535Y-116302017D02*
X53676204Y-116213159D01*
X53676204Y-116213159D02*
X53693634Y-116148110D01*
X53693634Y-116148110D02*
X53687254Y-116041822D01*
X53687254Y-116041822D02*
X53633256Y-115853055D01*
X53633256Y-115853055D02*
X53626876Y-115746767D01*
X53626876Y-115746767D02*
X53644306Y-115681718D01*
X53644306Y-115681718D02*
X53702975Y-115592860D01*
X53702975Y-115592860D02*
X53785453Y-115545241D01*
X53785453Y-115545241D02*
X53891742Y-115538861D01*
X53891742Y-115538861D02*
X53956790Y-115556291D01*
X53956790Y-115556291D02*
X54045649Y-115614960D01*
X54045649Y-115614960D02*
X54164696Y-115821157D01*
X54164696Y-115821157D02*
X54194886Y-115968684D01*
X54402792Y-116233550D02*
X53655814Y-116939746D01*
X53655814Y-116939746D02*
X54369642Y-116747561D01*
X54369642Y-116747561D02*
X53846290Y-117269661D01*
X53846290Y-117269661D02*
X54831363Y-116975857D01*
X54974220Y-117223293D02*
X55283744Y-117759404D01*
X55283744Y-117759404D02*
X54787163Y-117661205D01*
X54787163Y-117661205D02*
X54858591Y-117784923D01*
X54858591Y-117784923D02*
X54864971Y-117891211D01*
X54864971Y-117891211D02*
X54847541Y-117956260D01*
X54847541Y-117956260D02*
X54788872Y-118045118D01*
X54788872Y-118045118D02*
X54582676Y-118164166D01*
X54582676Y-118164166D02*
X54476388Y-118170546D01*
X54476388Y-118170546D02*
X54411339Y-118153116D01*
X54411339Y-118153116D02*
X54322480Y-118094447D01*
X54322480Y-118094447D02*
X54179623Y-117847011D01*
X54179623Y-117847011D02*
X54173244Y-117740723D01*
X54173244Y-117740723D02*
X54190673Y-117675674D01*
X50006440Y-114867246D02*
X49800244Y-114986294D01*
X49763675Y-114732478D02*
X49800244Y-114986294D01*
X49800244Y-114986294D02*
X50001770Y-115144871D01*
X49563858Y-114957814D02*
X49800244Y-114986294D01*
X49800244Y-114986294D02*
X49706715Y-115205250D01*
X50006440Y-114867246D02*
X49800244Y-114986294D01*
X49763675Y-114732478D02*
X49800244Y-114986294D01*
X49800244Y-114986294D02*
X50001770Y-115144871D01*
X49563858Y-114957814D02*
X49800244Y-114986294D01*
X49800244Y-114986294D02*
X49706715Y-115205250D01*
X100526482Y-105655384D02*
X100526482Y-106464907D01*
X100526482Y-106464907D02*
X100574101Y-106560145D01*
X100574101Y-106560145D02*
X100621720Y-106607765D01*
X100621720Y-106607765D02*
X100716958Y-106655384D01*
X100716958Y-106655384D02*
X100907434Y-106655384D01*
X100907434Y-106655384D02*
X101002672Y-106607765D01*
X101002672Y-106607765D02*
X101050291Y-106560145D01*
X101050291Y-106560145D02*
X101097910Y-106464907D01*
X101097910Y-106464907D02*
X101097910Y-105655384D01*
X102002672Y-105655384D02*
X101812196Y-105655384D01*
X101812196Y-105655384D02*
X101716958Y-105703003D01*
X101716958Y-105703003D02*
X101669339Y-105750622D01*
X101669339Y-105750622D02*
X101574101Y-105893479D01*
X101574101Y-105893479D02*
X101526482Y-106083955D01*
X101526482Y-106083955D02*
X101526482Y-106464907D01*
X101526482Y-106464907D02*
X101574101Y-106560145D01*
X101574101Y-106560145D02*
X101621720Y-106607765D01*
X101621720Y-106607765D02*
X101716958Y-106655384D01*
X101716958Y-106655384D02*
X101907434Y-106655384D01*
X101907434Y-106655384D02*
X102002672Y-106607765D01*
X102002672Y-106607765D02*
X102050291Y-106560145D01*
X102050291Y-106560145D02*
X102097910Y-106464907D01*
X102097910Y-106464907D02*
X102097910Y-106226812D01*
X102097910Y-106226812D02*
X102050291Y-106131574D01*
X102050291Y-106131574D02*
X102002672Y-106083955D01*
X102002672Y-106083955D02*
X101907434Y-106036336D01*
X101907434Y-106036336D02*
X101716958Y-106036336D01*
X101716958Y-106036336D02*
X101621720Y-106083955D01*
X101621720Y-106083955D02*
X101574101Y-106131574D01*
X101574101Y-106131574D02*
X101526482Y-106226812D01*
X107033047Y-127110601D02*
X106699714Y-126634410D01*
X106461619Y-127110601D02*
X106461619Y-126110601D01*
X106461619Y-126110601D02*
X106842571Y-126110601D01*
X106842571Y-126110601D02*
X106937809Y-126158220D01*
X106937809Y-126158220D02*
X106985428Y-126205839D01*
X106985428Y-126205839D02*
X107033047Y-126301077D01*
X107033047Y-126301077D02*
X107033047Y-126443934D01*
X107033047Y-126443934D02*
X106985428Y-126539172D01*
X106985428Y-126539172D02*
X106937809Y-126586791D01*
X106937809Y-126586791D02*
X106842571Y-126634410D01*
X106842571Y-126634410D02*
X106461619Y-126634410D01*
X107414000Y-126205839D02*
X107461619Y-126158220D01*
X107461619Y-126158220D02*
X107556857Y-126110601D01*
X107556857Y-126110601D02*
X107794952Y-126110601D01*
X107794952Y-126110601D02*
X107890190Y-126158220D01*
X107890190Y-126158220D02*
X107937809Y-126205839D01*
X107937809Y-126205839D02*
X107985428Y-126301077D01*
X107985428Y-126301077D02*
X107985428Y-126396315D01*
X107985428Y-126396315D02*
X107937809Y-126539172D01*
X107937809Y-126539172D02*
X107366381Y-127110601D01*
X107366381Y-127110601D02*
X107985428Y-127110601D01*
X108604476Y-126110601D02*
X108699714Y-126110601D01*
X108699714Y-126110601D02*
X108794952Y-126158220D01*
X108794952Y-126158220D02*
X108842571Y-126205839D01*
X108842571Y-126205839D02*
X108890190Y-126301077D01*
X108890190Y-126301077D02*
X108937809Y-126491553D01*
X108937809Y-126491553D02*
X108937809Y-126729648D01*
X108937809Y-126729648D02*
X108890190Y-126920124D01*
X108890190Y-126920124D02*
X108842571Y-127015362D01*
X108842571Y-127015362D02*
X108794952Y-127062982D01*
X108794952Y-127062982D02*
X108699714Y-127110601D01*
X108699714Y-127110601D02*
X108604476Y-127110601D01*
X108604476Y-127110601D02*
X108509238Y-127062982D01*
X108509238Y-127062982D02*
X108461619Y-127015362D01*
X108461619Y-127015362D02*
X108414000Y-126920124D01*
X108414000Y-126920124D02*
X108366381Y-126729648D01*
X108366381Y-126729648D02*
X108366381Y-126491553D01*
X108366381Y-126491553D02*
X108414000Y-126301077D01*
X108414000Y-126301077D02*
X108461619Y-126205839D01*
X108461619Y-126205839D02*
X108509238Y-126158220D01*
X108509238Y-126158220D02*
X108604476Y-126110601D01*
X93707972Y-102820929D02*
X93755592Y-102868548D01*
X93755592Y-102868548D02*
X93803211Y-103011405D01*
X93803211Y-103011405D02*
X93803211Y-103106643D01*
X93803211Y-103106643D02*
X93755592Y-103249500D01*
X93755592Y-103249500D02*
X93660353Y-103344738D01*
X93660353Y-103344738D02*
X93565115Y-103392357D01*
X93565115Y-103392357D02*
X93374639Y-103439976D01*
X93374639Y-103439976D02*
X93231782Y-103439976D01*
X93231782Y-103439976D02*
X93041306Y-103392357D01*
X93041306Y-103392357D02*
X92946068Y-103344738D01*
X92946068Y-103344738D02*
X92850830Y-103249500D01*
X92850830Y-103249500D02*
X92803211Y-103106643D01*
X92803211Y-103106643D02*
X92803211Y-103011405D01*
X92803211Y-103011405D02*
X92850830Y-102868548D01*
X92850830Y-102868548D02*
X92898449Y-102820929D01*
X93803211Y-101868548D02*
X93803211Y-102439976D01*
X93803211Y-102154262D02*
X92803211Y-102154262D01*
X92803211Y-102154262D02*
X92946068Y-102249500D01*
X92946068Y-102249500D02*
X93041306Y-102344738D01*
X93041306Y-102344738D02*
X93088925Y-102439976D01*
X92803211Y-100963786D02*
X92803211Y-101439976D01*
X92803211Y-101439976D02*
X93279401Y-101487595D01*
X93279401Y-101487595D02*
X93231782Y-101439976D01*
X93231782Y-101439976D02*
X93184163Y-101344738D01*
X93184163Y-101344738D02*
X93184163Y-101106643D01*
X93184163Y-101106643D02*
X93231782Y-101011405D01*
X93231782Y-101011405D02*
X93279401Y-100963786D01*
X93279401Y-100963786D02*
X93374639Y-100916167D01*
X93374639Y-100916167D02*
X93612734Y-100916167D01*
X93612734Y-100916167D02*
X93707972Y-100963786D01*
X93707972Y-100963786D02*
X93755592Y-101011405D01*
X93755592Y-101011405D02*
X93803211Y-101106643D01*
X93803211Y-101106643D02*
X93803211Y-101344738D01*
X93803211Y-101344738D02*
X93755592Y-101439976D01*
X93755592Y-101439976D02*
X93707972Y-101487595D01*
X92455530Y-106300150D02*
X92407911Y-106347770D01*
X92407911Y-106347770D02*
X92265054Y-106395389D01*
X92265054Y-106395389D02*
X92169816Y-106395389D01*
X92169816Y-106395389D02*
X92026959Y-106347770D01*
X92026959Y-106347770D02*
X91931721Y-106252531D01*
X91931721Y-106252531D02*
X91884102Y-106157293D01*
X91884102Y-106157293D02*
X91836483Y-105966817D01*
X91836483Y-105966817D02*
X91836483Y-105823960D01*
X91836483Y-105823960D02*
X91884102Y-105633484D01*
X91884102Y-105633484D02*
X91931721Y-105538246D01*
X91931721Y-105538246D02*
X92026959Y-105443008D01*
X92026959Y-105443008D02*
X92169816Y-105395389D01*
X92169816Y-105395389D02*
X92265054Y-105395389D01*
X92265054Y-105395389D02*
X92407911Y-105443008D01*
X92407911Y-105443008D02*
X92455530Y-105490627D01*
X93407911Y-106395389D02*
X92836483Y-106395389D01*
X93122197Y-106395389D02*
X93122197Y-105395389D01*
X93122197Y-105395389D02*
X93026959Y-105538246D01*
X93026959Y-105538246D02*
X92931721Y-105633484D01*
X92931721Y-105633484D02*
X92836483Y-105681103D01*
X93741245Y-105395389D02*
X94407911Y-105395389D01*
X94407911Y-105395389D02*
X93979340Y-106395389D01*
X66812536Y-122295847D02*
X66111467Y-122700609D01*
X66111467Y-122700609D02*
X66052798Y-122789467D01*
X66052798Y-122789467D02*
X66035369Y-122854516D01*
X66035369Y-122854516D02*
X66041748Y-122960804D01*
X66041748Y-122960804D02*
X66136986Y-123125762D01*
X66136986Y-123125762D02*
X66225845Y-123184431D01*
X66225845Y-123184431D02*
X66290894Y-123201860D01*
X66290894Y-123201860D02*
X66397182Y-123195481D01*
X66397182Y-123195481D02*
X67098250Y-122790719D01*
X67230057Y-123209492D02*
X67295106Y-123226921D01*
X67295106Y-123226921D02*
X67383964Y-123285590D01*
X67383964Y-123285590D02*
X67503012Y-123491787D01*
X67503012Y-123491787D02*
X67509392Y-123598075D01*
X67509392Y-123598075D02*
X67491962Y-123663124D01*
X67491962Y-123663124D02*
X67433293Y-123751982D01*
X67433293Y-123751982D02*
X67350814Y-123799601D01*
X67350814Y-123799601D02*
X67203287Y-123829791D01*
X67203287Y-123829791D02*
X66422701Y-123620633D01*
X66422701Y-123620633D02*
X66732225Y-124156744D01*
X64239269Y-143600065D02*
X63739269Y-142734039D01*
X63739269Y-142734039D02*
X63945466Y-142614992D01*
X63945466Y-142614992D02*
X64092993Y-142584802D01*
X64092993Y-142584802D02*
X64223091Y-142619662D01*
X64223091Y-142619662D02*
X64311949Y-142678331D01*
X64311949Y-142678331D02*
X64448427Y-142819479D01*
X64448427Y-142819479D02*
X64519855Y-142943197D01*
X64519855Y-142943197D02*
X64573854Y-143131963D01*
X64573854Y-143131963D02*
X64580234Y-143238252D01*
X64580234Y-143238252D02*
X64545374Y-143368349D01*
X64545374Y-143368349D02*
X64445466Y-143481017D01*
X64445466Y-143481017D02*
X64239269Y-143600065D01*
X64522816Y-142281658D02*
X65058927Y-141972135D01*
X65058927Y-141972135D02*
X64960728Y-142468716D01*
X64960728Y-142468716D02*
X65084446Y-142397287D01*
X65084446Y-142397287D02*
X65190734Y-142390907D01*
X65190734Y-142390907D02*
X65255783Y-142408337D01*
X65255783Y-142408337D02*
X65344641Y-142467006D01*
X65344641Y-142467006D02*
X65463689Y-142673203D01*
X65463689Y-142673203D02*
X65470069Y-142779491D01*
X65470069Y-142779491D02*
X65452639Y-142844540D01*
X65452639Y-142844540D02*
X65393970Y-142933398D01*
X65393970Y-142933398D02*
X65146534Y-143076255D01*
X65146534Y-143076255D02*
X65040246Y-143082635D01*
X65040246Y-143082635D02*
X64975197Y-143065205D01*
X85340612Y-76040255D02*
X85292993Y-76087875D01*
X85292993Y-76087875D02*
X85150136Y-76135494D01*
X85150136Y-76135494D02*
X85054898Y-76135494D01*
X85054898Y-76135494D02*
X84912041Y-76087875D01*
X84912041Y-76087875D02*
X84816803Y-75992636D01*
X84816803Y-75992636D02*
X84769184Y-75897398D01*
X84769184Y-75897398D02*
X84721565Y-75706922D01*
X84721565Y-75706922D02*
X84721565Y-75564065D01*
X84721565Y-75564065D02*
X84769184Y-75373589D01*
X84769184Y-75373589D02*
X84816803Y-75278351D01*
X84816803Y-75278351D02*
X84912041Y-75183113D01*
X84912041Y-75183113D02*
X85054898Y-75135494D01*
X85054898Y-75135494D02*
X85150136Y-75135494D01*
X85150136Y-75135494D02*
X85292993Y-75183113D01*
X85292993Y-75183113D02*
X85340612Y-75230732D01*
X85912041Y-75564065D02*
X85816803Y-75516446D01*
X85816803Y-75516446D02*
X85769184Y-75468827D01*
X85769184Y-75468827D02*
X85721565Y-75373589D01*
X85721565Y-75373589D02*
X85721565Y-75325970D01*
X85721565Y-75325970D02*
X85769184Y-75230732D01*
X85769184Y-75230732D02*
X85816803Y-75183113D01*
X85816803Y-75183113D02*
X85912041Y-75135494D01*
X85912041Y-75135494D02*
X86102517Y-75135494D01*
X86102517Y-75135494D02*
X86197755Y-75183113D01*
X86197755Y-75183113D02*
X86245374Y-75230732D01*
X86245374Y-75230732D02*
X86292993Y-75325970D01*
X86292993Y-75325970D02*
X86292993Y-75373589D01*
X86292993Y-75373589D02*
X86245374Y-75468827D01*
X86245374Y-75468827D02*
X86197755Y-75516446D01*
X86197755Y-75516446D02*
X86102517Y-75564065D01*
X86102517Y-75564065D02*
X85912041Y-75564065D01*
X85912041Y-75564065D02*
X85816803Y-75611684D01*
X85816803Y-75611684D02*
X85769184Y-75659303D01*
X85769184Y-75659303D02*
X85721565Y-75754541D01*
X85721565Y-75754541D02*
X85721565Y-75945017D01*
X85721565Y-75945017D02*
X85769184Y-76040255D01*
X85769184Y-76040255D02*
X85816803Y-76087875D01*
X85816803Y-76087875D02*
X85912041Y-76135494D01*
X85912041Y-76135494D02*
X86102517Y-76135494D01*
X86102517Y-76135494D02*
X86197755Y-76087875D01*
X86197755Y-76087875D02*
X86245374Y-76040255D01*
X86245374Y-76040255D02*
X86292993Y-75945017D01*
X86292993Y-75945017D02*
X86292993Y-75754541D01*
X86292993Y-75754541D02*
X86245374Y-75659303D01*
X86245374Y-75659303D02*
X86197755Y-75611684D01*
X86197755Y-75611684D02*
X86102517Y-75564065D01*
X119759047Y-78381253D02*
X119711428Y-78428873D01*
X119711428Y-78428873D02*
X119568571Y-78476492D01*
X119568571Y-78476492D02*
X119473333Y-78476492D01*
X119473333Y-78476492D02*
X119330476Y-78428873D01*
X119330476Y-78428873D02*
X119235238Y-78333634D01*
X119235238Y-78333634D02*
X119187619Y-78238396D01*
X119187619Y-78238396D02*
X119140000Y-78047920D01*
X119140000Y-78047920D02*
X119140000Y-77905063D01*
X119140000Y-77905063D02*
X119187619Y-77714587D01*
X119187619Y-77714587D02*
X119235238Y-77619349D01*
X119235238Y-77619349D02*
X119330476Y-77524111D01*
X119330476Y-77524111D02*
X119473333Y-77476492D01*
X119473333Y-77476492D02*
X119568571Y-77476492D01*
X119568571Y-77476492D02*
X119711428Y-77524111D01*
X119711428Y-77524111D02*
X119759047Y-77571730D01*
X120711428Y-78476492D02*
X120140000Y-78476492D01*
X120425714Y-78476492D02*
X120425714Y-77476492D01*
X120425714Y-77476492D02*
X120330476Y-77619349D01*
X120330476Y-77619349D02*
X120235238Y-77714587D01*
X120235238Y-77714587D02*
X120140000Y-77762206D01*
X121092381Y-77571730D02*
X121140000Y-77524111D01*
X121140000Y-77524111D02*
X121235238Y-77476492D01*
X121235238Y-77476492D02*
X121473333Y-77476492D01*
X121473333Y-77476492D02*
X121568571Y-77524111D01*
X121568571Y-77524111D02*
X121616190Y-77571730D01*
X121616190Y-77571730D02*
X121663809Y-77666968D01*
X121663809Y-77666968D02*
X121663809Y-77762206D01*
X121663809Y-77762206D02*
X121616190Y-77905063D01*
X121616190Y-77905063D02*
X121044762Y-78476492D01*
X121044762Y-78476492D02*
X121663809Y-78476492D01*
X74346952Y-117945846D02*
X73645883Y-118350608D01*
X73645883Y-118350608D02*
X73587214Y-118439466D01*
X73587214Y-118439466D02*
X73569785Y-118504515D01*
X73569785Y-118504515D02*
X73576164Y-118610803D01*
X73576164Y-118610803D02*
X73671402Y-118775761D01*
X73671402Y-118775761D02*
X73760261Y-118834430D01*
X73760261Y-118834430D02*
X73825310Y-118851859D01*
X73825310Y-118851859D02*
X73931598Y-118845480D01*
X73931598Y-118845480D02*
X74632666Y-118440718D01*
X74266641Y-119806743D02*
X73980926Y-119311872D01*
X74123783Y-119559307D02*
X74989809Y-119059307D01*
X74989809Y-119059307D02*
X74818472Y-119048257D01*
X74818472Y-119048257D02*
X74688374Y-119013398D01*
X74688374Y-119013398D02*
X74599516Y-118954729D01*
X90630743Y-72190260D02*
X90583124Y-72237880D01*
X90583124Y-72237880D02*
X90440267Y-72285499D01*
X90440267Y-72285499D02*
X90345029Y-72285499D01*
X90345029Y-72285499D02*
X90202172Y-72237880D01*
X90202172Y-72237880D02*
X90106934Y-72142641D01*
X90106934Y-72142641D02*
X90059315Y-72047403D01*
X90059315Y-72047403D02*
X90011696Y-71856927D01*
X90011696Y-71856927D02*
X90011696Y-71714070D01*
X90011696Y-71714070D02*
X90059315Y-71523594D01*
X90059315Y-71523594D02*
X90106934Y-71428356D01*
X90106934Y-71428356D02*
X90202172Y-71333118D01*
X90202172Y-71333118D02*
X90345029Y-71285499D01*
X90345029Y-71285499D02*
X90440267Y-71285499D01*
X90440267Y-71285499D02*
X90583124Y-71333118D01*
X90583124Y-71333118D02*
X90630743Y-71380737D01*
X90964077Y-71285499D02*
X91583124Y-71285499D01*
X91583124Y-71285499D02*
X91249791Y-71666451D01*
X91249791Y-71666451D02*
X91392648Y-71666451D01*
X91392648Y-71666451D02*
X91487886Y-71714070D01*
X91487886Y-71714070D02*
X91535505Y-71761689D01*
X91535505Y-71761689D02*
X91583124Y-71856927D01*
X91583124Y-71856927D02*
X91583124Y-72095022D01*
X91583124Y-72095022D02*
X91535505Y-72190260D01*
X91535505Y-72190260D02*
X91487886Y-72237880D01*
X91487886Y-72237880D02*
X91392648Y-72285499D01*
X91392648Y-72285499D02*
X91106934Y-72285499D01*
X91106934Y-72285499D02*
X91011696Y-72237880D01*
X91011696Y-72237880D02*
X90964077Y-72190260D01*
X106932047Y-68358496D02*
X106598714Y-67882305D01*
X106360619Y-68358496D02*
X106360619Y-67358496D01*
X106360619Y-67358496D02*
X106741571Y-67358496D01*
X106741571Y-67358496D02*
X106836809Y-67406115D01*
X106836809Y-67406115D02*
X106884428Y-67453734D01*
X106884428Y-67453734D02*
X106932047Y-67548972D01*
X106932047Y-67548972D02*
X106932047Y-67691829D01*
X106932047Y-67691829D02*
X106884428Y-67787067D01*
X106884428Y-67787067D02*
X106836809Y-67834686D01*
X106836809Y-67834686D02*
X106741571Y-67882305D01*
X106741571Y-67882305D02*
X106360619Y-67882305D01*
X107884428Y-68358496D02*
X107313000Y-68358496D01*
X107598714Y-68358496D02*
X107598714Y-67358496D01*
X107598714Y-67358496D02*
X107503476Y-67501353D01*
X107503476Y-67501353D02*
X107408238Y-67596591D01*
X107408238Y-67596591D02*
X107313000Y-67644210D01*
X108741571Y-67691829D02*
X108741571Y-68358496D01*
X108503476Y-67310877D02*
X108265381Y-68025162D01*
X108265381Y-68025162D02*
X108884428Y-68025162D01*
X71696842Y-132874822D02*
X71679412Y-132939871D01*
X71679412Y-132939871D02*
X71579504Y-133052539D01*
X71579504Y-133052539D02*
X71497025Y-133100158D01*
X71497025Y-133100158D02*
X71349498Y-133130347D01*
X71349498Y-133130347D02*
X71219400Y-133095487D01*
X71219400Y-133095487D02*
X71130542Y-133036818D01*
X71130542Y-133036818D02*
X70994064Y-132895671D01*
X70994064Y-132895671D02*
X70922636Y-132771953D01*
X70922636Y-132771953D02*
X70868637Y-132583186D01*
X70868637Y-132583186D02*
X70862257Y-132476898D01*
X70862257Y-132476898D02*
X70897117Y-132346800D01*
X70897117Y-132346800D02*
X70997025Y-132234132D01*
X70997025Y-132234132D02*
X71079504Y-132186513D01*
X71079504Y-132186513D02*
X71227031Y-132156324D01*
X71227031Y-132156324D02*
X71292080Y-132173754D01*
X72569247Y-132481110D02*
X72074375Y-132766824D01*
X72321811Y-132623967D02*
X71821811Y-131757942D01*
X71821811Y-131757942D02*
X71810761Y-131929279D01*
X71810761Y-131929279D02*
X71775902Y-132059376D01*
X71775902Y-132059376D02*
X71717232Y-132148235D01*
X68550098Y-148466639D02*
X68050098Y-147600613D01*
X68050098Y-147600613D02*
X68256295Y-147481566D01*
X68256295Y-147481566D02*
X68403822Y-147451376D01*
X68403822Y-147451376D02*
X68533920Y-147486236D01*
X68533920Y-147486236D02*
X68622778Y-147544905D01*
X68622778Y-147544905D02*
X68759256Y-147686053D01*
X68759256Y-147686053D02*
X68830684Y-147809771D01*
X68830684Y-147809771D02*
X68884683Y-147998537D01*
X68884683Y-147998537D02*
X68891063Y-148104826D01*
X68891063Y-148104826D02*
X68856203Y-148234923D01*
X68856203Y-148234923D02*
X68756295Y-148347591D01*
X68756295Y-148347591D02*
X68550098Y-148466639D01*
X68922503Y-147206901D02*
X68939933Y-147141853D01*
X68939933Y-147141853D02*
X68998602Y-147052994D01*
X68998602Y-147052994D02*
X69204799Y-146933947D01*
X69204799Y-146933947D02*
X69311087Y-146927567D01*
X69311087Y-146927567D02*
X69376136Y-146944997D01*
X69376136Y-146944997D02*
X69464994Y-147003666D01*
X69464994Y-147003666D02*
X69512613Y-147086144D01*
X69512613Y-147086144D02*
X69542802Y-147233672D01*
X69542802Y-147233672D02*
X69333645Y-148014258D01*
X69333645Y-148014258D02*
X69869756Y-147704734D01*
D11*
%TO.C,U5*%
X90453907Y-102412677D02*
X90453907Y-102137677D01*
X90453907Y-102137677D02*
X91743907Y-102137677D01*
X90453907Y-92492677D02*
X90453907Y-92767677D01*
X88143907Y-102412677D02*
X90453907Y-102412677D01*
X88143907Y-102412677D02*
X85833907Y-102412677D01*
X88143907Y-92492677D02*
X90453907Y-92492677D01*
X88143907Y-92492677D02*
X85833907Y-92492677D01*
X85833907Y-102412677D02*
X85833907Y-102137677D01*
X85833907Y-92492677D02*
X85833907Y-92767677D01*
%TO.C,R21*%
X108688389Y-110167633D02*
X108688389Y-108713505D01*
X110508389Y-110167633D02*
X110508389Y-108713505D01*
%TO.C,Y1*%
X97588387Y-104740569D02*
X97588387Y-104150569D01*
X97188387Y-104150569D02*
X97588387Y-104150569D01*
X99488387Y-104150569D02*
X99488387Y-104740569D01*
X99488387Y-104150569D02*
X103088387Y-104150569D01*
X105388387Y-104150569D02*
X104988387Y-104150569D01*
X97188387Y-100130569D02*
X97188387Y-104150569D01*
X97188387Y-100130569D02*
X97588387Y-100130569D01*
X99488387Y-100130569D02*
X103088387Y-100130569D01*
X105388387Y-100130569D02*
X105388387Y-104150569D01*
X105388387Y-100130569D02*
X104988387Y-100130569D01*
%TO.C,C11*%
X95683390Y-121767679D02*
X95683390Y-122392679D01*
X95995890Y-122080179D02*
X95370890Y-122080179D01*
X95693953Y-122632679D02*
X95058390Y-122632679D01*
X95693953Y-122632679D02*
X96758390Y-123697116D01*
X92302827Y-122632679D02*
X92938390Y-122632679D01*
X92302827Y-122632679D02*
X91238390Y-123697116D01*
X96758390Y-123697116D02*
X96758390Y-128152679D01*
X91238390Y-123697116D02*
X91238390Y-128152679D01*
X96758390Y-128152679D02*
X95058390Y-128152679D01*
X91238390Y-128152679D02*
X92938390Y-128152679D01*
%TO.C,C14*%
X106388389Y-102889324D02*
X106388389Y-101466820D01*
X108208389Y-102889324D02*
X108208389Y-101466820D01*
%TO.C,R3*%
X62879912Y-113987234D02*
X61620600Y-113260170D01*
X63789912Y-112411068D02*
X62530600Y-111684004D01*
%TO.C,J4*%
X105858388Y-58590676D02*
X105858388Y-59800676D01*
X106528388Y-59800676D02*
X105858388Y-59800676D01*
X106528388Y-59800676D02*
X106528388Y-62460676D01*
X104338388Y-59800676D02*
X100778388Y-59800676D01*
X99258388Y-59800676D02*
X96048388Y-59800676D01*
X96048388Y-59800676D02*
X96048388Y-62460676D01*
X106528388Y-62460676D02*
X103318388Y-62460676D01*
X101798388Y-62460676D02*
X98238388Y-62460676D01*
X96718388Y-62460676D02*
X96048388Y-62460676D01*
%TO.C,R4*%
X72204802Y-144341861D02*
X70945490Y-145068925D01*
X71294802Y-142765695D02*
X70035490Y-143492759D01*
%TO.C,D6*%
X50218236Y-95543778D02*
X49083236Y-97509656D01*
X49083236Y-97509656D02*
X52599299Y-99539656D01*
X53734299Y-97573778D02*
X50218236Y-95543778D01*
%TO.C,R12*%
X148651460Y-122884254D02*
X149910772Y-123611318D01*
X147741460Y-124460420D02*
X149000772Y-125187484D01*
%TO.C,Q1*%
X66431449Y-102681682D02*
X65219013Y-101981682D01*
X64059013Y-103990860D02*
X65704461Y-104940860D01*
%TO.C,C2*%
X64627791Y-131782116D02*
X65339043Y-133014040D01*
X63051625Y-132692116D02*
X63762877Y-133924040D01*
%TO.C,R5*%
X71042789Y-142299194D02*
X69783477Y-143026258D01*
X70132789Y-140723028D02*
X68873477Y-141450092D01*
%TO.C,C10*%
X88588388Y-126551823D02*
X88588388Y-125129319D01*
X90408388Y-126551823D02*
X90408388Y-125129319D01*
%TO.C,R13*%
X147227156Y-128259477D02*
X145967844Y-127532413D01*
X148137156Y-126683311D02*
X146877844Y-125956247D01*
%TO.C,C16*%
X89088390Y-109851822D02*
X89088390Y-108429318D01*
X90908390Y-109851822D02*
X90908390Y-108429318D01*
%TO.C,R16*%
X81488388Y-104867635D02*
X81488388Y-103413507D01*
X83308388Y-104867635D02*
X83308388Y-103413507D01*
%TO.C,C18*%
X86487140Y-114330573D02*
X87909644Y-114330573D01*
X86487140Y-116150573D02*
X87909644Y-116150573D01*
%TO.C,J2*%
X53703929Y-129034913D02*
X54751820Y-128429913D01*
X54416820Y-127849676D02*
X54751820Y-128429913D01*
X54416820Y-127849676D02*
X56720448Y-126519676D01*
X55511820Y-129746272D02*
X57291820Y-132829322D01*
X58051820Y-134145681D02*
X59656820Y-136925622D01*
X59656820Y-136925622D02*
X61960448Y-135595622D01*
X56720448Y-126519676D02*
X58325448Y-129299617D01*
X59085448Y-130615976D02*
X60865448Y-133699026D01*
X61625448Y-135015385D02*
X61960448Y-135595622D01*
%TO.C,C5*%
X61475379Y-116413345D02*
X60243455Y-115702093D01*
X62385379Y-114837179D02*
X61153455Y-114125927D01*
%TO.C,SW2*%
X120750908Y-59327678D02*
X119550908Y-59327678D01*
X117950908Y-59327678D02*
X116750908Y-59327678D01*
X116750908Y-59327678D02*
X116750908Y-65727678D01*
X120750908Y-65727678D02*
X120750908Y-59327678D01*
X119550908Y-65727678D02*
X120750908Y-65727678D01*
X116750908Y-65727678D02*
X117950908Y-65727678D01*
%TO.C,R17*%
X109387839Y-85976673D02*
X110841967Y-85976673D01*
X109387839Y-87796673D02*
X110841967Y-87796673D01*
%TO.C,D1*%
X62499875Y-108146356D02*
X61364875Y-110112234D01*
X61364875Y-110112234D02*
X64880938Y-112142234D01*
X66015938Y-110176356D02*
X62499875Y-108146356D01*
%TO.C,C6*%
X74327273Y-126182116D02*
X75038525Y-127414040D01*
X72751107Y-127092116D02*
X73462359Y-128324040D01*
%TO.C,U7*%
X84498391Y-107080569D02*
X81048391Y-107080569D01*
X84498391Y-107080569D02*
X86448391Y-107080569D01*
X84498391Y-112200569D02*
X82548391Y-112200569D01*
X84498391Y-112200569D02*
X86448391Y-112200569D01*
D10*
%TO.C,MD2*%
X98338391Y-127267679D02*
X98338391Y-122767677D01*
X104238389Y-127267679D02*
X104238389Y-122767677D01*
D12*
X99138392Y-129370778D02*
G75*
G03*
X99138392Y-129370778I-125001J0D01*
G01*
D11*
%TO.C,J5*%
X143172006Y-138909067D02*
X142124115Y-138304067D01*
X141789115Y-138884304D02*
X142124115Y-138304067D01*
X141789115Y-138884304D02*
X139485487Y-137554304D01*
X142884115Y-136987708D02*
X144664115Y-133904658D01*
X145424115Y-132588299D02*
X147029115Y-129808358D01*
X147029115Y-129808358D02*
X144725487Y-128478358D01*
X139485487Y-137554304D02*
X141090487Y-134774363D01*
X141850487Y-133458004D02*
X143630487Y-130374954D01*
X144390487Y-129058595D02*
X144725487Y-128478358D01*
%TO.C,C7*%
X66792853Y-130532118D02*
X67504105Y-131764042D01*
X65216687Y-131442118D02*
X65927939Y-132674042D01*
%TO.C,D4*%
X48918243Y-97795445D02*
X47783243Y-99761323D01*
X47783243Y-99761323D02*
X51299306Y-101791323D01*
X52434306Y-99825445D02*
X48918243Y-97795445D01*
%TO.C,R6*%
X65353940Y-106793852D02*
X66613252Y-107520916D01*
X64443940Y-108370018D02*
X65703252Y-109097082D01*
D10*
%TO.C,MD1*%
X99413390Y-82056684D02*
X103913392Y-82056684D01*
X99413390Y-87956682D02*
X103913392Y-87956682D01*
D12*
X97435292Y-82731684D02*
G75*
G03*
X97435292Y-82731684I-125001J0D01*
G01*
D11*
%TO.C,R7*%
X62094009Y-140462307D02*
X63353321Y-139735243D01*
X63004009Y-142038473D02*
X64263321Y-141311409D01*
%TO.C,D5*%
X67088346Y-106273897D02*
X69054224Y-107408897D01*
X69054224Y-107408897D02*
X71084224Y-103892834D01*
X69118346Y-102757834D02*
X67088346Y-106273897D01*
%TO.C,C9*%
X86218533Y-70832497D02*
X84796029Y-70832497D01*
X86218533Y-69012497D02*
X84796029Y-69012497D01*
%TO.C,R10*%
X87092972Y-60389679D02*
X85638844Y-60389679D01*
X87092972Y-58569679D02*
X85638844Y-58569679D01*
%TO.C,R22*%
X112378389Y-110167632D02*
X112378389Y-108713504D01*
X114198389Y-110167632D02*
X114198389Y-108713504D01*
%TO.C,C13*%
X114271906Y-85329677D02*
X114271906Y-84704677D01*
X113959406Y-85017177D02*
X114584406Y-85017177D01*
X114261343Y-84464677D02*
X114896906Y-84464677D01*
X114261343Y-84464677D02*
X113196906Y-83400240D01*
X117652469Y-84464677D02*
X117016906Y-84464677D01*
X117652469Y-84464677D02*
X118716906Y-83400240D01*
X113196906Y-83400240D02*
X113196906Y-78944677D01*
X118716906Y-83400240D02*
X118716906Y-78944677D01*
X113196906Y-78944677D02*
X114896906Y-78944677D01*
X118716906Y-78944677D02*
X117016906Y-78944677D01*
%TO.C,J1*%
X71452325Y-64691223D02*
X73011171Y-65591223D01*
X69633672Y-63641223D02*
X68637742Y-63066223D01*
X66782325Y-72779901D02*
X68341171Y-73679901D01*
X64963672Y-71729901D02*
X63967742Y-71154901D01*
%TO.C,U3*%
X74549092Y-75647466D02*
X75449092Y-74088620D01*
X74549092Y-75647466D02*
X74149092Y-76340286D01*
X71847092Y-74087466D02*
X72247092Y-73394646D01*
X71847092Y-74087466D02*
X71447092Y-74780286D01*
%TO.C,R18*%
X109387845Y-82216677D02*
X110841973Y-82216677D01*
X109387845Y-84036677D02*
X110841973Y-84036677D01*
%TO.C,R23*%
X80491324Y-114330569D02*
X81945452Y-114330569D01*
X80491324Y-116150569D02*
X81945452Y-116150569D01*
%TO.C,TP1*%
X69199589Y-156515409D02*
X71797665Y-155015409D01*
X69199589Y-156515409D02*
X65149589Y-149500603D01*
X67747665Y-148000603D02*
X71797665Y-155015409D01*
X67747665Y-148000603D02*
X65149589Y-149500603D01*
%TO.C,SW1*%
X114908908Y-59327673D02*
X113708908Y-59327673D01*
X112108908Y-59327673D02*
X110908908Y-59327673D01*
X110908908Y-59327673D02*
X110908908Y-65727673D01*
X114908908Y-65727673D02*
X114908908Y-59327673D01*
X113708908Y-65727673D02*
X114908908Y-65727673D01*
X110908908Y-65727673D02*
X112108908Y-65727673D01*
%TO.C,R8*%
X60766603Y-138163170D02*
X62025915Y-137436106D01*
X61676603Y-139739336D02*
X62935915Y-139012272D01*
%TO.C,C4*%
X121396909Y-64000929D02*
X121396909Y-62578425D01*
X123216909Y-64000929D02*
X123216909Y-62578425D01*
%TO.C,R11*%
X92426972Y-60389682D02*
X90972844Y-60389682D01*
X92426972Y-58569682D02*
X90972844Y-58569682D01*
%TO.C,R9*%
X56731388Y-104436789D02*
X55472076Y-103709725D01*
X57641388Y-102860623D02*
X56382076Y-102133559D01*
%TO.C,R19*%
X106948843Y-121399580D02*
X108402971Y-121399580D01*
X106948843Y-123219580D02*
X108402971Y-123219580D01*
%TO.C,R15*%
X77788388Y-104867635D02*
X77788388Y-103413507D01*
X79608388Y-104867635D02*
X79608388Y-103413507D01*
%TO.C,U6*%
X98578387Y-107440565D02*
X98838387Y-107440565D01*
X98578387Y-111460565D02*
X98578387Y-111200565D01*
X98578387Y-111460565D02*
X98838387Y-111460565D01*
X103998387Y-107440565D02*
X103738387Y-107440565D01*
X103998387Y-107440565D02*
X103998387Y-107700565D01*
X103998387Y-111460565D02*
X103738387Y-111460565D01*
X103998387Y-111460565D02*
X103998387Y-111200565D01*
%TO.C,R20*%
X106948841Y-127565782D02*
X108402969Y-127565782D01*
X106948841Y-129385782D02*
X108402969Y-129385782D01*
%TO.C,C15*%
X94288392Y-102889324D02*
X94288392Y-101466820D01*
X96108392Y-102889324D02*
X96108392Y-101466820D01*
%TO.C,C17*%
X92188388Y-109851822D02*
X92188388Y-108429318D01*
X94008388Y-109851822D02*
X94008388Y-108429318D01*
%TO.C,U2*%
X63727381Y-120222563D02*
X66732381Y-125427376D01*
X58946087Y-125581120D02*
X60826087Y-128837376D01*
X66732381Y-125427376D02*
X65641189Y-126057376D01*
X60826087Y-128837376D02*
X61917279Y-128207376D01*
%TO.C,D3*%
X62863147Y-144660360D02*
X63998147Y-146626238D01*
X63998147Y-146626238D02*
X67514210Y-144596238D01*
X66379210Y-142630360D02*
X62863147Y-144660360D01*
%TO.C,C8*%
X86218531Y-74740675D02*
X84796027Y-74740675D01*
X86218531Y-72920675D02*
X84796027Y-72920675D01*
%TO.C,C12*%
X119491905Y-82034925D02*
X119491905Y-80612421D01*
X121311905Y-82034925D02*
X121311905Y-80612421D01*
%TO.C,U1*%
X71261797Y-115872562D02*
X74266797Y-121077375D01*
X66480503Y-121231119D02*
X68360503Y-124487375D01*
X74266797Y-121077375D02*
X73175605Y-121707375D01*
X68360503Y-124487375D02*
X69451695Y-123857375D01*
%TO.C,C3*%
X90086158Y-69045680D02*
X91508662Y-69045680D01*
X90086158Y-70865680D02*
X91508662Y-70865680D01*
%TO.C,R14*%
X108301969Y-66993677D02*
X106847841Y-66993677D01*
X108301969Y-65173677D02*
X106847841Y-65173677D01*
%TO.C,C1*%
X70388846Y-128455974D02*
X71100098Y-129687898D01*
X68812680Y-129365974D02*
X69523932Y-130597898D01*
%TO.C,D2*%
X64038143Y-146695512D02*
X65173143Y-148661390D01*
X65173143Y-148661390D02*
X68689206Y-146631390D01*
X67554206Y-144665512D02*
X64038143Y-146695512D01*
%TD*%
M02*
