%TF.GenerationSoftware,KiCad,Pcbnew,7.0.6*%
%TF.CreationDate,2024-05-15T12:06:43-04:00*%
%TF.ProjectId,remote_omnidirection_droid_v0.1,72656d6f-7465-45f6-9f6d-6e6964697265,rev?*%
%TF.SameCoordinates,Original*%
%TF.FileFunction,Paste,Bot*%
%TF.FilePolarity,Positive*%
%FSLAX46Y46*%
G04 Gerber Fmt 4.6, Leading zero omitted, Abs format (unit mm)*
G04 Created by KiCad (PCBNEW 7.0.6) date 2024-05-15 12:06:43*
%MOMM*%
%LPD*%
G01*
G04 APERTURE LIST*
G04 Aperture macros list*
%AMRoundRect*
0 Rectangle with rounded corners*
0 $1 Rounding radius*
0 $2 $3 $4 $5 $6 $7 $8 $9 X,Y pos of 4 corners*
0 Add a 4 corners polygon primitive as box body*
4,1,4,$2,$3,$4,$5,$6,$7,$8,$9,$2,$3,0*
0 Add four circle primitives for the rounded corners*
1,1,$1+$1,$2,$3*
1,1,$1+$1,$4,$5*
1,1,$1+$1,$6,$7*
1,1,$1+$1,$8,$9*
0 Add four rect primitives between the rounded corners*
20,1,$1+$1,$2,$3,$4,$5,0*
20,1,$1+$1,$4,$5,$6,$7,0*
20,1,$1+$1,$6,$7,$8,$9,0*
20,1,$1+$1,$8,$9,$2,$3,0*%
G04 Aperture macros list end*
%ADD10RoundRect,0.250000X0.658910X0.341266X-0.033910X0.741266X-0.658910X-0.341266X0.033910X-0.741266X0*%
%ADD11R,1.500000X0.900000*%
%ADD12R,0.900000X1.500000*%
%ADD13R,1.000000X1.000000*%
G04 APERTURE END LIST*
D10*
%TO.C,R1*%
X70032522Y-67820576D03*
X67347844Y-66270576D03*
%TD*%
%TO.C,R2*%
X68532522Y-70418652D03*
X65847844Y-68868652D03*
%TD*%
D11*
%TO.C,U4*%
X96512905Y-59118675D03*
X96512905Y-60388675D03*
X96512905Y-61658675D03*
X96512905Y-62928675D03*
X96512905Y-64198675D03*
X96512905Y-65468675D03*
X96512905Y-66738675D03*
X96512905Y-68008675D03*
X96512905Y-69278675D03*
X96512905Y-70548675D03*
X96512905Y-71818675D03*
X96512905Y-73088675D03*
X96512905Y-74358675D03*
X96512905Y-75628675D03*
D12*
X94747905Y-76878675D03*
X93477905Y-76878675D03*
X92207905Y-76878675D03*
X90937905Y-76878675D03*
X89667905Y-76878675D03*
X88397905Y-76878675D03*
X87127905Y-76878675D03*
X85857905Y-76878675D03*
X84587905Y-76878675D03*
X83317905Y-76878675D03*
X82047905Y-76878675D03*
X80777905Y-76878675D03*
D11*
X79012905Y-75628675D03*
X79012905Y-74358675D03*
X79012905Y-73088675D03*
X79012905Y-71818675D03*
X79012905Y-70548675D03*
X79012905Y-69278675D03*
X79012905Y-68008675D03*
X79012905Y-66738675D03*
X79012905Y-65468675D03*
X79012905Y-64198675D03*
X79012905Y-62928675D03*
X79012905Y-61658675D03*
X79012905Y-60388675D03*
X79012905Y-59118675D03*
D13*
X89122905Y-64468675D03*
X90622905Y-64468675D03*
X87622905Y-64468675D03*
X90622905Y-65968675D03*
X89122905Y-65968675D03*
X87622905Y-65968675D03*
X90622905Y-62968675D03*
X89122905Y-62968675D03*
X87622905Y-62968675D03*
%TD*%
M02*
