%TF.GenerationSoftware,KiCad,Pcbnew,7.0.6*%
%TF.CreationDate,2024-05-15T12:06:43-04:00*%
%TF.ProjectId,remote_omnidirection_droid_v0.1,72656d6f-7465-45f6-9f6d-6e6964697265,rev?*%
%TF.SameCoordinates,Original*%
%TF.FileFunction,Soldermask,Bot*%
%TF.FilePolarity,Negative*%
%FSLAX46Y46*%
G04 Gerber Fmt 4.6, Leading zero omitted, Abs format (unit mm)*
G04 Created by KiCad (PCBNEW 7.0.6) date 2024-05-15 12:06:43*
%MOMM*%
%LPD*%
G01*
G04 APERTURE LIST*
G04 Aperture macros list*
%AMRoundRect*
0 Rectangle with rounded corners*
0 $1 Rounding radius*
0 $2 $3 $4 $5 $6 $7 $8 $9 X,Y pos of 4 corners*
0 Add a 4 corners polygon primitive as box body*
4,1,4,$2,$3,$4,$5,$6,$7,$8,$9,$2,$3,0*
0 Add four circle primitives for the rounded corners*
1,1,$1+$1,$2,$3*
1,1,$1+$1,$4,$5*
1,1,$1+$1,$6,$7*
1,1,$1+$1,$8,$9*
0 Add four rect primitives between the rounded corners*
20,1,$1+$1,$2,$3,$4,$5,0*
20,1,$1+$1,$4,$5,$6,$7,0*
20,1,$1+$1,$6,$7,$8,$9,0*
20,1,$1+$1,$8,$9,$2,$3,0*%
%AMHorizOval*
0 Thick line with rounded ends*
0 $1 width*
0 $2 $3 position (X,Y) of the first rounded end (center of the circle)*
0 $4 $5 position (X,Y) of the second rounded end (center of the circle)*
0 Add line between two ends*
20,1,$1,$2,$3,$4,$5,0*
0 Add two circle primitives to create the rounded ends*
1,1,$1,$2,$3*
1,1,$1,$4,$5*%
%AMRotRect*
0 Rectangle, with rotation*
0 The origin of the aperture is its center*
0 $1 length*
0 $2 width*
0 $3 Rotation angle, in degrees counterclockwise*
0 Add horizontal line*
21,1,$1,$2,0,0,$3*%
G04 Aperture macros list end*
%ADD10C,2.500000*%
%ADD11C,0.650000*%
%ADD12HorizOval,1.000000X-0.476314X0.275000X0.476314X-0.275000X0*%
%ADD13HorizOval,1.000000X-0.346410X0.200000X0.346410X-0.200000X0*%
%ADD14RoundRect,0.650000X0.887917X-0.237917X0.237917X0.887917X-0.887917X0.237917X-0.237917X-0.887917X0*%
%ADD15C,2.600000*%
%ADD16C,1.625600*%
%ADD17RoundRect,0.250000X0.658910X0.341266X-0.033910X0.741266X-0.658910X-0.341266X0.033910X-0.741266X0*%
%ADD18C,3.500000*%
%ADD19R,1.700000X1.700000*%
%ADD20O,1.700000X1.700000*%
%ADD21RotRect,1.700000X1.700000X30.000000*%
%ADD22HorizOval,1.700000X0.000000X0.000000X0.000000X0.000000X0*%
%ADD23HorizOval,3.500000X-0.750000X-1.299038X0.750000X1.299038X0*%
%ADD24HorizOval,3.500000X1.299038X-0.750000X-1.299038X0.750000X0*%
%ADD25RoundRect,0.102000X0.750000X0.450000X-0.750000X0.450000X-0.750000X-0.450000X0.750000X-0.450000X0*%
%ADD26RoundRect,0.102000X0.450000X0.750000X-0.450000X0.750000X-0.450000X-0.750000X0.450000X-0.750000X0*%
%ADD27RoundRect,0.102000X0.500000X0.500000X-0.500000X0.500000X-0.500000X-0.500000X0.500000X-0.500000X0*%
%ADD28RotRect,1.700000X1.700000X150.000000*%
%ADD29HorizOval,1.700000X0.000000X0.000000X0.000000X0.000000X0*%
G04 APERTURE END LIST*
D10*
%TO.C,H1*%
X44788379Y-109415140D03*
%TD*%
%TO.C,H2*%
X73038388Y-60450586D03*
%TD*%
%TO.C,H3*%
X129538386Y-60412098D03*
%TD*%
%TO.C,H6*%
X73038391Y-158450576D03*
%TD*%
D11*
%TO.C,J1*%
X72818321Y-67535249D03*
X69928321Y-72540875D03*
D12*
X73966334Y-66546832D03*
D13*
X70346348Y-64456832D03*
D12*
X69646334Y-74029292D03*
D13*
X66026348Y-71939292D03*
%TD*%
D14*
%TO.C,TP1*%
X69748627Y-154466371D03*
D15*
X67208627Y-150066962D03*
%TD*%
D10*
%TO.C,H4*%
X157788387Y-109439419D03*
%TD*%
%TO.C,H5*%
X129538380Y-158450572D03*
%TD*%
D16*
%TO.C,SW3*%
X49619374Y-116557189D03*
X50889374Y-118756894D03*
X52159374Y-120956598D03*
%TD*%
D17*
%TO.C,R1*%
X70032522Y-67820576D03*
X67347844Y-66270576D03*
%TD*%
D18*
%TO.C,M3*%
X111688223Y-155104218D03*
X90887897Y-155104220D03*
D19*
X110288226Y-135054220D03*
D20*
X107748226Y-135054220D03*
%TD*%
D18*
%TO.C,M2*%
X135632511Y-77613292D03*
X146032676Y-95626902D03*
D21*
X118968702Y-88850724D03*
D22*
X120238702Y-91050429D03*
%TD*%
D17*
%TO.C,R2*%
X68532522Y-70418652D03*
X65847844Y-68868652D03*
%TD*%
D23*
%TO.C,J3*%
X54541853Y-107895386D03*
D24*
X49260893Y-104442277D03*
%TD*%
D25*
%TO.C,U4*%
X96512905Y-59118675D03*
X96512905Y-60388675D03*
X96512905Y-61658675D03*
X96512905Y-62928675D03*
X96512905Y-64198675D03*
X96512905Y-65468675D03*
X96512905Y-66738675D03*
X96512905Y-68008675D03*
X96512905Y-69278675D03*
X96512905Y-70548675D03*
X96512905Y-71818675D03*
X96512905Y-73088675D03*
X96512905Y-74358675D03*
X96512905Y-75628675D03*
D26*
X94747905Y-76878675D03*
X93477905Y-76878675D03*
X92207905Y-76878675D03*
X90937905Y-76878675D03*
X89667905Y-76878675D03*
X88397905Y-76878675D03*
X87127905Y-76878675D03*
X85857905Y-76878675D03*
X84587905Y-76878675D03*
X83317905Y-76878675D03*
X82047905Y-76878675D03*
X80777905Y-76878675D03*
D25*
X79012905Y-75628675D03*
X79012905Y-74358675D03*
X79012905Y-73088675D03*
X79012905Y-71818675D03*
X79012905Y-70548675D03*
X79012905Y-69278675D03*
X79012905Y-68008675D03*
X79012905Y-66738675D03*
X79012905Y-65468675D03*
X79012905Y-64198675D03*
X79012905Y-62928675D03*
X79012905Y-61658675D03*
X79012905Y-60388675D03*
X79012905Y-59118675D03*
D27*
X89122905Y-64468675D03*
X90622905Y-64468675D03*
X87622905Y-64468675D03*
X90622905Y-65968675D03*
X89122905Y-65968675D03*
X87622905Y-65968675D03*
X90622905Y-62968675D03*
X89122905Y-62968675D03*
X87622905Y-62968675D03*
%TD*%
D18*
%TO.C,M1*%
X56549757Y-95629400D03*
X66949918Y-77615788D03*
D28*
X74613563Y-104441966D03*
D29*
X75883563Y-102242261D03*
%TD*%
M02*
