M48
; DRILL file {KiCad 7.0.6} date Wed May 15 12:06:40 2024
; FORMAT={-:-/ absolute / metric / decimal}
; #@! TF.CreationDate,2024-05-15T12:06:40-04:00
; #@! TF.GenerationSoftware,Kicad,Pcbnew,7.0.6
; #@! TF.FileFunction,Plated,1,2,PTH
FMAT,2
METRIC
; #@! TA.AperFunction,Plated,PTH,ComponentDrill
T1C0.200
; #@! TA.AperFunction,Plated,PTH,ViaDrill
T2C0.400
; #@! TA.AperFunction,Plated,PTH,ComponentDrill
T3C0.600
; #@! TA.AperFunction,Plated,PTH,ComponentDrill
T4C1.000
; #@! TA.AperFunction,Plated,PTH,ComponentDrill
T5C1.118
; #@! TA.AperFunction,Plated,PTH,ComponentDrill
T6C1.300
; #@! TA.AperFunction,Plated,PTH,ComponentDrill
T7C2.200
%
G90
G05
T1
X87.623Y-63.719
X87.623Y-65.219
X88.373Y-62.969
X88.373Y-64.469
X88.373Y-65.969
X89.123Y-63.719
X89.123Y-65.219
X89.873Y-62.969
X89.873Y-64.469
X89.873Y-65.969
X90.623Y-63.719
X90.623Y-65.219
T2
X54.52Y-100.785
X58.224Y-86.697
X58.753Y-128.021
X59.501Y-104.985
X59.544Y-100.911
X59.866Y-126.955
X60.224Y-120.975
X61.569Y-104.504
X62.707Y-107.933
X62.724Y-125.305
X62.939Y-123.872
X64.141Y-100.374
X64.649Y-97.834
X64.675Y-119.844
X64.699Y-109.083
X65.872Y-105.95
X65.919Y-94.786
X66.314Y-116.841
X66.681Y-96.564
X67.443Y-102.025
X67.679Y-129.488
X68.375Y-112.944
X68.529Y-130.96
X69.065Y-120.336
X69.386Y-139.629
X69.475Y-101.136
X69.602Y-94.786
X69.815Y-135.571
X70.319Y-119.611
X70.364Y-91.865
X70.418Y-75.653
X70.713Y-133.741
X70.945Y-138.729
X71.17Y-70.199
X71.634Y-86.404
X72.103Y-79.034
X72.375Y-114.944
X73.031Y-98.977
X73.158Y-82.975
X73.164Y-138.371
X73.198Y-112.941
X73.275Y-109.944
X73.64Y-72.202
X74.035Y-133.481
X74.631Y-78.385
X74.711Y-69.818
X76.203Y-77.134
X76.333Y-96.818
X76.587Y-90.849
X76.703Y-73.634
X76.714Y-89.706
X76.798Y-99.641
X76.977Y-97.985
X77.259Y-111.605
X77.302Y-117.738
X77.857Y-83.737
X78.541Y-98.541
X79.198Y-101.041
X79.203Y-80.534
X79.396Y-109.842
X79.898Y-97.641
X79.998Y-92.741
X80.143Y-85.261
X80.397Y-90.849
X80.723Y-101.765
X80.959Y-93.305
X80.959Y-97.605
X81.098Y-67.741
X81.159Y-71.634
X81.798Y-91.841
X81.798Y-96.541
X81.903Y-75.434
X82.003Y-74.234
X82.302Y-99.739
X82.339Y-93.273
X82.359Y-89.205
X82.398Y-104.241
X82.598Y-78.541
X83.098Y-98.241
X83.103Y-67.034
X83.103Y-68.134
X83.798Y-109.341
X83.798Y-107.641
X85.11Y-91.673
X85.223Y-102.914
X86.303Y-68.134
X86.303Y-67.034
X86.747Y-99.739
X87.003Y-78.634
X87.198Y-103.841
X87.198Y-114.741
X87.598Y-123.741
X87.774Y-106.541
X87.89Y-85.642
X87.998Y-132.341
X88.398Y-94.278
X88.398Y-90.124
X88.398Y-91.611
X88.398Y-97.834
X88.559Y-84.69
X88.759Y-73.505
X89.16Y-61.258
X89.414Y-90.087
X89.414Y-96.945
X90.386Y-103.473
X90.386Y-104.773
X91.319Y-85.134
X91.803Y-73.034
X92.081Y-88.309
X92.151Y-85.688
X92.586Y-113.773
X92.586Y-116.973
X92.97Y-91.992
X93.903Y-115.434
X94.003Y-69.934
X94.494Y-92.627
X94.621Y-81.832
X94.748Y-66.234
X95.002Y-90.087
X95.256Y-85.982
X95.598Y-118.541
X95.637Y-87.674
X96.498Y-107.441
X96.653Y-93.262
X96.703Y-117.965
X96.775Y-121.144
X96.78Y-88.817
X96.798Y-110.641
X96.798Y-114.541
X97.498Y-132.241
X97.649Y-78.657
X98.139Y-60.389
X98.298Y-118.641
X98.503Y-71.334
X98.603Y-115.634
X98.722Y-63.474
X98.997Y-66.575
X100.971Y-119.297
X101.098Y-64.179
X101.225Y-82.594
X101.225Y-134.156
X101.749Y-78.657
X101.898Y-112.941
X102.198Y-117.241
X102.498Y-119.341
X103.203Y-66.934
X103.498Y-112.541
X103.903Y-65.034
X104.415Y-115.655
X104.527Y-90.341
X104.527Y-119.297
X104.998Y-107.841
X105.998Y-110.641
X105.998Y-97.741
X105.998Y-109.541
X106.559Y-87.547
X107.798Y-109.041
X109.703Y-68.934
X110.049Y-86.957
X110.149Y-90.557
X111.203Y-67.391
X111.639Y-89.579
X111.989Y-102.768
X112.655Y-88.817
X112.888Y-104.251
X112.909Y-62.782
X113.798Y-90.849
X113.798Y-87.293
T4
X74.614Y-104.442
X75.884Y-102.242
X107.748Y-135.054
X110.288Y-135.054
X118.969Y-88.851
X120.239Y-91.05
T5
X49.619Y-116.557
X50.889Y-118.757
X52.159Y-120.957
T6
X67.209Y-150.067
X69.749Y-154.466
T3
G00X66.373Y-72.139
M15
G01X65.68Y-71.739
M16
G05
G00X70.123Y-74.304
M15
G01X69.17Y-73.754
M16
G05
G00X70.693Y-64.657
M15
G01X70.0Y-64.257
M16
G05
G00X74.443Y-66.822
M15
G01X73.49Y-66.272
M16
G05
T7
G00X48.265Y-103.867
M15
G01X50.257Y-105.017
M16
G05
G00X55.117Y-106.899
M15
G01X53.967Y-108.891
M16
G05
T0
M30
