%TF.GenerationSoftware,KiCad,Pcbnew,7.0.6*%
%TF.CreationDate,2024-05-15T12:06:38-04:00*%
%TF.ProjectId,remote_omnidirection_droid_v0.1,72656d6f-7465-45f6-9f6d-6e6964697265,rev?*%
%TF.SameCoordinates,Original*%
%TF.FileFunction,Drillmap*%
%TF.FilePolarity,Positive*%
%FSLAX45Y45*%
G04 Gerber Fmt 4.5, Leading zero omitted, Abs format (unit mm)*
G04 Created by KiCad (PCBNEW 7.0.6) date 2024-05-15 12:06:38*
%MOMM*%
%LPD*%
G01*
G04 APERTURE LIST*
%ADD10C,0.100000*%
%ADD11C,0.200000*%
%ADD12C,0.020000*%
%ADD13C,0.040000*%
%ADD14C,0.060000*%
%ADD15C,0.111760*%
%ADD16C,0.130000*%
%ADD17C,0.220000*%
G04 APERTURE END LIST*
D10*
X13128841Y-5748905D02*
X16128839Y-10945057D01*
X13128840Y-16141209D01*
X7128839Y-16141209D01*
X4128839Y-10945056D01*
X7128838Y-5748904D01*
X13128841Y-5748905D01*
D11*
D12*
X8752291Y-6361867D02*
X8772291Y-6381867D01*
X8772291Y-6361867D02*
X8752291Y-6381867D01*
X8752291Y-6511867D02*
X8772291Y-6531867D01*
X8772291Y-6511867D02*
X8752291Y-6531867D01*
X8827291Y-6286867D02*
X8847291Y-6306867D01*
X8847291Y-6286867D02*
X8827291Y-6306867D01*
X8827291Y-6436867D02*
X8847291Y-6456867D01*
X8847291Y-6436867D02*
X8827291Y-6456867D01*
X8827291Y-6586867D02*
X8847291Y-6606867D01*
X8847291Y-6586867D02*
X8827291Y-6606867D01*
X8902291Y-6361867D02*
X8922291Y-6381867D01*
X8922291Y-6361867D02*
X8902291Y-6381867D01*
X8902291Y-6511867D02*
X8922291Y-6531867D01*
X8922291Y-6511867D02*
X8902291Y-6531867D01*
X8977291Y-6286867D02*
X8997291Y-6306867D01*
X8997291Y-6286867D02*
X8977291Y-6306867D01*
X8977291Y-6436867D02*
X8997291Y-6456867D01*
X8997291Y-6436867D02*
X8977291Y-6456867D01*
X8977291Y-6586867D02*
X8997291Y-6606867D01*
X8997291Y-6586867D02*
X8977291Y-6606867D01*
X9052291Y-6361867D02*
X9072291Y-6381867D01*
X9072291Y-6361867D02*
X9052291Y-6381867D01*
X9052291Y-6511867D02*
X9072291Y-6531867D01*
X9072291Y-6511867D02*
X9052291Y-6531867D01*
D13*
X5471988Y-10078513D02*
G75*
G03*
X5471988Y-10078513I-20000J0D01*
G01*
X5842446Y-8669659D02*
G75*
G03*
X5842446Y-8669659I-20000J0D01*
G01*
X5895293Y-12802125D02*
G75*
G03*
X5895293Y-12802125I-20000J0D01*
G01*
X5970122Y-10498517D02*
G75*
G03*
X5970122Y-10498517I-20000J0D01*
G01*
X5974417Y-10091078D02*
G75*
G03*
X5974417Y-10091078I-20000J0D01*
G01*
X6006635Y-12695506D02*
G75*
G03*
X6006635Y-12695506I-20000J0D01*
G01*
X6042423Y-12097493D02*
G75*
G03*
X6042423Y-12097493I-20000J0D01*
G01*
X6176856Y-10450444D02*
G75*
G03*
X6176856Y-10450444I-20000J0D01*
G01*
X6290683Y-10793291D02*
G75*
G03*
X6290683Y-10793291I-20000J0D01*
G01*
X6292423Y-12530506D02*
G75*
G03*
X6292423Y-12530506I-20000J0D01*
G01*
X6313927Y-12387221D02*
G75*
G03*
X6313927Y-12387221I-20000J0D01*
G01*
X6434091Y-10037367D02*
G75*
G03*
X6434091Y-10037367I-20000J0D01*
G01*
X6484891Y-9783368D02*
G75*
G03*
X6484891Y-9783368I-20000J0D01*
G01*
X6487487Y-11984436D02*
G75*
G03*
X6487487Y-11984436I-20000J0D01*
G01*
X6489869Y-10908290D02*
G75*
G03*
X6489869Y-10908290I-20000J0D01*
G01*
X6607237Y-10595002D02*
G75*
G03*
X6607237Y-10595002I-20000J0D01*
G01*
X6611890Y-9478567D02*
G75*
G03*
X6611890Y-9478567I-20000J0D01*
G01*
X6651432Y-11684145D02*
G75*
G03*
X6651432Y-11684145I-20000J0D01*
G01*
X6688091Y-9656368D02*
G75*
G03*
X6688091Y-9656368I-20000J0D01*
G01*
X6764291Y-10202468D02*
G75*
G03*
X6764291Y-10202468I-20000J0D01*
G01*
X6787948Y-12948782D02*
G75*
G03*
X6787948Y-12948782I-20000J0D01*
G01*
X6857487Y-11294436D02*
G75*
G03*
X6857487Y-11294436I-20000J0D01*
G01*
X6872949Y-13096005D02*
G75*
G03*
X6872949Y-13096005I-20000J0D01*
G01*
X6926453Y-12033578D02*
G75*
G03*
X6926453Y-12033578I-20000J0D01*
G01*
X6958633Y-13962859D02*
G75*
G03*
X6958633Y-13962859I-20000J0D01*
G01*
X6967491Y-10113568D02*
G75*
G03*
X6967491Y-10113568I-20000J0D01*
G01*
X6980191Y-9478568D02*
G75*
G03*
X6980191Y-9478568I-20000J0D01*
G01*
X7001478Y-13557071D02*
G75*
G03*
X7001478Y-13557071I-20000J0D01*
G01*
X7051940Y-11961129D02*
G75*
G03*
X7051940Y-11961129I-20000J0D01*
G01*
X7056390Y-9186468D02*
G75*
G03*
X7056390Y-9186468I-20000J0D01*
G01*
X7061779Y-7565327D02*
G75*
G03*
X7061779Y-7565327I-20000J0D01*
G01*
X7091250Y-13374114D02*
G75*
G03*
X7091250Y-13374114I-20000J0D01*
G01*
X7114517Y-13872859D02*
G75*
G03*
X7114517Y-13872859I-20000J0D01*
G01*
X7137035Y-7019879D02*
G75*
G03*
X7137035Y-7019879I-20000J0D01*
G01*
X7183390Y-8640368D02*
G75*
G03*
X7183390Y-8640368I-20000J0D01*
G01*
X7230302Y-7903436D02*
G75*
G03*
X7230302Y-7903436I-20000J0D01*
G01*
X7257487Y-11494436D02*
G75*
G03*
X7257487Y-11494436I-20000J0D01*
G01*
X7323091Y-9897668D02*
G75*
G03*
X7323091Y-9897668I-20000J0D01*
G01*
X7335791Y-8297467D02*
G75*
G03*
X7335791Y-8297467I-20000J0D01*
G01*
X7336382Y-13837142D02*
G75*
G03*
X7336382Y-13837142I-20000J0D01*
G01*
X7339839Y-11294057D02*
G75*
G03*
X7339839Y-11294057I-20000J0D01*
G01*
X7347487Y-10994436D02*
G75*
G03*
X7347487Y-10994436I-20000J0D01*
G01*
X7384003Y-7220201D02*
G75*
G03*
X7384003Y-7220201I-20000J0D01*
G01*
X7423511Y-13348052D02*
G75*
G03*
X7423511Y-13348052I-20000J0D01*
G01*
X7483117Y-7838530D02*
G75*
G03*
X7483117Y-7838530I-20000J0D01*
G01*
X7491061Y-6981789D02*
G75*
G03*
X7491061Y-6981789I-20000J0D01*
G01*
X7640302Y-7713436D02*
G75*
G03*
X7640302Y-7713436I-20000J0D01*
G01*
X7653290Y-9681768D02*
G75*
G03*
X7653290Y-9681768I-20000J0D01*
G01*
X7678690Y-9084868D02*
G75*
G03*
X7678690Y-9084868I-20000J0D01*
G01*
X7690302Y-7363436D02*
G75*
G03*
X7690302Y-7363436I-20000J0D01*
G01*
X7691391Y-8970568D02*
G75*
G03*
X7691391Y-8970568I-20000J0D01*
G01*
X7699839Y-9964057D02*
G75*
G03*
X7699839Y-9964057I-20000J0D01*
G01*
X7717651Y-9798542D02*
G75*
G03*
X7717651Y-9798542I-20000J0D01*
G01*
X7745926Y-11160459D02*
G75*
G03*
X7745926Y-11160459I-20000J0D01*
G01*
X7750158Y-11773821D02*
G75*
G03*
X7750158Y-11773821I-20000J0D01*
G01*
X7805691Y-8373668D02*
G75*
G03*
X7805691Y-8373668I-20000J0D01*
G01*
X7874141Y-9854057D02*
G75*
G03*
X7874141Y-9854057I-20000J0D01*
G01*
X7939839Y-10104057D02*
G75*
G03*
X7939839Y-10104057I-20000J0D01*
G01*
X7940302Y-8053436D02*
G75*
G03*
X7940302Y-8053436I-20000J0D01*
G01*
X7959557Y-10984245D02*
G75*
G03*
X7959557Y-10984245I-20000J0D01*
G01*
X8009839Y-9764057D02*
G75*
G03*
X8009839Y-9764057I-20000J0D01*
G01*
X8019839Y-9274057D02*
G75*
G03*
X8019839Y-9274057I-20000J0D01*
G01*
X8034291Y-8526068D02*
G75*
G03*
X8034291Y-8526068I-20000J0D01*
G01*
X8059690Y-9084868D02*
G75*
G03*
X8059690Y-9084868I-20000J0D01*
G01*
X8092289Y-10176507D02*
G75*
G03*
X8092289Y-10176507I-20000J0D01*
G01*
X8115926Y-9330459D02*
G75*
G03*
X8115926Y-9330459I-20000J0D01*
G01*
X8115926Y-9760459D02*
G75*
G03*
X8115926Y-9760459I-20000J0D01*
G01*
X8129839Y-6774057D02*
G75*
G03*
X8129839Y-6774057I-20000J0D01*
G01*
X8135891Y-7163436D02*
G75*
G03*
X8135891Y-7163436I-20000J0D01*
G01*
X8199839Y-9184057D02*
G75*
G03*
X8199839Y-9184057I-20000J0D01*
G01*
X8199839Y-9654057D02*
G75*
G03*
X8199839Y-9654057I-20000J0D01*
G01*
X8210302Y-7543436D02*
G75*
G03*
X8210302Y-7543436I-20000J0D01*
G01*
X8220303Y-7423436D02*
G75*
G03*
X8220303Y-7423436I-20000J0D01*
G01*
X8250191Y-9973868D02*
G75*
G03*
X8250191Y-9973868I-20000J0D01*
G01*
X8253868Y-9327298D02*
G75*
G03*
X8253868Y-9327298I-20000J0D01*
G01*
X8255926Y-8920459D02*
G75*
G03*
X8255926Y-8920459I-20000J0D01*
G01*
X8259839Y-10424057D02*
G75*
G03*
X8259839Y-10424057I-20000J0D01*
G01*
X8279839Y-7854057D02*
G75*
G03*
X8279839Y-7854057I-20000J0D01*
G01*
X8329839Y-9824057D02*
G75*
G03*
X8329839Y-9824057I-20000J0D01*
G01*
X8330303Y-6703436D02*
G75*
G03*
X8330303Y-6703436I-20000J0D01*
G01*
X8330303Y-6813436D02*
G75*
G03*
X8330303Y-6813436I-20000J0D01*
G01*
X8399839Y-10934057D02*
G75*
G03*
X8399839Y-10934057I-20000J0D01*
G01*
X8399839Y-10764057D02*
G75*
G03*
X8399839Y-10764057I-20000J0D01*
G01*
X8530997Y-9167299D02*
G75*
G03*
X8530997Y-9167299I-20000J0D01*
G01*
X8542291Y-10291368D02*
G75*
G03*
X8542291Y-10291368I-20000J0D01*
G01*
X8650302Y-6813436D02*
G75*
G03*
X8650302Y-6813436I-20000J0D01*
G01*
X8650303Y-6703436D02*
G75*
G03*
X8650303Y-6703436I-20000J0D01*
G01*
X8694691Y-9973868D02*
G75*
G03*
X8694691Y-9973868I-20000J0D01*
G01*
X8720303Y-7863436D02*
G75*
G03*
X8720303Y-7863436I-20000J0D01*
G01*
X8739839Y-10384057D02*
G75*
G03*
X8739839Y-10384057I-20000J0D01*
G01*
X8739839Y-11474057D02*
G75*
G03*
X8739839Y-11474057I-20000J0D01*
G01*
X8779839Y-12374057D02*
G75*
G03*
X8779839Y-12374057I-20000J0D01*
G01*
X8797389Y-10654057D02*
G75*
G03*
X8797389Y-10654057I-20000J0D01*
G01*
X8808991Y-8564168D02*
G75*
G03*
X8808991Y-8564168I-20000J0D01*
G01*
X8819839Y-13234057D02*
G75*
G03*
X8819839Y-13234057I-20000J0D01*
G01*
X8859790Y-9427768D02*
G75*
G03*
X8859790Y-9427768I-20000J0D01*
G01*
X8859791Y-9012418D02*
G75*
G03*
X8859791Y-9012418I-20000J0D01*
G01*
X8859791Y-9161067D02*
G75*
G03*
X8859791Y-9161067I-20000J0D01*
G01*
X8859791Y-9783368D02*
G75*
G03*
X8859791Y-9783368I-20000J0D01*
G01*
X8875926Y-8469018D02*
G75*
G03*
X8875926Y-8469018I-20000J0D01*
G01*
X8895926Y-7350459D02*
G75*
G03*
X8895926Y-7350459I-20000J0D01*
G01*
X8935991Y-6125768D02*
G75*
G03*
X8935991Y-6125768I-20000J0D01*
G01*
X8961390Y-9008668D02*
G75*
G03*
X8961390Y-9008668I-20000J0D01*
G01*
X8961391Y-9694468D02*
G75*
G03*
X8961391Y-9694468I-20000J0D01*
G01*
X9058559Y-10347263D02*
G75*
G03*
X9058559Y-10347263I-20000J0D01*
G01*
X9058559Y-10477263D02*
G75*
G03*
X9058559Y-10477263I-20000J0D01*
G01*
X9151891Y-8513368D02*
G75*
G03*
X9151891Y-8513368I-20000J0D01*
G01*
X9200302Y-7303436D02*
G75*
G03*
X9200302Y-7303436I-20000J0D01*
G01*
X9228091Y-8830868D02*
G75*
G03*
X9228091Y-8830868I-20000J0D01*
G01*
X9235054Y-8568810D02*
G75*
G03*
X9235054Y-8568810I-20000J0D01*
G01*
X9278559Y-11377263D02*
G75*
G03*
X9278559Y-11377263I-20000J0D01*
G01*
X9278559Y-11697263D02*
G75*
G03*
X9278559Y-11697263I-20000J0D01*
G01*
X9316991Y-9199167D02*
G75*
G03*
X9316991Y-9199167I-20000J0D01*
G01*
X9410303Y-11543436D02*
G75*
G03*
X9410303Y-11543436I-20000J0D01*
G01*
X9420303Y-6993436D02*
G75*
G03*
X9420303Y-6993436I-20000J0D01*
G01*
X9469391Y-9262668D02*
G75*
G03*
X9469391Y-9262668I-20000J0D01*
G01*
X9482091Y-8183168D02*
G75*
G03*
X9482091Y-8183168I-20000J0D01*
G01*
X9494791Y-6623436D02*
G75*
G03*
X9494791Y-6623436I-20000J0D01*
G01*
X9520191Y-9008667D02*
G75*
G03*
X9520191Y-9008667I-20000J0D01*
G01*
X9545591Y-8598168D02*
G75*
G03*
X9545591Y-8598168I-20000J0D01*
G01*
X9579839Y-11854057D02*
G75*
G03*
X9579839Y-11854057I-20000J0D01*
G01*
X9583691Y-8767368D02*
G75*
G03*
X9583691Y-8767368I-20000J0D01*
G01*
X9669839Y-10744057D02*
G75*
G03*
X9669839Y-10744057I-20000J0D01*
G01*
X9685291Y-9326168D02*
G75*
G03*
X9685291Y-9326168I-20000J0D01*
G01*
X9690303Y-11796507D02*
G75*
G03*
X9690303Y-11796507I-20000J0D01*
G01*
X9697487Y-12114436D02*
G75*
G03*
X9697487Y-12114436I-20000J0D01*
G01*
X9697991Y-8881668D02*
G75*
G03*
X9697991Y-8881668I-20000J0D01*
G01*
X9699839Y-11064057D02*
G75*
G03*
X9699839Y-11064057I-20000J0D01*
G01*
X9699839Y-11454057D02*
G75*
G03*
X9699839Y-11454057I-20000J0D01*
G01*
X9769839Y-13224057D02*
G75*
G03*
X9769839Y-13224057I-20000J0D01*
G01*
X9784933Y-7865720D02*
G75*
G03*
X9784933Y-7865720I-20000J0D01*
G01*
X9833941Y-6038868D02*
G75*
G03*
X9833941Y-6038868I-20000J0D01*
G01*
X9849839Y-11864057D02*
G75*
G03*
X9849839Y-11864057I-20000J0D01*
G01*
X9870303Y-7133436D02*
G75*
G03*
X9870303Y-7133436I-20000J0D01*
G01*
X9880303Y-11563436D02*
G75*
G03*
X9880303Y-11563436I-20000J0D01*
G01*
X9892241Y-6347418D02*
G75*
G03*
X9892241Y-6347418I-20000J0D01*
G01*
X9919698Y-6657454D02*
G75*
G03*
X9919698Y-6657454I-20000J0D01*
G01*
X10117091Y-11929667D02*
G75*
G03*
X10117091Y-11929667I-20000J0D01*
G01*
X10129791Y-6417868D02*
G75*
G03*
X10129791Y-6417868I-20000J0D01*
G01*
X10142490Y-8259367D02*
G75*
G03*
X10142490Y-8259367I-20000J0D01*
G01*
X10142490Y-13415567D02*
G75*
G03*
X10142490Y-13415567I-20000J0D01*
G01*
X10194933Y-7865720D02*
G75*
G03*
X10194933Y-7865720I-20000J0D01*
G01*
X10209839Y-11294057D02*
G75*
G03*
X10209839Y-11294057I-20000J0D01*
G01*
X10239839Y-11724057D02*
G75*
G03*
X10239839Y-11724057I-20000J0D01*
G01*
X10269839Y-11934057D02*
G75*
G03*
X10269839Y-11934057I-20000J0D01*
G01*
X10340302Y-6693436D02*
G75*
G03*
X10340302Y-6693436I-20000J0D01*
G01*
X10369839Y-11254057D02*
G75*
G03*
X10369839Y-11254057I-20000J0D01*
G01*
X10410303Y-6503436D02*
G75*
G03*
X10410303Y-6503436I-20000J0D01*
G01*
X10461502Y-11565514D02*
G75*
G03*
X10461502Y-11565514I-20000J0D01*
G01*
X10472690Y-9034068D02*
G75*
G03*
X10472690Y-9034068I-20000J0D01*
G01*
X10472691Y-11929668D02*
G75*
G03*
X10472691Y-11929668I-20000J0D01*
G01*
X10519839Y-10784057D02*
G75*
G03*
X10519839Y-10784057I-20000J0D01*
G01*
X10619839Y-11064057D02*
G75*
G03*
X10619839Y-11064057I-20000J0D01*
G01*
X10619839Y-9774057D02*
G75*
G03*
X10619839Y-9774057I-20000J0D01*
G01*
X10619839Y-10954057D02*
G75*
G03*
X10619839Y-10954057I-20000J0D01*
G01*
X10675891Y-8754668D02*
G75*
G03*
X10675891Y-8754668I-20000J0D01*
G01*
X10799839Y-10904057D02*
G75*
G03*
X10799839Y-10904057I-20000J0D01*
G01*
X10990303Y-6893436D02*
G75*
G03*
X10990303Y-6893436I-20000J0D01*
G01*
X11024933Y-8695720D02*
G75*
G03*
X11024933Y-8695720I-20000J0D01*
G01*
X11034933Y-9055720D02*
G75*
G03*
X11034933Y-9055720I-20000J0D01*
G01*
X11140303Y-6739118D02*
G75*
G03*
X11140303Y-6739118I-20000J0D01*
G01*
X11183891Y-8957868D02*
G75*
G03*
X11183891Y-8957868I-20000J0D01*
G01*
X11218906Y-10276798D02*
G75*
G03*
X11218906Y-10276798I-20000J0D01*
G01*
X11285491Y-8881668D02*
G75*
G03*
X11285491Y-8881668I-20000J0D01*
G01*
X11308839Y-10425057D02*
G75*
G03*
X11308839Y-10425057I-20000J0D01*
G01*
X11310891Y-6278168D02*
G75*
G03*
X11310891Y-6278168I-20000J0D01*
G01*
X11399790Y-9084868D02*
G75*
G03*
X11399790Y-9084868I-20000J0D01*
G01*
X11399791Y-8729268D02*
G75*
G03*
X11399791Y-8729268I-20000J0D01*
G01*
D14*
X6602635Y-7163929D02*
X6602635Y-7223929D01*
X6572635Y-7193929D02*
X6632635Y-7193929D01*
D11*
X6652276Y-7187948D02*
X6582994Y-7147948D01*
X6582994Y-7147948D02*
G75*
G03*
X6552994Y-7199910I-15000J-25981D01*
G01*
X6552994Y-7199910D02*
X6622276Y-7239910D01*
X6622276Y-7239910D02*
G75*
G03*
X6652276Y-7187948I15000J25981D01*
G01*
D14*
X6964633Y-7372929D02*
X6964633Y-7432929D01*
X6934633Y-7402929D02*
X6994633Y-7402929D01*
D11*
X7027265Y-7404448D02*
X6932002Y-7349448D01*
X6932002Y-7349448D02*
G75*
G03*
X6902002Y-7401410I-15000J-25981D01*
G01*
X6902002Y-7401410D02*
X6997265Y-7456410D01*
X6997265Y-7456410D02*
G75*
G03*
X7027265Y-7404448I15000J25981D01*
G01*
D14*
X7034635Y-6415683D02*
X7034635Y-6475683D01*
X7004635Y-6445683D02*
X7064635Y-6445683D01*
D11*
X7084276Y-6439702D02*
X7014994Y-6399702D01*
X7014994Y-6399702D02*
G75*
G03*
X6984994Y-6451664I-15000J-25981D01*
G01*
X6984994Y-6451664D02*
X7054276Y-6491664D01*
X7054276Y-6491664D02*
G75*
G03*
X7084276Y-6439702I15000J25981D01*
G01*
D14*
X7396633Y-6624683D02*
X7396633Y-6684683D01*
X7366633Y-6654683D02*
X7426633Y-6654683D01*
D11*
X7459265Y-6656202D02*
X7364002Y-6601202D01*
X7364002Y-6601202D02*
G75*
G03*
X7334002Y-6653164I-15000J-25981D01*
G01*
X7334002Y-6653164D02*
X7429265Y-6708164D01*
X7429265Y-6708164D02*
G75*
G03*
X7459265Y-6656202I15000J25981D01*
G01*
D10*
X7496712Y-10479552D02*
X7496712Y-10408841D01*
X7426001Y-10408841D01*
X7426001Y-10479552D01*
X7496712Y-10479552D01*
X7623712Y-10259582D02*
X7623712Y-10188870D01*
X7553001Y-10188870D01*
X7553001Y-10259582D01*
X7623712Y-10259582D01*
X10810178Y-13540778D02*
X10810178Y-13470066D01*
X10739467Y-13470066D01*
X10739467Y-13540778D01*
X10810178Y-13540778D01*
X11064178Y-13540778D02*
X11064178Y-13470066D01*
X10993467Y-13470066D01*
X10993467Y-13540778D01*
X11064178Y-13540778D01*
X11932226Y-8920428D02*
X11932226Y-8849717D01*
X11861514Y-8849717D01*
X11861514Y-8920428D01*
X11932226Y-8920428D01*
X12059226Y-9140399D02*
X12059226Y-9069687D01*
X11988514Y-9069687D01*
X11988514Y-9140399D01*
X12059226Y-9140399D01*
D15*
X4961937Y-11711599D02*
X5017817Y-11655719D01*
X4961937Y-11599839D01*
X4906057Y-11655719D01*
X4961937Y-11711599D01*
X5088937Y-11931569D02*
X5144817Y-11875689D01*
X5088937Y-11819809D01*
X5033057Y-11875689D01*
X5088937Y-11931569D01*
X5215937Y-12151540D02*
X5271817Y-12095660D01*
X5215937Y-12039780D01*
X5160057Y-12095660D01*
X5215937Y-12151540D01*
D16*
X6655863Y-14941696D02*
X6785863Y-15071696D01*
X6785863Y-14941696D02*
X6655863Y-15071696D01*
X6785863Y-15006696D02*
G75*
G03*
X6785863Y-15006696I-65000J0D01*
G01*
X6909863Y-15381637D02*
X7039863Y-15511637D01*
X7039863Y-15381637D02*
X6909863Y-15511637D01*
X7039863Y-15446637D02*
G75*
G03*
X7039863Y-15446637I-65000J0D01*
G01*
D17*
X4816089Y-10334228D02*
X5036089Y-10554228D01*
X5036089Y-10334228D02*
X4816089Y-10554228D01*
X4926089Y-10334228D02*
X4926089Y-10554228D01*
X4816089Y-10444228D02*
X5036089Y-10444228D01*
D11*
X4771496Y-10481991D02*
X4970682Y-10596991D01*
X4970682Y-10596991D02*
G75*
G03*
X5080682Y-10406465I55000J95263D01*
G01*
X5080682Y-10406465D02*
X4881496Y-10291465D01*
X4881496Y-10291465D02*
G75*
G03*
X4771496Y-10481991I-55000J-95263D01*
G01*
D17*
X5344185Y-10679539D02*
X5564185Y-10899539D01*
X5564185Y-10679539D02*
X5344185Y-10899539D01*
X5454185Y-10679539D02*
X5454185Y-10899539D01*
X5344185Y-10789539D02*
X5564185Y-10789539D01*
D11*
X5416423Y-10634946D02*
X5301423Y-10834132D01*
X5301423Y-10834132D02*
G75*
G03*
X5491948Y-10944132I95263J-55000D01*
G01*
X5491948Y-10944132D02*
X5606948Y-10744946D01*
X5606948Y-10744946D02*
G75*
G03*
X5416423Y-10634946I-95263J55000D01*
G01*
X4384616Y-16457693D02*
X4384616Y-16257693D01*
X4384616Y-16257693D02*
X4432235Y-16257693D01*
X4432235Y-16257693D02*
X4460806Y-16267217D01*
X4460806Y-16267217D02*
X4479854Y-16286265D01*
X4479854Y-16286265D02*
X4489378Y-16305312D01*
X4489378Y-16305312D02*
X4498902Y-16343407D01*
X4498902Y-16343407D02*
X4498902Y-16371979D01*
X4498902Y-16371979D02*
X4489378Y-16410074D01*
X4489378Y-16410074D02*
X4479854Y-16429122D01*
X4479854Y-16429122D02*
X4460806Y-16448169D01*
X4460806Y-16448169D02*
X4432235Y-16457693D01*
X4432235Y-16457693D02*
X4384616Y-16457693D01*
X4584616Y-16457693D02*
X4584616Y-16324360D01*
X4584616Y-16362455D02*
X4594140Y-16343407D01*
X4594140Y-16343407D02*
X4603664Y-16333884D01*
X4603664Y-16333884D02*
X4622711Y-16324360D01*
X4622711Y-16324360D02*
X4641759Y-16324360D01*
X4708425Y-16457693D02*
X4708425Y-16324360D01*
X4708425Y-16257693D02*
X4698902Y-16267217D01*
X4698902Y-16267217D02*
X4708425Y-16276741D01*
X4708425Y-16276741D02*
X4717949Y-16267217D01*
X4717949Y-16267217D02*
X4708425Y-16257693D01*
X4708425Y-16257693D02*
X4708425Y-16276741D01*
X4832235Y-16457693D02*
X4813187Y-16448169D01*
X4813187Y-16448169D02*
X4803664Y-16429122D01*
X4803664Y-16429122D02*
X4803664Y-16257693D01*
X4936997Y-16457693D02*
X4917949Y-16448169D01*
X4917949Y-16448169D02*
X4908425Y-16429122D01*
X4908425Y-16429122D02*
X4908425Y-16257693D01*
X5165568Y-16457693D02*
X5165568Y-16257693D01*
X5165568Y-16257693D02*
X5232235Y-16400550D01*
X5232235Y-16400550D02*
X5298902Y-16257693D01*
X5298902Y-16257693D02*
X5298902Y-16457693D01*
X5479854Y-16457693D02*
X5479854Y-16352931D01*
X5479854Y-16352931D02*
X5470330Y-16333884D01*
X5470330Y-16333884D02*
X5451283Y-16324360D01*
X5451283Y-16324360D02*
X5413187Y-16324360D01*
X5413187Y-16324360D02*
X5394140Y-16333884D01*
X5479854Y-16448169D02*
X5460806Y-16457693D01*
X5460806Y-16457693D02*
X5413187Y-16457693D01*
X5413187Y-16457693D02*
X5394140Y-16448169D01*
X5394140Y-16448169D02*
X5384616Y-16429122D01*
X5384616Y-16429122D02*
X5384616Y-16410074D01*
X5384616Y-16410074D02*
X5394140Y-16391027D01*
X5394140Y-16391027D02*
X5413187Y-16381503D01*
X5413187Y-16381503D02*
X5460806Y-16381503D01*
X5460806Y-16381503D02*
X5479854Y-16371979D01*
X5575092Y-16324360D02*
X5575092Y-16524360D01*
X5575092Y-16333884D02*
X5594140Y-16324360D01*
X5594140Y-16324360D02*
X5632235Y-16324360D01*
X5632235Y-16324360D02*
X5651283Y-16333884D01*
X5651283Y-16333884D02*
X5660806Y-16343407D01*
X5660806Y-16343407D02*
X5670330Y-16362455D01*
X5670330Y-16362455D02*
X5670330Y-16419598D01*
X5670330Y-16419598D02*
X5660806Y-16438646D01*
X5660806Y-16438646D02*
X5651283Y-16448169D01*
X5651283Y-16448169D02*
X5632235Y-16457693D01*
X5632235Y-16457693D02*
X5594140Y-16457693D01*
X5594140Y-16457693D02*
X5575092Y-16448169D01*
X5756044Y-16438646D02*
X5765568Y-16448169D01*
X5765568Y-16448169D02*
X5756044Y-16457693D01*
X5756044Y-16457693D02*
X5746521Y-16448169D01*
X5746521Y-16448169D02*
X5756044Y-16438646D01*
X5756044Y-16438646D02*
X5756044Y-16457693D01*
X5756044Y-16333884D02*
X5765568Y-16343407D01*
X5765568Y-16343407D02*
X5756044Y-16352931D01*
X5756044Y-16352931D02*
X5746521Y-16343407D01*
X5746521Y-16343407D02*
X5756044Y-16333884D01*
X5756044Y-16333884D02*
X5756044Y-16352931D01*
D12*
X4103839Y-16776209D02*
X4123839Y-16796210D01*
X4123839Y-16776209D02*
X4103839Y-16796210D01*
D11*
X4422711Y-16677693D02*
X4441759Y-16677693D01*
X4441759Y-16677693D02*
X4460806Y-16687217D01*
X4460806Y-16687217D02*
X4470330Y-16696741D01*
X4470330Y-16696741D02*
X4479854Y-16715788D01*
X4479854Y-16715788D02*
X4489378Y-16753884D01*
X4489378Y-16753884D02*
X4489378Y-16801503D01*
X4489378Y-16801503D02*
X4479854Y-16839598D01*
X4479854Y-16839598D02*
X4470330Y-16858646D01*
X4470330Y-16858646D02*
X4460806Y-16868170D01*
X4460806Y-16868170D02*
X4441759Y-16877693D01*
X4441759Y-16877693D02*
X4422711Y-16877693D01*
X4422711Y-16877693D02*
X4403664Y-16868170D01*
X4403664Y-16868170D02*
X4394140Y-16858646D01*
X4394140Y-16858646D02*
X4384616Y-16839598D01*
X4384616Y-16839598D02*
X4375092Y-16801503D01*
X4375092Y-16801503D02*
X4375092Y-16753884D01*
X4375092Y-16753884D02*
X4384616Y-16715788D01*
X4384616Y-16715788D02*
X4394140Y-16696741D01*
X4394140Y-16696741D02*
X4403664Y-16687217D01*
X4403664Y-16687217D02*
X4422711Y-16677693D01*
X4575092Y-16858646D02*
X4584616Y-16868170D01*
X4584616Y-16868170D02*
X4575092Y-16877693D01*
X4575092Y-16877693D02*
X4565568Y-16868170D01*
X4565568Y-16868170D02*
X4575092Y-16858646D01*
X4575092Y-16858646D02*
X4575092Y-16877693D01*
X4660806Y-16696741D02*
X4670330Y-16687217D01*
X4670330Y-16687217D02*
X4689378Y-16677693D01*
X4689378Y-16677693D02*
X4736997Y-16677693D01*
X4736997Y-16677693D02*
X4756045Y-16687217D01*
X4756045Y-16687217D02*
X4765568Y-16696741D01*
X4765568Y-16696741D02*
X4775092Y-16715788D01*
X4775092Y-16715788D02*
X4775092Y-16734836D01*
X4775092Y-16734836D02*
X4765568Y-16763407D01*
X4765568Y-16763407D02*
X4651283Y-16877693D01*
X4651283Y-16877693D02*
X4775092Y-16877693D01*
X4898902Y-16677693D02*
X4917949Y-16677693D01*
X4917949Y-16677693D02*
X4936997Y-16687217D01*
X4936997Y-16687217D02*
X4946521Y-16696741D01*
X4946521Y-16696741D02*
X4956045Y-16715788D01*
X4956045Y-16715788D02*
X4965568Y-16753884D01*
X4965568Y-16753884D02*
X4965568Y-16801503D01*
X4965568Y-16801503D02*
X4956045Y-16839598D01*
X4956045Y-16839598D02*
X4946521Y-16858646D01*
X4946521Y-16858646D02*
X4936997Y-16868170D01*
X4936997Y-16868170D02*
X4917949Y-16877693D01*
X4917949Y-16877693D02*
X4898902Y-16877693D01*
X4898902Y-16877693D02*
X4879854Y-16868170D01*
X4879854Y-16868170D02*
X4870330Y-16858646D01*
X4870330Y-16858646D02*
X4860806Y-16839598D01*
X4860806Y-16839598D02*
X4851283Y-16801503D01*
X4851283Y-16801503D02*
X4851283Y-16753884D01*
X4851283Y-16753884D02*
X4860806Y-16715788D01*
X4860806Y-16715788D02*
X4870330Y-16696741D01*
X4870330Y-16696741D02*
X4879854Y-16687217D01*
X4879854Y-16687217D02*
X4898902Y-16677693D01*
X5089378Y-16677693D02*
X5108426Y-16677693D01*
X5108426Y-16677693D02*
X5127473Y-16687217D01*
X5127473Y-16687217D02*
X5136997Y-16696741D01*
X5136997Y-16696741D02*
X5146521Y-16715788D01*
X5146521Y-16715788D02*
X5156045Y-16753884D01*
X5156045Y-16753884D02*
X5156045Y-16801503D01*
X5156045Y-16801503D02*
X5146521Y-16839598D01*
X5146521Y-16839598D02*
X5136997Y-16858646D01*
X5136997Y-16858646D02*
X5127473Y-16868170D01*
X5127473Y-16868170D02*
X5108426Y-16877693D01*
X5108426Y-16877693D02*
X5089378Y-16877693D01*
X5089378Y-16877693D02*
X5070330Y-16868170D01*
X5070330Y-16868170D02*
X5060806Y-16858646D01*
X5060806Y-16858646D02*
X5051283Y-16839598D01*
X5051283Y-16839598D02*
X5041759Y-16801503D01*
X5041759Y-16801503D02*
X5041759Y-16753884D01*
X5041759Y-16753884D02*
X5051283Y-16715788D01*
X5051283Y-16715788D02*
X5060806Y-16696741D01*
X5060806Y-16696741D02*
X5070330Y-16687217D01*
X5070330Y-16687217D02*
X5089378Y-16677693D01*
X5241759Y-16877693D02*
X5241759Y-16744360D01*
X5241759Y-16763407D02*
X5251283Y-16753884D01*
X5251283Y-16753884D02*
X5270330Y-16744360D01*
X5270330Y-16744360D02*
X5298902Y-16744360D01*
X5298902Y-16744360D02*
X5317949Y-16753884D01*
X5317949Y-16753884D02*
X5327473Y-16772931D01*
X5327473Y-16772931D02*
X5327473Y-16877693D01*
X5327473Y-16772931D02*
X5336997Y-16753884D01*
X5336997Y-16753884D02*
X5356045Y-16744360D01*
X5356045Y-16744360D02*
X5384616Y-16744360D01*
X5384616Y-16744360D02*
X5403664Y-16753884D01*
X5403664Y-16753884D02*
X5413187Y-16772931D01*
X5413187Y-16772931D02*
X5413187Y-16877693D01*
X5508426Y-16877693D02*
X5508426Y-16744360D01*
X5508426Y-16763407D02*
X5517949Y-16753884D01*
X5517949Y-16753884D02*
X5536997Y-16744360D01*
X5536997Y-16744360D02*
X5565568Y-16744360D01*
X5565568Y-16744360D02*
X5584616Y-16753884D01*
X5584616Y-16753884D02*
X5594140Y-16772931D01*
X5594140Y-16772931D02*
X5594140Y-16877693D01*
X5594140Y-16772931D02*
X5603664Y-16753884D01*
X5603664Y-16753884D02*
X5622711Y-16744360D01*
X5622711Y-16744360D02*
X5651283Y-16744360D01*
X5651283Y-16744360D02*
X5670330Y-16753884D01*
X5670330Y-16753884D02*
X5679854Y-16772931D01*
X5679854Y-16772931D02*
X5679854Y-16877693D01*
X6070330Y-16668169D02*
X5898902Y-16925312D01*
X6327473Y-16677693D02*
X6346521Y-16677693D01*
X6346521Y-16677693D02*
X6365568Y-16687217D01*
X6365568Y-16687217D02*
X6375092Y-16696741D01*
X6375092Y-16696741D02*
X6384616Y-16715788D01*
X6384616Y-16715788D02*
X6394140Y-16753884D01*
X6394140Y-16753884D02*
X6394140Y-16801503D01*
X6394140Y-16801503D02*
X6384616Y-16839598D01*
X6384616Y-16839598D02*
X6375092Y-16858646D01*
X6375092Y-16858646D02*
X6365568Y-16868170D01*
X6365568Y-16868170D02*
X6346521Y-16877693D01*
X6346521Y-16877693D02*
X6327473Y-16877693D01*
X6327473Y-16877693D02*
X6308426Y-16868170D01*
X6308426Y-16868170D02*
X6298902Y-16858646D01*
X6298902Y-16858646D02*
X6289378Y-16839598D01*
X6289378Y-16839598D02*
X6279854Y-16801503D01*
X6279854Y-16801503D02*
X6279854Y-16753884D01*
X6279854Y-16753884D02*
X6289378Y-16715788D01*
X6289378Y-16715788D02*
X6298902Y-16696741D01*
X6298902Y-16696741D02*
X6308426Y-16687217D01*
X6308426Y-16687217D02*
X6327473Y-16677693D01*
X6479854Y-16858646D02*
X6489378Y-16868170D01*
X6489378Y-16868170D02*
X6479854Y-16877693D01*
X6479854Y-16877693D02*
X6470330Y-16868170D01*
X6470330Y-16868170D02*
X6479854Y-16858646D01*
X6479854Y-16858646D02*
X6479854Y-16877693D01*
X6613187Y-16677693D02*
X6632235Y-16677693D01*
X6632235Y-16677693D02*
X6651283Y-16687217D01*
X6651283Y-16687217D02*
X6660807Y-16696741D01*
X6660807Y-16696741D02*
X6670330Y-16715788D01*
X6670330Y-16715788D02*
X6679854Y-16753884D01*
X6679854Y-16753884D02*
X6679854Y-16801503D01*
X6679854Y-16801503D02*
X6670330Y-16839598D01*
X6670330Y-16839598D02*
X6660807Y-16858646D01*
X6660807Y-16858646D02*
X6651283Y-16868170D01*
X6651283Y-16868170D02*
X6632235Y-16877693D01*
X6632235Y-16877693D02*
X6613187Y-16877693D01*
X6613187Y-16877693D02*
X6594140Y-16868170D01*
X6594140Y-16868170D02*
X6584616Y-16858646D01*
X6584616Y-16858646D02*
X6575092Y-16839598D01*
X6575092Y-16839598D02*
X6565568Y-16801503D01*
X6565568Y-16801503D02*
X6565568Y-16753884D01*
X6565568Y-16753884D02*
X6575092Y-16715788D01*
X6575092Y-16715788D02*
X6584616Y-16696741D01*
X6584616Y-16696741D02*
X6594140Y-16687217D01*
X6594140Y-16687217D02*
X6613187Y-16677693D01*
X6803664Y-16677693D02*
X6822711Y-16677693D01*
X6822711Y-16677693D02*
X6841759Y-16687217D01*
X6841759Y-16687217D02*
X6851283Y-16696741D01*
X6851283Y-16696741D02*
X6860807Y-16715788D01*
X6860807Y-16715788D02*
X6870330Y-16753884D01*
X6870330Y-16753884D02*
X6870330Y-16801503D01*
X6870330Y-16801503D02*
X6860807Y-16839598D01*
X6860807Y-16839598D02*
X6851283Y-16858646D01*
X6851283Y-16858646D02*
X6841759Y-16868170D01*
X6841759Y-16868170D02*
X6822711Y-16877693D01*
X6822711Y-16877693D02*
X6803664Y-16877693D01*
X6803664Y-16877693D02*
X6784616Y-16868170D01*
X6784616Y-16868170D02*
X6775092Y-16858646D01*
X6775092Y-16858646D02*
X6765568Y-16839598D01*
X6765568Y-16839598D02*
X6756045Y-16801503D01*
X6756045Y-16801503D02*
X6756045Y-16753884D01*
X6756045Y-16753884D02*
X6765568Y-16715788D01*
X6765568Y-16715788D02*
X6775092Y-16696741D01*
X6775092Y-16696741D02*
X6784616Y-16687217D01*
X6784616Y-16687217D02*
X6803664Y-16677693D01*
X6936997Y-16677693D02*
X7070330Y-16677693D01*
X7070330Y-16677693D02*
X6984616Y-16877693D01*
X7156045Y-16877693D02*
X7194140Y-16877693D01*
X7194140Y-16877693D02*
X7213188Y-16868170D01*
X7213188Y-16868170D02*
X7222711Y-16858646D01*
X7222711Y-16858646D02*
X7241759Y-16830074D01*
X7241759Y-16830074D02*
X7251283Y-16791979D01*
X7251283Y-16791979D02*
X7251283Y-16715788D01*
X7251283Y-16715788D02*
X7241759Y-16696741D01*
X7241759Y-16696741D02*
X7232235Y-16687217D01*
X7232235Y-16687217D02*
X7213188Y-16677693D01*
X7213188Y-16677693D02*
X7175092Y-16677693D01*
X7175092Y-16677693D02*
X7156045Y-16687217D01*
X7156045Y-16687217D02*
X7146521Y-16696741D01*
X7146521Y-16696741D02*
X7136997Y-16715788D01*
X7136997Y-16715788D02*
X7136997Y-16763407D01*
X7136997Y-16763407D02*
X7146521Y-16782455D01*
X7146521Y-16782455D02*
X7156045Y-16791979D01*
X7156045Y-16791979D02*
X7175092Y-16801503D01*
X7175092Y-16801503D02*
X7213188Y-16801503D01*
X7213188Y-16801503D02*
X7232235Y-16791979D01*
X7232235Y-16791979D02*
X7241759Y-16782455D01*
X7241759Y-16782455D02*
X7251283Y-16763407D01*
X7327473Y-16677693D02*
X7327473Y-16715788D01*
X7403664Y-16677693D02*
X7403664Y-16715788D01*
X7698902Y-16953884D02*
X7689378Y-16944360D01*
X7689378Y-16944360D02*
X7670330Y-16915789D01*
X7670330Y-16915789D02*
X7660807Y-16896741D01*
X7660807Y-16896741D02*
X7651283Y-16868170D01*
X7651283Y-16868170D02*
X7641759Y-16820550D01*
X7641759Y-16820550D02*
X7641759Y-16782455D01*
X7641759Y-16782455D02*
X7651283Y-16734836D01*
X7651283Y-16734836D02*
X7660807Y-16706265D01*
X7660807Y-16706265D02*
X7670330Y-16687217D01*
X7670330Y-16687217D02*
X7689378Y-16658646D01*
X7689378Y-16658646D02*
X7698902Y-16649122D01*
X7879854Y-16877693D02*
X7765569Y-16877693D01*
X7822711Y-16877693D02*
X7822711Y-16677693D01*
X7822711Y-16677693D02*
X7803664Y-16706265D01*
X7803664Y-16706265D02*
X7784616Y-16725312D01*
X7784616Y-16725312D02*
X7765569Y-16734836D01*
X7956045Y-16696741D02*
X7965569Y-16687217D01*
X7965569Y-16687217D02*
X7984616Y-16677693D01*
X7984616Y-16677693D02*
X8032235Y-16677693D01*
X8032235Y-16677693D02*
X8051283Y-16687217D01*
X8051283Y-16687217D02*
X8060807Y-16696741D01*
X8060807Y-16696741D02*
X8070330Y-16715788D01*
X8070330Y-16715788D02*
X8070330Y-16734836D01*
X8070330Y-16734836D02*
X8060807Y-16763407D01*
X8060807Y-16763407D02*
X7946521Y-16877693D01*
X7946521Y-16877693D02*
X8070330Y-16877693D01*
X8308426Y-16877693D02*
X8308426Y-16677693D01*
X8394140Y-16877693D02*
X8394140Y-16772931D01*
X8394140Y-16772931D02*
X8384616Y-16753884D01*
X8384616Y-16753884D02*
X8365569Y-16744360D01*
X8365569Y-16744360D02*
X8336997Y-16744360D01*
X8336997Y-16744360D02*
X8317950Y-16753884D01*
X8317950Y-16753884D02*
X8308426Y-16763407D01*
X8517950Y-16877693D02*
X8498902Y-16868170D01*
X8498902Y-16868170D02*
X8489378Y-16858646D01*
X8489378Y-16858646D02*
X8479854Y-16839598D01*
X8479854Y-16839598D02*
X8479854Y-16782455D01*
X8479854Y-16782455D02*
X8489378Y-16763407D01*
X8489378Y-16763407D02*
X8498902Y-16753884D01*
X8498902Y-16753884D02*
X8517950Y-16744360D01*
X8517950Y-16744360D02*
X8546521Y-16744360D01*
X8546521Y-16744360D02*
X8565569Y-16753884D01*
X8565569Y-16753884D02*
X8575093Y-16763407D01*
X8575093Y-16763407D02*
X8584616Y-16782455D01*
X8584616Y-16782455D02*
X8584616Y-16839598D01*
X8584616Y-16839598D02*
X8575093Y-16858646D01*
X8575093Y-16858646D02*
X8565569Y-16868170D01*
X8565569Y-16868170D02*
X8546521Y-16877693D01*
X8546521Y-16877693D02*
X8517950Y-16877693D01*
X8698902Y-16877693D02*
X8679854Y-16868170D01*
X8679854Y-16868170D02*
X8670331Y-16849122D01*
X8670331Y-16849122D02*
X8670331Y-16677693D01*
X8851283Y-16868170D02*
X8832235Y-16877693D01*
X8832235Y-16877693D02*
X8794140Y-16877693D01*
X8794140Y-16877693D02*
X8775093Y-16868170D01*
X8775093Y-16868170D02*
X8765569Y-16849122D01*
X8765569Y-16849122D02*
X8765569Y-16772931D01*
X8765569Y-16772931D02*
X8775093Y-16753884D01*
X8775093Y-16753884D02*
X8794140Y-16744360D01*
X8794140Y-16744360D02*
X8832235Y-16744360D01*
X8832235Y-16744360D02*
X8851283Y-16753884D01*
X8851283Y-16753884D02*
X8860807Y-16772931D01*
X8860807Y-16772931D02*
X8860807Y-16791979D01*
X8860807Y-16791979D02*
X8765569Y-16811027D01*
X8936997Y-16868170D02*
X8956045Y-16877693D01*
X8956045Y-16877693D02*
X8994140Y-16877693D01*
X8994140Y-16877693D02*
X9013188Y-16868170D01*
X9013188Y-16868170D02*
X9022712Y-16849122D01*
X9022712Y-16849122D02*
X9022712Y-16839598D01*
X9022712Y-16839598D02*
X9013188Y-16820550D01*
X9013188Y-16820550D02*
X8994140Y-16811027D01*
X8994140Y-16811027D02*
X8965569Y-16811027D01*
X8965569Y-16811027D02*
X8946521Y-16801503D01*
X8946521Y-16801503D02*
X8936997Y-16782455D01*
X8936997Y-16782455D02*
X8936997Y-16772931D01*
X8936997Y-16772931D02*
X8946521Y-16753884D01*
X8946521Y-16753884D02*
X8965569Y-16744360D01*
X8965569Y-16744360D02*
X8994140Y-16744360D01*
X8994140Y-16744360D02*
X9013188Y-16753884D01*
X9089378Y-16953884D02*
X9098902Y-16944360D01*
X9098902Y-16944360D02*
X9117950Y-16915789D01*
X9117950Y-16915789D02*
X9127474Y-16896741D01*
X9127474Y-16896741D02*
X9136997Y-16868170D01*
X9136997Y-16868170D02*
X9146521Y-16820550D01*
X9146521Y-16820550D02*
X9146521Y-16782455D01*
X9146521Y-16782455D02*
X9136997Y-16734836D01*
X9136997Y-16734836D02*
X9127474Y-16706265D01*
X9127474Y-16706265D02*
X9117950Y-16687217D01*
X9117950Y-16687217D02*
X9098902Y-16658646D01*
X9098902Y-16658646D02*
X9089378Y-16649122D01*
D13*
X4123839Y-17050210D02*
G75*
G03*
X4123839Y-17050210I-20000J0D01*
G01*
D11*
X4422711Y-16941693D02*
X4441759Y-16941693D01*
X4441759Y-16941693D02*
X4460806Y-16951217D01*
X4460806Y-16951217D02*
X4470330Y-16960741D01*
X4470330Y-16960741D02*
X4479854Y-16979789D01*
X4479854Y-16979789D02*
X4489378Y-17017884D01*
X4489378Y-17017884D02*
X4489378Y-17065503D01*
X4489378Y-17065503D02*
X4479854Y-17103598D01*
X4479854Y-17103598D02*
X4470330Y-17122646D01*
X4470330Y-17122646D02*
X4460806Y-17132170D01*
X4460806Y-17132170D02*
X4441759Y-17141693D01*
X4441759Y-17141693D02*
X4422711Y-17141693D01*
X4422711Y-17141693D02*
X4403664Y-17132170D01*
X4403664Y-17132170D02*
X4394140Y-17122646D01*
X4394140Y-17122646D02*
X4384616Y-17103598D01*
X4384616Y-17103598D02*
X4375092Y-17065503D01*
X4375092Y-17065503D02*
X4375092Y-17017884D01*
X4375092Y-17017884D02*
X4384616Y-16979789D01*
X4384616Y-16979789D02*
X4394140Y-16960741D01*
X4394140Y-16960741D02*
X4403664Y-16951217D01*
X4403664Y-16951217D02*
X4422711Y-16941693D01*
X4575092Y-17122646D02*
X4584616Y-17132170D01*
X4584616Y-17132170D02*
X4575092Y-17141693D01*
X4575092Y-17141693D02*
X4565568Y-17132170D01*
X4565568Y-17132170D02*
X4575092Y-17122646D01*
X4575092Y-17122646D02*
X4575092Y-17141693D01*
X4756045Y-17008360D02*
X4756045Y-17141693D01*
X4708425Y-16932170D02*
X4660806Y-17075027D01*
X4660806Y-17075027D02*
X4784616Y-17075027D01*
X4898902Y-16941693D02*
X4917949Y-16941693D01*
X4917949Y-16941693D02*
X4936997Y-16951217D01*
X4936997Y-16951217D02*
X4946521Y-16960741D01*
X4946521Y-16960741D02*
X4956045Y-16979789D01*
X4956045Y-16979789D02*
X4965568Y-17017884D01*
X4965568Y-17017884D02*
X4965568Y-17065503D01*
X4965568Y-17065503D02*
X4956045Y-17103598D01*
X4956045Y-17103598D02*
X4946521Y-17122646D01*
X4946521Y-17122646D02*
X4936997Y-17132170D01*
X4936997Y-17132170D02*
X4917949Y-17141693D01*
X4917949Y-17141693D02*
X4898902Y-17141693D01*
X4898902Y-17141693D02*
X4879854Y-17132170D01*
X4879854Y-17132170D02*
X4870330Y-17122646D01*
X4870330Y-17122646D02*
X4860806Y-17103598D01*
X4860806Y-17103598D02*
X4851283Y-17065503D01*
X4851283Y-17065503D02*
X4851283Y-17017884D01*
X4851283Y-17017884D02*
X4860806Y-16979789D01*
X4860806Y-16979789D02*
X4870330Y-16960741D01*
X4870330Y-16960741D02*
X4879854Y-16951217D01*
X4879854Y-16951217D02*
X4898902Y-16941693D01*
X5089378Y-16941693D02*
X5108426Y-16941693D01*
X5108426Y-16941693D02*
X5127473Y-16951217D01*
X5127473Y-16951217D02*
X5136997Y-16960741D01*
X5136997Y-16960741D02*
X5146521Y-16979789D01*
X5146521Y-16979789D02*
X5156045Y-17017884D01*
X5156045Y-17017884D02*
X5156045Y-17065503D01*
X5156045Y-17065503D02*
X5146521Y-17103598D01*
X5146521Y-17103598D02*
X5136997Y-17122646D01*
X5136997Y-17122646D02*
X5127473Y-17132170D01*
X5127473Y-17132170D02*
X5108426Y-17141693D01*
X5108426Y-17141693D02*
X5089378Y-17141693D01*
X5089378Y-17141693D02*
X5070330Y-17132170D01*
X5070330Y-17132170D02*
X5060806Y-17122646D01*
X5060806Y-17122646D02*
X5051283Y-17103598D01*
X5051283Y-17103598D02*
X5041759Y-17065503D01*
X5041759Y-17065503D02*
X5041759Y-17017884D01*
X5041759Y-17017884D02*
X5051283Y-16979789D01*
X5051283Y-16979789D02*
X5060806Y-16960741D01*
X5060806Y-16960741D02*
X5070330Y-16951217D01*
X5070330Y-16951217D02*
X5089378Y-16941693D01*
X5241759Y-17141693D02*
X5241759Y-17008360D01*
X5241759Y-17027408D02*
X5251283Y-17017884D01*
X5251283Y-17017884D02*
X5270330Y-17008360D01*
X5270330Y-17008360D02*
X5298902Y-17008360D01*
X5298902Y-17008360D02*
X5317949Y-17017884D01*
X5317949Y-17017884D02*
X5327473Y-17036931D01*
X5327473Y-17036931D02*
X5327473Y-17141693D01*
X5327473Y-17036931D02*
X5336997Y-17017884D01*
X5336997Y-17017884D02*
X5356045Y-17008360D01*
X5356045Y-17008360D02*
X5384616Y-17008360D01*
X5384616Y-17008360D02*
X5403664Y-17017884D01*
X5403664Y-17017884D02*
X5413187Y-17036931D01*
X5413187Y-17036931D02*
X5413187Y-17141693D01*
X5508426Y-17141693D02*
X5508426Y-17008360D01*
X5508426Y-17027408D02*
X5517949Y-17017884D01*
X5517949Y-17017884D02*
X5536997Y-17008360D01*
X5536997Y-17008360D02*
X5565568Y-17008360D01*
X5565568Y-17008360D02*
X5584616Y-17017884D01*
X5584616Y-17017884D02*
X5594140Y-17036931D01*
X5594140Y-17036931D02*
X5594140Y-17141693D01*
X5594140Y-17036931D02*
X5603664Y-17017884D01*
X5603664Y-17017884D02*
X5622711Y-17008360D01*
X5622711Y-17008360D02*
X5651283Y-17008360D01*
X5651283Y-17008360D02*
X5670330Y-17017884D01*
X5670330Y-17017884D02*
X5679854Y-17036931D01*
X5679854Y-17036931D02*
X5679854Y-17141693D01*
X6070330Y-16932170D02*
X5898902Y-17189312D01*
X6327473Y-16941693D02*
X6346521Y-16941693D01*
X6346521Y-16941693D02*
X6365568Y-16951217D01*
X6365568Y-16951217D02*
X6375092Y-16960741D01*
X6375092Y-16960741D02*
X6384616Y-16979789D01*
X6384616Y-16979789D02*
X6394140Y-17017884D01*
X6394140Y-17017884D02*
X6394140Y-17065503D01*
X6394140Y-17065503D02*
X6384616Y-17103598D01*
X6384616Y-17103598D02*
X6375092Y-17122646D01*
X6375092Y-17122646D02*
X6365568Y-17132170D01*
X6365568Y-17132170D02*
X6346521Y-17141693D01*
X6346521Y-17141693D02*
X6327473Y-17141693D01*
X6327473Y-17141693D02*
X6308426Y-17132170D01*
X6308426Y-17132170D02*
X6298902Y-17122646D01*
X6298902Y-17122646D02*
X6289378Y-17103598D01*
X6289378Y-17103598D02*
X6279854Y-17065503D01*
X6279854Y-17065503D02*
X6279854Y-17017884D01*
X6279854Y-17017884D02*
X6289378Y-16979789D01*
X6289378Y-16979789D02*
X6298902Y-16960741D01*
X6298902Y-16960741D02*
X6308426Y-16951217D01*
X6308426Y-16951217D02*
X6327473Y-16941693D01*
X6479854Y-17122646D02*
X6489378Y-17132170D01*
X6489378Y-17132170D02*
X6479854Y-17141693D01*
X6479854Y-17141693D02*
X6470330Y-17132170D01*
X6470330Y-17132170D02*
X6479854Y-17122646D01*
X6479854Y-17122646D02*
X6479854Y-17141693D01*
X6613187Y-16941693D02*
X6632235Y-16941693D01*
X6632235Y-16941693D02*
X6651283Y-16951217D01*
X6651283Y-16951217D02*
X6660807Y-16960741D01*
X6660807Y-16960741D02*
X6670330Y-16979789D01*
X6670330Y-16979789D02*
X6679854Y-17017884D01*
X6679854Y-17017884D02*
X6679854Y-17065503D01*
X6679854Y-17065503D02*
X6670330Y-17103598D01*
X6670330Y-17103598D02*
X6660807Y-17122646D01*
X6660807Y-17122646D02*
X6651283Y-17132170D01*
X6651283Y-17132170D02*
X6632235Y-17141693D01*
X6632235Y-17141693D02*
X6613187Y-17141693D01*
X6613187Y-17141693D02*
X6594140Y-17132170D01*
X6594140Y-17132170D02*
X6584616Y-17122646D01*
X6584616Y-17122646D02*
X6575092Y-17103598D01*
X6575092Y-17103598D02*
X6565568Y-17065503D01*
X6565568Y-17065503D02*
X6565568Y-17017884D01*
X6565568Y-17017884D02*
X6575092Y-16979789D01*
X6575092Y-16979789D02*
X6584616Y-16960741D01*
X6584616Y-16960741D02*
X6594140Y-16951217D01*
X6594140Y-16951217D02*
X6613187Y-16941693D01*
X6870330Y-17141693D02*
X6756045Y-17141693D01*
X6813187Y-17141693D02*
X6813187Y-16941693D01*
X6813187Y-16941693D02*
X6794140Y-16970265D01*
X6794140Y-16970265D02*
X6775092Y-16989312D01*
X6775092Y-16989312D02*
X6756045Y-16998836D01*
X7051283Y-16941693D02*
X6956045Y-16941693D01*
X6956045Y-16941693D02*
X6946521Y-17036931D01*
X6946521Y-17036931D02*
X6956045Y-17027408D01*
X6956045Y-17027408D02*
X6975092Y-17017884D01*
X6975092Y-17017884D02*
X7022711Y-17017884D01*
X7022711Y-17017884D02*
X7041759Y-17027408D01*
X7041759Y-17027408D02*
X7051283Y-17036931D01*
X7051283Y-17036931D02*
X7060807Y-17055979D01*
X7060807Y-17055979D02*
X7060807Y-17103598D01*
X7060807Y-17103598D02*
X7051283Y-17122646D01*
X7051283Y-17122646D02*
X7041759Y-17132170D01*
X7041759Y-17132170D02*
X7022711Y-17141693D01*
X7022711Y-17141693D02*
X6975092Y-17141693D01*
X6975092Y-17141693D02*
X6956045Y-17132170D01*
X6956045Y-17132170D02*
X6946521Y-17122646D01*
X7127473Y-16941693D02*
X7260807Y-16941693D01*
X7260807Y-16941693D02*
X7175092Y-17141693D01*
X7327473Y-16941693D02*
X7327473Y-16979789D01*
X7403664Y-16941693D02*
X7403664Y-16979789D01*
X7698902Y-17217884D02*
X7689378Y-17208360D01*
X7689378Y-17208360D02*
X7670330Y-17179789D01*
X7670330Y-17179789D02*
X7660807Y-17160741D01*
X7660807Y-17160741D02*
X7651283Y-17132170D01*
X7651283Y-17132170D02*
X7641759Y-17084550D01*
X7641759Y-17084550D02*
X7641759Y-17046455D01*
X7641759Y-17046455D02*
X7651283Y-16998836D01*
X7651283Y-16998836D02*
X7660807Y-16970265D01*
X7660807Y-16970265D02*
X7670330Y-16951217D01*
X7670330Y-16951217D02*
X7689378Y-16922646D01*
X7689378Y-16922646D02*
X7698902Y-16913122D01*
X7879854Y-17141693D02*
X7765569Y-17141693D01*
X7822711Y-17141693D02*
X7822711Y-16941693D01*
X7822711Y-16941693D02*
X7803664Y-16970265D01*
X7803664Y-16970265D02*
X7784616Y-16989312D01*
X7784616Y-16989312D02*
X7765569Y-16998836D01*
X8051283Y-16941693D02*
X8013188Y-16941693D01*
X8013188Y-16941693D02*
X7994140Y-16951217D01*
X7994140Y-16951217D02*
X7984616Y-16960741D01*
X7984616Y-16960741D02*
X7965569Y-16989312D01*
X7965569Y-16989312D02*
X7956045Y-17027408D01*
X7956045Y-17027408D02*
X7956045Y-17103598D01*
X7956045Y-17103598D02*
X7965569Y-17122646D01*
X7965569Y-17122646D02*
X7975092Y-17132170D01*
X7975092Y-17132170D02*
X7994140Y-17141693D01*
X7994140Y-17141693D02*
X8032235Y-17141693D01*
X8032235Y-17141693D02*
X8051283Y-17132170D01*
X8051283Y-17132170D02*
X8060807Y-17122646D01*
X8060807Y-17122646D02*
X8070330Y-17103598D01*
X8070330Y-17103598D02*
X8070330Y-17055979D01*
X8070330Y-17055979D02*
X8060807Y-17036931D01*
X8060807Y-17036931D02*
X8051283Y-17027408D01*
X8051283Y-17027408D02*
X8032235Y-17017884D01*
X8032235Y-17017884D02*
X7994140Y-17017884D01*
X7994140Y-17017884D02*
X7975092Y-17027408D01*
X7975092Y-17027408D02*
X7965569Y-17036931D01*
X7965569Y-17036931D02*
X7956045Y-17055979D01*
X8184616Y-17027408D02*
X8165569Y-17017884D01*
X8165569Y-17017884D02*
X8156045Y-17008360D01*
X8156045Y-17008360D02*
X8146521Y-16989312D01*
X8146521Y-16989312D02*
X8146521Y-16979789D01*
X8146521Y-16979789D02*
X8156045Y-16960741D01*
X8156045Y-16960741D02*
X8165569Y-16951217D01*
X8165569Y-16951217D02*
X8184616Y-16941693D01*
X8184616Y-16941693D02*
X8222711Y-16941693D01*
X8222711Y-16941693D02*
X8241759Y-16951217D01*
X8241759Y-16951217D02*
X8251283Y-16960741D01*
X8251283Y-16960741D02*
X8260807Y-16979789D01*
X8260807Y-16979789D02*
X8260807Y-16989312D01*
X8260807Y-16989312D02*
X8251283Y-17008360D01*
X8251283Y-17008360D02*
X8241759Y-17017884D01*
X8241759Y-17017884D02*
X8222711Y-17027408D01*
X8222711Y-17027408D02*
X8184616Y-17027408D01*
X8184616Y-17027408D02*
X8165569Y-17036931D01*
X8165569Y-17036931D02*
X8156045Y-17046455D01*
X8156045Y-17046455D02*
X8146521Y-17065503D01*
X8146521Y-17065503D02*
X8146521Y-17103598D01*
X8146521Y-17103598D02*
X8156045Y-17122646D01*
X8156045Y-17122646D02*
X8165569Y-17132170D01*
X8165569Y-17132170D02*
X8184616Y-17141693D01*
X8184616Y-17141693D02*
X8222711Y-17141693D01*
X8222711Y-17141693D02*
X8241759Y-17132170D01*
X8241759Y-17132170D02*
X8251283Y-17122646D01*
X8251283Y-17122646D02*
X8260807Y-17103598D01*
X8260807Y-17103598D02*
X8260807Y-17065503D01*
X8260807Y-17065503D02*
X8251283Y-17046455D01*
X8251283Y-17046455D02*
X8241759Y-17036931D01*
X8241759Y-17036931D02*
X8222711Y-17027408D01*
X8498902Y-17141693D02*
X8498902Y-16941693D01*
X8584616Y-17141693D02*
X8584616Y-17036931D01*
X8584616Y-17036931D02*
X8575093Y-17017884D01*
X8575093Y-17017884D02*
X8556045Y-17008360D01*
X8556045Y-17008360D02*
X8527473Y-17008360D01*
X8527473Y-17008360D02*
X8508426Y-17017884D01*
X8508426Y-17017884D02*
X8498902Y-17027408D01*
X8708426Y-17141693D02*
X8689378Y-17132170D01*
X8689378Y-17132170D02*
X8679854Y-17122646D01*
X8679854Y-17122646D02*
X8670331Y-17103598D01*
X8670331Y-17103598D02*
X8670331Y-17046455D01*
X8670331Y-17046455D02*
X8679854Y-17027408D01*
X8679854Y-17027408D02*
X8689378Y-17017884D01*
X8689378Y-17017884D02*
X8708426Y-17008360D01*
X8708426Y-17008360D02*
X8736997Y-17008360D01*
X8736997Y-17008360D02*
X8756045Y-17017884D01*
X8756045Y-17017884D02*
X8765569Y-17027408D01*
X8765569Y-17027408D02*
X8775093Y-17046455D01*
X8775093Y-17046455D02*
X8775093Y-17103598D01*
X8775093Y-17103598D02*
X8765569Y-17122646D01*
X8765569Y-17122646D02*
X8756045Y-17132170D01*
X8756045Y-17132170D02*
X8736997Y-17141693D01*
X8736997Y-17141693D02*
X8708426Y-17141693D01*
X8889378Y-17141693D02*
X8870331Y-17132170D01*
X8870331Y-17132170D02*
X8860807Y-17113122D01*
X8860807Y-17113122D02*
X8860807Y-16941693D01*
X9041759Y-17132170D02*
X9022712Y-17141693D01*
X9022712Y-17141693D02*
X8984616Y-17141693D01*
X8984616Y-17141693D02*
X8965569Y-17132170D01*
X8965569Y-17132170D02*
X8956045Y-17113122D01*
X8956045Y-17113122D02*
X8956045Y-17036931D01*
X8956045Y-17036931D02*
X8965569Y-17017884D01*
X8965569Y-17017884D02*
X8984616Y-17008360D01*
X8984616Y-17008360D02*
X9022712Y-17008360D01*
X9022712Y-17008360D02*
X9041759Y-17017884D01*
X9041759Y-17017884D02*
X9051283Y-17036931D01*
X9051283Y-17036931D02*
X9051283Y-17055979D01*
X9051283Y-17055979D02*
X8956045Y-17075027D01*
X9127474Y-17132170D02*
X9146521Y-17141693D01*
X9146521Y-17141693D02*
X9184616Y-17141693D01*
X9184616Y-17141693D02*
X9203664Y-17132170D01*
X9203664Y-17132170D02*
X9213188Y-17113122D01*
X9213188Y-17113122D02*
X9213188Y-17103598D01*
X9213188Y-17103598D02*
X9203664Y-17084550D01*
X9203664Y-17084550D02*
X9184616Y-17075027D01*
X9184616Y-17075027D02*
X9156045Y-17075027D01*
X9156045Y-17075027D02*
X9136997Y-17065503D01*
X9136997Y-17065503D02*
X9127474Y-17046455D01*
X9127474Y-17046455D02*
X9127474Y-17036931D01*
X9127474Y-17036931D02*
X9136997Y-17017884D01*
X9136997Y-17017884D02*
X9156045Y-17008360D01*
X9156045Y-17008360D02*
X9184616Y-17008360D01*
X9184616Y-17008360D02*
X9203664Y-17017884D01*
X9279855Y-17217884D02*
X9289378Y-17208360D01*
X9289378Y-17208360D02*
X9308426Y-17179789D01*
X9308426Y-17179789D02*
X9317950Y-17160741D01*
X9317950Y-17160741D02*
X9327474Y-17132170D01*
X9327474Y-17132170D02*
X9336997Y-17084550D01*
X9336997Y-17084550D02*
X9336997Y-17046455D01*
X9336997Y-17046455D02*
X9327474Y-16998836D01*
X9327474Y-16998836D02*
X9317950Y-16970265D01*
X9317950Y-16970265D02*
X9308426Y-16951217D01*
X9308426Y-16951217D02*
X9289378Y-16922646D01*
X9289378Y-16922646D02*
X9279855Y-16913122D01*
D14*
X4093839Y-17284210D02*
X4093839Y-17344210D01*
X4063839Y-17314210D02*
X4123839Y-17314210D01*
D11*
X4422711Y-17205693D02*
X4441759Y-17205693D01*
X4441759Y-17205693D02*
X4460806Y-17215217D01*
X4460806Y-17215217D02*
X4470330Y-17224741D01*
X4470330Y-17224741D02*
X4479854Y-17243789D01*
X4479854Y-17243789D02*
X4489378Y-17281884D01*
X4489378Y-17281884D02*
X4489378Y-17329503D01*
X4489378Y-17329503D02*
X4479854Y-17367598D01*
X4479854Y-17367598D02*
X4470330Y-17386646D01*
X4470330Y-17386646D02*
X4460806Y-17396170D01*
X4460806Y-17396170D02*
X4441759Y-17405693D01*
X4441759Y-17405693D02*
X4422711Y-17405693D01*
X4422711Y-17405693D02*
X4403664Y-17396170D01*
X4403664Y-17396170D02*
X4394140Y-17386646D01*
X4394140Y-17386646D02*
X4384616Y-17367598D01*
X4384616Y-17367598D02*
X4375092Y-17329503D01*
X4375092Y-17329503D02*
X4375092Y-17281884D01*
X4375092Y-17281884D02*
X4384616Y-17243789D01*
X4384616Y-17243789D02*
X4394140Y-17224741D01*
X4394140Y-17224741D02*
X4403664Y-17215217D01*
X4403664Y-17215217D02*
X4422711Y-17205693D01*
X4575092Y-17386646D02*
X4584616Y-17396170D01*
X4584616Y-17396170D02*
X4575092Y-17405693D01*
X4575092Y-17405693D02*
X4565568Y-17396170D01*
X4565568Y-17396170D02*
X4575092Y-17386646D01*
X4575092Y-17386646D02*
X4575092Y-17405693D01*
X4756045Y-17205693D02*
X4717949Y-17205693D01*
X4717949Y-17205693D02*
X4698902Y-17215217D01*
X4698902Y-17215217D02*
X4689378Y-17224741D01*
X4689378Y-17224741D02*
X4670330Y-17253312D01*
X4670330Y-17253312D02*
X4660806Y-17291408D01*
X4660806Y-17291408D02*
X4660806Y-17367598D01*
X4660806Y-17367598D02*
X4670330Y-17386646D01*
X4670330Y-17386646D02*
X4679854Y-17396170D01*
X4679854Y-17396170D02*
X4698902Y-17405693D01*
X4698902Y-17405693D02*
X4736997Y-17405693D01*
X4736997Y-17405693D02*
X4756045Y-17396170D01*
X4756045Y-17396170D02*
X4765568Y-17386646D01*
X4765568Y-17386646D02*
X4775092Y-17367598D01*
X4775092Y-17367598D02*
X4775092Y-17319979D01*
X4775092Y-17319979D02*
X4765568Y-17300931D01*
X4765568Y-17300931D02*
X4756045Y-17291408D01*
X4756045Y-17291408D02*
X4736997Y-17281884D01*
X4736997Y-17281884D02*
X4698902Y-17281884D01*
X4698902Y-17281884D02*
X4679854Y-17291408D01*
X4679854Y-17291408D02*
X4670330Y-17300931D01*
X4670330Y-17300931D02*
X4660806Y-17319979D01*
X4898902Y-17205693D02*
X4917949Y-17205693D01*
X4917949Y-17205693D02*
X4936997Y-17215217D01*
X4936997Y-17215217D02*
X4946521Y-17224741D01*
X4946521Y-17224741D02*
X4956045Y-17243789D01*
X4956045Y-17243789D02*
X4965568Y-17281884D01*
X4965568Y-17281884D02*
X4965568Y-17329503D01*
X4965568Y-17329503D02*
X4956045Y-17367598D01*
X4956045Y-17367598D02*
X4946521Y-17386646D01*
X4946521Y-17386646D02*
X4936997Y-17396170D01*
X4936997Y-17396170D02*
X4917949Y-17405693D01*
X4917949Y-17405693D02*
X4898902Y-17405693D01*
X4898902Y-17405693D02*
X4879854Y-17396170D01*
X4879854Y-17396170D02*
X4870330Y-17386646D01*
X4870330Y-17386646D02*
X4860806Y-17367598D01*
X4860806Y-17367598D02*
X4851283Y-17329503D01*
X4851283Y-17329503D02*
X4851283Y-17281884D01*
X4851283Y-17281884D02*
X4860806Y-17243789D01*
X4860806Y-17243789D02*
X4870330Y-17224741D01*
X4870330Y-17224741D02*
X4879854Y-17215217D01*
X4879854Y-17215217D02*
X4898902Y-17205693D01*
X5089378Y-17205693D02*
X5108426Y-17205693D01*
X5108426Y-17205693D02*
X5127473Y-17215217D01*
X5127473Y-17215217D02*
X5136997Y-17224741D01*
X5136997Y-17224741D02*
X5146521Y-17243789D01*
X5146521Y-17243789D02*
X5156045Y-17281884D01*
X5156045Y-17281884D02*
X5156045Y-17329503D01*
X5156045Y-17329503D02*
X5146521Y-17367598D01*
X5146521Y-17367598D02*
X5136997Y-17386646D01*
X5136997Y-17386646D02*
X5127473Y-17396170D01*
X5127473Y-17396170D02*
X5108426Y-17405693D01*
X5108426Y-17405693D02*
X5089378Y-17405693D01*
X5089378Y-17405693D02*
X5070330Y-17396170D01*
X5070330Y-17396170D02*
X5060806Y-17386646D01*
X5060806Y-17386646D02*
X5051283Y-17367598D01*
X5051283Y-17367598D02*
X5041759Y-17329503D01*
X5041759Y-17329503D02*
X5041759Y-17281884D01*
X5041759Y-17281884D02*
X5051283Y-17243789D01*
X5051283Y-17243789D02*
X5060806Y-17224741D01*
X5060806Y-17224741D02*
X5070330Y-17215217D01*
X5070330Y-17215217D02*
X5089378Y-17205693D01*
X5241759Y-17405693D02*
X5241759Y-17272360D01*
X5241759Y-17291408D02*
X5251283Y-17281884D01*
X5251283Y-17281884D02*
X5270330Y-17272360D01*
X5270330Y-17272360D02*
X5298902Y-17272360D01*
X5298902Y-17272360D02*
X5317949Y-17281884D01*
X5317949Y-17281884D02*
X5327473Y-17300931D01*
X5327473Y-17300931D02*
X5327473Y-17405693D01*
X5327473Y-17300931D02*
X5336997Y-17281884D01*
X5336997Y-17281884D02*
X5356045Y-17272360D01*
X5356045Y-17272360D02*
X5384616Y-17272360D01*
X5384616Y-17272360D02*
X5403664Y-17281884D01*
X5403664Y-17281884D02*
X5413187Y-17300931D01*
X5413187Y-17300931D02*
X5413187Y-17405693D01*
X5508426Y-17405693D02*
X5508426Y-17272360D01*
X5508426Y-17291408D02*
X5517949Y-17281884D01*
X5517949Y-17281884D02*
X5536997Y-17272360D01*
X5536997Y-17272360D02*
X5565568Y-17272360D01*
X5565568Y-17272360D02*
X5584616Y-17281884D01*
X5584616Y-17281884D02*
X5594140Y-17300931D01*
X5594140Y-17300931D02*
X5594140Y-17405693D01*
X5594140Y-17300931D02*
X5603664Y-17281884D01*
X5603664Y-17281884D02*
X5622711Y-17272360D01*
X5622711Y-17272360D02*
X5651283Y-17272360D01*
X5651283Y-17272360D02*
X5670330Y-17281884D01*
X5670330Y-17281884D02*
X5679854Y-17300931D01*
X5679854Y-17300931D02*
X5679854Y-17405693D01*
X6070330Y-17196170D02*
X5898902Y-17453312D01*
X6327473Y-17205693D02*
X6346521Y-17205693D01*
X6346521Y-17205693D02*
X6365568Y-17215217D01*
X6365568Y-17215217D02*
X6375092Y-17224741D01*
X6375092Y-17224741D02*
X6384616Y-17243789D01*
X6384616Y-17243789D02*
X6394140Y-17281884D01*
X6394140Y-17281884D02*
X6394140Y-17329503D01*
X6394140Y-17329503D02*
X6384616Y-17367598D01*
X6384616Y-17367598D02*
X6375092Y-17386646D01*
X6375092Y-17386646D02*
X6365568Y-17396170D01*
X6365568Y-17396170D02*
X6346521Y-17405693D01*
X6346521Y-17405693D02*
X6327473Y-17405693D01*
X6327473Y-17405693D02*
X6308426Y-17396170D01*
X6308426Y-17396170D02*
X6298902Y-17386646D01*
X6298902Y-17386646D02*
X6289378Y-17367598D01*
X6289378Y-17367598D02*
X6279854Y-17329503D01*
X6279854Y-17329503D02*
X6279854Y-17281884D01*
X6279854Y-17281884D02*
X6289378Y-17243789D01*
X6289378Y-17243789D02*
X6298902Y-17224741D01*
X6298902Y-17224741D02*
X6308426Y-17215217D01*
X6308426Y-17215217D02*
X6327473Y-17205693D01*
X6479854Y-17386646D02*
X6489378Y-17396170D01*
X6489378Y-17396170D02*
X6479854Y-17405693D01*
X6479854Y-17405693D02*
X6470330Y-17396170D01*
X6470330Y-17396170D02*
X6479854Y-17386646D01*
X6479854Y-17386646D02*
X6479854Y-17405693D01*
X6613187Y-17205693D02*
X6632235Y-17205693D01*
X6632235Y-17205693D02*
X6651283Y-17215217D01*
X6651283Y-17215217D02*
X6660807Y-17224741D01*
X6660807Y-17224741D02*
X6670330Y-17243789D01*
X6670330Y-17243789D02*
X6679854Y-17281884D01*
X6679854Y-17281884D02*
X6679854Y-17329503D01*
X6679854Y-17329503D02*
X6670330Y-17367598D01*
X6670330Y-17367598D02*
X6660807Y-17386646D01*
X6660807Y-17386646D02*
X6651283Y-17396170D01*
X6651283Y-17396170D02*
X6632235Y-17405693D01*
X6632235Y-17405693D02*
X6613187Y-17405693D01*
X6613187Y-17405693D02*
X6594140Y-17396170D01*
X6594140Y-17396170D02*
X6584616Y-17386646D01*
X6584616Y-17386646D02*
X6575092Y-17367598D01*
X6575092Y-17367598D02*
X6565568Y-17329503D01*
X6565568Y-17329503D02*
X6565568Y-17281884D01*
X6565568Y-17281884D02*
X6575092Y-17243789D01*
X6575092Y-17243789D02*
X6584616Y-17224741D01*
X6584616Y-17224741D02*
X6594140Y-17215217D01*
X6594140Y-17215217D02*
X6613187Y-17205693D01*
X6756045Y-17224741D02*
X6765568Y-17215217D01*
X6765568Y-17215217D02*
X6784616Y-17205693D01*
X6784616Y-17205693D02*
X6832235Y-17205693D01*
X6832235Y-17205693D02*
X6851283Y-17215217D01*
X6851283Y-17215217D02*
X6860807Y-17224741D01*
X6860807Y-17224741D02*
X6870330Y-17243789D01*
X6870330Y-17243789D02*
X6870330Y-17262836D01*
X6870330Y-17262836D02*
X6860807Y-17291408D01*
X6860807Y-17291408D02*
X6746521Y-17405693D01*
X6746521Y-17405693D02*
X6870330Y-17405693D01*
X6936997Y-17205693D02*
X7060807Y-17205693D01*
X7060807Y-17205693D02*
X6994140Y-17281884D01*
X6994140Y-17281884D02*
X7022711Y-17281884D01*
X7022711Y-17281884D02*
X7041759Y-17291408D01*
X7041759Y-17291408D02*
X7051283Y-17300931D01*
X7051283Y-17300931D02*
X7060807Y-17319979D01*
X7060807Y-17319979D02*
X7060807Y-17367598D01*
X7060807Y-17367598D02*
X7051283Y-17386646D01*
X7051283Y-17386646D02*
X7041759Y-17396170D01*
X7041759Y-17396170D02*
X7022711Y-17405693D01*
X7022711Y-17405693D02*
X6965568Y-17405693D01*
X6965568Y-17405693D02*
X6946521Y-17396170D01*
X6946521Y-17396170D02*
X6936997Y-17386646D01*
X7232235Y-17205693D02*
X7194140Y-17205693D01*
X7194140Y-17205693D02*
X7175092Y-17215217D01*
X7175092Y-17215217D02*
X7165568Y-17224741D01*
X7165568Y-17224741D02*
X7146521Y-17253312D01*
X7146521Y-17253312D02*
X7136997Y-17291408D01*
X7136997Y-17291408D02*
X7136997Y-17367598D01*
X7136997Y-17367598D02*
X7146521Y-17386646D01*
X7146521Y-17386646D02*
X7156045Y-17396170D01*
X7156045Y-17396170D02*
X7175092Y-17405693D01*
X7175092Y-17405693D02*
X7213188Y-17405693D01*
X7213188Y-17405693D02*
X7232235Y-17396170D01*
X7232235Y-17396170D02*
X7241759Y-17386646D01*
X7241759Y-17386646D02*
X7251283Y-17367598D01*
X7251283Y-17367598D02*
X7251283Y-17319979D01*
X7251283Y-17319979D02*
X7241759Y-17300931D01*
X7241759Y-17300931D02*
X7232235Y-17291408D01*
X7232235Y-17291408D02*
X7213188Y-17281884D01*
X7213188Y-17281884D02*
X7175092Y-17281884D01*
X7175092Y-17281884D02*
X7156045Y-17291408D01*
X7156045Y-17291408D02*
X7146521Y-17300931D01*
X7146521Y-17300931D02*
X7136997Y-17319979D01*
X7327473Y-17205693D02*
X7327473Y-17243789D01*
X7403664Y-17205693D02*
X7403664Y-17243789D01*
X7698902Y-17481884D02*
X7689378Y-17472360D01*
X7689378Y-17472360D02*
X7670330Y-17443789D01*
X7670330Y-17443789D02*
X7660807Y-17424741D01*
X7660807Y-17424741D02*
X7651283Y-17396170D01*
X7651283Y-17396170D02*
X7641759Y-17348550D01*
X7641759Y-17348550D02*
X7641759Y-17310455D01*
X7641759Y-17310455D02*
X7651283Y-17262836D01*
X7651283Y-17262836D02*
X7660807Y-17234265D01*
X7660807Y-17234265D02*
X7670330Y-17215217D01*
X7670330Y-17215217D02*
X7689378Y-17186646D01*
X7689378Y-17186646D02*
X7698902Y-17177122D01*
X7813188Y-17205693D02*
X7832235Y-17205693D01*
X7832235Y-17205693D02*
X7851283Y-17215217D01*
X7851283Y-17215217D02*
X7860807Y-17224741D01*
X7860807Y-17224741D02*
X7870330Y-17243789D01*
X7870330Y-17243789D02*
X7879854Y-17281884D01*
X7879854Y-17281884D02*
X7879854Y-17329503D01*
X7879854Y-17329503D02*
X7870330Y-17367598D01*
X7870330Y-17367598D02*
X7860807Y-17386646D01*
X7860807Y-17386646D02*
X7851283Y-17396170D01*
X7851283Y-17396170D02*
X7832235Y-17405693D01*
X7832235Y-17405693D02*
X7813188Y-17405693D01*
X7813188Y-17405693D02*
X7794140Y-17396170D01*
X7794140Y-17396170D02*
X7784616Y-17386646D01*
X7784616Y-17386646D02*
X7775092Y-17367598D01*
X7775092Y-17367598D02*
X7765569Y-17329503D01*
X7765569Y-17329503D02*
X7765569Y-17281884D01*
X7765569Y-17281884D02*
X7775092Y-17243789D01*
X7775092Y-17243789D02*
X7784616Y-17224741D01*
X7784616Y-17224741D02*
X7794140Y-17215217D01*
X7794140Y-17215217D02*
X7813188Y-17205693D01*
X8117950Y-17405693D02*
X8117950Y-17205693D01*
X8203664Y-17405693D02*
X8203664Y-17300931D01*
X8203664Y-17300931D02*
X8194140Y-17281884D01*
X8194140Y-17281884D02*
X8175092Y-17272360D01*
X8175092Y-17272360D02*
X8146521Y-17272360D01*
X8146521Y-17272360D02*
X8127473Y-17281884D01*
X8127473Y-17281884D02*
X8117950Y-17291408D01*
X8327473Y-17405693D02*
X8308426Y-17396170D01*
X8308426Y-17396170D02*
X8298902Y-17386646D01*
X8298902Y-17386646D02*
X8289378Y-17367598D01*
X8289378Y-17367598D02*
X8289378Y-17310455D01*
X8289378Y-17310455D02*
X8298902Y-17291408D01*
X8298902Y-17291408D02*
X8308426Y-17281884D01*
X8308426Y-17281884D02*
X8327473Y-17272360D01*
X8327473Y-17272360D02*
X8356045Y-17272360D01*
X8356045Y-17272360D02*
X8375092Y-17281884D01*
X8375092Y-17281884D02*
X8384616Y-17291408D01*
X8384616Y-17291408D02*
X8394140Y-17310455D01*
X8394140Y-17310455D02*
X8394140Y-17367598D01*
X8394140Y-17367598D02*
X8384616Y-17386646D01*
X8384616Y-17386646D02*
X8375092Y-17396170D01*
X8375092Y-17396170D02*
X8356045Y-17405693D01*
X8356045Y-17405693D02*
X8327473Y-17405693D01*
X8508426Y-17405693D02*
X8489378Y-17396170D01*
X8489378Y-17396170D02*
X8479854Y-17377122D01*
X8479854Y-17377122D02*
X8479854Y-17205693D01*
X8660807Y-17396170D02*
X8641759Y-17405693D01*
X8641759Y-17405693D02*
X8603664Y-17405693D01*
X8603664Y-17405693D02*
X8584616Y-17396170D01*
X8584616Y-17396170D02*
X8575093Y-17377122D01*
X8575093Y-17377122D02*
X8575093Y-17300931D01*
X8575093Y-17300931D02*
X8584616Y-17281884D01*
X8584616Y-17281884D02*
X8603664Y-17272360D01*
X8603664Y-17272360D02*
X8641759Y-17272360D01*
X8641759Y-17272360D02*
X8660807Y-17281884D01*
X8660807Y-17281884D02*
X8670331Y-17300931D01*
X8670331Y-17300931D02*
X8670331Y-17319979D01*
X8670331Y-17319979D02*
X8575093Y-17339027D01*
X8746521Y-17396170D02*
X8765569Y-17405693D01*
X8765569Y-17405693D02*
X8803664Y-17405693D01*
X8803664Y-17405693D02*
X8822712Y-17396170D01*
X8822712Y-17396170D02*
X8832235Y-17377122D01*
X8832235Y-17377122D02*
X8832235Y-17367598D01*
X8832235Y-17367598D02*
X8822712Y-17348550D01*
X8822712Y-17348550D02*
X8803664Y-17339027D01*
X8803664Y-17339027D02*
X8775093Y-17339027D01*
X8775093Y-17339027D02*
X8756045Y-17329503D01*
X8756045Y-17329503D02*
X8746521Y-17310455D01*
X8746521Y-17310455D02*
X8746521Y-17300931D01*
X8746521Y-17300931D02*
X8756045Y-17281884D01*
X8756045Y-17281884D02*
X8775093Y-17272360D01*
X8775093Y-17272360D02*
X8803664Y-17272360D01*
X8803664Y-17272360D02*
X8822712Y-17281884D01*
X9070331Y-17329503D02*
X9222712Y-17329503D01*
X9146521Y-17405693D02*
X9146521Y-17253312D01*
X9556045Y-17272360D02*
X9556045Y-17405693D01*
X9508426Y-17196170D02*
X9460807Y-17339027D01*
X9460807Y-17339027D02*
X9584616Y-17339027D01*
X9803664Y-17396170D02*
X9822712Y-17405693D01*
X9822712Y-17405693D02*
X9860807Y-17405693D01*
X9860807Y-17405693D02*
X9879855Y-17396170D01*
X9879855Y-17396170D02*
X9889378Y-17377122D01*
X9889378Y-17377122D02*
X9889378Y-17367598D01*
X9889378Y-17367598D02*
X9879855Y-17348550D01*
X9879855Y-17348550D02*
X9860807Y-17339027D01*
X9860807Y-17339027D02*
X9832236Y-17339027D01*
X9832236Y-17339027D02*
X9813188Y-17329503D01*
X9813188Y-17329503D02*
X9803664Y-17310455D01*
X9803664Y-17310455D02*
X9803664Y-17300931D01*
X9803664Y-17300931D02*
X9813188Y-17281884D01*
X9813188Y-17281884D02*
X9832236Y-17272360D01*
X9832236Y-17272360D02*
X9860807Y-17272360D01*
X9860807Y-17272360D02*
X9879855Y-17281884D01*
X10003664Y-17405693D02*
X9984617Y-17396170D01*
X9984617Y-17396170D02*
X9975093Y-17377122D01*
X9975093Y-17377122D02*
X9975093Y-17205693D01*
X10108426Y-17405693D02*
X10089378Y-17396170D01*
X10089378Y-17396170D02*
X10079855Y-17386646D01*
X10079855Y-17386646D02*
X10070331Y-17367598D01*
X10070331Y-17367598D02*
X10070331Y-17310455D01*
X10070331Y-17310455D02*
X10079855Y-17291408D01*
X10079855Y-17291408D02*
X10089378Y-17281884D01*
X10089378Y-17281884D02*
X10108426Y-17272360D01*
X10108426Y-17272360D02*
X10136998Y-17272360D01*
X10136998Y-17272360D02*
X10156045Y-17281884D01*
X10156045Y-17281884D02*
X10165569Y-17291408D01*
X10165569Y-17291408D02*
X10175093Y-17310455D01*
X10175093Y-17310455D02*
X10175093Y-17367598D01*
X10175093Y-17367598D02*
X10165569Y-17386646D01*
X10165569Y-17386646D02*
X10156045Y-17396170D01*
X10156045Y-17396170D02*
X10136998Y-17405693D01*
X10136998Y-17405693D02*
X10108426Y-17405693D01*
X10232236Y-17272360D02*
X10308426Y-17272360D01*
X10260807Y-17205693D02*
X10260807Y-17377122D01*
X10260807Y-17377122D02*
X10270331Y-17396170D01*
X10270331Y-17396170D02*
X10289378Y-17405693D01*
X10289378Y-17405693D02*
X10308426Y-17405693D01*
X10365569Y-17396170D02*
X10384617Y-17405693D01*
X10384617Y-17405693D02*
X10422712Y-17405693D01*
X10422712Y-17405693D02*
X10441759Y-17396170D01*
X10441759Y-17396170D02*
X10451283Y-17377122D01*
X10451283Y-17377122D02*
X10451283Y-17367598D01*
X10451283Y-17367598D02*
X10441759Y-17348550D01*
X10441759Y-17348550D02*
X10422712Y-17339027D01*
X10422712Y-17339027D02*
X10394140Y-17339027D01*
X10394140Y-17339027D02*
X10375093Y-17329503D01*
X10375093Y-17329503D02*
X10365569Y-17310455D01*
X10365569Y-17310455D02*
X10365569Y-17300931D01*
X10365569Y-17300931D02*
X10375093Y-17281884D01*
X10375093Y-17281884D02*
X10394140Y-17272360D01*
X10394140Y-17272360D02*
X10422712Y-17272360D01*
X10422712Y-17272360D02*
X10441759Y-17281884D01*
X10517950Y-17481884D02*
X10527474Y-17472360D01*
X10527474Y-17472360D02*
X10546521Y-17443789D01*
X10546521Y-17443789D02*
X10556045Y-17424741D01*
X10556045Y-17424741D02*
X10565569Y-17396170D01*
X10565569Y-17396170D02*
X10575093Y-17348550D01*
X10575093Y-17348550D02*
X10575093Y-17310455D01*
X10575093Y-17310455D02*
X10565569Y-17262836D01*
X10565569Y-17262836D02*
X10556045Y-17234265D01*
X10556045Y-17234265D02*
X10546521Y-17215217D01*
X10546521Y-17215217D02*
X10527474Y-17186646D01*
X10527474Y-17186646D02*
X10517950Y-17177122D01*
D10*
X4109195Y-17613565D02*
X4109195Y-17542854D01*
X4038483Y-17542854D01*
X4038483Y-17613565D01*
X4109195Y-17613565D01*
D11*
X4489378Y-17669693D02*
X4375092Y-17669693D01*
X4432235Y-17669693D02*
X4432235Y-17469693D01*
X4432235Y-17469693D02*
X4413187Y-17498265D01*
X4413187Y-17498265D02*
X4394140Y-17517312D01*
X4394140Y-17517312D02*
X4375092Y-17526836D01*
X4575092Y-17650646D02*
X4584616Y-17660170D01*
X4584616Y-17660170D02*
X4575092Y-17669693D01*
X4575092Y-17669693D02*
X4565568Y-17660170D01*
X4565568Y-17660170D02*
X4575092Y-17650646D01*
X4575092Y-17650646D02*
X4575092Y-17669693D01*
X4708425Y-17469693D02*
X4727473Y-17469693D01*
X4727473Y-17469693D02*
X4746521Y-17479217D01*
X4746521Y-17479217D02*
X4756045Y-17488741D01*
X4756045Y-17488741D02*
X4765568Y-17507789D01*
X4765568Y-17507789D02*
X4775092Y-17545884D01*
X4775092Y-17545884D02*
X4775092Y-17593503D01*
X4775092Y-17593503D02*
X4765568Y-17631598D01*
X4765568Y-17631598D02*
X4756045Y-17650646D01*
X4756045Y-17650646D02*
X4746521Y-17660170D01*
X4746521Y-17660170D02*
X4727473Y-17669693D01*
X4727473Y-17669693D02*
X4708425Y-17669693D01*
X4708425Y-17669693D02*
X4689378Y-17660170D01*
X4689378Y-17660170D02*
X4679854Y-17650646D01*
X4679854Y-17650646D02*
X4670330Y-17631598D01*
X4670330Y-17631598D02*
X4660806Y-17593503D01*
X4660806Y-17593503D02*
X4660806Y-17545884D01*
X4660806Y-17545884D02*
X4670330Y-17507789D01*
X4670330Y-17507789D02*
X4679854Y-17488741D01*
X4679854Y-17488741D02*
X4689378Y-17479217D01*
X4689378Y-17479217D02*
X4708425Y-17469693D01*
X4898902Y-17469693D02*
X4917949Y-17469693D01*
X4917949Y-17469693D02*
X4936997Y-17479217D01*
X4936997Y-17479217D02*
X4946521Y-17488741D01*
X4946521Y-17488741D02*
X4956045Y-17507789D01*
X4956045Y-17507789D02*
X4965568Y-17545884D01*
X4965568Y-17545884D02*
X4965568Y-17593503D01*
X4965568Y-17593503D02*
X4956045Y-17631598D01*
X4956045Y-17631598D02*
X4946521Y-17650646D01*
X4946521Y-17650646D02*
X4936997Y-17660170D01*
X4936997Y-17660170D02*
X4917949Y-17669693D01*
X4917949Y-17669693D02*
X4898902Y-17669693D01*
X4898902Y-17669693D02*
X4879854Y-17660170D01*
X4879854Y-17660170D02*
X4870330Y-17650646D01*
X4870330Y-17650646D02*
X4860806Y-17631598D01*
X4860806Y-17631598D02*
X4851283Y-17593503D01*
X4851283Y-17593503D02*
X4851283Y-17545884D01*
X4851283Y-17545884D02*
X4860806Y-17507789D01*
X4860806Y-17507789D02*
X4870330Y-17488741D01*
X4870330Y-17488741D02*
X4879854Y-17479217D01*
X4879854Y-17479217D02*
X4898902Y-17469693D01*
X5089378Y-17469693D02*
X5108426Y-17469693D01*
X5108426Y-17469693D02*
X5127473Y-17479217D01*
X5127473Y-17479217D02*
X5136997Y-17488741D01*
X5136997Y-17488741D02*
X5146521Y-17507789D01*
X5146521Y-17507789D02*
X5156045Y-17545884D01*
X5156045Y-17545884D02*
X5156045Y-17593503D01*
X5156045Y-17593503D02*
X5146521Y-17631598D01*
X5146521Y-17631598D02*
X5136997Y-17650646D01*
X5136997Y-17650646D02*
X5127473Y-17660170D01*
X5127473Y-17660170D02*
X5108426Y-17669693D01*
X5108426Y-17669693D02*
X5089378Y-17669693D01*
X5089378Y-17669693D02*
X5070330Y-17660170D01*
X5070330Y-17660170D02*
X5060806Y-17650646D01*
X5060806Y-17650646D02*
X5051283Y-17631598D01*
X5051283Y-17631598D02*
X5041759Y-17593503D01*
X5041759Y-17593503D02*
X5041759Y-17545884D01*
X5041759Y-17545884D02*
X5051283Y-17507789D01*
X5051283Y-17507789D02*
X5060806Y-17488741D01*
X5060806Y-17488741D02*
X5070330Y-17479217D01*
X5070330Y-17479217D02*
X5089378Y-17469693D01*
X5241759Y-17669693D02*
X5241759Y-17536360D01*
X5241759Y-17555408D02*
X5251283Y-17545884D01*
X5251283Y-17545884D02*
X5270330Y-17536360D01*
X5270330Y-17536360D02*
X5298902Y-17536360D01*
X5298902Y-17536360D02*
X5317949Y-17545884D01*
X5317949Y-17545884D02*
X5327473Y-17564931D01*
X5327473Y-17564931D02*
X5327473Y-17669693D01*
X5327473Y-17564931D02*
X5336997Y-17545884D01*
X5336997Y-17545884D02*
X5356045Y-17536360D01*
X5356045Y-17536360D02*
X5384616Y-17536360D01*
X5384616Y-17536360D02*
X5403664Y-17545884D01*
X5403664Y-17545884D02*
X5413187Y-17564931D01*
X5413187Y-17564931D02*
X5413187Y-17669693D01*
X5508426Y-17669693D02*
X5508426Y-17536360D01*
X5508426Y-17555408D02*
X5517949Y-17545884D01*
X5517949Y-17545884D02*
X5536997Y-17536360D01*
X5536997Y-17536360D02*
X5565568Y-17536360D01*
X5565568Y-17536360D02*
X5584616Y-17545884D01*
X5584616Y-17545884D02*
X5594140Y-17564931D01*
X5594140Y-17564931D02*
X5594140Y-17669693D01*
X5594140Y-17564931D02*
X5603664Y-17545884D01*
X5603664Y-17545884D02*
X5622711Y-17536360D01*
X5622711Y-17536360D02*
X5651283Y-17536360D01*
X5651283Y-17536360D02*
X5670330Y-17545884D01*
X5670330Y-17545884D02*
X5679854Y-17564931D01*
X5679854Y-17564931D02*
X5679854Y-17669693D01*
X6070330Y-17460170D02*
X5898902Y-17717312D01*
X6327473Y-17469693D02*
X6346521Y-17469693D01*
X6346521Y-17469693D02*
X6365568Y-17479217D01*
X6365568Y-17479217D02*
X6375092Y-17488741D01*
X6375092Y-17488741D02*
X6384616Y-17507789D01*
X6384616Y-17507789D02*
X6394140Y-17545884D01*
X6394140Y-17545884D02*
X6394140Y-17593503D01*
X6394140Y-17593503D02*
X6384616Y-17631598D01*
X6384616Y-17631598D02*
X6375092Y-17650646D01*
X6375092Y-17650646D02*
X6365568Y-17660170D01*
X6365568Y-17660170D02*
X6346521Y-17669693D01*
X6346521Y-17669693D02*
X6327473Y-17669693D01*
X6327473Y-17669693D02*
X6308426Y-17660170D01*
X6308426Y-17660170D02*
X6298902Y-17650646D01*
X6298902Y-17650646D02*
X6289378Y-17631598D01*
X6289378Y-17631598D02*
X6279854Y-17593503D01*
X6279854Y-17593503D02*
X6279854Y-17545884D01*
X6279854Y-17545884D02*
X6289378Y-17507789D01*
X6289378Y-17507789D02*
X6298902Y-17488741D01*
X6298902Y-17488741D02*
X6308426Y-17479217D01*
X6308426Y-17479217D02*
X6327473Y-17469693D01*
X6479854Y-17650646D02*
X6489378Y-17660170D01*
X6489378Y-17660170D02*
X6479854Y-17669693D01*
X6479854Y-17669693D02*
X6470330Y-17660170D01*
X6470330Y-17660170D02*
X6479854Y-17650646D01*
X6479854Y-17650646D02*
X6479854Y-17669693D01*
X6613187Y-17469693D02*
X6632235Y-17469693D01*
X6632235Y-17469693D02*
X6651283Y-17479217D01*
X6651283Y-17479217D02*
X6660807Y-17488741D01*
X6660807Y-17488741D02*
X6670330Y-17507789D01*
X6670330Y-17507789D02*
X6679854Y-17545884D01*
X6679854Y-17545884D02*
X6679854Y-17593503D01*
X6679854Y-17593503D02*
X6670330Y-17631598D01*
X6670330Y-17631598D02*
X6660807Y-17650646D01*
X6660807Y-17650646D02*
X6651283Y-17660170D01*
X6651283Y-17660170D02*
X6632235Y-17669693D01*
X6632235Y-17669693D02*
X6613187Y-17669693D01*
X6613187Y-17669693D02*
X6594140Y-17660170D01*
X6594140Y-17660170D02*
X6584616Y-17650646D01*
X6584616Y-17650646D02*
X6575092Y-17631598D01*
X6575092Y-17631598D02*
X6565568Y-17593503D01*
X6565568Y-17593503D02*
X6565568Y-17545884D01*
X6565568Y-17545884D02*
X6575092Y-17507789D01*
X6575092Y-17507789D02*
X6584616Y-17488741D01*
X6584616Y-17488741D02*
X6594140Y-17479217D01*
X6594140Y-17479217D02*
X6613187Y-17469693D01*
X6746521Y-17469693D02*
X6870330Y-17469693D01*
X6870330Y-17469693D02*
X6803664Y-17545884D01*
X6803664Y-17545884D02*
X6832235Y-17545884D01*
X6832235Y-17545884D02*
X6851283Y-17555408D01*
X6851283Y-17555408D02*
X6860807Y-17564931D01*
X6860807Y-17564931D02*
X6870330Y-17583979D01*
X6870330Y-17583979D02*
X6870330Y-17631598D01*
X6870330Y-17631598D02*
X6860807Y-17650646D01*
X6860807Y-17650646D02*
X6851283Y-17660170D01*
X6851283Y-17660170D02*
X6832235Y-17669693D01*
X6832235Y-17669693D02*
X6775092Y-17669693D01*
X6775092Y-17669693D02*
X6756045Y-17660170D01*
X6756045Y-17660170D02*
X6746521Y-17650646D01*
X6965568Y-17669693D02*
X7003664Y-17669693D01*
X7003664Y-17669693D02*
X7022711Y-17660170D01*
X7022711Y-17660170D02*
X7032235Y-17650646D01*
X7032235Y-17650646D02*
X7051283Y-17622074D01*
X7051283Y-17622074D02*
X7060807Y-17583979D01*
X7060807Y-17583979D02*
X7060807Y-17507789D01*
X7060807Y-17507789D02*
X7051283Y-17488741D01*
X7051283Y-17488741D02*
X7041759Y-17479217D01*
X7041759Y-17479217D02*
X7022711Y-17469693D01*
X7022711Y-17469693D02*
X6984616Y-17469693D01*
X6984616Y-17469693D02*
X6965568Y-17479217D01*
X6965568Y-17479217D02*
X6956045Y-17488741D01*
X6956045Y-17488741D02*
X6946521Y-17507789D01*
X6946521Y-17507789D02*
X6946521Y-17555408D01*
X6946521Y-17555408D02*
X6956045Y-17574455D01*
X6956045Y-17574455D02*
X6965568Y-17583979D01*
X6965568Y-17583979D02*
X6984616Y-17593503D01*
X6984616Y-17593503D02*
X7022711Y-17593503D01*
X7022711Y-17593503D02*
X7041759Y-17583979D01*
X7041759Y-17583979D02*
X7051283Y-17574455D01*
X7051283Y-17574455D02*
X7060807Y-17555408D01*
X7232235Y-17536360D02*
X7232235Y-17669693D01*
X7184616Y-17460170D02*
X7136997Y-17603027D01*
X7136997Y-17603027D02*
X7260807Y-17603027D01*
X7327473Y-17469693D02*
X7327473Y-17507789D01*
X7403664Y-17469693D02*
X7403664Y-17507789D01*
X7698902Y-17745884D02*
X7689378Y-17736360D01*
X7689378Y-17736360D02*
X7670330Y-17707789D01*
X7670330Y-17707789D02*
X7660807Y-17688741D01*
X7660807Y-17688741D02*
X7651283Y-17660170D01*
X7651283Y-17660170D02*
X7641759Y-17612550D01*
X7641759Y-17612550D02*
X7641759Y-17574455D01*
X7641759Y-17574455D02*
X7651283Y-17526836D01*
X7651283Y-17526836D02*
X7660807Y-17498265D01*
X7660807Y-17498265D02*
X7670330Y-17479217D01*
X7670330Y-17479217D02*
X7689378Y-17450646D01*
X7689378Y-17450646D02*
X7698902Y-17441122D01*
X7860807Y-17469693D02*
X7822711Y-17469693D01*
X7822711Y-17469693D02*
X7803664Y-17479217D01*
X7803664Y-17479217D02*
X7794140Y-17488741D01*
X7794140Y-17488741D02*
X7775092Y-17517312D01*
X7775092Y-17517312D02*
X7765569Y-17555408D01*
X7765569Y-17555408D02*
X7765569Y-17631598D01*
X7765569Y-17631598D02*
X7775092Y-17650646D01*
X7775092Y-17650646D02*
X7784616Y-17660170D01*
X7784616Y-17660170D02*
X7803664Y-17669693D01*
X7803664Y-17669693D02*
X7841759Y-17669693D01*
X7841759Y-17669693D02*
X7860807Y-17660170D01*
X7860807Y-17660170D02*
X7870330Y-17650646D01*
X7870330Y-17650646D02*
X7879854Y-17631598D01*
X7879854Y-17631598D02*
X7879854Y-17583979D01*
X7879854Y-17583979D02*
X7870330Y-17564931D01*
X7870330Y-17564931D02*
X7860807Y-17555408D01*
X7860807Y-17555408D02*
X7841759Y-17545884D01*
X7841759Y-17545884D02*
X7803664Y-17545884D01*
X7803664Y-17545884D02*
X7784616Y-17555408D01*
X7784616Y-17555408D02*
X7775092Y-17564931D01*
X7775092Y-17564931D02*
X7765569Y-17583979D01*
X8117950Y-17669693D02*
X8117950Y-17469693D01*
X8203664Y-17669693D02*
X8203664Y-17564931D01*
X8203664Y-17564931D02*
X8194140Y-17545884D01*
X8194140Y-17545884D02*
X8175092Y-17536360D01*
X8175092Y-17536360D02*
X8146521Y-17536360D01*
X8146521Y-17536360D02*
X8127473Y-17545884D01*
X8127473Y-17545884D02*
X8117950Y-17555408D01*
X8327473Y-17669693D02*
X8308426Y-17660170D01*
X8308426Y-17660170D02*
X8298902Y-17650646D01*
X8298902Y-17650646D02*
X8289378Y-17631598D01*
X8289378Y-17631598D02*
X8289378Y-17574455D01*
X8289378Y-17574455D02*
X8298902Y-17555408D01*
X8298902Y-17555408D02*
X8308426Y-17545884D01*
X8308426Y-17545884D02*
X8327473Y-17536360D01*
X8327473Y-17536360D02*
X8356045Y-17536360D01*
X8356045Y-17536360D02*
X8375092Y-17545884D01*
X8375092Y-17545884D02*
X8384616Y-17555408D01*
X8384616Y-17555408D02*
X8394140Y-17574455D01*
X8394140Y-17574455D02*
X8394140Y-17631598D01*
X8394140Y-17631598D02*
X8384616Y-17650646D01*
X8384616Y-17650646D02*
X8375092Y-17660170D01*
X8375092Y-17660170D02*
X8356045Y-17669693D01*
X8356045Y-17669693D02*
X8327473Y-17669693D01*
X8508426Y-17669693D02*
X8489378Y-17660170D01*
X8489378Y-17660170D02*
X8479854Y-17641122D01*
X8479854Y-17641122D02*
X8479854Y-17469693D01*
X8660807Y-17660170D02*
X8641759Y-17669693D01*
X8641759Y-17669693D02*
X8603664Y-17669693D01*
X8603664Y-17669693D02*
X8584616Y-17660170D01*
X8584616Y-17660170D02*
X8575093Y-17641122D01*
X8575093Y-17641122D02*
X8575093Y-17564931D01*
X8575093Y-17564931D02*
X8584616Y-17545884D01*
X8584616Y-17545884D02*
X8603664Y-17536360D01*
X8603664Y-17536360D02*
X8641759Y-17536360D01*
X8641759Y-17536360D02*
X8660807Y-17545884D01*
X8660807Y-17545884D02*
X8670331Y-17564931D01*
X8670331Y-17564931D02*
X8670331Y-17583979D01*
X8670331Y-17583979D02*
X8575093Y-17603027D01*
X8746521Y-17660170D02*
X8765569Y-17669693D01*
X8765569Y-17669693D02*
X8803664Y-17669693D01*
X8803664Y-17669693D02*
X8822712Y-17660170D01*
X8822712Y-17660170D02*
X8832235Y-17641122D01*
X8832235Y-17641122D02*
X8832235Y-17631598D01*
X8832235Y-17631598D02*
X8822712Y-17612550D01*
X8822712Y-17612550D02*
X8803664Y-17603027D01*
X8803664Y-17603027D02*
X8775093Y-17603027D01*
X8775093Y-17603027D02*
X8756045Y-17593503D01*
X8756045Y-17593503D02*
X8746521Y-17574455D01*
X8746521Y-17574455D02*
X8746521Y-17564931D01*
X8746521Y-17564931D02*
X8756045Y-17545884D01*
X8756045Y-17545884D02*
X8775093Y-17536360D01*
X8775093Y-17536360D02*
X8803664Y-17536360D01*
X8803664Y-17536360D02*
X8822712Y-17545884D01*
X8898902Y-17745884D02*
X8908426Y-17736360D01*
X8908426Y-17736360D02*
X8927474Y-17707789D01*
X8927474Y-17707789D02*
X8936997Y-17688741D01*
X8936997Y-17688741D02*
X8946521Y-17660170D01*
X8946521Y-17660170D02*
X8956045Y-17612550D01*
X8956045Y-17612550D02*
X8956045Y-17574455D01*
X8956045Y-17574455D02*
X8946521Y-17526836D01*
X8946521Y-17526836D02*
X8936997Y-17498265D01*
X8936997Y-17498265D02*
X8927474Y-17479217D01*
X8927474Y-17479217D02*
X8908426Y-17450646D01*
X8908426Y-17450646D02*
X8898902Y-17441122D01*
D15*
X4067959Y-17898090D02*
X4123839Y-17842210D01*
X4067959Y-17786330D01*
X4012079Y-17842210D01*
X4067959Y-17898090D01*
D11*
X4489378Y-17933693D02*
X4375092Y-17933693D01*
X4432235Y-17933693D02*
X4432235Y-17733693D01*
X4432235Y-17733693D02*
X4413187Y-17762265D01*
X4413187Y-17762265D02*
X4394140Y-17781312D01*
X4394140Y-17781312D02*
X4375092Y-17790836D01*
X4575092Y-17914646D02*
X4584616Y-17924170D01*
X4584616Y-17924170D02*
X4575092Y-17933693D01*
X4575092Y-17933693D02*
X4565568Y-17924170D01*
X4565568Y-17924170D02*
X4575092Y-17914646D01*
X4575092Y-17914646D02*
X4575092Y-17933693D01*
X4775092Y-17933693D02*
X4660806Y-17933693D01*
X4717949Y-17933693D02*
X4717949Y-17733693D01*
X4717949Y-17733693D02*
X4698902Y-17762265D01*
X4698902Y-17762265D02*
X4679854Y-17781312D01*
X4679854Y-17781312D02*
X4660806Y-17790836D01*
X4965568Y-17933693D02*
X4851283Y-17933693D01*
X4908425Y-17933693D02*
X4908425Y-17733693D01*
X4908425Y-17733693D02*
X4889378Y-17762265D01*
X4889378Y-17762265D02*
X4870330Y-17781312D01*
X4870330Y-17781312D02*
X4851283Y-17790836D01*
X5079854Y-17819408D02*
X5060806Y-17809884D01*
X5060806Y-17809884D02*
X5051283Y-17800360D01*
X5051283Y-17800360D02*
X5041759Y-17781312D01*
X5041759Y-17781312D02*
X5041759Y-17771789D01*
X5041759Y-17771789D02*
X5051283Y-17752741D01*
X5051283Y-17752741D02*
X5060806Y-17743217D01*
X5060806Y-17743217D02*
X5079854Y-17733693D01*
X5079854Y-17733693D02*
X5117949Y-17733693D01*
X5117949Y-17733693D02*
X5136997Y-17743217D01*
X5136997Y-17743217D02*
X5146521Y-17752741D01*
X5146521Y-17752741D02*
X5156045Y-17771789D01*
X5156045Y-17771789D02*
X5156045Y-17781312D01*
X5156045Y-17781312D02*
X5146521Y-17800360D01*
X5146521Y-17800360D02*
X5136997Y-17809884D01*
X5136997Y-17809884D02*
X5117949Y-17819408D01*
X5117949Y-17819408D02*
X5079854Y-17819408D01*
X5079854Y-17819408D02*
X5060806Y-17828931D01*
X5060806Y-17828931D02*
X5051283Y-17838455D01*
X5051283Y-17838455D02*
X5041759Y-17857503D01*
X5041759Y-17857503D02*
X5041759Y-17895598D01*
X5041759Y-17895598D02*
X5051283Y-17914646D01*
X5051283Y-17914646D02*
X5060806Y-17924170D01*
X5060806Y-17924170D02*
X5079854Y-17933693D01*
X5079854Y-17933693D02*
X5117949Y-17933693D01*
X5117949Y-17933693D02*
X5136997Y-17924170D01*
X5136997Y-17924170D02*
X5146521Y-17914646D01*
X5146521Y-17914646D02*
X5156045Y-17895598D01*
X5156045Y-17895598D02*
X5156045Y-17857503D01*
X5156045Y-17857503D02*
X5146521Y-17838455D01*
X5146521Y-17838455D02*
X5136997Y-17828931D01*
X5136997Y-17828931D02*
X5117949Y-17819408D01*
X5241759Y-17933693D02*
X5241759Y-17800360D01*
X5241759Y-17819408D02*
X5251283Y-17809884D01*
X5251283Y-17809884D02*
X5270330Y-17800360D01*
X5270330Y-17800360D02*
X5298902Y-17800360D01*
X5298902Y-17800360D02*
X5317949Y-17809884D01*
X5317949Y-17809884D02*
X5327473Y-17828931D01*
X5327473Y-17828931D02*
X5327473Y-17933693D01*
X5327473Y-17828931D02*
X5336997Y-17809884D01*
X5336997Y-17809884D02*
X5356045Y-17800360D01*
X5356045Y-17800360D02*
X5384616Y-17800360D01*
X5384616Y-17800360D02*
X5403664Y-17809884D01*
X5403664Y-17809884D02*
X5413187Y-17828931D01*
X5413187Y-17828931D02*
X5413187Y-17933693D01*
X5508426Y-17933693D02*
X5508426Y-17800360D01*
X5508426Y-17819408D02*
X5517949Y-17809884D01*
X5517949Y-17809884D02*
X5536997Y-17800360D01*
X5536997Y-17800360D02*
X5565568Y-17800360D01*
X5565568Y-17800360D02*
X5584616Y-17809884D01*
X5584616Y-17809884D02*
X5594140Y-17828931D01*
X5594140Y-17828931D02*
X5594140Y-17933693D01*
X5594140Y-17828931D02*
X5603664Y-17809884D01*
X5603664Y-17809884D02*
X5622711Y-17800360D01*
X5622711Y-17800360D02*
X5651283Y-17800360D01*
X5651283Y-17800360D02*
X5670330Y-17809884D01*
X5670330Y-17809884D02*
X5679854Y-17828931D01*
X5679854Y-17828931D02*
X5679854Y-17933693D01*
X6070330Y-17724170D02*
X5898902Y-17981312D01*
X6327473Y-17733693D02*
X6346521Y-17733693D01*
X6346521Y-17733693D02*
X6365568Y-17743217D01*
X6365568Y-17743217D02*
X6375092Y-17752741D01*
X6375092Y-17752741D02*
X6384616Y-17771789D01*
X6384616Y-17771789D02*
X6394140Y-17809884D01*
X6394140Y-17809884D02*
X6394140Y-17857503D01*
X6394140Y-17857503D02*
X6384616Y-17895598D01*
X6384616Y-17895598D02*
X6375092Y-17914646D01*
X6375092Y-17914646D02*
X6365568Y-17924170D01*
X6365568Y-17924170D02*
X6346521Y-17933693D01*
X6346521Y-17933693D02*
X6327473Y-17933693D01*
X6327473Y-17933693D02*
X6308426Y-17924170D01*
X6308426Y-17924170D02*
X6298902Y-17914646D01*
X6298902Y-17914646D02*
X6289378Y-17895598D01*
X6289378Y-17895598D02*
X6279854Y-17857503D01*
X6279854Y-17857503D02*
X6279854Y-17809884D01*
X6279854Y-17809884D02*
X6289378Y-17771789D01*
X6289378Y-17771789D02*
X6298902Y-17752741D01*
X6298902Y-17752741D02*
X6308426Y-17743217D01*
X6308426Y-17743217D02*
X6327473Y-17733693D01*
X6479854Y-17914646D02*
X6489378Y-17924170D01*
X6489378Y-17924170D02*
X6479854Y-17933693D01*
X6479854Y-17933693D02*
X6470330Y-17924170D01*
X6470330Y-17924170D02*
X6479854Y-17914646D01*
X6479854Y-17914646D02*
X6479854Y-17933693D01*
X6613187Y-17733693D02*
X6632235Y-17733693D01*
X6632235Y-17733693D02*
X6651283Y-17743217D01*
X6651283Y-17743217D02*
X6660807Y-17752741D01*
X6660807Y-17752741D02*
X6670330Y-17771789D01*
X6670330Y-17771789D02*
X6679854Y-17809884D01*
X6679854Y-17809884D02*
X6679854Y-17857503D01*
X6679854Y-17857503D02*
X6670330Y-17895598D01*
X6670330Y-17895598D02*
X6660807Y-17914646D01*
X6660807Y-17914646D02*
X6651283Y-17924170D01*
X6651283Y-17924170D02*
X6632235Y-17933693D01*
X6632235Y-17933693D02*
X6613187Y-17933693D01*
X6613187Y-17933693D02*
X6594140Y-17924170D01*
X6594140Y-17924170D02*
X6584616Y-17914646D01*
X6584616Y-17914646D02*
X6575092Y-17895598D01*
X6575092Y-17895598D02*
X6565568Y-17857503D01*
X6565568Y-17857503D02*
X6565568Y-17809884D01*
X6565568Y-17809884D02*
X6575092Y-17771789D01*
X6575092Y-17771789D02*
X6584616Y-17752741D01*
X6584616Y-17752741D02*
X6594140Y-17743217D01*
X6594140Y-17743217D02*
X6613187Y-17733693D01*
X6851283Y-17800360D02*
X6851283Y-17933693D01*
X6803664Y-17724170D02*
X6756045Y-17867027D01*
X6756045Y-17867027D02*
X6879854Y-17867027D01*
X7041759Y-17800360D02*
X7041759Y-17933693D01*
X6994140Y-17724170D02*
X6946521Y-17867027D01*
X6946521Y-17867027D02*
X7070330Y-17867027D01*
X7184616Y-17733693D02*
X7203664Y-17733693D01*
X7203664Y-17733693D02*
X7222711Y-17743217D01*
X7222711Y-17743217D02*
X7232235Y-17752741D01*
X7232235Y-17752741D02*
X7241759Y-17771789D01*
X7241759Y-17771789D02*
X7251283Y-17809884D01*
X7251283Y-17809884D02*
X7251283Y-17857503D01*
X7251283Y-17857503D02*
X7241759Y-17895598D01*
X7241759Y-17895598D02*
X7232235Y-17914646D01*
X7232235Y-17914646D02*
X7222711Y-17924170D01*
X7222711Y-17924170D02*
X7203664Y-17933693D01*
X7203664Y-17933693D02*
X7184616Y-17933693D01*
X7184616Y-17933693D02*
X7165568Y-17924170D01*
X7165568Y-17924170D02*
X7156045Y-17914646D01*
X7156045Y-17914646D02*
X7146521Y-17895598D01*
X7146521Y-17895598D02*
X7136997Y-17857503D01*
X7136997Y-17857503D02*
X7136997Y-17809884D01*
X7136997Y-17809884D02*
X7146521Y-17771789D01*
X7146521Y-17771789D02*
X7156045Y-17752741D01*
X7156045Y-17752741D02*
X7165568Y-17743217D01*
X7165568Y-17743217D02*
X7184616Y-17733693D01*
X7327473Y-17733693D02*
X7327473Y-17771789D01*
X7403664Y-17733693D02*
X7403664Y-17771789D01*
X7698902Y-18009884D02*
X7689378Y-18000360D01*
X7689378Y-18000360D02*
X7670330Y-17971789D01*
X7670330Y-17971789D02*
X7660807Y-17952741D01*
X7660807Y-17952741D02*
X7651283Y-17924170D01*
X7651283Y-17924170D02*
X7641759Y-17876550D01*
X7641759Y-17876550D02*
X7641759Y-17838455D01*
X7641759Y-17838455D02*
X7651283Y-17790836D01*
X7651283Y-17790836D02*
X7660807Y-17762265D01*
X7660807Y-17762265D02*
X7670330Y-17743217D01*
X7670330Y-17743217D02*
X7689378Y-17714646D01*
X7689378Y-17714646D02*
X7698902Y-17705122D01*
X7756045Y-17733693D02*
X7879854Y-17733693D01*
X7879854Y-17733693D02*
X7813188Y-17809884D01*
X7813188Y-17809884D02*
X7841759Y-17809884D01*
X7841759Y-17809884D02*
X7860807Y-17819408D01*
X7860807Y-17819408D02*
X7870330Y-17828931D01*
X7870330Y-17828931D02*
X7879854Y-17847979D01*
X7879854Y-17847979D02*
X7879854Y-17895598D01*
X7879854Y-17895598D02*
X7870330Y-17914646D01*
X7870330Y-17914646D02*
X7860807Y-17924170D01*
X7860807Y-17924170D02*
X7841759Y-17933693D01*
X7841759Y-17933693D02*
X7784616Y-17933693D01*
X7784616Y-17933693D02*
X7765569Y-17924170D01*
X7765569Y-17924170D02*
X7756045Y-17914646D01*
X8117950Y-17933693D02*
X8117950Y-17733693D01*
X8203664Y-17933693D02*
X8203664Y-17828931D01*
X8203664Y-17828931D02*
X8194140Y-17809884D01*
X8194140Y-17809884D02*
X8175092Y-17800360D01*
X8175092Y-17800360D02*
X8146521Y-17800360D01*
X8146521Y-17800360D02*
X8127473Y-17809884D01*
X8127473Y-17809884D02*
X8117950Y-17819408D01*
X8327473Y-17933693D02*
X8308426Y-17924170D01*
X8308426Y-17924170D02*
X8298902Y-17914646D01*
X8298902Y-17914646D02*
X8289378Y-17895598D01*
X8289378Y-17895598D02*
X8289378Y-17838455D01*
X8289378Y-17838455D02*
X8298902Y-17819408D01*
X8298902Y-17819408D02*
X8308426Y-17809884D01*
X8308426Y-17809884D02*
X8327473Y-17800360D01*
X8327473Y-17800360D02*
X8356045Y-17800360D01*
X8356045Y-17800360D02*
X8375092Y-17809884D01*
X8375092Y-17809884D02*
X8384616Y-17819408D01*
X8384616Y-17819408D02*
X8394140Y-17838455D01*
X8394140Y-17838455D02*
X8394140Y-17895598D01*
X8394140Y-17895598D02*
X8384616Y-17914646D01*
X8384616Y-17914646D02*
X8375092Y-17924170D01*
X8375092Y-17924170D02*
X8356045Y-17933693D01*
X8356045Y-17933693D02*
X8327473Y-17933693D01*
X8508426Y-17933693D02*
X8489378Y-17924170D01*
X8489378Y-17924170D02*
X8479854Y-17905122D01*
X8479854Y-17905122D02*
X8479854Y-17733693D01*
X8660807Y-17924170D02*
X8641759Y-17933693D01*
X8641759Y-17933693D02*
X8603664Y-17933693D01*
X8603664Y-17933693D02*
X8584616Y-17924170D01*
X8584616Y-17924170D02*
X8575093Y-17905122D01*
X8575093Y-17905122D02*
X8575093Y-17828931D01*
X8575093Y-17828931D02*
X8584616Y-17809884D01*
X8584616Y-17809884D02*
X8603664Y-17800360D01*
X8603664Y-17800360D02*
X8641759Y-17800360D01*
X8641759Y-17800360D02*
X8660807Y-17809884D01*
X8660807Y-17809884D02*
X8670331Y-17828931D01*
X8670331Y-17828931D02*
X8670331Y-17847979D01*
X8670331Y-17847979D02*
X8575093Y-17867027D01*
X8746521Y-17924170D02*
X8765569Y-17933693D01*
X8765569Y-17933693D02*
X8803664Y-17933693D01*
X8803664Y-17933693D02*
X8822712Y-17924170D01*
X8822712Y-17924170D02*
X8832235Y-17905122D01*
X8832235Y-17905122D02*
X8832235Y-17895598D01*
X8832235Y-17895598D02*
X8822712Y-17876550D01*
X8822712Y-17876550D02*
X8803664Y-17867027D01*
X8803664Y-17867027D02*
X8775093Y-17867027D01*
X8775093Y-17867027D02*
X8756045Y-17857503D01*
X8756045Y-17857503D02*
X8746521Y-17838455D01*
X8746521Y-17838455D02*
X8746521Y-17828931D01*
X8746521Y-17828931D02*
X8756045Y-17809884D01*
X8756045Y-17809884D02*
X8775093Y-17800360D01*
X8775093Y-17800360D02*
X8803664Y-17800360D01*
X8803664Y-17800360D02*
X8822712Y-17809884D01*
X8898902Y-18009884D02*
X8908426Y-18000360D01*
X8908426Y-18000360D02*
X8927474Y-17971789D01*
X8927474Y-17971789D02*
X8936997Y-17952741D01*
X8936997Y-17952741D02*
X8946521Y-17924170D01*
X8946521Y-17924170D02*
X8956045Y-17876550D01*
X8956045Y-17876550D02*
X8956045Y-17838455D01*
X8956045Y-17838455D02*
X8946521Y-17790836D01*
X8946521Y-17790836D02*
X8936997Y-17762265D01*
X8936997Y-17762265D02*
X8927474Y-17743217D01*
X8927474Y-17743217D02*
X8908426Y-17714646D01*
X8908426Y-17714646D02*
X8898902Y-17705122D01*
D16*
X3993839Y-18041210D02*
X4123839Y-18171210D01*
X4123839Y-18041210D02*
X3993839Y-18171210D01*
X4123839Y-18106210D02*
G75*
G03*
X4123839Y-18106210I-65000J0D01*
G01*
D11*
X4489378Y-18197693D02*
X4375092Y-18197693D01*
X4432235Y-18197693D02*
X4432235Y-17997693D01*
X4432235Y-17997693D02*
X4413187Y-18026265D01*
X4413187Y-18026265D02*
X4394140Y-18045312D01*
X4394140Y-18045312D02*
X4375092Y-18054836D01*
X4575092Y-18178646D02*
X4584616Y-18188170D01*
X4584616Y-18188170D02*
X4575092Y-18197693D01*
X4575092Y-18197693D02*
X4565568Y-18188170D01*
X4565568Y-18188170D02*
X4575092Y-18178646D01*
X4575092Y-18178646D02*
X4575092Y-18197693D01*
X4651283Y-17997693D02*
X4775092Y-17997693D01*
X4775092Y-17997693D02*
X4708425Y-18073884D01*
X4708425Y-18073884D02*
X4736997Y-18073884D01*
X4736997Y-18073884D02*
X4756045Y-18083408D01*
X4756045Y-18083408D02*
X4765568Y-18092931D01*
X4765568Y-18092931D02*
X4775092Y-18111979D01*
X4775092Y-18111979D02*
X4775092Y-18159598D01*
X4775092Y-18159598D02*
X4765568Y-18178646D01*
X4765568Y-18178646D02*
X4756045Y-18188170D01*
X4756045Y-18188170D02*
X4736997Y-18197693D01*
X4736997Y-18197693D02*
X4679854Y-18197693D01*
X4679854Y-18197693D02*
X4660806Y-18188170D01*
X4660806Y-18188170D02*
X4651283Y-18178646D01*
X4898902Y-17997693D02*
X4917949Y-17997693D01*
X4917949Y-17997693D02*
X4936997Y-18007217D01*
X4936997Y-18007217D02*
X4946521Y-18016741D01*
X4946521Y-18016741D02*
X4956045Y-18035789D01*
X4956045Y-18035789D02*
X4965568Y-18073884D01*
X4965568Y-18073884D02*
X4965568Y-18121503D01*
X4965568Y-18121503D02*
X4956045Y-18159598D01*
X4956045Y-18159598D02*
X4946521Y-18178646D01*
X4946521Y-18178646D02*
X4936997Y-18188170D01*
X4936997Y-18188170D02*
X4917949Y-18197693D01*
X4917949Y-18197693D02*
X4898902Y-18197693D01*
X4898902Y-18197693D02*
X4879854Y-18188170D01*
X4879854Y-18188170D02*
X4870330Y-18178646D01*
X4870330Y-18178646D02*
X4860806Y-18159598D01*
X4860806Y-18159598D02*
X4851283Y-18121503D01*
X4851283Y-18121503D02*
X4851283Y-18073884D01*
X4851283Y-18073884D02*
X4860806Y-18035789D01*
X4860806Y-18035789D02*
X4870330Y-18016741D01*
X4870330Y-18016741D02*
X4879854Y-18007217D01*
X4879854Y-18007217D02*
X4898902Y-17997693D01*
X5089378Y-17997693D02*
X5108426Y-17997693D01*
X5108426Y-17997693D02*
X5127473Y-18007217D01*
X5127473Y-18007217D02*
X5136997Y-18016741D01*
X5136997Y-18016741D02*
X5146521Y-18035789D01*
X5146521Y-18035789D02*
X5156045Y-18073884D01*
X5156045Y-18073884D02*
X5156045Y-18121503D01*
X5156045Y-18121503D02*
X5146521Y-18159598D01*
X5146521Y-18159598D02*
X5136997Y-18178646D01*
X5136997Y-18178646D02*
X5127473Y-18188170D01*
X5127473Y-18188170D02*
X5108426Y-18197693D01*
X5108426Y-18197693D02*
X5089378Y-18197693D01*
X5089378Y-18197693D02*
X5070330Y-18188170D01*
X5070330Y-18188170D02*
X5060806Y-18178646D01*
X5060806Y-18178646D02*
X5051283Y-18159598D01*
X5051283Y-18159598D02*
X5041759Y-18121503D01*
X5041759Y-18121503D02*
X5041759Y-18073884D01*
X5041759Y-18073884D02*
X5051283Y-18035789D01*
X5051283Y-18035789D02*
X5060806Y-18016741D01*
X5060806Y-18016741D02*
X5070330Y-18007217D01*
X5070330Y-18007217D02*
X5089378Y-17997693D01*
X5241759Y-18197693D02*
X5241759Y-18064360D01*
X5241759Y-18083408D02*
X5251283Y-18073884D01*
X5251283Y-18073884D02*
X5270330Y-18064360D01*
X5270330Y-18064360D02*
X5298902Y-18064360D01*
X5298902Y-18064360D02*
X5317949Y-18073884D01*
X5317949Y-18073884D02*
X5327473Y-18092931D01*
X5327473Y-18092931D02*
X5327473Y-18197693D01*
X5327473Y-18092931D02*
X5336997Y-18073884D01*
X5336997Y-18073884D02*
X5356045Y-18064360D01*
X5356045Y-18064360D02*
X5384616Y-18064360D01*
X5384616Y-18064360D02*
X5403664Y-18073884D01*
X5403664Y-18073884D02*
X5413187Y-18092931D01*
X5413187Y-18092931D02*
X5413187Y-18197693D01*
X5508426Y-18197693D02*
X5508426Y-18064360D01*
X5508426Y-18083408D02*
X5517949Y-18073884D01*
X5517949Y-18073884D02*
X5536997Y-18064360D01*
X5536997Y-18064360D02*
X5565568Y-18064360D01*
X5565568Y-18064360D02*
X5584616Y-18073884D01*
X5584616Y-18073884D02*
X5594140Y-18092931D01*
X5594140Y-18092931D02*
X5594140Y-18197693D01*
X5594140Y-18092931D02*
X5603664Y-18073884D01*
X5603664Y-18073884D02*
X5622711Y-18064360D01*
X5622711Y-18064360D02*
X5651283Y-18064360D01*
X5651283Y-18064360D02*
X5670330Y-18073884D01*
X5670330Y-18073884D02*
X5679854Y-18092931D01*
X5679854Y-18092931D02*
X5679854Y-18197693D01*
X6070330Y-17988170D02*
X5898902Y-18245312D01*
X6327473Y-17997693D02*
X6346521Y-17997693D01*
X6346521Y-17997693D02*
X6365568Y-18007217D01*
X6365568Y-18007217D02*
X6375092Y-18016741D01*
X6375092Y-18016741D02*
X6384616Y-18035789D01*
X6384616Y-18035789D02*
X6394140Y-18073884D01*
X6394140Y-18073884D02*
X6394140Y-18121503D01*
X6394140Y-18121503D02*
X6384616Y-18159598D01*
X6384616Y-18159598D02*
X6375092Y-18178646D01*
X6375092Y-18178646D02*
X6365568Y-18188170D01*
X6365568Y-18188170D02*
X6346521Y-18197693D01*
X6346521Y-18197693D02*
X6327473Y-18197693D01*
X6327473Y-18197693D02*
X6308426Y-18188170D01*
X6308426Y-18188170D02*
X6298902Y-18178646D01*
X6298902Y-18178646D02*
X6289378Y-18159598D01*
X6289378Y-18159598D02*
X6279854Y-18121503D01*
X6279854Y-18121503D02*
X6279854Y-18073884D01*
X6279854Y-18073884D02*
X6289378Y-18035789D01*
X6289378Y-18035789D02*
X6298902Y-18016741D01*
X6298902Y-18016741D02*
X6308426Y-18007217D01*
X6308426Y-18007217D02*
X6327473Y-17997693D01*
X6479854Y-18178646D02*
X6489378Y-18188170D01*
X6489378Y-18188170D02*
X6479854Y-18197693D01*
X6479854Y-18197693D02*
X6470330Y-18188170D01*
X6470330Y-18188170D02*
X6479854Y-18178646D01*
X6479854Y-18178646D02*
X6479854Y-18197693D01*
X6613187Y-17997693D02*
X6632235Y-17997693D01*
X6632235Y-17997693D02*
X6651283Y-18007217D01*
X6651283Y-18007217D02*
X6660807Y-18016741D01*
X6660807Y-18016741D02*
X6670330Y-18035789D01*
X6670330Y-18035789D02*
X6679854Y-18073884D01*
X6679854Y-18073884D02*
X6679854Y-18121503D01*
X6679854Y-18121503D02*
X6670330Y-18159598D01*
X6670330Y-18159598D02*
X6660807Y-18178646D01*
X6660807Y-18178646D02*
X6651283Y-18188170D01*
X6651283Y-18188170D02*
X6632235Y-18197693D01*
X6632235Y-18197693D02*
X6613187Y-18197693D01*
X6613187Y-18197693D02*
X6594140Y-18188170D01*
X6594140Y-18188170D02*
X6584616Y-18178646D01*
X6584616Y-18178646D02*
X6575092Y-18159598D01*
X6575092Y-18159598D02*
X6565568Y-18121503D01*
X6565568Y-18121503D02*
X6565568Y-18073884D01*
X6565568Y-18073884D02*
X6575092Y-18035789D01*
X6575092Y-18035789D02*
X6584616Y-18016741D01*
X6584616Y-18016741D02*
X6594140Y-18007217D01*
X6594140Y-18007217D02*
X6613187Y-17997693D01*
X6860807Y-17997693D02*
X6765568Y-17997693D01*
X6765568Y-17997693D02*
X6756045Y-18092931D01*
X6756045Y-18092931D02*
X6765568Y-18083408D01*
X6765568Y-18083408D02*
X6784616Y-18073884D01*
X6784616Y-18073884D02*
X6832235Y-18073884D01*
X6832235Y-18073884D02*
X6851283Y-18083408D01*
X6851283Y-18083408D02*
X6860807Y-18092931D01*
X6860807Y-18092931D02*
X6870330Y-18111979D01*
X6870330Y-18111979D02*
X6870330Y-18159598D01*
X6870330Y-18159598D02*
X6860807Y-18178646D01*
X6860807Y-18178646D02*
X6851283Y-18188170D01*
X6851283Y-18188170D02*
X6832235Y-18197693D01*
X6832235Y-18197693D02*
X6784616Y-18197693D01*
X6784616Y-18197693D02*
X6765568Y-18188170D01*
X6765568Y-18188170D02*
X6756045Y-18178646D01*
X7060807Y-18197693D02*
X6946521Y-18197693D01*
X7003664Y-18197693D02*
X7003664Y-17997693D01*
X7003664Y-17997693D02*
X6984616Y-18026265D01*
X6984616Y-18026265D02*
X6965568Y-18045312D01*
X6965568Y-18045312D02*
X6946521Y-18054836D01*
X7136997Y-18016741D02*
X7146521Y-18007217D01*
X7146521Y-18007217D02*
X7165568Y-17997693D01*
X7165568Y-17997693D02*
X7213188Y-17997693D01*
X7213188Y-17997693D02*
X7232235Y-18007217D01*
X7232235Y-18007217D02*
X7241759Y-18016741D01*
X7241759Y-18016741D02*
X7251283Y-18035789D01*
X7251283Y-18035789D02*
X7251283Y-18054836D01*
X7251283Y-18054836D02*
X7241759Y-18083408D01*
X7241759Y-18083408D02*
X7127473Y-18197693D01*
X7127473Y-18197693D02*
X7251283Y-18197693D01*
X7327473Y-17997693D02*
X7327473Y-18035789D01*
X7403664Y-17997693D02*
X7403664Y-18035789D01*
X7698902Y-18273884D02*
X7689378Y-18264360D01*
X7689378Y-18264360D02*
X7670330Y-18235789D01*
X7670330Y-18235789D02*
X7660807Y-18216741D01*
X7660807Y-18216741D02*
X7651283Y-18188170D01*
X7651283Y-18188170D02*
X7641759Y-18140550D01*
X7641759Y-18140550D02*
X7641759Y-18102455D01*
X7641759Y-18102455D02*
X7651283Y-18054836D01*
X7651283Y-18054836D02*
X7660807Y-18026265D01*
X7660807Y-18026265D02*
X7670330Y-18007217D01*
X7670330Y-18007217D02*
X7689378Y-17978646D01*
X7689378Y-17978646D02*
X7698902Y-17969122D01*
X7765569Y-18016741D02*
X7775092Y-18007217D01*
X7775092Y-18007217D02*
X7794140Y-17997693D01*
X7794140Y-17997693D02*
X7841759Y-17997693D01*
X7841759Y-17997693D02*
X7860807Y-18007217D01*
X7860807Y-18007217D02*
X7870330Y-18016741D01*
X7870330Y-18016741D02*
X7879854Y-18035789D01*
X7879854Y-18035789D02*
X7879854Y-18054836D01*
X7879854Y-18054836D02*
X7870330Y-18083408D01*
X7870330Y-18083408D02*
X7756045Y-18197693D01*
X7756045Y-18197693D02*
X7879854Y-18197693D01*
X8117950Y-18197693D02*
X8117950Y-17997693D01*
X8203664Y-18197693D02*
X8203664Y-18092931D01*
X8203664Y-18092931D02*
X8194140Y-18073884D01*
X8194140Y-18073884D02*
X8175092Y-18064360D01*
X8175092Y-18064360D02*
X8146521Y-18064360D01*
X8146521Y-18064360D02*
X8127473Y-18073884D01*
X8127473Y-18073884D02*
X8117950Y-18083408D01*
X8327473Y-18197693D02*
X8308426Y-18188170D01*
X8308426Y-18188170D02*
X8298902Y-18178646D01*
X8298902Y-18178646D02*
X8289378Y-18159598D01*
X8289378Y-18159598D02*
X8289378Y-18102455D01*
X8289378Y-18102455D02*
X8298902Y-18083408D01*
X8298902Y-18083408D02*
X8308426Y-18073884D01*
X8308426Y-18073884D02*
X8327473Y-18064360D01*
X8327473Y-18064360D02*
X8356045Y-18064360D01*
X8356045Y-18064360D02*
X8375092Y-18073884D01*
X8375092Y-18073884D02*
X8384616Y-18083408D01*
X8384616Y-18083408D02*
X8394140Y-18102455D01*
X8394140Y-18102455D02*
X8394140Y-18159598D01*
X8394140Y-18159598D02*
X8384616Y-18178646D01*
X8384616Y-18178646D02*
X8375092Y-18188170D01*
X8375092Y-18188170D02*
X8356045Y-18197693D01*
X8356045Y-18197693D02*
X8327473Y-18197693D01*
X8508426Y-18197693D02*
X8489378Y-18188170D01*
X8489378Y-18188170D02*
X8479854Y-18169122D01*
X8479854Y-18169122D02*
X8479854Y-17997693D01*
X8660807Y-18188170D02*
X8641759Y-18197693D01*
X8641759Y-18197693D02*
X8603664Y-18197693D01*
X8603664Y-18197693D02*
X8584616Y-18188170D01*
X8584616Y-18188170D02*
X8575093Y-18169122D01*
X8575093Y-18169122D02*
X8575093Y-18092931D01*
X8575093Y-18092931D02*
X8584616Y-18073884D01*
X8584616Y-18073884D02*
X8603664Y-18064360D01*
X8603664Y-18064360D02*
X8641759Y-18064360D01*
X8641759Y-18064360D02*
X8660807Y-18073884D01*
X8660807Y-18073884D02*
X8670331Y-18092931D01*
X8670331Y-18092931D02*
X8670331Y-18111979D01*
X8670331Y-18111979D02*
X8575093Y-18131027D01*
X8746521Y-18188170D02*
X8765569Y-18197693D01*
X8765569Y-18197693D02*
X8803664Y-18197693D01*
X8803664Y-18197693D02*
X8822712Y-18188170D01*
X8822712Y-18188170D02*
X8832235Y-18169122D01*
X8832235Y-18169122D02*
X8832235Y-18159598D01*
X8832235Y-18159598D02*
X8822712Y-18140550D01*
X8822712Y-18140550D02*
X8803664Y-18131027D01*
X8803664Y-18131027D02*
X8775093Y-18131027D01*
X8775093Y-18131027D02*
X8756045Y-18121503D01*
X8756045Y-18121503D02*
X8746521Y-18102455D01*
X8746521Y-18102455D02*
X8746521Y-18092931D01*
X8746521Y-18092931D02*
X8756045Y-18073884D01*
X8756045Y-18073884D02*
X8775093Y-18064360D01*
X8775093Y-18064360D02*
X8803664Y-18064360D01*
X8803664Y-18064360D02*
X8822712Y-18073884D01*
X8898902Y-18273884D02*
X8908426Y-18264360D01*
X8908426Y-18264360D02*
X8927474Y-18235789D01*
X8927474Y-18235789D02*
X8936997Y-18216741D01*
X8936997Y-18216741D02*
X8946521Y-18188170D01*
X8946521Y-18188170D02*
X8956045Y-18140550D01*
X8956045Y-18140550D02*
X8956045Y-18102455D01*
X8956045Y-18102455D02*
X8946521Y-18054836D01*
X8946521Y-18054836D02*
X8936997Y-18026265D01*
X8936997Y-18026265D02*
X8927474Y-18007217D01*
X8927474Y-18007217D02*
X8908426Y-17978646D01*
X8908426Y-17978646D02*
X8898902Y-17969122D01*
X3923839Y-18270210D02*
X4123839Y-18470210D01*
X4123839Y-18270210D02*
X3923839Y-18470210D01*
X4023839Y-18270210D02*
X4023839Y-18470210D01*
X3923839Y-18370210D02*
X4123839Y-18370210D01*
X4375092Y-18280741D02*
X4384616Y-18271217D01*
X4384616Y-18271217D02*
X4403664Y-18261693D01*
X4403664Y-18261693D02*
X4451283Y-18261693D01*
X4451283Y-18261693D02*
X4470330Y-18271217D01*
X4470330Y-18271217D02*
X4479854Y-18280741D01*
X4479854Y-18280741D02*
X4489378Y-18299789D01*
X4489378Y-18299789D02*
X4489378Y-18318836D01*
X4489378Y-18318836D02*
X4479854Y-18347408D01*
X4479854Y-18347408D02*
X4365568Y-18461693D01*
X4365568Y-18461693D02*
X4489378Y-18461693D01*
X4575092Y-18442646D02*
X4584616Y-18452170D01*
X4584616Y-18452170D02*
X4575092Y-18461693D01*
X4575092Y-18461693D02*
X4565568Y-18452170D01*
X4565568Y-18452170D02*
X4575092Y-18442646D01*
X4575092Y-18442646D02*
X4575092Y-18461693D01*
X4660806Y-18280741D02*
X4670330Y-18271217D01*
X4670330Y-18271217D02*
X4689378Y-18261693D01*
X4689378Y-18261693D02*
X4736997Y-18261693D01*
X4736997Y-18261693D02*
X4756045Y-18271217D01*
X4756045Y-18271217D02*
X4765568Y-18280741D01*
X4765568Y-18280741D02*
X4775092Y-18299789D01*
X4775092Y-18299789D02*
X4775092Y-18318836D01*
X4775092Y-18318836D02*
X4765568Y-18347408D01*
X4765568Y-18347408D02*
X4651283Y-18461693D01*
X4651283Y-18461693D02*
X4775092Y-18461693D01*
X4898902Y-18261693D02*
X4917949Y-18261693D01*
X4917949Y-18261693D02*
X4936997Y-18271217D01*
X4936997Y-18271217D02*
X4946521Y-18280741D01*
X4946521Y-18280741D02*
X4956045Y-18299789D01*
X4956045Y-18299789D02*
X4965568Y-18337884D01*
X4965568Y-18337884D02*
X4965568Y-18385503D01*
X4965568Y-18385503D02*
X4956045Y-18423598D01*
X4956045Y-18423598D02*
X4946521Y-18442646D01*
X4946521Y-18442646D02*
X4936997Y-18452170D01*
X4936997Y-18452170D02*
X4917949Y-18461693D01*
X4917949Y-18461693D02*
X4898902Y-18461693D01*
X4898902Y-18461693D02*
X4879854Y-18452170D01*
X4879854Y-18452170D02*
X4870330Y-18442646D01*
X4870330Y-18442646D02*
X4860806Y-18423598D01*
X4860806Y-18423598D02*
X4851283Y-18385503D01*
X4851283Y-18385503D02*
X4851283Y-18337884D01*
X4851283Y-18337884D02*
X4860806Y-18299789D01*
X4860806Y-18299789D02*
X4870330Y-18280741D01*
X4870330Y-18280741D02*
X4879854Y-18271217D01*
X4879854Y-18271217D02*
X4898902Y-18261693D01*
X5089378Y-18261693D02*
X5108426Y-18261693D01*
X5108426Y-18261693D02*
X5127473Y-18271217D01*
X5127473Y-18271217D02*
X5136997Y-18280741D01*
X5136997Y-18280741D02*
X5146521Y-18299789D01*
X5146521Y-18299789D02*
X5156045Y-18337884D01*
X5156045Y-18337884D02*
X5156045Y-18385503D01*
X5156045Y-18385503D02*
X5146521Y-18423598D01*
X5146521Y-18423598D02*
X5136997Y-18442646D01*
X5136997Y-18442646D02*
X5127473Y-18452170D01*
X5127473Y-18452170D02*
X5108426Y-18461693D01*
X5108426Y-18461693D02*
X5089378Y-18461693D01*
X5089378Y-18461693D02*
X5070330Y-18452170D01*
X5070330Y-18452170D02*
X5060806Y-18442646D01*
X5060806Y-18442646D02*
X5051283Y-18423598D01*
X5051283Y-18423598D02*
X5041759Y-18385503D01*
X5041759Y-18385503D02*
X5041759Y-18337884D01*
X5041759Y-18337884D02*
X5051283Y-18299789D01*
X5051283Y-18299789D02*
X5060806Y-18280741D01*
X5060806Y-18280741D02*
X5070330Y-18271217D01*
X5070330Y-18271217D02*
X5089378Y-18261693D01*
X5241759Y-18461693D02*
X5241759Y-18328360D01*
X5241759Y-18347408D02*
X5251283Y-18337884D01*
X5251283Y-18337884D02*
X5270330Y-18328360D01*
X5270330Y-18328360D02*
X5298902Y-18328360D01*
X5298902Y-18328360D02*
X5317949Y-18337884D01*
X5317949Y-18337884D02*
X5327473Y-18356931D01*
X5327473Y-18356931D02*
X5327473Y-18461693D01*
X5327473Y-18356931D02*
X5336997Y-18337884D01*
X5336997Y-18337884D02*
X5356045Y-18328360D01*
X5356045Y-18328360D02*
X5384616Y-18328360D01*
X5384616Y-18328360D02*
X5403664Y-18337884D01*
X5403664Y-18337884D02*
X5413187Y-18356931D01*
X5413187Y-18356931D02*
X5413187Y-18461693D01*
X5508426Y-18461693D02*
X5508426Y-18328360D01*
X5508426Y-18347408D02*
X5517949Y-18337884D01*
X5517949Y-18337884D02*
X5536997Y-18328360D01*
X5536997Y-18328360D02*
X5565568Y-18328360D01*
X5565568Y-18328360D02*
X5584616Y-18337884D01*
X5584616Y-18337884D02*
X5594140Y-18356931D01*
X5594140Y-18356931D02*
X5594140Y-18461693D01*
X5594140Y-18356931D02*
X5603664Y-18337884D01*
X5603664Y-18337884D02*
X5622711Y-18328360D01*
X5622711Y-18328360D02*
X5651283Y-18328360D01*
X5651283Y-18328360D02*
X5670330Y-18337884D01*
X5670330Y-18337884D02*
X5679854Y-18356931D01*
X5679854Y-18356931D02*
X5679854Y-18461693D01*
X6070330Y-18252170D02*
X5898902Y-18509312D01*
X6327473Y-18261693D02*
X6346521Y-18261693D01*
X6346521Y-18261693D02*
X6365568Y-18271217D01*
X6365568Y-18271217D02*
X6375092Y-18280741D01*
X6375092Y-18280741D02*
X6384616Y-18299789D01*
X6384616Y-18299789D02*
X6394140Y-18337884D01*
X6394140Y-18337884D02*
X6394140Y-18385503D01*
X6394140Y-18385503D02*
X6384616Y-18423598D01*
X6384616Y-18423598D02*
X6375092Y-18442646D01*
X6375092Y-18442646D02*
X6365568Y-18452170D01*
X6365568Y-18452170D02*
X6346521Y-18461693D01*
X6346521Y-18461693D02*
X6327473Y-18461693D01*
X6327473Y-18461693D02*
X6308426Y-18452170D01*
X6308426Y-18452170D02*
X6298902Y-18442646D01*
X6298902Y-18442646D02*
X6289378Y-18423598D01*
X6289378Y-18423598D02*
X6279854Y-18385503D01*
X6279854Y-18385503D02*
X6279854Y-18337884D01*
X6279854Y-18337884D02*
X6289378Y-18299789D01*
X6289378Y-18299789D02*
X6298902Y-18280741D01*
X6298902Y-18280741D02*
X6308426Y-18271217D01*
X6308426Y-18271217D02*
X6327473Y-18261693D01*
X6479854Y-18442646D02*
X6489378Y-18452170D01*
X6489378Y-18452170D02*
X6479854Y-18461693D01*
X6479854Y-18461693D02*
X6470330Y-18452170D01*
X6470330Y-18452170D02*
X6479854Y-18442646D01*
X6479854Y-18442646D02*
X6479854Y-18461693D01*
X6613187Y-18261693D02*
X6632235Y-18261693D01*
X6632235Y-18261693D02*
X6651283Y-18271217D01*
X6651283Y-18271217D02*
X6660807Y-18280741D01*
X6660807Y-18280741D02*
X6670330Y-18299789D01*
X6670330Y-18299789D02*
X6679854Y-18337884D01*
X6679854Y-18337884D02*
X6679854Y-18385503D01*
X6679854Y-18385503D02*
X6670330Y-18423598D01*
X6670330Y-18423598D02*
X6660807Y-18442646D01*
X6660807Y-18442646D02*
X6651283Y-18452170D01*
X6651283Y-18452170D02*
X6632235Y-18461693D01*
X6632235Y-18461693D02*
X6613187Y-18461693D01*
X6613187Y-18461693D02*
X6594140Y-18452170D01*
X6594140Y-18452170D02*
X6584616Y-18442646D01*
X6584616Y-18442646D02*
X6575092Y-18423598D01*
X6575092Y-18423598D02*
X6565568Y-18385503D01*
X6565568Y-18385503D02*
X6565568Y-18337884D01*
X6565568Y-18337884D02*
X6575092Y-18299789D01*
X6575092Y-18299789D02*
X6584616Y-18280741D01*
X6584616Y-18280741D02*
X6594140Y-18271217D01*
X6594140Y-18271217D02*
X6613187Y-18261693D01*
X6794140Y-18347408D02*
X6775092Y-18337884D01*
X6775092Y-18337884D02*
X6765568Y-18328360D01*
X6765568Y-18328360D02*
X6756045Y-18309312D01*
X6756045Y-18309312D02*
X6756045Y-18299789D01*
X6756045Y-18299789D02*
X6765568Y-18280741D01*
X6765568Y-18280741D02*
X6775092Y-18271217D01*
X6775092Y-18271217D02*
X6794140Y-18261693D01*
X6794140Y-18261693D02*
X6832235Y-18261693D01*
X6832235Y-18261693D02*
X6851283Y-18271217D01*
X6851283Y-18271217D02*
X6860807Y-18280741D01*
X6860807Y-18280741D02*
X6870330Y-18299789D01*
X6870330Y-18299789D02*
X6870330Y-18309312D01*
X6870330Y-18309312D02*
X6860807Y-18328360D01*
X6860807Y-18328360D02*
X6851283Y-18337884D01*
X6851283Y-18337884D02*
X6832235Y-18347408D01*
X6832235Y-18347408D02*
X6794140Y-18347408D01*
X6794140Y-18347408D02*
X6775092Y-18356931D01*
X6775092Y-18356931D02*
X6765568Y-18366455D01*
X6765568Y-18366455D02*
X6756045Y-18385503D01*
X6756045Y-18385503D02*
X6756045Y-18423598D01*
X6756045Y-18423598D02*
X6765568Y-18442646D01*
X6765568Y-18442646D02*
X6775092Y-18452170D01*
X6775092Y-18452170D02*
X6794140Y-18461693D01*
X6794140Y-18461693D02*
X6832235Y-18461693D01*
X6832235Y-18461693D02*
X6851283Y-18452170D01*
X6851283Y-18452170D02*
X6860807Y-18442646D01*
X6860807Y-18442646D02*
X6870330Y-18423598D01*
X6870330Y-18423598D02*
X6870330Y-18385503D01*
X6870330Y-18385503D02*
X6860807Y-18366455D01*
X6860807Y-18366455D02*
X6851283Y-18356931D01*
X6851283Y-18356931D02*
X6832235Y-18347408D01*
X7041759Y-18261693D02*
X7003664Y-18261693D01*
X7003664Y-18261693D02*
X6984616Y-18271217D01*
X6984616Y-18271217D02*
X6975092Y-18280741D01*
X6975092Y-18280741D02*
X6956045Y-18309312D01*
X6956045Y-18309312D02*
X6946521Y-18347408D01*
X6946521Y-18347408D02*
X6946521Y-18423598D01*
X6946521Y-18423598D02*
X6956045Y-18442646D01*
X6956045Y-18442646D02*
X6965568Y-18452170D01*
X6965568Y-18452170D02*
X6984616Y-18461693D01*
X6984616Y-18461693D02*
X7022711Y-18461693D01*
X7022711Y-18461693D02*
X7041759Y-18452170D01*
X7041759Y-18452170D02*
X7051283Y-18442646D01*
X7051283Y-18442646D02*
X7060807Y-18423598D01*
X7060807Y-18423598D02*
X7060807Y-18375979D01*
X7060807Y-18375979D02*
X7051283Y-18356931D01*
X7051283Y-18356931D02*
X7041759Y-18347408D01*
X7041759Y-18347408D02*
X7022711Y-18337884D01*
X7022711Y-18337884D02*
X6984616Y-18337884D01*
X6984616Y-18337884D02*
X6965568Y-18347408D01*
X6965568Y-18347408D02*
X6956045Y-18356931D01*
X6956045Y-18356931D02*
X6946521Y-18375979D01*
X7232235Y-18261693D02*
X7194140Y-18261693D01*
X7194140Y-18261693D02*
X7175092Y-18271217D01*
X7175092Y-18271217D02*
X7165568Y-18280741D01*
X7165568Y-18280741D02*
X7146521Y-18309312D01*
X7146521Y-18309312D02*
X7136997Y-18347408D01*
X7136997Y-18347408D02*
X7136997Y-18423598D01*
X7136997Y-18423598D02*
X7146521Y-18442646D01*
X7146521Y-18442646D02*
X7156045Y-18452170D01*
X7156045Y-18452170D02*
X7175092Y-18461693D01*
X7175092Y-18461693D02*
X7213188Y-18461693D01*
X7213188Y-18461693D02*
X7232235Y-18452170D01*
X7232235Y-18452170D02*
X7241759Y-18442646D01*
X7241759Y-18442646D02*
X7251283Y-18423598D01*
X7251283Y-18423598D02*
X7251283Y-18375979D01*
X7251283Y-18375979D02*
X7241759Y-18356931D01*
X7241759Y-18356931D02*
X7232235Y-18347408D01*
X7232235Y-18347408D02*
X7213188Y-18337884D01*
X7213188Y-18337884D02*
X7175092Y-18337884D01*
X7175092Y-18337884D02*
X7156045Y-18347408D01*
X7156045Y-18347408D02*
X7146521Y-18356931D01*
X7146521Y-18356931D02*
X7136997Y-18375979D01*
X7327473Y-18261693D02*
X7327473Y-18299789D01*
X7403664Y-18261693D02*
X7403664Y-18299789D01*
X7698902Y-18537884D02*
X7689378Y-18528360D01*
X7689378Y-18528360D02*
X7670330Y-18499789D01*
X7670330Y-18499789D02*
X7660807Y-18480741D01*
X7660807Y-18480741D02*
X7651283Y-18452170D01*
X7651283Y-18452170D02*
X7641759Y-18404550D01*
X7641759Y-18404550D02*
X7641759Y-18366455D01*
X7641759Y-18366455D02*
X7651283Y-18318836D01*
X7651283Y-18318836D02*
X7660807Y-18290265D01*
X7660807Y-18290265D02*
X7670330Y-18271217D01*
X7670330Y-18271217D02*
X7689378Y-18242646D01*
X7689378Y-18242646D02*
X7698902Y-18233122D01*
X7813188Y-18261693D02*
X7832235Y-18261693D01*
X7832235Y-18261693D02*
X7851283Y-18271217D01*
X7851283Y-18271217D02*
X7860807Y-18280741D01*
X7860807Y-18280741D02*
X7870330Y-18299789D01*
X7870330Y-18299789D02*
X7879854Y-18337884D01*
X7879854Y-18337884D02*
X7879854Y-18385503D01*
X7879854Y-18385503D02*
X7870330Y-18423598D01*
X7870330Y-18423598D02*
X7860807Y-18442646D01*
X7860807Y-18442646D02*
X7851283Y-18452170D01*
X7851283Y-18452170D02*
X7832235Y-18461693D01*
X7832235Y-18461693D02*
X7813188Y-18461693D01*
X7813188Y-18461693D02*
X7794140Y-18452170D01*
X7794140Y-18452170D02*
X7784616Y-18442646D01*
X7784616Y-18442646D02*
X7775092Y-18423598D01*
X7775092Y-18423598D02*
X7765569Y-18385503D01*
X7765569Y-18385503D02*
X7765569Y-18337884D01*
X7765569Y-18337884D02*
X7775092Y-18299789D01*
X7775092Y-18299789D02*
X7784616Y-18280741D01*
X7784616Y-18280741D02*
X7794140Y-18271217D01*
X7794140Y-18271217D02*
X7813188Y-18261693D01*
X8117950Y-18461693D02*
X8117950Y-18261693D01*
X8203664Y-18461693D02*
X8203664Y-18356931D01*
X8203664Y-18356931D02*
X8194140Y-18337884D01*
X8194140Y-18337884D02*
X8175092Y-18328360D01*
X8175092Y-18328360D02*
X8146521Y-18328360D01*
X8146521Y-18328360D02*
X8127473Y-18337884D01*
X8127473Y-18337884D02*
X8117950Y-18347408D01*
X8327473Y-18461693D02*
X8308426Y-18452170D01*
X8308426Y-18452170D02*
X8298902Y-18442646D01*
X8298902Y-18442646D02*
X8289378Y-18423598D01*
X8289378Y-18423598D02*
X8289378Y-18366455D01*
X8289378Y-18366455D02*
X8298902Y-18347408D01*
X8298902Y-18347408D02*
X8308426Y-18337884D01*
X8308426Y-18337884D02*
X8327473Y-18328360D01*
X8327473Y-18328360D02*
X8356045Y-18328360D01*
X8356045Y-18328360D02*
X8375092Y-18337884D01*
X8375092Y-18337884D02*
X8384616Y-18347408D01*
X8384616Y-18347408D02*
X8394140Y-18366455D01*
X8394140Y-18366455D02*
X8394140Y-18423598D01*
X8394140Y-18423598D02*
X8384616Y-18442646D01*
X8384616Y-18442646D02*
X8375092Y-18452170D01*
X8375092Y-18452170D02*
X8356045Y-18461693D01*
X8356045Y-18461693D02*
X8327473Y-18461693D01*
X8508426Y-18461693D02*
X8489378Y-18452170D01*
X8489378Y-18452170D02*
X8479854Y-18433122D01*
X8479854Y-18433122D02*
X8479854Y-18261693D01*
X8660807Y-18452170D02*
X8641759Y-18461693D01*
X8641759Y-18461693D02*
X8603664Y-18461693D01*
X8603664Y-18461693D02*
X8584616Y-18452170D01*
X8584616Y-18452170D02*
X8575093Y-18433122D01*
X8575093Y-18433122D02*
X8575093Y-18356931D01*
X8575093Y-18356931D02*
X8584616Y-18337884D01*
X8584616Y-18337884D02*
X8603664Y-18328360D01*
X8603664Y-18328360D02*
X8641759Y-18328360D01*
X8641759Y-18328360D02*
X8660807Y-18337884D01*
X8660807Y-18337884D02*
X8670331Y-18356931D01*
X8670331Y-18356931D02*
X8670331Y-18375979D01*
X8670331Y-18375979D02*
X8575093Y-18395027D01*
X8746521Y-18452170D02*
X8765569Y-18461693D01*
X8765569Y-18461693D02*
X8803664Y-18461693D01*
X8803664Y-18461693D02*
X8822712Y-18452170D01*
X8822712Y-18452170D02*
X8832235Y-18433122D01*
X8832235Y-18433122D02*
X8832235Y-18423598D01*
X8832235Y-18423598D02*
X8822712Y-18404550D01*
X8822712Y-18404550D02*
X8803664Y-18395027D01*
X8803664Y-18395027D02*
X8775093Y-18395027D01*
X8775093Y-18395027D02*
X8756045Y-18385503D01*
X8756045Y-18385503D02*
X8746521Y-18366455D01*
X8746521Y-18366455D02*
X8746521Y-18356931D01*
X8746521Y-18356931D02*
X8756045Y-18337884D01*
X8756045Y-18337884D02*
X8775093Y-18328360D01*
X8775093Y-18328360D02*
X8803664Y-18328360D01*
X8803664Y-18328360D02*
X8822712Y-18337884D01*
X9070331Y-18385503D02*
X9222712Y-18385503D01*
X9146521Y-18461693D02*
X9146521Y-18309312D01*
X9460807Y-18280741D02*
X9470331Y-18271217D01*
X9470331Y-18271217D02*
X9489378Y-18261693D01*
X9489378Y-18261693D02*
X9536997Y-18261693D01*
X9536997Y-18261693D02*
X9556045Y-18271217D01*
X9556045Y-18271217D02*
X9565569Y-18280741D01*
X9565569Y-18280741D02*
X9575093Y-18299789D01*
X9575093Y-18299789D02*
X9575093Y-18318836D01*
X9575093Y-18318836D02*
X9565569Y-18347408D01*
X9565569Y-18347408D02*
X9451283Y-18461693D01*
X9451283Y-18461693D02*
X9575093Y-18461693D01*
X9803664Y-18452170D02*
X9822712Y-18461693D01*
X9822712Y-18461693D02*
X9860807Y-18461693D01*
X9860807Y-18461693D02*
X9879855Y-18452170D01*
X9879855Y-18452170D02*
X9889378Y-18433122D01*
X9889378Y-18433122D02*
X9889378Y-18423598D01*
X9889378Y-18423598D02*
X9879855Y-18404550D01*
X9879855Y-18404550D02*
X9860807Y-18395027D01*
X9860807Y-18395027D02*
X9832236Y-18395027D01*
X9832236Y-18395027D02*
X9813188Y-18385503D01*
X9813188Y-18385503D02*
X9803664Y-18366455D01*
X9803664Y-18366455D02*
X9803664Y-18356931D01*
X9803664Y-18356931D02*
X9813188Y-18337884D01*
X9813188Y-18337884D02*
X9832236Y-18328360D01*
X9832236Y-18328360D02*
X9860807Y-18328360D01*
X9860807Y-18328360D02*
X9879855Y-18337884D01*
X10003664Y-18461693D02*
X9984617Y-18452170D01*
X9984617Y-18452170D02*
X9975093Y-18433122D01*
X9975093Y-18433122D02*
X9975093Y-18261693D01*
X10108426Y-18461693D02*
X10089378Y-18452170D01*
X10089378Y-18452170D02*
X10079855Y-18442646D01*
X10079855Y-18442646D02*
X10070331Y-18423598D01*
X10070331Y-18423598D02*
X10070331Y-18366455D01*
X10070331Y-18366455D02*
X10079855Y-18347408D01*
X10079855Y-18347408D02*
X10089378Y-18337884D01*
X10089378Y-18337884D02*
X10108426Y-18328360D01*
X10108426Y-18328360D02*
X10136998Y-18328360D01*
X10136998Y-18328360D02*
X10156045Y-18337884D01*
X10156045Y-18337884D02*
X10165569Y-18347408D01*
X10165569Y-18347408D02*
X10175093Y-18366455D01*
X10175093Y-18366455D02*
X10175093Y-18423598D01*
X10175093Y-18423598D02*
X10165569Y-18442646D01*
X10165569Y-18442646D02*
X10156045Y-18452170D01*
X10156045Y-18452170D02*
X10136998Y-18461693D01*
X10136998Y-18461693D02*
X10108426Y-18461693D01*
X10232236Y-18328360D02*
X10308426Y-18328360D01*
X10260807Y-18261693D02*
X10260807Y-18433122D01*
X10260807Y-18433122D02*
X10270331Y-18452170D01*
X10270331Y-18452170D02*
X10289378Y-18461693D01*
X10289378Y-18461693D02*
X10308426Y-18461693D01*
X10365569Y-18452170D02*
X10384617Y-18461693D01*
X10384617Y-18461693D02*
X10422712Y-18461693D01*
X10422712Y-18461693D02*
X10441759Y-18452170D01*
X10441759Y-18452170D02*
X10451283Y-18433122D01*
X10451283Y-18433122D02*
X10451283Y-18423598D01*
X10451283Y-18423598D02*
X10441759Y-18404550D01*
X10441759Y-18404550D02*
X10422712Y-18395027D01*
X10422712Y-18395027D02*
X10394140Y-18395027D01*
X10394140Y-18395027D02*
X10375093Y-18385503D01*
X10375093Y-18385503D02*
X10365569Y-18366455D01*
X10365569Y-18366455D02*
X10365569Y-18356931D01*
X10365569Y-18356931D02*
X10375093Y-18337884D01*
X10375093Y-18337884D02*
X10394140Y-18328360D01*
X10394140Y-18328360D02*
X10422712Y-18328360D01*
X10422712Y-18328360D02*
X10441759Y-18337884D01*
X10517950Y-18537884D02*
X10527474Y-18528360D01*
X10527474Y-18528360D02*
X10546521Y-18499789D01*
X10546521Y-18499789D02*
X10556045Y-18480741D01*
X10556045Y-18480741D02*
X10565569Y-18452170D01*
X10565569Y-18452170D02*
X10575093Y-18404550D01*
X10575093Y-18404550D02*
X10575093Y-18366455D01*
X10575093Y-18366455D02*
X10565569Y-18318836D01*
X10565569Y-18318836D02*
X10556045Y-18290265D01*
X10556045Y-18290265D02*
X10546521Y-18271217D01*
X10546521Y-18271217D02*
X10527474Y-18242646D01*
X10527474Y-18242646D02*
X10517950Y-18233122D01*
M02*
