%TF.GenerationSoftware,KiCad,Pcbnew,7.0.6*%
%TF.CreationDate,2024-05-15T12:06:43-04:00*%
%TF.ProjectId,remote_omnidirection_droid_v0.1,72656d6f-7465-45f6-9f6d-6e6964697265,rev?*%
%TF.SameCoordinates,Original*%
%TF.FileFunction,Soldermask,Top*%
%TF.FilePolarity,Negative*%
%FSLAX46Y46*%
G04 Gerber Fmt 4.6, Leading zero omitted, Abs format (unit mm)*
G04 Created by KiCad (PCBNEW 7.0.6) date 2024-05-15 12:06:43*
%MOMM*%
%LPD*%
G01*
G04 APERTURE LIST*
G04 Aperture macros list*
%AMRoundRect*
0 Rectangle with rounded corners*
0 $1 Rounding radius*
0 $2 $3 $4 $5 $6 $7 $8 $9 X,Y pos of 4 corners*
0 Add a 4 corners polygon primitive as box body*
4,1,4,$2,$3,$4,$5,$6,$7,$8,$9,$2,$3,0*
0 Add four circle primitives for the rounded corners*
1,1,$1+$1,$2,$3*
1,1,$1+$1,$4,$5*
1,1,$1+$1,$6,$7*
1,1,$1+$1,$8,$9*
0 Add four rect primitives between the rounded corners*
20,1,$1+$1,$2,$3,$4,$5,0*
20,1,$1+$1,$4,$5,$6,$7,0*
20,1,$1+$1,$6,$7,$8,$9,0*
20,1,$1+$1,$8,$9,$2,$3,0*%
%AMHorizOval*
0 Thick line with rounded ends*
0 $1 width*
0 $2 $3 position (X,Y) of the first rounded end (center of the circle)*
0 $4 $5 position (X,Y) of the second rounded end (center of the circle)*
0 Add line between two ends*
20,1,$1,$2,$3,$4,$5,0*
0 Add two circle primitives to create the rounded ends*
1,1,$1,$2,$3*
1,1,$1,$4,$5*%
%AMRotRect*
0 Rectangle, with rotation*
0 The origin of the aperture is its center*
0 $1 length*
0 $2 width*
0 $3 Rotation angle, in degrees counterclockwise*
0 Add horizontal line*
21,1,$1,$2,0,0,$3*%
G04 Aperture macros list end*
%ADD10RoundRect,0.100000X0.637500X0.100000X-0.637500X0.100000X-0.637500X-0.100000X0.637500X-0.100000X0*%
%ADD11RoundRect,0.250000X0.625000X-0.400000X0.625000X0.400000X-0.625000X0.400000X-0.625000X-0.400000X0*%
%ADD12R,1.300000X1.900000*%
%ADD13RoundRect,0.250000X-0.550000X1.250000X-0.550000X-1.250000X0.550000X-1.250000X0.550000X1.250000X0*%
%ADD14RoundRect,0.250000X0.650000X-0.412500X0.650000X0.412500X-0.650000X0.412500X-0.650000X-0.412500X0*%
%ADD15C,2.500000*%
%ADD16RoundRect,0.250000X0.658910X0.341266X-0.033910X0.741266X-0.658910X-0.341266X0.033910X-0.741266X0*%
%ADD17R,1.000000X1.900000*%
%ADD18RoundRect,0.250000X0.033910X0.741266X-0.658910X0.341266X-0.033910X-0.741266X0.658910X-0.341266X0*%
%ADD19RoundRect,0.250001X-0.713035X-0.310016X0.088036X-0.772515X0.713035X0.310016X-0.088036X0.772515X0*%
%ADD20RoundRect,0.250000X-0.658910X-0.341266X0.033910X-0.741266X0.658910X0.341266X-0.033910X0.741266X0*%
%ADD21RotRect,0.650000X0.400000X150.000000*%
%ADD22RoundRect,0.250000X-0.769167X0.032235X-0.356667X-0.682235X0.769167X-0.032235X0.356667X0.682235X0*%
%ADD23RoundRect,0.250000X-0.412500X-0.650000X0.412500X-0.650000X0.412500X0.650000X-0.412500X0.650000X0*%
%ADD24RotRect,1.900000X1.000000X30.000000*%
%ADD25RoundRect,0.250000X0.682235X0.356667X-0.032235X0.769167X-0.682235X-0.356667X0.032235X-0.769167X0*%
%ADD26R,1.000000X1.250000*%
%ADD27RoundRect,0.250000X-0.400000X-0.625000X0.400000X-0.625000X0.400000X0.625000X-0.400000X0.625000X0*%
%ADD28RoundRect,0.150000X-0.725000X-0.150000X0.725000X-0.150000X0.725000X0.150000X-0.725000X0.150000X0*%
%ADD29R,0.420766X1.955432*%
%ADD30R,2.770000X2.460000*%
%ADD31RotRect,1.900000X1.000000X150.000000*%
%ADD32R,1.955432X0.420766*%
%ADD33R,2.460000X2.770000*%
%ADD34RoundRect,0.250000X-0.033910X-0.741266X0.658910X-0.341266X0.033910X0.741266X-0.658910X0.341266X0*%
%ADD35RoundRect,0.250001X0.310016X-0.713035X0.772515X0.088036X-0.310016X0.713035X-0.772515X-0.088036X0*%
%ADD36RoundRect,0.250000X0.412500X0.650000X-0.412500X0.650000X-0.412500X-0.650000X0.412500X-0.650000X0*%
%ADD37RoundRect,0.250000X0.400000X0.625000X-0.400000X0.625000X-0.400000X-0.625000X0.400000X-0.625000X0*%
%ADD38RoundRect,0.250000X0.550000X-1.250000X0.550000X1.250000X-0.550000X1.250000X-0.550000X-1.250000X0*%
%ADD39C,0.650000*%
%ADD40RotRect,0.600000X1.150000X240.000000*%
%ADD41RotRect,0.300000X1.150000X240.000000*%
%ADD42HorizOval,1.000000X-0.476314X0.275000X0.476314X-0.275000X0*%
%ADD43HorizOval,1.000000X-0.346410X0.200000X0.346410X-0.200000X0*%
%ADD44RoundRect,0.150000X0.126346X0.518838X-0.386154X-0.368838X-0.126346X-0.518838X0.386154X0.368838X0*%
%ADD45RoundRect,0.650000X0.887917X-0.237917X0.237917X0.887917X-0.887917X0.237917X-0.237917X-0.887917X0*%
%ADD46C,2.600000*%
%ADD47C,1.625600*%
%ADD48R,0.254000X0.675000*%
%ADD49R,0.675000X0.254000*%
%ADD50RotRect,2.000000X1.500000X300.000000*%
%ADD51RotRect,2.000000X3.800000X300.000000*%
%ADD52RoundRect,0.250001X-0.088036X-0.772515X0.713035X-0.310016X0.088036X0.772515X-0.713035X0.310016X0*%
%ADD53C,3.500000*%
%ADD54R,1.700000X1.700000*%
%ADD55O,1.700000X1.700000*%
%ADD56RotRect,1.700000X1.700000X30.000000*%
%ADD57HorizOval,1.700000X0.000000X0.000000X0.000000X0.000000X0*%
%ADD58HorizOval,3.500000X-0.750000X-1.299038X0.750000X1.299038X0*%
%ADD59HorizOval,3.500000X1.299038X-0.750000X-1.299038X0.750000X0*%
%ADD60RotRect,1.700000X1.700000X150.000000*%
%ADD61HorizOval,1.700000X0.000000X0.000000X0.000000X0.000000X0*%
G04 APERTURE END LIST*
D10*
%TO.C,U5*%
X91006407Y-101677677D03*
X91006407Y-101027677D03*
X91006407Y-100377677D03*
X91006407Y-99727677D03*
X91006407Y-99077677D03*
X91006407Y-98427677D03*
X91006407Y-97777677D03*
X91006407Y-97127677D03*
X91006407Y-96477677D03*
X91006407Y-95827677D03*
X91006407Y-95177677D03*
X91006407Y-94527677D03*
X91006407Y-93877677D03*
X91006407Y-93227677D03*
X85281407Y-93227677D03*
X85281407Y-93877677D03*
X85281407Y-94527677D03*
X85281407Y-95177677D03*
X85281407Y-95827677D03*
X85281407Y-96477677D03*
X85281407Y-97127677D03*
X85281407Y-97777677D03*
X85281407Y-98427677D03*
X85281407Y-99077677D03*
X85281407Y-99727677D03*
X85281407Y-100377677D03*
X85281407Y-101027677D03*
X85281407Y-101677677D03*
%TD*%
D11*
%TO.C,R21*%
X109598389Y-110990569D03*
X109598389Y-107890569D03*
%TD*%
D12*
%TO.C,Y1*%
X98538387Y-103740569D03*
X104038387Y-103740569D03*
X104038387Y-100540569D03*
X98538387Y-100540569D03*
%TD*%
D13*
%TO.C,C11*%
X93998390Y-123192679D03*
X93998390Y-127592679D03*
%TD*%
D14*
%TO.C,C14*%
X107298389Y-103740572D03*
X107298389Y-100615572D03*
%TD*%
D15*
%TO.C,H1*%
X44788379Y-109415140D03*
%TD*%
D16*
%TO.C,R3*%
X64047595Y-113610619D03*
X61362917Y-112060619D03*
%TD*%
D17*
%TO.C,J4*%
X105098388Y-59480676D03*
X102558388Y-62780676D03*
X100018388Y-59480676D03*
X97478388Y-62780676D03*
%TD*%
D18*
%TO.C,R4*%
X72462485Y-143142310D03*
X69777807Y-144692310D03*
%TD*%
D19*
%TO.C,D6*%
X50492945Y-97012967D03*
X53069371Y-98500467D03*
%TD*%
D20*
%TO.C,R12*%
X147483777Y-123260869D03*
X150168455Y-124810869D03*
%TD*%
D21*
%TO.C,Q1*%
X65742955Y-104374188D03*
X66067955Y-103811271D03*
X66392955Y-103248354D03*
X64747507Y-102298354D03*
X64422507Y-102861271D03*
X64097507Y-103424188D03*
%TD*%
D22*
%TO.C,C2*%
X63414084Y-131499913D03*
X64976584Y-134206243D03*
%TD*%
D18*
%TO.C,R5*%
X71300472Y-141099643D03*
X68615794Y-142649643D03*
%TD*%
D14*
%TO.C,C10*%
X89498388Y-127403071D03*
X89498388Y-124278071D03*
%TD*%
D16*
%TO.C,R13*%
X148394839Y-127882862D03*
X145710161Y-126332862D03*
%TD*%
D14*
%TO.C,C16*%
X89998390Y-110703070D03*
X89998390Y-107578070D03*
%TD*%
D11*
%TO.C,R16*%
X82398388Y-105690571D03*
X82398388Y-102590571D03*
%TD*%
D23*
%TO.C,C18*%
X85635892Y-115240573D03*
X88760892Y-115240573D03*
%TD*%
D24*
%TO.C,J2*%
X54854692Y-129248092D03*
X58982576Y-129797797D03*
X57394692Y-133647501D03*
X61522576Y-134197206D03*
%TD*%
D15*
%TO.C,H2*%
X73038388Y-60450586D03*
%TD*%
D25*
%TO.C,C5*%
X62667582Y-116050886D03*
X59961252Y-114488386D03*
%TD*%
D26*
%TO.C,SW2*%
X118750908Y-58652678D03*
X118750908Y-66402678D03*
%TD*%
D27*
%TO.C,R17*%
X108564903Y-86886673D03*
X111664903Y-86886673D03*
%TD*%
D15*
%TO.C,H3*%
X129538386Y-60412098D03*
%TD*%
D19*
%TO.C,D1*%
X62774584Y-109615545D03*
X65351010Y-111103045D03*
%TD*%
D22*
%TO.C,C6*%
X73113566Y-125899913D03*
X74676066Y-128606243D03*
%TD*%
D28*
%TO.C,U7*%
X81923391Y-107735569D03*
X81923391Y-109005569D03*
X81923391Y-110275569D03*
X81923391Y-111545569D03*
X87073391Y-111545569D03*
X87073391Y-110275569D03*
X87073391Y-109005569D03*
X87073391Y-107735569D03*
%TD*%
D29*
%TO.C,MD2*%
X99013391Y-127893062D03*
X99663389Y-127893062D03*
X100313391Y-127893062D03*
X100963389Y-127893062D03*
X101613391Y-127893062D03*
X102263389Y-127893062D03*
X102913391Y-127893062D03*
X103563389Y-127893062D03*
X103563389Y-122142294D03*
X102913391Y-122142294D03*
X102263389Y-122142294D03*
X101613391Y-122142294D03*
X100963389Y-122142294D03*
X100313391Y-122142294D03*
X99663389Y-122142294D03*
X99013391Y-122142294D03*
D30*
X101288390Y-125017678D03*
%TD*%
D31*
%TO.C,J5*%
X142781243Y-137805888D03*
X141193359Y-133956183D03*
X145321243Y-133406479D03*
X143733359Y-129556774D03*
%TD*%
D22*
%TO.C,C7*%
X65579146Y-130249915D03*
X67141646Y-132956245D03*
%TD*%
D19*
%TO.C,D4*%
X49192952Y-99264634D03*
X51769378Y-100752134D03*
%TD*%
D20*
%TO.C,R6*%
X64186257Y-107170467D03*
X66870935Y-108720467D03*
%TD*%
D32*
%TO.C,MD1*%
X98788007Y-82731684D03*
X98788007Y-83381682D03*
X98788007Y-84031684D03*
X98788007Y-84681682D03*
X98788007Y-85331684D03*
X98788007Y-85981682D03*
X98788007Y-86631684D03*
X98788007Y-87281682D03*
X104538775Y-87281682D03*
X104538775Y-86631684D03*
X104538775Y-85981682D03*
X104538775Y-85331684D03*
X104538775Y-84681682D03*
X104538775Y-84031684D03*
X104538775Y-83381682D03*
X104538775Y-82731684D03*
D33*
X101663391Y-85006683D03*
%TD*%
D34*
%TO.C,R7*%
X61836326Y-141661858D03*
X64521004Y-140111858D03*
%TD*%
D15*
%TO.C,H6*%
X73038391Y-158450576D03*
%TD*%
D35*
%TO.C,D5*%
X68557535Y-105999188D03*
X70045035Y-103422762D03*
%TD*%
D36*
%TO.C,C9*%
X87069781Y-69922497D03*
X83944781Y-69922497D03*
%TD*%
D37*
%TO.C,R10*%
X87915908Y-59479679D03*
X84815908Y-59479679D03*
%TD*%
D11*
%TO.C,R22*%
X113288389Y-110990568D03*
X113288389Y-107890568D03*
%TD*%
D38*
%TO.C,C13*%
X115956906Y-83904677D03*
X115956906Y-79504677D03*
%TD*%
D39*
%TO.C,J1*%
X72818321Y-67535249D03*
X69928321Y-72540875D03*
D40*
X73904298Y-67804281D03*
X73504298Y-68497101D03*
D41*
X72929298Y-69493030D03*
X72429298Y-70359056D03*
X72179298Y-70792068D03*
X71679298Y-71658094D03*
D40*
X71104298Y-72654023D03*
X70704298Y-73346843D03*
X70704298Y-73346843D03*
X71104298Y-72654023D03*
D41*
X71429298Y-72091106D03*
X71929298Y-71225081D03*
X72679298Y-69926043D03*
X73179298Y-69060018D03*
D40*
X73504298Y-68497101D03*
X73904298Y-67804281D03*
D42*
X73966334Y-66546832D03*
D43*
X70346348Y-64456832D03*
D42*
X69646334Y-74029292D03*
D43*
X66026348Y-71939292D03*
%TD*%
D44*
%TO.C,U3*%
X74589566Y-74357362D03*
X73766842Y-73882362D03*
X72944118Y-73407362D03*
X71806618Y-75377570D03*
X72629342Y-75852570D03*
X73452066Y-76327570D03*
%TD*%
D27*
%TO.C,R18*%
X108564909Y-83126677D03*
X111664909Y-83126677D03*
%TD*%
%TO.C,R23*%
X79668388Y-115240569D03*
X82768388Y-115240569D03*
%TD*%
D45*
%TO.C,TP1*%
X69748627Y-154466371D03*
D46*
X67208627Y-150066962D03*
%TD*%
D15*
%TO.C,H4*%
X157788387Y-109439419D03*
%TD*%
D26*
%TO.C,SW1*%
X112908908Y-58652673D03*
X112908908Y-66402673D03*
%TD*%
D34*
%TO.C,R8*%
X60508920Y-139362721D03*
X63193598Y-137812721D03*
%TD*%
D14*
%TO.C,C4*%
X122306909Y-64852177D03*
X122306909Y-61727177D03*
%TD*%
D37*
%TO.C,R11*%
X93249908Y-59479682D03*
X90149908Y-59479682D03*
%TD*%
D16*
%TO.C,R9*%
X57899071Y-104060174D03*
X55214393Y-102510174D03*
%TD*%
D27*
%TO.C,R19*%
X106125907Y-122309580D03*
X109225907Y-122309580D03*
%TD*%
D11*
%TO.C,R15*%
X78698388Y-105690571D03*
X78698388Y-102590571D03*
%TD*%
D15*
%TO.C,H5*%
X129538380Y-158450572D03*
%TD*%
D47*
%TO.C,SW3*%
X49619374Y-116557189D03*
X50889374Y-118756894D03*
X52159374Y-120956598D03*
%TD*%
D48*
%TO.C,U6*%
X99038387Y-107788065D03*
D49*
X98900887Y-108700565D03*
X98900887Y-109200565D03*
X98900887Y-109700565D03*
X98900887Y-110200565D03*
D48*
X99038387Y-111113065D03*
X99538387Y-111113065D03*
X100038387Y-111113065D03*
X100538387Y-111113065D03*
X101038387Y-111113065D03*
X101538387Y-111113065D03*
X102038387Y-111113065D03*
X102538387Y-111113065D03*
X103038387Y-111113065D03*
X103538387Y-111113065D03*
D49*
X103675887Y-110200565D03*
X103675887Y-109700565D03*
X103675887Y-109200565D03*
X103675887Y-108700565D03*
D48*
X103538387Y-107788065D03*
X103038387Y-107788065D03*
X102538387Y-107788065D03*
X102038387Y-107788065D03*
X101538387Y-107788065D03*
X101038387Y-107788065D03*
X100538387Y-107788065D03*
X100038387Y-107788065D03*
X99538387Y-107788065D03*
%TD*%
D27*
%TO.C,R20*%
X106125905Y-128475782D03*
X109225905Y-128475782D03*
%TD*%
D14*
%TO.C,C15*%
X95198392Y-103740572D03*
X95198392Y-100615572D03*
%TD*%
%TO.C,C17*%
X93098388Y-110703070D03*
X93098388Y-107578070D03*
%TD*%
D50*
%TO.C,U2*%
X63241092Y-121600287D03*
X61249234Y-122750287D03*
D51*
X64399234Y-128206247D03*
D50*
X59257376Y-123900287D03*
%TD*%
D52*
%TO.C,D3*%
X64272856Y-145157049D03*
X66849282Y-143669549D03*
%TD*%
D36*
%TO.C,C8*%
X87069779Y-73830675D03*
X83944779Y-73830675D03*
%TD*%
D14*
%TO.C,C12*%
X120401905Y-82886173D03*
X120401905Y-79761173D03*
%TD*%
D50*
%TO.C,U1*%
X70775508Y-117250286D03*
X68783650Y-118400286D03*
D51*
X71933650Y-123856246D03*
D50*
X66791792Y-119550286D03*
%TD*%
D23*
%TO.C,C3*%
X89234910Y-69955680D03*
X92359910Y-69955680D03*
%TD*%
D37*
%TO.C,R14*%
X109124905Y-66083677D03*
X106024905Y-66083677D03*
%TD*%
D22*
%TO.C,C1*%
X69175139Y-128173771D03*
X70737639Y-130880101D03*
%TD*%
D52*
%TO.C,D2*%
X65447852Y-147192201D03*
X68024278Y-145704701D03*
%TD*%
D53*
%TO.C,M3*%
X111688223Y-155104218D03*
X90887897Y-155104220D03*
D54*
X110288226Y-135054220D03*
D55*
X107748226Y-135054220D03*
%TD*%
D53*
%TO.C,M2*%
X135632511Y-77613292D03*
X146032676Y-95626902D03*
D56*
X118968702Y-88850724D03*
D57*
X120238702Y-91050429D03*
%TD*%
D58*
%TO.C,J3*%
X54541853Y-107895386D03*
D59*
X49260893Y-104442277D03*
%TD*%
D53*
%TO.C,M1*%
X56549757Y-95629400D03*
X66949918Y-77615788D03*
D60*
X74613563Y-104441966D03*
D61*
X75883563Y-102242261D03*
%TD*%
M02*
